<svg xmlns="http://www.w3.org/2000/svg" viewBox="0 0 240.9449 198.4252"><defs><style>.a{fill:#231815;}.b{fill:#fff;}.c{fill:#e2356b;}.d{fill:#f692ab;}</style></defs><title>vldb2020-logo3-color-bb</title><path class="a" d="M237.0288,21.83A16.6337,16.6337,0,0,0,233.12,10.9206,21.3837,21.3837,0,0,0,216.3862,2.74c-.5322,0-1.0694.0205-1.6074.0625l-26.1953.1426A16.1357,16.1357,0,0,0,181.5615,4.6a.1571.1571,0,0,1-.1277.0054c-.6472-.2537-1.3066-.4876-1.9841-.69-.2041-.0606-.4082-.1182-.6143-.1709A29.5831,29.5831,0,0,0,173.6518,2.9q-.59-.0426-1.1816-.043H145.4877A16.17,16.17,0,0,0,134.9038,6.8a.16.16,0,0,1-.2112,0A16.1729,16.1729,0,0,0,124.13,2.8571H101.9819a16.1664,16.1664,0,0,0-4.0549.521.1515.1515,0,0,1-.0823-.0018,16.127,16.127,0,0,0-4.6978-.7243H82.5708a16.16,16.16,0,0,0-5.6321,1.01.1533.1533,0,0,1-.1018.0019A16.1887,16.1887,0,0,0,71.79,2.8571H59.8452A16.3592,16.3592,0,0,0,44.1973,14.4447L40.2618,27.3509a16.3545,16.3545,0,0,0-.327,8.2937l6.0135,27.2539a.1692.1692,0,0,1-.1651.2057H43.9057A16.36,16.36,0,0,0,27.986,75.696l-2.049,8.6582a16.2027,16.2027,0,0,0-.2354,6.2626.1542.1542,0,0,1-.0238.111,45.1212,45.1212,0,0,0-4.34,8.6228c-.1364.35-.26.7129-.37,1.0724L15.93,116.8522a16.1842,16.1842,0,0,0,.477,10.8091.1586.1586,0,0,1-.0392.1769,16.14,16.14,0,0,0-4.302,6.638L4.8731,155.7a16.7691,16.7691,0,0,0,.8407,13.1779,16.2318,16.2318,0,0,0,4.7154,5.4953l-.02.0566a16.2036,16.2036,0,0,0,4.84,17.4765,16.7467,16.7467,0,0,0,10.9438,3.8673H177.6147c6.8755,0,13.1689-3.589,17.26-9.8471a17.773,17.773,0,0,0,1.8632-3.9021c7.7481-22.2708,34.4961-136.7166,34.4493-137.282C231.1848,44.7076,237.0288,24.5876,237.0288,21.83Z"/><path class="b" d="M57.2638,61.0576a4.8574,4.8574,0,0,1-4.7432-3.81L46.1339,28.3018a4.8543,4.8543,0,0,1,.0976-2.4629l3.9844-13.0664a4.8565,4.8565,0,0,1,4.6455-3.44h12.07A4.8582,4.8582,0,0,1,71.58,15.5982l-.959,3.1621.624.0048,1.8076-6.1508a4.8577,4.8577,0,0,1,4.66-3.4873H88.2892A4.8574,4.8574,0,0,1,92.9474,15.36L88.7579,29.54a4.8786,4.8786,0,0,1-.4531,1.0542L72.1036,58.6309a4.8568,4.8568,0,0,1-4.2051,2.4267Z"/><path class="b" d="M89.42,61.0576a4.8845,4.8845,0,0,1-.7822-.0635,9.0343,9.0343,0,0,1-7.5313-8.9829,4.8526,4.8526,0,0,1,.1983-1.3745L92.4669,12.8145A4.8566,4.8566,0,0,1,97.1251,9.332h22.1484a4.8573,4.8573,0,0,1,4.6534,6.2491c-2.0342,6.7978-3.8711,13.4057-5.462,19.6494h6.4922a4.8574,4.8574,0,0,1,4.6026,6.4082c-1.15,3.414-2.5147,7.5805-4.0557,12.3877-.9258,5.1728-4.6836,7.0312-7.959,7.0312Z"/><path class="b" d="M127.7989,61.0576a4.8569,4.8569,0,0,1-4.6455-6.2759L135.9855,12.77a4.8578,4.8578,0,0,1,4.6455-3.438h26.9824q.1771,0,.3545.0132a18.2056,18.2056,0,0,1,3.1953.52q.0938.0236.1846.0513a11.9086,11.9086,0,0,1,6.4013,4.3882,6.4369,6.4369,0,0,1,1.1953,4.0151c0,2.896-.957,9.2837-8.4238,33.1773-1.06,3.5786-4.0947,6.65-8.9951,9.0615a4.8642,4.8642,0,0,1-2.1445.499Zm21.3653-29.2705a4.8164,4.8164,0,0,0,3.0976.8067,3.5878,3.5878,0,0,0,2.3506-.7178c.3516-.271.3516-.37.3516-.6362a2.1662,2.1662,0,0,0-.7022-1.7984,2.95,2.95,0,0,0-2.2344-.7861,3.0051,3.0051,0,0,0-2.3.8379,2.686,2.686,0,0,0-.958,1.4883A1.16,1.16,0,0,0,149.1642,31.7871Z"/><path class="b" d="M170.9825,61.0576a4.8578,4.8578,0,0,1-4.6445-6.2783L179.17,12.8555A4.8577,4.8577,0,0,1,183.7882,9.42l26.6826-.1445a9.4173,9.4173,0,0,1,1.0586-.06,9.9292,9.9292,0,0,1,8.1543,4.2734,5.3548,5.3548,0,0,1,1.1553,3.4839c0,1.4155-.3623,4.1323-2.9951,14.3384a11.0486,11.0486,0,0,1-3.7217,5.4252l-.1836.1617a11.0907,11.0907,0,0,1,1.1289,4.684,6.8924,6.8924,0,0,1-.292,1.982l-2.9619,10.63a4.8565,4.8565,0,0,1-.583,1.3061c-2.9268,4.5933-6.4873,5.5576-8.959,5.5576ZM184.7745,46.24c0,.2041,0,.38.3692.7324a4.48,4.48,0,0,0,3.0947.8559,3.6743,3.6743,0,0,0,2.3818-.7124.6278.6278,0,0,0,.32-.6709,2.1349,2.1349,0,0,0-.7021-1.769,3.5281,3.5281,0,0,0-4.5108.0586,2.8409,2.8409,0,0,0-.9531,1.4682Zm6.1524-17.7833a.8854.8854,0,0,0,.3691.7618,4.5766,4.5766,0,0,0,3.0947.8266,3.7243,3.7243,0,0,0,2.3985-.71c.2265-.1709.3037-.2281.3037-.6734a2.1349,2.1349,0,0,0-.7022-1.769,3.528,3.528,0,0,0-4.5107.0586,2.8409,2.8409,0,0,0-.9531,1.4682Z"/><path class="b" d="M26.5509,121.5977a4.857,4.857,0,0,1-4.6436-6.2808l5.0391-16.4355c.0361-.1167.0762-.2325.12-.3462,1.9385-4.9522,4.1074-8.2735,6.6328-10.1534a10.7259,10.7259,0,0,1,1.1543-.7221,4.8558,4.8558,0,0,1-2.7461-5.5532l2.08-8.7891a4.8569,4.8569,0,0,1,4.7266-3.7383H67.42a4.8342,4.8342,0,0,1,1.0059.1055,10.9292,10.9292,0,0,1,6.0312,3.0517A9.2862,9.2862,0,0,1,76.7,79.2407q0,.8914-.0674,2.0225a4.8525,4.8525,0,0,1-.1728,1.0234c-.65,2.3057-1.8233,5.6949-3.5889,10.3618-.0371.0967-.0762.1924-.1191.2867A9.833,9.833,0,0,1,69.76,96.7065a4.8615,4.8615,0,0,1,1.7353,5.4722c-1.1777,3.4951-2.9346,8.8926-5.2207,16.0415a4.8568,4.8568,0,0,1-4.626,3.3775Z"/><path class="b" d="M74.5392,121.5977a4.8848,4.8848,0,0,1-.7823-.0635,9.0387,9.0387,0,0,1-7.5312-8.9829,4.845,4.845,0,0,1,.2129-1.4229L77.0148,76.6167a4.8217,4.8217,0,0,1,.3779-.8989,10.6719,10.6719,0,0,1,6.06-5.2808c.0362-.0122.0733-.0234.11-.0346a23.3087,23.3087,0,0,1,6.415-.5889h20.7129c.1074,0,.2158.0034.3233.0107a9.8481,9.8481,0,0,1,3.2519.7925,12.0577,12.0577,0,0,1,5.4668,4.2954,6.5056,6.5056,0,0,1,1.1172,3.8892c0,3.1-1.18,10.02-10.3809,36.2373a4.8306,4.8306,0,0,1-.4873,1.0014c-2.9267,4.5933-6.5029,5.5577-8.9883,5.5577ZM91.1,92.3272a4.7577,4.7577,0,0,0,3.0684.8066,3.6471,3.6471,0,0,0,2.3779-.7271c.3535-.27.3535-.36.3535-.6269a2.1487,2.1487,0,0,0-.7041-1.7876,2.9667,2.9667,0,0,0-2.2324-.7969,3.09,3.09,0,0,0-2.3242.8487,2.5152,2.5152,0,0,0-.9336,1.4462A1.14,1.14,0,0,0,91.1,92.3272Z"/><path class="b" d="M112.9181,121.5977a4.857,4.857,0,0,1-4.6436-6.2808l5.0391-16.4355c.0361-.1167.0762-.2325.12-.3462,1.9385-4.9522,4.1074-8.2735,6.6328-10.1534a10.7161,10.7161,0,0,1,1.1543-.7221,4.8558,4.8558,0,0,1-2.7461-5.5532l2.08-8.7891a4.8568,4.8568,0,0,1,4.7266-3.7383h28.5058a4.8342,4.8342,0,0,1,1.0059.1055,10.9292,10.9292,0,0,1,6.0312,3.0517,9.2862,9.2862,0,0,1,2.2432,6.5044q0,.8914-.0674,2.0225a4.8525,4.8525,0,0,1-.1728,1.0234c-.65,2.3057-1.8233,5.6949-3.5889,10.3618-.0371.0967-.0762.1924-.1192.2867a9.8318,9.8318,0,0,1-2.9921,3.7714,4.8615,4.8615,0,0,1,1.7353,5.4722c-1.1777,3.4951-2.9346,8.8926-5.2207,16.0415a4.8569,4.8569,0,0,1-4.626,3.3775Z"/><path class="b" d="M160.9064,121.5977a4.8848,4.8848,0,0,1-.7823-.0635,9.0387,9.0387,0,0,1-7.5312-8.9829,4.845,4.845,0,0,1,.2129-1.4229l10.5761-34.5117a4.8221,4.8221,0,0,1,.378-.8989A10.6719,10.6719,0,0,1,169.82,70.437c.0361-.0122.0733-.0234.11-.0346a23.3087,23.3087,0,0,1,6.415-.5889h20.7129c.1074,0,.2158.0034.3232.0107a9.8487,9.8487,0,0,1,3.252.7925,12.0577,12.0577,0,0,1,5.4668,4.2954,6.5056,6.5056,0,0,1,1.1172,3.8892c0,3.1-1.18,10.02-10.3809,36.2373a4.8306,4.8306,0,0,1-.4873,1.0014c-2.9267,4.5933-6.5029,5.5577-8.9883,5.5577Zm16.5605-29.27a4.7577,4.7577,0,0,0,3.0684.8066,3.6471,3.6471,0,0,0,2.3779-.7271c.3535-.27.3535-.36.3535-.6269a2.1487,2.1487,0,0,0-.7041-1.7876,2.9667,2.9667,0,0,0-2.2324-.7969,3.0894,3.0894,0,0,0-2.3242.8487,2.5146,2.5146,0,0,0-.9336,1.4462A1.14,1.14,0,0,0,177.4669,92.3272Z"/><path class="b" d="M20.9005,179.583A4.8572,4.8572,0,0,1,16.296,173.18l3.9727-11.8272H15.1935a4.8564,4.8564,0,0,1-4.6-6.416l7.3476-21.6806a4.8563,4.8563,0,0,1,4.5908-3.2979l31.9893-.0556a4.8576,4.8576,0,0,1,4.624,6.3432l-6.9863,21.7363a4.8577,4.8577,0,0,1-4.624,3.3706h-6.462l-4.5664,14.8052a4.8583,4.8583,0,0,1-4.6416,3.4253Z"/><path class="b" d="M54.0821,179.583a4.8521,4.8521,0,0,1-.6172-.04,7.7505,7.7505,0,0,1-4.9033-2.6485,8.0265,8.0265,0,0,1-1.98-5.37,4.8536,4.8536,0,0,1,.2128-1.4243l8.043-26.2168a4.9239,4.9239,0,0,1,.41-.957,9.3584,9.3584,0,0,1,5.3076-4.5259c.041-.0132.082-.0254.123-.0376a19.0658,19.0658,0,0,1,5.1485-.4727H81.58q.2109,0,.4219.0186a8.9118,8.9118,0,0,1,2.6757.668,10.1969,10.1969,0,0,1,4.712,3.7094c.0468.0669.0927.1358.1367.2051a6.1288,6.1288,0,0,1,.8886,3.3731c0,2.47-.8974,7.88-7.8955,27.955a4.8245,4.8245,0,0,1-.5254,1.0659c-2.5468,3.8824-5.6269,4.6973-7.7617,4.6973Zm13.62-24.1538a3.7569,3.7569,0,0,0,1.3251.19,1.7662,1.7662,0,0,0,.8965-.2016.4058.4058,0,0,0-.1367-.2036,1.11,1.11,0,0,0-.8984-.29,1.2153,1.2153,0,0,0-1.0078.3179C67.8077,155.312,67.7491,155.3745,67.7023,155.4292Z"/><path class="b" d="M106.545,179.583a4.8574,4.8574,0,0,1-4.3789-2.7554L99.47,171.21l-.5586-.0044-1.6718,5.0478a4.8569,4.8569,0,0,1-4.61,3.33H83.3048a4.8574,4.8574,0,0,1-4.6445-6.2783L88.43,141.3809a4.8574,4.8574,0,0,1,4.6445-3.4356c.0156,0,8.8145.0845,8.8145.0845a4.8568,4.8568,0,0,1,4.6133,3.4883l.041-.1265a4.8569,4.8569,0,0,1,4.6211-3.3623H118.93a4.8567,4.8567,0,0,1,4.7168,6.0132l-4.9258,20.0947a4.8188,4.8188,0,0,1-.1719.5571,11.0271,11.0271,0,0,1-3.333,4.9175l1.419,3.084a4.8566,4.8566,0,0,1-4.4121,6.8872Z"/><path class="b" d="M124.5235,179.583a4.857,4.857,0,0,1-4.6025-6.4092l2.7861-8.2592c-4.039-.0342-6.88-2.7305-6.88-6.5811a7.7822,7.7822,0,0,1,.6953-3.1186l4.83-13.9971a4.8567,4.8567,0,0,1,4.5909-3.2725h9.1289a4.8562,4.8562,0,0,1,3.9052,1.97q.0968.1311.1846.2676a4.8587,4.8587,0,0,1,4.125-2.3755s8.0225-.0844,8.0391-.0844a4.8569,4.8569,0,0,1,4.65,6.2573l-4.3418,14.418c-.7344,2.6162-2.919,4.7172-6.4678,6.16a4.8563,4.8563,0,0,1-1.7793.357l-1.93.02L138.0187,176.15a4.8578,4.8578,0,0,1-4.6436,3.4331Z"/><path class="b" d="M152.6075,179.583a4.8521,4.8521,0,0,1-.6172-.04,7.7505,7.7505,0,0,1-4.9033-2.6485,8.0266,8.0266,0,0,1-1.98-5.37,4.8537,4.8537,0,0,1,.2129-1.4243l8.043-26.2168a4.9117,4.9117,0,0,1,.41-.957,9.3582,9.3582,0,0,1,5.3076-4.5259c.041-.0132.082-.0254.123-.0376a19.0658,19.0658,0,0,1,5.1485-.4727h15.7539q.2109,0,.4218.0186a8.9117,8.9117,0,0,1,2.6758.668,10.1961,10.1961,0,0,1,4.7119,3.7094c.0469.0669.0928.1358.1368.2051a6.1288,6.1288,0,0,1,.8886,3.3731c0,2.47-.8974,7.88-7.8955,27.955a4.8245,4.8245,0,0,1-.5254,1.0659c-2.5468,3.8824-5.6269,4.6973-7.7617,4.6973Zm13.62-24.1538a3.7579,3.7579,0,0,0,1.3252.19,1.7662,1.7662,0,0,0,.8965-.2016.4058.4058,0,0,0-.1367-.2036,1.11,1.11,0,0,0-.8984-.29,1.2153,1.2153,0,0,0-1.0078.3179C166.3331,155.312,166.2745,155.3745,166.2276,155.4292Z"/><path class="c" d="M67.8985,56.2007H57.2638L50.8771,27.2554,54.8614,14.189h12.07L64.09,23.564l10.7813.0879,2.8418-9.668H88.2892L84.1,28.1636Z"/><path class="c" d="M89.42,56.2007a4.0407,4.0407,0,0,1-2.4472-1.3916,4.106,4.106,0,0,1-1.01-2.7979L97.1251,14.189h22.1484q-3.164,10.5762-5.625,20.2734a12.0873,12.0873,0,0,0-.2343,2.3145q0,3.3105,2.1093,3.3105h9.4336Q123.17,45.39,120.7677,52.89q-.4687,3.3107-3.2227,3.3106Z"/><path class="c" d="M165.8849,50.0483q-1.0254,3.4571-6.5039,6.1524H127.7989L140.631,14.189h26.9824a13.3356,13.3356,0,0,1,2.3437.3808,7.1267,7.1267,0,0,1,3.8965,2.6367,1.88,1.88,0,0,1,.2344,1.1133Q174.088,23.7984,165.8849,50.0483ZM152.2618,37.4507a8.4493,8.4493,0,0,0,5.3164-1.7285A5.4066,5.4066,0,0,0,159.82,31.24a6.9968,6.9968,0,0,0-2.2422-5.3467,8.4085,8.4085,0,0,0-11.2051.0879,7.2432,7.2432,0,0,0-2.4609,4.79v.1465a6.0494,6.0494,0,0,0,1.875,4.3652A9.1693,9.1693,0,0,0,152.2618,37.4507Z"/><path class="c" d="M210.797,14.13a4.8133,4.8133,0,0,1,.7324-.0586,5.2633,5.2633,0,0,1,4.3652,2.4609q.0879.0587.0879.44,0,2.1093-2.8418,13.125a6.8339,6.8339,0,0,1-2.2558,3.0176,9.4638,9.4638,0,0,1-4.2774,2.373,6.9185,6.9185,0,0,1,2.5489,2.7246,7.03,7.03,0,0,1,1.0546,3.3691,2.03,2.03,0,0,1-.0879.586L207.1349,52.89q-2.1094,3.3107-4.8633,3.3106H170.9825l12.8321-41.9238ZM188.2384,52.6851a8.5458,8.5458,0,0,0,5.3164-1.6993,5.4125,5.4125,0,0,0,2.2422-4.541,6.9633,6.9633,0,0,0-2.2422-5.3174,8.3669,8.3669,0,0,0-11.2051.1172,7.1752,7.1752,0,0,0-2.4316,4.7608V46.24a5.6717,5.6717,0,0,0,1.875,4.248A8.9861,8.9861,0,0,0,188.2384,52.6851Zm6.1523-17.7832a8.5965,8.5965,0,0,0,5.3164-1.6846,5.402,5.402,0,0,0,2.2422-4.5557,6.963,6.963,0,0,0-2.2422-5.3174,8.3667,8.3667,0,0,0-11.205.1172,7.1754,7.1754,0,0,0-2.4317,4.7608v.2343a5.7034,5.7034,0,0,0,1.875,4.2774A9.0608,9.0608,0,0,0,194.3907,34.9019Z"/><path class="d" d="M53.7091,83.2251H36.8341l2.08-8.7891H67.42a6.4838,6.4838,0,0,1,3.4571,1.5821,4.64,4.64,0,0,1,.9668,3.2226q0,.7617-.0586,1.7285-.9083,3.2227-3.4571,9.961-1.8456,4.0722-10.6933,4.0722h-.2637a7.1934,7.1934,0,0,0-4.043.9668,4.38,4.38,0,0,0-1.582,2.2559q-.3809,1.2012-.6738,2.4023h15.82q-1.7871,5.3028-5.2442,16.1133H26.5509l5.039-16.4355q2.3731-6.0645,5.01-8.0274,1.875-1.3476,5.8594-1.4941h8.76q5.42-1.7871,5.42-4.1309a3.2669,3.2669,0,0,0-1.377-2.3144Q54.5293,83.811,53.7091,83.2251Z"/><path class="d" d="M74.5392,116.7407a4.0355,4.0355,0,0,1-2.4453-1.3916,4.1075,4.1075,0,0,1-1.0118-2.7978L81.6583,78.04a5.8905,5.8905,0,0,1,3.3106-2.9883,20.9544,20.9544,0,0,1,5.01-.3809h20.7129a5.0173,5.0173,0,0,1,1.7285.4395,7.2427,7.2427,0,0,1,3.3692,2.6367,1.9484,1.9484,0,0,1,.205,1.0547q0,5.83-10.1074,34.6289-2.1093,3.3105-4.8926,3.3105Zm19.6289-18.75A8.5129,8.5129,0,0,0,99.5,96.2622,5.3941,5.3941,0,0,0,101.756,91.78,6.9743,6.9743,0,0,0,99.5,86.4331a7.8345,7.8345,0,0,0-5.5371-2.0947,7.9188,7.9188,0,0,0-5.668,2.1826,7.0975,7.0975,0,0,0-2.4472,4.79v.1465a6.05,6.05,0,0,0,1.875,4.3653A9.1255,9.1255,0,0,0,94.1681,97.9907Z"/><path class="d" d="M140.0763,83.2251h-16.875l2.08-8.7891h28.5058a6.483,6.483,0,0,1,3.457,1.5821,4.64,4.64,0,0,1,.9668,3.2226q0,.7617-.0586,1.7285-.9081,3.2227-3.457,9.961-1.8458,4.0722-10.6933,4.0722h-.2637a7.1932,7.1932,0,0,0-4.043.9668,4.3794,4.3794,0,0,0-1.582,2.2559q-.3809,1.2012-.6738,2.4023h15.82q-1.7871,5.3028-5.2442,16.1133H112.9181l5.039-16.4355q2.3731-6.0645,5.01-8.0274,1.875-1.3476,5.8594-1.4941h8.76q5.42-1.7871,5.42-4.1309a3.2669,3.2669,0,0,0-1.377-2.3144Q140.8966,83.811,140.0763,83.2251Z"/><path class="d" d="M160.9064,116.7407a4.036,4.036,0,0,1-2.4454-1.3916,4.1079,4.1079,0,0,1-1.0117-2.7978L168.0255,78.04a5.8907,5.8907,0,0,1,3.3105-2.9883,20.956,20.956,0,0,1,5.01-.3809h20.7129a5.0173,5.0173,0,0,1,1.7285.4395,7.2427,7.2427,0,0,1,3.3692,2.6367,1.9484,1.9484,0,0,1,.205,1.0547q0,5.83-10.1074,34.6289-2.1093,3.3105-4.8926,3.3105Zm19.6289-18.75a8.5131,8.5131,0,0,0,5.332-1.7285,5.394,5.394,0,0,0,2.2558-4.4824,6.9742,6.9742,0,0,0-2.2558-5.3467,7.8345,7.8345,0,0,0-5.5371-2.0947,7.9188,7.9188,0,0,0-5.668,2.1826,7.098,7.098,0,0,0-2.4473,4.79v.1465a6.05,6.05,0,0,0,1.875,4.3653A9.1258,9.1258,0,0,0,180.5353,97.9907Z"/><path class="c" d="M20.9005,174.7261l6.123-18.2305h-11.83l7.3476-21.6807,31.9805-.0556-6.9863,21.7363H37.4884l-5.6231,18.2305Z"/><path class="c" d="M54.0821,174.7261a2.9133,2.9133,0,0,1-1.8652-1.0293,3.1825,3.1825,0,0,1-.7793-2.1719l8.043-26.2168a4.5869,4.5869,0,0,1,2.56-2.2832,16.3854,16.3854,0,0,1,3.7852-.2773H81.58a4.0832,4.0832,0,0,1,1.2793.3339,5.3954,5.3954,0,0,1,2.5605,2.004,1.5575,1.5575,0,0,1,.1387.7793q0,4.481-7.625,26.3564-1.6436,2.5048-3.7012,2.5049Zm14.9453-14.25a6.5163,6.5163,0,0,0,4.0352-1.3223,4.0579,4.0579,0,0,0,1.7539-3.3808,5.3721,5.3721,0,0,0-1.7109-4.1055,5.9425,5.9425,0,0,0-4.2168-1.6006,6.0518,6.0518,0,0,0-4.3848,1.6836,5.3715,5.3715,0,0,0-1.8223,3.66v.14a4.5248,4.5248,0,0,0,1.4473,3.2832A6.9458,6.9458,0,0,0,69.0274,160.4761Z"/><path class="c" d="M93.0743,142.8023l8.7676.0839-4.7051,16.087h8.8242l5.2032-16.087H118.93L114.004,162.981q-1.28,3.3954-3.4238,3.3955H108.381l3.8418,8.35H106.545l-4.0078-8.35-7.125-.0557-2.7832,8.4053H83.3048Z"/><path class="c" d="M151.3263,142.58l-4.3418,14.418q-.501,1.7813-3.6465,3.06l-5.4824.0567-4.4805,14.6113h-8.8516l4.9278-14.6113-6.625-.0567q-2.1417,0-2.1426-1.7246a3.3015,3.3015,0,0,1,.3613-1.3359l4.8985-14.1953h9.1289l-2.1426,6.9863,8.2109.2226,2.1973-7.3476Z"/><path class="c" d="M152.6075,174.7261a2.9133,2.9133,0,0,1-1.8652-1.0293,3.1825,3.1825,0,0,1-.7793-2.1719l8.043-26.2168a4.5866,4.5866,0,0,1,2.56-2.2832,16.3854,16.3854,0,0,1,3.7852-.2773h15.7539a4.0832,4.0832,0,0,1,1.2793.3339,5.3958,5.3958,0,0,1,2.5605,2.004,1.5575,1.5575,0,0,1,.1387.7793q0,4.481-7.625,26.3564-1.6435,2.5048-3.7012,2.5049Zm14.9453-14.25a6.5163,6.5163,0,0,0,4.0352-1.3223,4.0579,4.0579,0,0,0,1.7539-3.3808,5.3721,5.3721,0,0,0-1.7109-4.1055,5.9425,5.9425,0,0,0-4.2168-1.6006,6.0518,6.0518,0,0,0-4.3848,1.6836,5.3715,5.3715,0,0,0-1.8223,3.66v.14a4.5248,4.5248,0,0,0,1.4473,3.2832A6.9458,6.9458,0,0,0,167.5528,160.4761Z"/></svg>