<svg xmlns="http://www.w3.org/2000/svg" viewBox="0 0 581.1024 99.2126"><defs><style>.a{fill:#231815;}.b{fill:#fff;}.c{fill:#e2356b;}.d{fill:#f692ab;}</style></defs><title>vldb2020-logo1-color-db</title><rect class="a" width="581.1024" height="99.2126"/><path class="a" d="M538.04,92.5226c-3.6953-.06-49.2285-.0908-135.3339-.0908-146.625,0-363.0489.09-365.2178.0913A21.9024,21.9024,0,0,1,16.2332,75.4479L9.8465,46.5026a21.8084,21.8084,0,0,1,.4355-11.0381l3.9844-13.0659A21.6458,21.6458,0,0,1,35.0848,6.9821h12.07a21.7652,21.7652,0,0,1,4.9873.5786,21.76,21.76,0,0,1,5.7939-.7837H68.5125a21.7141,21.7141,0,0,1,4.93.5727,21.6313,21.6313,0,0,1,3.9053-.3676H99.4959a21.701,21.701,0,0,1,10.6885,2.8061,21.6741,21.6741,0,0,1,10.6689-2.8061h26.9824q.7955,0,1.5879.0581a35.26,35.26,0,0,1,6.1612,1.0044c.2783.0717.5517.1474.8242.2285q.1392.0417.2754.0874a21.5975,21.5975,0,0,1,7.2343-1.29l26.0049-.1411c.6114-.0429,1.2266-.0644,1.8282-.0644a26.4915,26.4915,0,0,1,7.6328,1.1245,21.56,21.56,0,0,1,7.3672-1.3h28.5058a21.8044,21.8044,0,0,1,4.5088.4722,32.6634,32.6634,0,0,1,5.2744,1.583c.3125-.1221.6377-.2427.9707-.3521.166-.0547.3311-.1064.4961-.1562a37.5691,37.5691,0,0,1,11.3086-1.3125h20.7129c.4824,0,.9668.0161,1.4482.0483a26.6872,26.6872,0,0,1,5.7481,1.0269,21.5726,21.5726,0,0,1,7.3935-1.31h28.5059a21.8044,21.8044,0,0,1,4.5088.4722,32.6634,32.6634,0,0,1,5.2744,1.583c.3115-.1221.6377-.2427.9707-.3521.166-.0547.3311-.1064.4961-.1562a37.5691,37.5691,0,0,1,11.3086-1.3125h20.7129c.4824,0,.9668.0161,1.4482.0483a26.5522,26.5522,0,0,1,6.4043,1.2466,21.6113,21.6113,0,0,1,7.168-1.2363l33.7-.0586a21.84,21.84,0,0,1,17.1846,8.4082H442.1c.6269,0,1.2607.0273,1.8847.0815a25.6926,25.6926,0,0,1,4.3829.7827,21.6794,21.6794,0,0,1,5.83-.8056c.0625,0,9.4375.0888,9.4375.0888a21.7862,21.7862,0,0,1,4.6983.5591,21.7515,21.7515,0,0,1,4.9092-.56h8.1738a21.7844,21.7844,0,0,1,3.4639.2812A21.6511,21.6511,0,0,1,488.8,15.39h9.6094a21.8008,21.8008,0,0,1,3.9883.3686,21.84,21.84,0,0,1,4.4853-.5141s8.5684-.0889,8.6367-.0889a21.7027,21.7027,0,0,1,5.8467.8047,40.1471,40.1471,0,0,1,7.8633-.6289h16.582c.627,0,1.2608.0273,1.8848.0815A26.0567,26.0567,0,0,1,555.32,17.27a27.4867,27.4867,0,0,1,12.3145,9.7363q.3545.501.6787,1.02a22.94,22.94,0,0,1,3.4521,12.3511c0,4.4272-.707,10.4287-9.24,34.9087a21.8072,21.8072,0,0,1-2.35,4.7675c-5.1944,7.9244-13.249,12.4693-22.0987,12.4693Z"/><path class="b" d="M321.6246,8.9393a19.5353,19.5353,0,0,1,4.0429.4233,29.8639,29.8639,0,0,1,5.73,1.8139c.5551-.23,1.1108-.4585,1.6843-.6469.1474-.0483.2959-.0952.4443-.14a35.5593,35.5593,0,0,1,10.6572-1.2158H364.896c.4327,0,.8662.0146,1.2979.0434a24.38,24.38,0,0,1,6.59,1.39,19.4623,19.4623,0,0,1,7.1368-1.3748l33.6962-.0586a19.5145,19.5145,0,0,1,15.76,8.0054c.0962.1319.1831.2689.2759.4028H442.1q.8468,0,1.69.0732a23.621,23.621,0,0,1,4.594.8823,19.4609,19.4609,0,0,1,5.8132-.8969c.0625,0,9.416.0889,9.416.0889a19.4933,19.4933,0,0,1,4.72.6254,19.4978,19.4978,0,0,1,4.9092-.6264h8.1738a19.5013,19.5013,0,0,1,3.4888.3183,19.4863,19.4863,0,0,1,3.8941-.4062h9.6093a19.49,19.49,0,0,1,4.0274.42,19.5349,19.5349,0,0,1,4.47-.5654s8.5449-.0889,8.6133-.0889a19.4956,19.4956,0,0,1,5.7549.8723,36.1882,36.1882,0,0,1,7.955-.6965h16.5821q.8466,0,1.69.0732a23.7733,23.7733,0,0,1,6.9649,1.6968,25.2374,25.2374,0,0,1,11.33,8.9516q.3165.4483.6075.9136a20.7239,20.7239,0,0,1,3.1113,11.1607c0,4.2266-.6973,10.02-9.1153,34.1679a19.5059,19.5059,0,0,1-2.1064,4.2749c-4.77,7.2784-12.14,11.4527-20.2168,11.4527-4.1916-.0686-61.196-.0914-135.3706-.0914-148.3223,0-365.2192.0914-365.2192.0914A19.5159,19.5159,0,0,1,18.43,74.9632L12.0435,46.0179a19.5133,19.5133,0,0,1,.3906-9.8964l3.9844-13.0664A19.5146,19.5146,0,0,1,35.0845,9.2323h12.07a19.4908,19.4908,0,0,1,5.0313.66,19.4916,19.4916,0,0,1,5.75-.8648H68.5122a19.4905,19.4905,0,0,1,4.875.6259,19.4923,19.4923,0,0,1,3.96-.4208H99.4956a19.5119,19.5119,0,0,1,10.6885,3.188,19.4684,19.4684,0,0,1,10.669-3.188h26.9824q.7134,0,1.4238.0523a32.9785,32.9785,0,0,1,5.7666.94q.3722.096.7412.2056c.324.0969.6343.2179.9527.3253a19.4635,19.4635,0,0,1,7.2114-1.4348l26.0781-.1415c.583-.0426,1.1651-.064,1.7422-.064a24.2716,24.2716,0,0,1,7.7022,1.2565,19.4422,19.4422,0,0,1,7.2978-1.4323h28.5059a19.5353,19.5353,0,0,1,4.0429.4233,29.8617,29.8617,0,0,1,5.73,1.8139c.5551-.23,1.1108-.4585,1.6843-.6469q.2212-.0725.4443-.14A35.56,35.56,0,0,1,257.816,9.1737h20.7129c.4326,0,.8662.0146,1.2978.0434a24.37,24.37,0,0,1,5.9761,1.1617,19.4428,19.4428,0,0,1,7.3159-1.44h28.5059m0-4.5H293.1187a23.7668,23.7668,0,0,0-7.4641,1.2029,28.88,28.88,0,0,0-5.5286-.9151c-.53-.0354-1.0676-.0534-1.5971-.0534H257.816a39.6081,39.6081,0,0,0-11.96,1.4083c-.1818.0551-.3635.1125-.5437.1716q-.1314.0432-.26.0876a35.18,35.18,0,0,0-4.82-1.3809,24.0734,24.0734,0,0,0-4.9753-.521H206.7515a23.7637,23.7637,0,0,0-7.43,1.1917,28.7149,28.7149,0,0,0-7.57-1.0159c-.63,0-1.2727.0217-1.9119.0648l-25.9328.1408a23.8075,23.8075,0,0,0-7.27,1.1771q-.2434-.0679-.4866-.1306a37.5275,37.5275,0,0,0-6.5627-1.0707c-.5825-.0426-1.1721-.0642-1.7522-.0642H120.8531a23.9015,23.9015,0,0,0-10.6682,2.5094A23.9456,23.9456,0,0,0,99.4956,4.7323H77.3472a23.6611,23.6611,0,0,0-3.8516.3242,23.9172,23.9172,0,0,0-4.9834-.5293H57.9361a24.0071,24.0071,0,0,0-5.8386.719,24.0219,24.0219,0,0,0-4.9427-.5139h-12.07a23.884,23.884,0,0,0-22.97,17.01L8.13,34.8089a24.0609,24.0609,0,0,0-.48,12.178l6.3867,28.9459a24.1665,24.1665,0,0,0,23.451,18.8405c2.1709-.0009,218.594-.0914,365.2192-.0914,86.0935,0,131.614.0306,135.2971.0908l.0735.0006c9.6226,0,18.363-4.9154,23.9805-13.4858a24.0372,24.0372,0,0,0,2.5923-5.2614c8.6608-24.8444,9.3657-30.8434,9.3657-35.6483A25.1577,25.1577,0,0,0,570.22,26.8326c-.231-.37-.4832-.7495-.7474-1.1239A29.7553,29.7553,0,0,0,556.1275,15.17a28.1854,28.1854,0,0,0-8.2356-1.9976c-.69-.06-1.39-.09-2.0808-.09H529.229a43.8453,43.8453,0,0,0-7.7761.5728,23.9341,23.9341,0,0,0-5.9338-.7486c-.03,0-.0918,0-8.66.0891a24.1036,24.1036,0,0,0-4.5.4723,24.0681,24.0681,0,0,0-3.95-.327h-9.6093a23.7442,23.7442,0,0,0-3.9446.3388,23.9517,23.9517,0,0,0-3.4383-.2509h-8.1738a24.05,24.05,0,0,0-4.9094.5061,24.0329,24.0329,0,0,0-4.6773-.5049c-9.3742-.0891-9.4311-.0891-9.4582-.0891a23.841,23.841,0,0,0-5.84.73,27.6024,27.6024,0,0,0-4.1765-.6988c-.69-.06-1.39-.09-2.0811-.09H431.868a24.1041,24.1041,0,0,0-18.2513-8.4082l-33.7041.0586a23.8241,23.8241,0,0,0-7.19,1.1224,28.5992,28.5992,0,0,0-6.229-1.1276c-.53-.0354-1.0676-.0534-1.5972-.0534H344.1831a39.6078,39.6078,0,0,0-11.96,1.4083q-.2735.0829-.5439.1716c-.0874.0288-.1741.058-.26.0875A35.1935,35.1935,0,0,0,326.6,4.96a24.0734,24.0734,0,0,0-4.9753-.521Z"/><path class="b" d="M31.6318,70.7589a5.8543,5.8543,0,0,1-5.7168-4.5928L19.5283,37.22a5.8476,5.8476,0,0,1,.1172-2.9688L23.63,21.1846a5.8542,5.8542,0,0,1,5.6-4.1469H41.3a5.8542,5.8542,0,0,1,5.3472,3.4707,5.8548,5.8548,0,0,1,5.4341-3.6758H62.6572a5.8545,5.8545,0,0,1,5.6143,7.5132l-4.19,14.18a5.8421,5.8421,0,0,1-.5454,1.27L47.3354,67.8331a5.8538,5.8538,0,0,1-5.0688,2.9258Z"/><path class="b" d="M63.7871,70.7589a5.8691,5.8691,0,0,1-.9433-.0762,10.0356,10.0356,0,0,1-8.3682-9.9678,5.847,5.847,0,0,1,.24-1.6572L65.8774,21.2349a5.8541,5.8541,0,0,1,5.6148-4.1972H93.6406A5.8544,5.8544,0,0,1,99.25,24.57c-1.8955,6.3354-3.62,12.5049-5.1323,18.3662h5.207a5.855,5.855,0,0,1,5.5479,7.7246c-1.1446,3.3955-2.501,7.5391-4.0337,12.3184-.8931,4.7461-4.3443,7.7793-8.9263,7.7793Zm29.86-25.0049Z"/><path class="b" d="M102.166,70.7589a5.8542,5.8542,0,0,1-5.5991-7.5645l12.832-42.0122a5.8544,5.8544,0,0,1,5.5991-4.1445h26.9825q.2137,0,.4272.0156a19.2351,19.2351,0,0,1,3.3706.5488c.0747.0191.1485.04.2222.0615a12.8862,12.8862,0,0,1,6.915,4.7481A7.3918,7.3918,0,0,1,154.31,27.023c0,2.9668-.9629,9.4531-8.47,33.4751-1.1391,3.8428-4.3461,7.12-9.5073,9.6592a5.8572,5.8572,0,0,1-2.5845.6016Zm22.06-30.9893a4.3569,4.3569,0,0,0,2.4033.53,2.6155,2.6155,0,0,0,1.6987-.4776,1.1158,1.1158,0,0,0-.3789-.9487,1.9809,1.9809,0,0,0-1.5542-.5176,2.0365,2.0365,0,0,0-1.6108.5615,3.0793,3.0793,0,0,0-.6148.7759C124.1831,39.7149,124.2017,39.74,124.2256,39.77Z"/><path class="b" d="M145.35,70.7589a5.8551,5.8551,0,0,1-5.5981-7.5684l12.832-41.9238a5.8554,5.8554,0,0,1,5.5664-4.1411l26.63-.1446a10.5754,10.5754,0,0,1,1.1162-.0605A11.0661,11.0661,0,0,1,194.8,21.5284a6.3074,6.3074,0,0,1,1.4043,4.147c0,1.38-.2339,3.7592-3.0273,14.5874a11.582,11.582,0,0,1-3.6695,5.5976,11.699,11.699,0,0,1,.9253,4.4248,7.8858,7.8858,0,0,1-.3135,2.1963l-2.9775,10.6836a5.8741,5.8741,0,0,1-.7021,1.5742c-3.17,4.9756-7.0791,6.02-9.8008,6.02Zm14.85-15.8057a4,4,0,0,0,2.4063.581,2.7639,2.7639,0,0,0,1.7036-.4541,1.1167,1.1167,0,0,0-.3838-.9716,2.5466,2.5466,0,0,0-3.1367.0459,2.9744,2.9744,0,0,0-.6177.7714ZM166.3516,37.2a4.1448,4.1448,0,0,0,2.4062.5512,2.8319,2.8319,0,0,0,1.7036-.4409,1.1225,1.1225,0,0,0-.3838-.9853,2.5457,2.5457,0,0,0-3.1367.0464,2.8613,2.8613,0,0,0-.6269.791Z"/><path class="b" d="M188.5332,70.7589a5.8544,5.8544,0,0,1-5.5972-7.57l5.0391-16.4355c.043-.1416.0918-.28.1455-.418,2.0112-5.1406,4.1963-8.4868,6.8687-10.5166a5.8521,5.8521,0,0,1-1.87-5.7783l2.08-8.7891a5.8541,5.8541,0,0,1,5.6968-4.5063h28.5058a5.8573,5.8573,0,0,1,1.2129.1269,11.8774,11.8774,0,0,1,6.56,3.3536,10.2528,10.2528,0,0,1,2.5059,7.1787q0,.9177-.0694,2.0825a5.8328,5.8328,0,0,1-.209,1.2339c-.6577,2.3335-1.84,5.75-3.6162,10.4438q-.0659.1758-.143.3457a10.8054,10.8054,0,0,1-2.3955,3.3887,5.6918,5.6918,0,0,1,.3823.4775,5.8541,5.8541,0,0,1,.793,5.2852c-1.1763,3.4893-2.9307,8.8809-5.2159,16.0264a5.8537,5.8537,0,0,1-5.5761,4.0713Z"/><path class="b" d="M236.5215,70.7589a5.87,5.87,0,0,1-.9434-.0762,10.0356,10.0356,0,0,1-8.3681-9.9678A5.8659,5.8659,0,0,1,227.4668,59L238.043,24.4874a5.8888,5.8888,0,0,1,.4555-1.0835,11.6567,11.6567,0,0,1,6.625-5.7515c.0445-.0142.0889-.0283.1333-.042a24.1255,24.1255,0,0,1,6.7041-.6313h20.7129q.1948,0,.3892.0132a10.8384,10.8384,0,0,1,3.5644.8642,13.0372,13.0372,0,0,1,5.898,4.6362,7.4748,7.4748,0,0,1,1.3057,4.4717c0,3.1792-1.1866,10.2085-10.438,36.5679a5.8176,5.8176,0,0,1-.5865,1.207c-3.17,4.9756-7.0952,6.02-9.83,6.02ZM253.7769,39.77a4.275,4.275,0,0,0,2.3735.53,2.6689,2.6689,0,0,0,1.728-.4883,1.0857,1.0857,0,0,0-.3794-.9253,1.9958,1.9958,0,0,0-1.5537-.53,2.1029,2.1029,0,0,0-1.6387.5747,2.6868,2.6868,0,0,0-.5971.7471A.8005.8005,0,0,0,253.7769,39.77Z"/><path class="b" d="M274.9,70.7589a5.8544,5.8544,0,0,1-5.5972-7.57l5.0391-16.4355c.043-.1416.0918-.28.1455-.418,2.0112-5.1406,4.1963-8.4868,6.8686-10.5166a5.8527,5.8527,0,0,1-1.87-5.7783l2.08-8.7891a5.8541,5.8541,0,0,1,5.6968-4.5063H315.77a5.858,5.858,0,0,1,1.2129.1269,11.8774,11.8774,0,0,1,6.56,3.3536,10.2528,10.2528,0,0,1,2.5059,7.1787q0,.9177-.0694,2.0825a5.8328,5.8328,0,0,1-.209,1.2339c-.6577,2.3335-1.84,5.75-3.6162,10.4438q-.0659.1758-.143.3457a10.8041,10.8041,0,0,1-2.3956,3.3887,5.6929,5.6929,0,0,1,.3824.4775,5.8538,5.8538,0,0,1,.7929,5.2852c-1.1762,3.4893-2.9306,8.8809-5.2158,16.0264a5.8537,5.8537,0,0,1-5.5762,4.0713Z"/><path class="b" d="M322.8887,70.7589a5.87,5.87,0,0,1-.9434-.0762,10.0358,10.0358,0,0,1-8.3682-9.9678A5.866,5.866,0,0,1,313.834,59L324.41,24.4874a5.8888,5.8888,0,0,1,.4555-1.0835,11.6567,11.6567,0,0,1,6.625-5.7515c.0445-.0142.0889-.0283.1333-.042a24.1255,24.1255,0,0,1,6.7041-.6313H359.041q.1949,0,.3892.0132a10.839,10.839,0,0,1,3.5644.8642,13.0372,13.0372,0,0,1,5.898,4.6362,7.4748,7.4748,0,0,1,1.3056,4.4717c0,3.1792-1.1865,10.2085-10.4379,36.5679a5.8226,5.8226,0,0,1-.5865,1.207c-3.17,4.9756-7.0952,6.02-9.83,6.02ZM340.144,39.77a4.2756,4.2756,0,0,0,2.3736.53,2.6689,2.6689,0,0,0,1.728-.4883,1.0857,1.0857,0,0,0-.3794-.9253,1.996,1.996,0,0,0-1.5537-.53,2.1029,2.1029,0,0,0-1.6387.5747,2.6868,2.6868,0,0,0-.5971.7471A.81.81,0,0,0,340.144,39.77Z"/><path class="b" d="M372.3711,70.7589a5.8544,5.8544,0,0,1-5.55-7.7188l3.853-11.4707h-4.3091a5.8544,5.8544,0,0,1-5.5444-7.7334l7.7344-22.8228a5.8536,5.8536,0,0,1,5.5342-3.9755l33.6723-.0586a5.8548,5.8548,0,0,1,5.5737,7.6455l-7.3535,22.8813a5.8543,5.8543,0,0,1-5.5737,4.0635h-6.2554L389.5083,66.63a5.8545,5.8545,0,0,1-5.5942,4.129Z"/><path class="b" d="M407.3,70.7589a5.7582,5.7582,0,0,1-.7446-.0479,8.8918,8.8918,0,0,1-5.624-3.0352,9.1811,9.1811,0,0,1-2.2691-6.1406,5.8425,5.8425,0,0,1,.2578-1.7168L407.3867,32.22a5.8335,5.8335,0,0,1,.4942-1.1528,10.5769,10.5769,0,0,1,6.0063-5.106c.0464-.0146.0928-.0293.14-.043a20.6084,20.6084,0,0,1,5.6362-.5307h16.582q.2543,0,.5073.0219a10.1422,10.1422,0,0,1,3.0323.7544,11.4679,11.4679,0,0,1,5.2861,4.1631q.0945.1341.1816.273a7.1852,7.1852,0,0,1,1.0367,3.9233c0,2.8228-.9927,8.5552-8.3536,29.6714a5.8726,5.8726,0,0,1-.6323,1.2832c-3.0122,4.5947-6.8017,5.2813-8.7925,5.2813Z"/><path class="b" d="M462.5244,70.7589a5.8537,5.8537,0,0,1-5.2778-3.3213l-2.3921-4.9834-1.4209,4.29a5.8544,5.8544,0,0,1-5.5576,4.0147h-9.8145a5.8547,5.8547,0,0,1-5.5981-7.5674l10.2832-33.604a5.8541,5.8541,0,0,1,5.5976-4.1416c.0186,0,9.2847.0883,9.2847.0883A5.8533,5.8533,0,0,1,462.2744,27.9q.1077.1451.2061.2959a5.854,5.854,0,0,1,4.9072-2.6616h8.1738a5.8538,5.8538,0,0,1,5.6856,7.2485L476.062,53.9346a5.8461,5.8461,0,0,1-.208.6719,12.8066,12.8066,0,0,1-3.2895,5.1231l1.2553,2.7285a5.8548,5.8548,0,0,1-5.3188,8.3008Z"/><path class="b" d="M481.45,70.7589a5.854,5.854,0,0,1-5.5474-7.7247l2.6206-7.7724a7.545,7.545,0,0,1-6.9707-7.6133,8.8915,8.8915,0,0,1,.7837-3.5547L477.41,29.3907a5.8542,5.8542,0,0,1,5.5341-3.9448h9.6094a5.8536,5.8536,0,0,1,4.2842,1.8647A5.8541,5.8541,0,0,1,501.1934,25.3s8.4492-.0884,8.47-.0884a5.854,5.854,0,0,1,5.6055,7.5425L510.71,47.8926c-.8809,3.042-3.3184,5.3956-7.2481,6.9942a5.8516,5.8516,0,0,1-2.1474.4326l-1.4893.0146-3.4619,11.2872a5.8536,5.8536,0,0,1-5.5967,4.1377Z"/><path class="b" d="M511.0107,70.7589a5.74,5.74,0,0,1-.7441-.0479,8.8956,8.8956,0,0,1-5.625-3.0352,9.1806,9.1806,0,0,1-2.2686-6.1406,5.8426,5.8426,0,0,1,.2579-1.7168L511.0977,32.22a5.8272,5.8272,0,0,1,.4941-1.1528,10.5778,10.5778,0,0,1,6.0059-5.106c.0468-.0146.0937-.0293.1406-.043a20.6023,20.6023,0,0,1,5.6357-.5307h16.5821c.1689,0,.3388.0073.5068.0219a10.1349,10.1349,0,0,1,3.0322.7544,11.4725,11.4725,0,0,1,5.2871,4.1631q.0938.1341.1817.273A7.1858,7.1858,0,0,1,550,34.523c0,2.8228-.9922,8.5552-8.3535,29.6714a5.8667,5.8667,0,0,1-.6319,1.2832c-3.0126,4.5947-6.8027,5.2813-8.7929,5.2813Z"/><path class="c" d="M42.2666,64.9044H31.6318L25.2451,35.9586,29.23,22.8922H41.3l-2.8418,9.375,10.7813.0878,2.8418-9.6679H62.6572l-4.1894,14.18Z"/><path class="c" d="M63.7871,64.9044a4.0391,4.0391,0,0,1-2.4463-1.3916A4.1072,4.1072,0,0,1,60.33,60.7149L71.4922,22.8922H93.6406q-3.1639,10.5761-5.625,20.2739a12.0863,12.0863,0,0,0-.2343,2.3144q0,3.3107,2.1093,3.3106h9.4336q-1.7871,5.3027-4.1894,12.8027-.4687,3.3105-3.2227,3.3106Z"/><path class="c" d="M140.252,58.752q-1.0254,3.457-6.504,6.1524H102.166l12.832-42.0122h26.9825a13.3263,13.3263,0,0,1,2.3437.3808,7.1271,7.1271,0,0,1,3.8965,2.6367,1.8793,1.8793,0,0,1,.2344,1.1133Q148.4551,32.5016,140.252,58.752ZM126.6289,46.1544a8.4518,8.4518,0,0,0,5.3174-1.7286,5.4056,5.4056,0,0,0,2.2412-4.4824,6.9964,6.9964,0,0,0-2.2412-5.3471,8.41,8.41,0,0,0-11.2061.0878,7.2436,7.2436,0,0,0-2.4609,4.7906v.1465a6.0494,6.0494,0,0,0,1.875,4.3652A9.1693,9.1693,0,0,0,126.6289,46.1544Z"/><path class="c" d="M185.1641,22.8336a4.8133,4.8133,0,0,1,.7324-.0586,5.2633,5.2633,0,0,1,4.3652,2.4609q.0879.0586.0879.4395,0,2.1093-2.8418,13.125a6.8313,6.8313,0,0,1-2.2558,3.018,9.4636,9.4636,0,0,1-4.2774,2.3731,6.9176,6.9176,0,0,1,2.5488,2.7246,7.0287,7.0287,0,0,1,1.0547,3.3691,2.0308,2.0308,0,0,1-.0879.586L181.502,61.5938q-2.1095,3.3105-4.8633,3.3106H145.35L158.1816,22.98ZM162.6055,61.3887a8.5493,8.5493,0,0,0,5.3174-1.6992,5.4118,5.4118,0,0,0,2.2412-4.541,6.9625,6.9625,0,0,0-2.2412-5.3174,8.3682,8.3682,0,0,0-11.2061.1172,7.175,7.175,0,0,0-2.4316,4.7607v.2344a5.6719,5.6719,0,0,0,1.875,4.2481A8.986,8.986,0,0,0,162.6055,61.3887Zm6.1523-17.7832a8.5994,8.5994,0,0,0,5.3174-1.6845,5.4023,5.4023,0,0,0,2.2412-4.5562,6.9625,6.9625,0,0,0-2.2412-5.3174,8.3682,8.3682,0,0,0-11.2061.1172,7.1754,7.1754,0,0,0-2.4316,4.7608V37.16a5.7044,5.7044,0,0,0,1.875,4.2779A9.0607,9.0607,0,0,0,168.7578,43.6055Z"/><path class="d" d="M215.6914,31.3882h-16.875l2.08-8.789h28.5058a6.4838,6.4838,0,0,1,3.4571,1.582,4.6407,4.6407,0,0,1,.9668,3.2227q0,.7617-.0586,1.7285-.9082,3.2226-3.4571,9.9609-1.8456,4.0731-10.6933,4.0728h-.2637a7.1926,7.1926,0,0,0-4.043.9668,4.38,4.38,0,0,0-1.582,2.2558q-.3808,1.2012-.6738,2.4024h15.82q-1.7871,5.3027-5.2441,16.1133H188.5332l5.0391-16.4356q2.373-6.0645,5.01-8.0273,1.875-1.3477,5.8594-1.4947h8.76q5.42-1.7871,5.42-4.1308a3.2669,3.2669,0,0,0-1.377-2.3145Q216.5118,31.9743,215.6914,31.3882Z"/><path class="d" d="M236.5215,64.9044a4.0391,4.0391,0,0,1-2.4463-1.3916,4.1072,4.1072,0,0,1-1.0107-2.7979l10.5761-34.5122a5.8908,5.8908,0,0,1,3.3106-2.9883,20.9561,20.9561,0,0,1,5.01-.3808h20.7129a5.0143,5.0143,0,0,1,1.7285.4394,7.2427,7.2427,0,0,1,3.3692,2.6367,1.9483,1.9483,0,0,1,.2051,1.0547q0,5.83-10.1075,34.6294-2.1093,3.3105-4.8925,3.3106Zm19.6289-18.75a8.5129,8.5129,0,0,0,5.332-1.7286,5.3939,5.3939,0,0,0,2.2559-4.4824,6.9744,6.9744,0,0,0-2.2559-5.3471,7.8346,7.8346,0,0,0-5.5371-2.0948,7.9214,7.9214,0,0,0-5.6689,2.1826,7.0962,7.0962,0,0,0-2.4463,4.7906v.1465a6.0494,6.0494,0,0,0,1.875,4.3652A9.1256,9.1256,0,0,0,256.15,46.1544Z"/><path class="d" d="M302.0586,31.3882h-16.875l2.08-8.789H315.77a6.4838,6.4838,0,0,1,3.4571,1.582,4.6407,4.6407,0,0,1,.9668,3.2227q0,.7617-.0586,1.7285-.9083,3.2226-3.4571,9.9609-1.8456,4.0731-10.6933,4.0728h-.2637a7.1926,7.1926,0,0,0-4.043.9668,4.38,4.38,0,0,0-1.582,2.2558q-.3809,1.2012-.6738,2.4024h15.82q-1.7871,5.3027-5.2442,16.1133H274.9L279.94,48.4688q2.373-6.0645,5.01-8.0273,1.875-1.3477,5.8594-1.4947h8.76q5.42-1.7871,5.42-4.1308a3.2669,3.2669,0,0,0-1.377-2.3145Q302.8788,31.9743,302.0586,31.3882Z"/><path class="d" d="M322.8887,64.9044a4.0388,4.0388,0,0,1-2.4463-1.3916,4.1072,4.1072,0,0,1-1.0108-2.7979l10.5762-34.5122a5.8908,5.8908,0,0,1,3.3106-2.9883,20.9561,20.9561,0,0,1,5.01-.3808H359.041a5.0143,5.0143,0,0,1,1.7285.4394,7.2427,7.2427,0,0,1,3.3692,2.6367,1.9483,1.9483,0,0,1,.2051,1.0547q0,5.83-10.1075,34.6294-2.1093,3.3105-4.8925,3.3106Zm19.6289-18.75a8.5129,8.5129,0,0,0,5.332-1.7286,5.3939,5.3939,0,0,0,2.2559-4.4824,6.9744,6.9744,0,0,0-2.2559-5.3471,7.8346,7.8346,0,0,0-5.5371-2.0948,7.9214,7.9214,0,0,0-5.6689,2.1826,7.0962,7.0962,0,0,0-2.4463,4.7906v.1465a6.0494,6.0494,0,0,0,1.875,4.3652A9.1256,9.1256,0,0,0,342.5176,46.1544Z"/><path class="c" d="M372.3711,64.9044l6.4453-19.1895H366.3652L374.1,22.8922l33.6621-.0586-7.3535,22.8813H389.832l-5.9179,19.1895Z"/><path class="c" d="M407.3,64.9044a3.0688,3.0688,0,0,1-1.9629-1.084,3.3488,3.3488,0,0,1-.82-2.2852l8.4668-27.5981a4.8266,4.8266,0,0,1,2.6953-2.4024,17.1717,17.1717,0,0,1,3.9844-.2929h16.582a4.3019,4.3019,0,0,1,1.3477.3515,5.6922,5.6922,0,0,1,2.6953,2.1094,1.6515,1.6515,0,0,1,.1465.82q0,4.7167-8.0274,27.7446-1.7284,2.6368-3.8965,2.6368Zm15.7324-15a6.8664,6.8664,0,0,0,4.2481-1.3916,4.2759,4.2759,0,0,0,1.8457-3.56,5.6522,5.6522,0,0,0-1.8018-4.3213,6.2546,6.2546,0,0,0-4.4385-1.6851,6.3668,6.3668,0,0,0-4.6142,1.773,5.6515,5.6515,0,0,0-1.919,3.8525v.1465a4.7666,4.7666,0,0,0,1.5235,3.457A7.3155,7.3155,0,0,0,423.0322,49.9044Z"/><path class="c" d="M448.3447,31.3l9.2285.0878-4.9511,16.9341h9.2871l5.4785-16.9341h8.1738L470.376,52.5411q-1.3477,3.5742-3.6035,3.5742H464.458l4.043,8.7891h-5.9766l-4.2187-8.7891-7.5-.0586-2.93,8.8477h-9.8145Z"/><path class="c" d="M509.6631,31.066l-4.57,15.1763q-.5274,1.875-3.8379,3.2226l-5.7715.0586-4.7168,15.3809H481.45l5.1855-15.3809-6.9726-.0586q-2.2559,0-2.2559-1.8164a3.46,3.46,0,0,1,.3809-1.4062L482.9443,31.3h9.6094l-2.2558,7.3535,8.6425.2343,2.3145-7.7343Z"/><path class="c" d="M511.0107,64.9044a3.0683,3.0683,0,0,1-1.9628-1.084,3.3489,3.3489,0,0,1-.82-2.2852l8.4668-27.5981a4.8269,4.8269,0,0,1,2.6953-2.4024,17.1717,17.1717,0,0,1,3.9844-.2929h16.5821a4.3013,4.3013,0,0,1,1.3476.3515,5.6917,5.6917,0,0,1,2.6953,2.1094,1.65,1.65,0,0,1,.1465.82q0,4.7167-8.0273,27.7446-1.7286,2.6368-3.8965,2.6368Zm15.7325-15a6.8663,6.8663,0,0,0,4.248-1.3916,4.2757,4.2757,0,0,0,1.8457-3.56,5.6525,5.6525,0,0,0-1.8017-4.3213,6.2548,6.2548,0,0,0-4.4385-1.6851,6.3669,6.3669,0,0,0-4.6143,1.773,5.6514,5.6514,0,0,0-1.9189,3.8525v.1465a4.7665,4.7665,0,0,0,1.5234,3.457A7.3158,7.3158,0,0,0,526.7432,49.9044Z"/></svg>