<svg xmlns="http://www.w3.org/2000/svg" viewBox="0 0 581.1024 99.2126"><defs><style>.a{fill:#231815;}.b{fill:#fff;}</style></defs><title>vldb2020-logo1-bw-db</title><rect class="a" x="-0.0007" width="581.1024" height="99.2126"/><path class="a" d="M538.04,92.5226c-3.6953-.06-49.2285-.0908-135.334-.0908-146.625,0-363.0488.09-365.2177.0913A21.9024,21.9024,0,0,1,16.2333,75.4479L9.8466,46.5026a21.8084,21.8084,0,0,1,.4355-11.0381l3.9844-13.0659A21.6458,21.6458,0,0,1,35.0848,6.9821h12.07a21.7652,21.7652,0,0,1,4.9873.5786,21.7593,21.7593,0,0,1,5.7939-.7837H68.5126a21.7141,21.7141,0,0,1,4.93.5727,21.63,21.63,0,0,1,3.9052-.3676H99.496a21.701,21.701,0,0,1,10.6885,2.8061,21.6741,21.6741,0,0,1,10.6689-2.8061h26.9824q.7954,0,1.5879.0581a35.2572,35.2572,0,0,1,6.1611,1.0044c.2784.0717.5518.1474.8243.2285q.1391.0417.2754.0874a21.5975,21.5975,0,0,1,7.2343-1.29l26.0049-.1411c.6113-.0429,1.2266-.0644,1.8281-.0644a26.4917,26.4917,0,0,1,7.6329,1.1245,21.5594,21.5594,0,0,1,7.3671-1.3h28.5059a21.8044,21.8044,0,0,1,4.5088.4722,32.6634,32.6634,0,0,1,5.2744,1.583c.3125-.1221.6377-.2427.9707-.3521.166-.0547.3311-.1064.4961-.1562a37.5691,37.5691,0,0,1,11.3086-1.3125h20.7129c.4824,0,.9668.0161,1.4482.0483a26.6872,26.6872,0,0,1,5.7481,1.0269,21.5726,21.5726,0,0,1,7.3935-1.31h28.5059a21.8044,21.8044,0,0,1,4.5088.4722,32.6634,32.6634,0,0,1,5.2744,1.583c.3115-.1221.6377-.2427.9707-.3521.166-.0547.331-.1064.4961-.1562a37.5691,37.5691,0,0,1,11.3086-1.3125h20.7129c.4824,0,.9668.0161,1.4482.0483a26.5522,26.5522,0,0,1,6.4043,1.2466,21.6109,21.6109,0,0,1,7.168-1.2363l33.7-.0586a21.84,21.84,0,0,1,17.1845,8.4082h11.2989c.6269,0,1.2607.0273,1.8847.0815a25.6926,25.6926,0,0,1,4.3829.7827,21.6794,21.6794,0,0,1,5.83-.8056c.0625,0,9.4375.0888,9.4375.0888a21.7862,21.7862,0,0,1,4.6983.5591,21.7509,21.7509,0,0,1,4.9092-.56h8.1738a21.7822,21.7822,0,0,1,3.4638.2812A21.653,21.653,0,0,1,488.8,15.39h9.6094a21.8,21.8,0,0,1,3.9882.3686,21.8414,21.8414,0,0,1,4.4854-.5141s8.5684-.0889,8.6367-.0889a21.7027,21.7027,0,0,1,5.8467.8047,40.1471,40.1471,0,0,1,7.8633-.6289h16.582c.627,0,1.2608.0273,1.8848.0815A26.0567,26.0567,0,0,1,555.32,17.27a27.4867,27.4867,0,0,1,12.3145,9.7363q.3545.501.6787,1.02a22.94,22.94,0,0,1,3.4521,12.3511c0,4.4272-.707,10.4287-9.24,34.9087a21.8072,21.8072,0,0,1-2.35,4.7675c-5.1944,7.9244-13.2491,12.4693-22.0987,12.4693Z"/><path class="b" d="M321.6249,8.9393a19.5362,19.5362,0,0,1,4.043.4233,29.8643,29.8643,0,0,1,5.7294,1.8139c.5552-.23,1.1109-.4585,1.6846-.6469q.2212-.0725.4444-.14a35.5584,35.5584,0,0,1,10.6572-1.2158h20.7129c.4326,0,.8662.0146,1.2978.0434a24.3809,24.3809,0,0,1,6.59,1.39,19.46,19.46,0,0,1,7.1367-1.3748l33.6963-.0586a19.5143,19.5143,0,0,1,15.76,8.0054c.0962.1319.1831.2689.2759.4028h12.4478q.8466,0,1.69.0732a23.619,23.619,0,0,1,4.5938.8823,19.4627,19.4627,0,0,1,5.8134-.8969c.0625,0,9.416.0889,9.416.0889a19.4948,19.4948,0,0,1,4.72.6254,19.4972,19.4972,0,0,1,4.9092-.6264h8.1738a19.4993,19.4993,0,0,1,3.4887.3183,19.4855,19.4855,0,0,1,3.8941-.4062h9.6094a19.4885,19.4885,0,0,1,4.0273.42,19.5349,19.5349,0,0,1,4.47-.5654s8.545-.0889,8.6133-.0889a19.4966,19.4966,0,0,1,5.7549.8723,36.1892,36.1892,0,0,1,7.9551-.6965h16.582q.8467,0,1.69.0732a23.7717,23.7717,0,0,1,6.9649,1.6968,25.2376,25.2376,0,0,1,11.33,8.9516q.3164.4483.6074.9136a20.7239,20.7239,0,0,1,3.1113,11.1607c0,4.2266-.6973,10.02-9.1152,34.1679a19.5018,19.5018,0,0,1-2.1065,4.2749c-4.7705,7.2784-12.14,11.4527-20.2168,11.4527-4.1914-.0686-61.1958-.0914-135.3706-.0914-148.3222,0-365.2192.0914-365.2192.0914a19.5157,19.5157,0,0,1-19.0566-15.31L12.0438,46.0179a19.5144,19.5144,0,0,1,.3907-9.8964l3.9843-13.0664A19.5146,19.5146,0,0,1,35.0848,9.2323h12.07a19.49,19.49,0,0,1,5.0312.66,19.4916,19.4916,0,0,1,5.75-.8648H68.5126a19.4923,19.4923,0,0,1,4.875.6259,19.489,19.489,0,0,1,3.96-.4208H99.496a19.5126,19.5126,0,0,1,10.6885,3.188,19.4674,19.4674,0,0,1,10.6689-3.188h26.9824q.7134,0,1.4239.0523a32.98,32.98,0,0,1,5.7666.94q.372.096.7412.2056c.3237.0969.6342.2179.9526.3253a19.4626,19.4626,0,0,1,7.2114-1.4348L190.01,9.1791c.583-.0426,1.165-.064,1.7421-.064a24.2711,24.2711,0,0,1,7.7022,1.2565,19.4415,19.4415,0,0,1,7.2978-1.4323h28.5059a19.5362,19.5362,0,0,1,4.043.4233,29.8676,29.8676,0,0,1,5.73,1.8139c.5551-.23,1.1108-.4585,1.6845-.6469q.2212-.0725.4444-.14a35.5584,35.5584,0,0,1,10.6572-1.2158h20.7129c.4326,0,.8662.0146,1.2978.0434a24.3677,24.3677,0,0,1,5.9761,1.1617,19.4424,19.4424,0,0,1,7.3159-1.44h28.5059m0-4.5H293.119a23.7656,23.7656,0,0,0-7.4643,1.2028,28.879,28.879,0,0,0-5.5283-.915c-.53-.0354-1.0674-.0534-1.5972-.0534H257.8163a39.6042,39.6042,0,0,0-11.96,1.4083q-.2731.0827-.5439.1716c-.0879.0288-.1743.058-.26.0876a35.2,35.2,0,0,0-4.82-1.3809,24.0777,24.0777,0,0,0-4.9756-.521H206.7518a23.7625,23.7625,0,0,0-7.43,1.1917,28.7188,28.7188,0,0,0-7.57-1.0159c-.63,0-1.2729.0217-1.9121.0648l-25.9326.1408a23.8011,23.8011,0,0,0-7.27,1.1771q-.2439-.0679-.4868-.1306a37.5247,37.5247,0,0,0-6.563-1.0707c-.5821-.0426-1.1719-.0642-1.752-.0642H120.8534a23.9,23.9,0,0,0-10.6685,2.5095A23.944,23.944,0,0,0,99.496,4.7323H77.3475a23.6678,23.6678,0,0,0-3.852.3242,23.9125,23.9125,0,0,0-4.9829-.5293H57.9364a24.0119,24.0119,0,0,0-5.8389.719,24.0159,24.0159,0,0,0-4.9423-.5139h-12.07a23.8833,23.8833,0,0,0-22.97,17.01L8.13,34.8089a24.0632,24.0632,0,0,0-.481,12.178L14.036,75.9328A24.1671,24.1671,0,0,0,37.4872,94.7733c2.1709-.0009,218.5937-.0914,365.2192-.0914,86.0938,0,131.6143.0306,135.2969.0908l.0737.0006c9.6226,0,18.3633-4.9154,23.9805-13.4858a24.0327,24.0327,0,0,0,2.5923-5.2614c8.6611-24.8444,9.3657-30.8434,9.3657-35.6483a25.1568,25.1568,0,0,0-3.7949-13.5452c-.231-.37-.4829-.7495-.7476-1.1239A29.7537,29.7537,0,0,0,556.1278,15.17a28.1858,28.1858,0,0,0-8.2353-1.9976c-.6905-.06-1.39-.09-2.0811-.09h-16.582a43.8406,43.8406,0,0,0-7.7759.5728,23.9412,23.9412,0,0,0-5.9341-.7486c-.03,0-.0918,0-8.66.0891a24.0976,24.0976,0,0,0-4.5.4723,24.07,24.07,0,0,0-3.9506-.327H488.8a23.7448,23.7448,0,0,0-3.9448.3388,23.9507,23.9507,0,0,0-3.438-.2509h-8.1738a24.0535,24.0535,0,0,0-4.91.5061,24.03,24.03,0,0,0-4.6773-.5049c-9.374-.0891-9.4306-.0891-9.458-.0891a23.8511,23.8511,0,0,0-5.84.73,27.6082,27.6082,0,0,0-4.1763-.6988c-.69-.06-1.39-.09-2.081-.09h-10.232a24.1051,24.1051,0,0,0-18.2514-8.4082l-33.7041.0586a23.8221,23.8221,0,0,0-7.19,1.1224,28.6014,28.6014,0,0,0-6.229-1.1276c-.53-.0354-1.0673-.0534-1.5971-.0534H344.1835a39.61,39.61,0,0,0-11.96,1.4083q-.2731.0829-.5434.1716-.1318.0432-.26.0876a35.2,35.2,0,0,0-4.82-1.3809,24.0777,24.0777,0,0,0-4.9756-.521Z"/><path class="b" d="M31.6313,70.7589a5.8542,5.8542,0,0,1-5.7167-4.5928L19.5278,37.2208a5.8513,5.8513,0,0,1,.1172-2.97l3.9844-13.0664a5.8543,5.8543,0,0,1,5.6-4.1465h12.07a5.8517,5.8517,0,0,1,5.3472,3.4707,5.8542,5.8542,0,0,1,5.4341-3.6758H62.6567a5.8542,5.8542,0,0,1,5.6143,7.5137l-4.1895,14.18a5.8344,5.8344,0,0,1-.5454,1.27L47.335,67.8331a5.8539,5.8539,0,0,1-5.0689,2.9258Z"/><path class="b" d="M63.7866,70.7589a5.8691,5.8691,0,0,1-.9433-.0762,10.0356,10.0356,0,0,1-8.3682-9.9677,5.8472,5.8472,0,0,1,.24-1.6573L65.877,21.2355a5.8533,5.8533,0,0,1,5.6147-4.1973H93.64A5.8547,5.8547,0,0,1,99.249,24.57c-1.8955,6.335-3.6191,12.5049-5.1318,18.3662h5.2065a5.8551,5.8551,0,0,1,5.5479,7.7246c-1.1445,3.3956-2.501,7.5391-4.0337,12.3184-.8931,4.7461-4.3442,7.7793-8.9263,7.7793ZM93.647,45.754Z"/><path class="b" d="M102.1655,70.7589a5.8543,5.8543,0,0,1-5.5991-7.5645l12.832-42.0117a5.8539,5.8539,0,0,1,5.5992-4.1445H141.98c.1426,0,.2851.0049.4272.0156a19.3289,19.3289,0,0,1,3.3706.5488c.0747.02.1485.04.2222.0616a12.883,12.883,0,0,1,6.9146,4.747,7.3927,7.3927,0,0,1,1.3945,4.6123c0,2.9668-.9629,9.4522-8.47,33.4747-1.1392,3.8427-4.3462,7.12-9.5074,9.6591a5.8568,5.8568,0,0,1-2.5844.6016Zm22.06-30.9893a4.3561,4.3561,0,0,0,2.4033.53,2.6154,2.6154,0,0,0,1.6987-.4775,1.1162,1.1162,0,0,0-.3789-.9483,1.98,1.98,0,0,0-1.5542-.5175,2.0362,2.0362,0,0,0-1.6108.5615,3.07,3.07,0,0,0-.6147.7754C124.1826,39.715,124.2017,39.74,124.2251,39.77Z"/><path class="b" d="M145.3491,70.7589a5.855,5.855,0,0,1-5.5981-7.5684l12.832-41.9238a5.8546,5.8546,0,0,1,5.5664-4.1406l26.63-.1445a10.5562,10.5562,0,0,1,1.1162-.0606,11.0683,11.0683,0,0,1,8.9033,4.6074,6.31,6.31,0,0,1,1.4043,4.1475c0,1.38-.2339,3.7588-3.0273,14.5879a11.5794,11.5794,0,0,1-3.6695,5.5967,11.6982,11.6982,0,0,1,.9253,4.4248,7.8862,7.8862,0,0,1-.3134,2.1963l-2.9776,10.6835a5.8733,5.8733,0,0,1-.7021,1.5743c-3.17,4.9756-7.0791,6.0195-9.8008,6.0195Zm14.85-15.8057a4,4,0,0,0,2.4063.5811,2.7644,2.7644,0,0,0,1.7036-.4541,1.1168,1.1168,0,0,0-.3838-.9717,2.5466,2.5466,0,0,0-3.1367.0459,2.9725,2.9725,0,0,0-.6177.7715Zm6.1524-17.7539a4.1413,4.1413,0,0,0,2.4062.5518,2.8368,2.8368,0,0,0,1.7036-.44,1.1234,1.1234,0,0,0-.3838-.9854,2.5466,2.5466,0,0,0-3.1367.0459,2.8739,2.8739,0,0,0-.6269.791C166.3242,37.1739,166.3369,37.1866,166.3511,37.1993Z"/><path class="b" d="M188.5327,70.7589a5.8543,5.8543,0,0,1-5.5972-7.57l5.0391-16.4356c.043-.1416.0918-.28.1455-.4179,2.0112-5.14,4.1963-8.4864,6.8682-10.5166a5.8526,5.8526,0,0,1-1.8692-5.7784l2.08-8.789a5.8543,5.8543,0,0,1,5.6968-4.5059h28.5059a5.8846,5.8846,0,0,1,1.2128.127,11.8773,11.8773,0,0,1,6.56,3.3535,10.253,10.253,0,0,1,2.5059,7.1787q0,.9185-.0694,2.083a5.8442,5.8442,0,0,1-.2089,1.2334c-.6578,2.334-1.84,5.75-3.6163,10.4443q-.0658.1744-.1435.3458a10.7848,10.7848,0,0,1-2.3945,3.3876,5.7909,5.7909,0,0,1,.3818.4776,5.8539,5.8539,0,0,1,.793,5.2851c-1.1763,3.4893-2.9307,8.8809-5.2159,16.0264a5.8534,5.8534,0,0,1-5.5761,4.0713Z"/><path class="b" d="M236.521,70.7589a5.87,5.87,0,0,1-.9434-.0762A10.0354,10.0354,0,0,1,227.21,60.715a5.8782,5.8782,0,0,1,.2568-1.7159l10.5762-34.5117a5.8842,5.8842,0,0,1,.4555-1.083,11.6539,11.6539,0,0,1,6.625-5.751c.0445-.0146.0889-.0293.1333-.042A24.0857,24.0857,0,0,1,251.96,16.98h20.7129c.13,0,.26.0049.3892.0127a10.8773,10.8773,0,0,1,3.5645.8643,13.0453,13.0453,0,0,1,5.8979,4.6367,7.477,7.477,0,0,1,1.3057,4.4717c0,3.1787-1.1866,10.208-10.438,36.5673a5.823,5.823,0,0,1-.5864,1.2071c-3.17,4.9756-7.0953,6.0195-9.83,6.0195ZM253.7764,39.77a4.2744,4.2744,0,0,0,2.3735.53,2.6689,2.6689,0,0,0,1.728-.4883,1.0862,1.0862,0,0,0-.3794-.9248,1.9944,1.9944,0,0,0-1.5537-.53,2.1039,2.1039,0,0,0-1.6386.5742,2.696,2.696,0,0,0-.5972.747A.7919.7919,0,0,0,253.7764,39.77Z"/><path class="b" d="M274.9,70.7589a5.8543,5.8543,0,0,1-5.5972-7.57l5.0391-16.4356c.043-.1416.0918-.28.1455-.4179,2.0112-5.14,4.1963-8.4864,6.8682-10.5166a5.8526,5.8526,0,0,1-1.8692-5.7784l2.08-8.789a5.8543,5.8543,0,0,1,5.6968-4.5059H315.769a5.8848,5.8848,0,0,1,1.2129.127,11.8773,11.8773,0,0,1,6.56,3.3535,10.253,10.253,0,0,1,2.5059,7.1787q0,.9185-.0694,2.083a5.8379,5.8379,0,0,1-.209,1.2334c-.6577,2.334-1.84,5.75-3.6162,10.4443q-.0659.1744-.1435.3458a10.7851,10.7851,0,0,1-2.3946,3.3876,5.7711,5.7711,0,0,1,.3819.4776,5.8539,5.8539,0,0,1,.793,5.2851c-1.1763,3.4893-2.9307,8.8809-5.2159,16.0264a5.8536,5.8536,0,0,1-5.5761,4.0713Z"/><path class="b" d="M322.8882,70.7589a5.87,5.87,0,0,1-.9434-.0762,10.0354,10.0354,0,0,1-8.3681-9.9677,5.8782,5.8782,0,0,1,.2568-1.7159L324.41,24.4874a5.8842,5.8842,0,0,1,.4555-1.083,11.6539,11.6539,0,0,1,6.625-5.751c.0445-.0146.0889-.0293.1333-.042a24.0857,24.0857,0,0,1,6.7041-.6318h20.7129c.13,0,.26.0049.3892.0127a10.8767,10.8767,0,0,1,3.5644.8643,13.045,13.045,0,0,1,5.898,4.6367,7.477,7.477,0,0,1,1.3057,4.4717c0,3.1787-1.1866,10.208-10.438,36.5673a5.8184,5.8184,0,0,1-.5865,1.2071c-3.17,4.9756-7.0952,6.0195-9.83,6.0195ZM340.1436,39.77a4.2742,4.2742,0,0,0,2.3735.53,2.6689,2.6689,0,0,0,1.728-.4883,1.0862,1.0862,0,0,0-.3794-.9248,1.9944,1.9944,0,0,0-1.5537-.53,2.1043,2.1043,0,0,0-1.6387.5742,2.6953,2.6953,0,0,0-.5971.747A.7919.7919,0,0,0,340.1436,39.77Z"/><path class="b" d="M372.3706,70.7589a5.8543,5.8543,0,0,1-5.55-7.7188l3.853-11.4707h-4.3091A5.8543,5.8543,0,0,1,360.82,43.836l7.7344-22.8222a5.8543,5.8543,0,0,1,5.5342-3.9756l33.6723-.0586a5.8546,5.8546,0,0,1,5.5738,7.6455L405.9814,47.506a5.8543,5.8543,0,0,1-5.5737,4.0634h-6.2554L389.5078,66.63a5.8544,5.8544,0,0,1-5.5942,4.1289Z"/><path class="b" d="M407.2993,70.7589a5.7416,5.7416,0,0,1-.7446-.0479,8.8914,8.8914,0,0,1-5.624-3.0351,9.1813,9.1813,0,0,1-2.2691-6.1406,5.8415,5.8415,0,0,1,.2578-1.7168l8.4668-27.5977a5.8125,5.8125,0,0,1,.4942-1.1533,10.5764,10.5764,0,0,1,6.0063-5.1055c.0464-.0156.0928-.0293.14-.0429a20.5994,20.5994,0,0,1,5.6362-.5313h16.582c.17,0,.3384.0078.5074.0225a10.1172,10.1172,0,0,1,3.0317.7539,11.4642,11.4642,0,0,1,5.2866,4.1631c.0635.0888.124.1806.1817.2734a7.1788,7.1788,0,0,1,1.0366,3.9228c0,2.8223-.9927,8.5547-8.3535,29.6709a5.873,5.873,0,0,1-.6324,1.2832c-3.0122,4.5948-6.8017,5.2813-8.7924,5.2813Z"/><path class="b" d="M462.5239,70.7589a5.8536,5.8536,0,0,1-5.2778-3.3213l-2.3921-4.9834-1.4209,4.29a5.8544,5.8544,0,0,1-5.5576,4.0146H438.061a5.8546,5.8546,0,0,1-5.5981-7.5674L442.7461,29.588a5.8542,5.8542,0,0,1,5.5977-4.1416c.0185,0,9.2846.0879,9.2846.0879a5.8542,5.8542,0,0,1,4.6455,2.3662c.0718.0967.1407.1953.2061.2949a5.8562,5.8562,0,0,1,4.9072-2.6611h8.1738a5.8549,5.8549,0,0,1,5.6861,7.248l-5.1856,21.1524a5.8386,5.8386,0,0,1-.208.6719,12.8054,12.8054,0,0,1-3.2895,5.123l1.2553,2.7285a5.8548,5.8548,0,0,1-5.3188,8.3008Z"/><path class="b" d="M481.4492,70.7589a5.8538,5.8538,0,0,1-5.5473-7.7246l2.6206-7.7725a7.5448,7.5448,0,0,1-6.9707-7.6133,8.8912,8.8912,0,0,1,.7836-3.5546l5.0738-14.7032a5.8545,5.8545,0,0,1,5.5342-3.9443h9.6093a5.8522,5.8522,0,0,1,4.2842,1.8652A5.8571,5.8571,0,0,1,501.1924,25.3s8.4492-.0879,8.47-.0879a5.8542,5.8542,0,0,1,5.6055,7.543L510.709,47.8927c-.8809,3.042-3.3184,5.3955-7.2481,6.9941a5.8516,5.8516,0,0,1-2.1474.4326l-1.4893.0147-3.4619,11.2871a5.8534,5.8534,0,0,1-5.5967,4.1377Z"/><path class="b" d="M511.01,70.7589a5.723,5.723,0,0,1-.7442-.0479,8.895,8.895,0,0,1-5.625-3.0351,9.1812,9.1812,0,0,1-2.2685-6.1406,5.8415,5.8415,0,0,1,.2578-1.7168l8.4668-27.5977a5.8121,5.8121,0,0,1,.4941-1.1533,10.5777,10.5777,0,0,1,6.0059-5.1055c.0469-.0156.0937-.0293.14-.0429a20.6065,20.6065,0,0,1,5.6367-.5313h16.5821c.1689,0,.3388.0078.5068.0225a10.12,10.12,0,0,1,3.0322.7539,11.4688,11.4688,0,0,1,5.2872,4.1631c.0625.0888.123.1806.1816.2734a7.182,7.182,0,0,1,1.0361,3.9228c0,2.8223-.9922,8.5547-8.3535,29.6709a5.8664,5.8664,0,0,1-.6318,1.2832c-3.0127,4.5948-6.8028,5.2813-8.793,5.2813Z"/><path class="a" d="M42.2661,64.9044H31.6313L25.2446,35.9591,29.229,22.8927h12.07l-2.8418,9.375,10.7813.0879,2.8418-9.668H62.6567l-4.1894,14.18Z"/><path class="a" d="M63.7866,64.9044A4.0384,4.0384,0,0,1,61.34,63.5128,4.1071,4.1071,0,0,1,60.33,60.715L71.4917,22.8927H93.64q-3.164,10.5762-5.625,20.2734a12.0873,12.0873,0,0,0-.2343,2.3145q0,3.31,2.1093,3.31h9.4336q-1.7871,5.3028-4.1894,12.8028-.4687,3.31-3.2227,3.31Z"/><path class="a" d="M140.2515,58.7521q-1.0254,3.4571-6.5039,6.1523H102.1655l12.8321-42.0117H141.98a13.3356,13.3356,0,0,1,2.3437.3808A7.1277,7.1277,0,0,1,148.22,25.91a1.8792,1.8792,0,0,1,.2344,1.1132Q148.4546,32.5021,140.2515,58.7521ZM126.6284,46.1544a8.4522,8.4522,0,0,0,5.3174-1.7285,5.4059,5.4059,0,0,0,2.2412-4.4824,6.9963,6.9963,0,0,0-2.2412-5.3467,8.41,8.41,0,0,0-11.2061.0879,7.2434,7.2434,0,0,0-2.4609,4.79v.1465a6.0494,6.0494,0,0,0,1.875,4.3652A9.1689,9.1689,0,0,0,126.6284,46.1544Z"/><path class="a" d="M185.1636,22.8341a4.8133,4.8133,0,0,1,.7324-.0586,5.2633,5.2633,0,0,1,4.3652,2.4609q.0879.0587.0879.4395,0,2.1093-2.8418,13.125a6.8333,6.8333,0,0,1-2.2558,3.0176,9.4638,9.4638,0,0,1-4.2774,2.373,6.9176,6.9176,0,0,1,2.5488,2.7246,7.029,7.029,0,0,1,1.0547,3.3692,2.03,2.03,0,0,1-.0879.5859l-2.9882,10.7227q-2.1094,3.31-4.8633,3.31H145.3491l12.8321-41.9238ZM162.605,61.3888a8.5493,8.5493,0,0,0,5.3174-1.6992,5.4118,5.4118,0,0,0,2.2412-4.5411,6.9621,6.9621,0,0,0-2.2412-5.3173,8.3679,8.3679,0,0,0-11.2061.1172,7.175,7.175,0,0,0-2.4316,4.7607v.2344a5.6717,5.6717,0,0,0,1.875,4.248A8.9856,8.9856,0,0,0,162.605,61.3888Zm6.1523-17.7832a8.5988,8.5988,0,0,0,5.3174-1.6846,5.4013,5.4013,0,0,0,2.2412-4.5557,6.9621,6.9621,0,0,0-2.2412-5.3173,8.3679,8.3679,0,0,0-11.206.1171,7.1756,7.1756,0,0,0-2.4317,4.7608V37.16a5.7033,5.7033,0,0,0,1.875,4.2773A9.0608,9.0608,0,0,0,168.7573,43.6056Z"/><path class="a" d="M215.6909,31.3888h-16.875l2.08-8.7891h28.5059a6.4834,6.4834,0,0,1,3.457,1.5821,4.64,4.64,0,0,1,.9668,3.2226q0,.7617-.0586,1.7285-.9083,3.2228-3.457,9.961-1.8458,4.0722-10.6934,4.0722h-.2637a7.1928,7.1928,0,0,0-4.0429.9668,4.38,4.38,0,0,0-1.5821,2.2559q-.3809,1.2012-.6738,2.4023h15.82q-1.7871,5.3028-5.2441,16.1133H188.5327l5.0391-16.4355q2.373-6.0645,5.01-8.0274,1.875-1.3476,5.8594-1.4941h8.76q5.42-1.7871,5.42-4.1309a3.2667,3.2667,0,0,0-1.3769-2.3144Q216.5113,31.9747,215.6909,31.3888Z"/><path class="a" d="M236.521,64.9044a4.0381,4.0381,0,0,1-2.4463-1.3916,4.1071,4.1071,0,0,1-1.0107-2.7978L243.64,26.2032a5.891,5.891,0,0,1,3.3106-2.9882,20.9489,20.9489,0,0,1,5.01-.3809h20.7129a5.0176,5.0176,0,0,1,1.7286.4394A7.2433,7.2433,0,0,1,277.771,25.91a1.948,1.948,0,0,1,.2051,1.0547q0,5.83-10.1074,34.6289-2.1094,3.31-4.8926,3.31Zm19.6289-18.75a8.5135,8.5135,0,0,0,5.332-1.7285,5.3942,5.3942,0,0,0,2.2559-4.4824,6.9743,6.9743,0,0,0-2.2559-5.3467,7.8345,7.8345,0,0,0-5.5371-2.0947,7.921,7.921,0,0,0-5.6689,2.1826,7.096,7.096,0,0,0-2.4463,4.79v.1465a6.0494,6.0494,0,0,0,1.875,4.3652A9.1251,9.1251,0,0,0,256.15,46.1544Z"/><path class="a" d="M302.0581,31.3888h-16.875l2.08-8.7891H315.769a6.4838,6.4838,0,0,1,3.4571,1.5821,4.64,4.64,0,0,1,.9668,3.2226q0,.7617-.0586,1.7285-.9083,3.2228-3.4571,9.961-1.8456,4.0722-10.6933,4.0722H305.72a7.1934,7.1934,0,0,0-4.043.9668,4.38,4.38,0,0,0-1.582,2.2559q-.3809,1.2012-.6738,2.4023h15.82q-1.7871,5.3028-5.2441,16.1133H274.9l5.0391-16.4355q2.373-6.0645,5.01-8.0274,1.875-1.3476,5.8594-1.4941h8.76q5.42-1.7871,5.42-4.1309a3.2665,3.2665,0,0,0-1.377-2.3144Q302.8785,31.9747,302.0581,31.3888Z"/><path class="a" d="M322.8882,64.9044a4.0381,4.0381,0,0,1-2.4463-1.3916,4.1071,4.1071,0,0,1-1.0107-2.7978l10.5761-34.5118a5.891,5.891,0,0,1,3.3106-2.9882,20.9489,20.9489,0,0,1,5.01-.3809h20.7129a5.0165,5.0165,0,0,1,1.7285.4394,7.2436,7.2436,0,0,1,3.3692,2.6368,1.948,1.948,0,0,1,.2051,1.0547q0,5.83-10.1075,34.6289-2.1093,3.31-4.8925,3.31Zm19.6289-18.75a8.5135,8.5135,0,0,0,5.332-1.7285,5.3942,5.3942,0,0,0,2.2559-4.4824,6.9743,6.9743,0,0,0-2.2559-5.3467,7.8345,7.8345,0,0,0-5.5371-2.0947,7.921,7.921,0,0,0-5.6689,2.1826,7.096,7.096,0,0,0-2.4463,4.79v.1465a6.0494,6.0494,0,0,0,1.875,4.3652A9.1251,9.1251,0,0,0,342.5171,46.1544Z"/><path class="a" d="M372.3706,64.9044l6.4453-19.1894H366.3647l7.7344-22.8223,33.6621-.0586L400.4077,45.715H389.8315l-5.9179,19.1894Z"/><path class="a" d="M407.2993,64.9044a3.0683,3.0683,0,0,1-1.9629-1.084,3.3492,3.3492,0,0,1-.82-2.2851l8.4668-27.5977a4.8261,4.8261,0,0,1,2.6953-2.4023,17.17,17.17,0,0,1,3.9844-.293h16.582a4.3021,4.3021,0,0,1,1.3477.3516,5.6914,5.6914,0,0,1,2.6953,2.1093,1.65,1.65,0,0,1,.1465.82q0,4.7169-8.0274,27.7442-1.7285,2.6367-3.8964,2.6367Zm15.7324-15a6.8664,6.8664,0,0,0,4.2481-1.3916,4.2755,4.2755,0,0,0,1.8457-3.56,5.6523,5.6523,0,0,0-1.8018-4.3213,6.2539,6.2539,0,0,0-4.4384-1.6845A6.3664,6.3664,0,0,0,418.271,40.72a5.6513,5.6513,0,0,0-1.9189,3.8526v.1465a4.7667,4.7667,0,0,0,1.5234,3.457A7.316,7.316,0,0,0,423.0317,49.9044Z"/><path class="a" d="M448.3442,31.3009l9.2286.0879-4.9512,16.9336h9.2871l5.4785-16.9336h8.1738l-5.1855,21.1523q-1.3476,3.5742-3.6035,3.5742h-2.3145l4.043,8.7891h-5.9766l-4.2187-8.7891-7.5-.0585-2.93,8.8476H438.061Z"/><path class="a" d="M509.6621,31.0665l-4.57,15.1758q-.5274,1.875-3.8379,3.2227l-5.7715.0585-4.7168,15.3809h-9.3164l5.1856-15.3809-6.9727-.0585q-2.2559,0-2.2558-1.8165a3.46,3.46,0,0,1,.3808-1.4062l5.1563-14.9414h9.6093l-2.2558,7.3535,8.6426.2344,2.3144-7.7344Z"/><path class="a" d="M511.01,64.9044a3.0681,3.0681,0,0,1-1.9629-1.084,3.3487,3.3487,0,0,1-.82-2.2851l8.4668-27.5977a4.8257,4.8257,0,0,1,2.6953-2.4023,17.1689,17.1689,0,0,1,3.9843-.293h16.5821a4.3015,4.3015,0,0,1,1.3476.3516,5.6909,5.6909,0,0,1,2.6953,2.1093,1.65,1.65,0,0,1,.1465.82q0,4.7169-8.0273,27.7442-1.7286,2.6367-3.8965,2.6367Zm15.7324-15a6.8659,6.8659,0,0,0,4.248-1.3916,4.2755,4.2755,0,0,0,1.8457-3.56,5.6523,5.6523,0,0,0-1.8017-4.3213,6.2543,6.2543,0,0,0-4.4385-1.6845,6.3664,6.3664,0,0,0-4.6143,1.7724,5.6518,5.6518,0,0,0-1.9189,3.8526v.1465a4.7667,4.7667,0,0,0,1.5234,3.457A7.3162,7.3162,0,0,0,526.7422,49.9044Z"/></svg>