<svg xmlns="http://www.w3.org/2000/svg" viewBox="0 0 566.9291 85.0394"><defs><style>.a{fill:#231815;}.b{fill:#fff;}.c{fill:#9fa0a0;}</style></defs><title>vldb2020-logo1-gray-bb</title><path class="a" d="M530.991,83.1867c8.0771,0,15.4463-4.1743,20.2168-11.4527a19.5059,19.5059,0,0,0,2.1064-4.2749c8.418-24.1474,9.1153-29.9414,9.1153-34.1679a20.7231,20.7231,0,0,0-3.1114-11.1607q-.29-.465-.6074-.9135a25.2366,25.2366,0,0,0-11.33-8.9517,23.7687,23.7687,0,0,0-6.9648-1.6968q-.8437-.0732-1.69-.0732H522.1433a36.1882,36.1882,0,0,0-7.955.6965,19.4923,19.4923,0,0,0-5.7549-.8723c-.0684,0-8.6133.0889-8.6133.0889a19.5342,19.5342,0,0,0-4.47.5654,19.49,19.49,0,0,0-4.0274-.42h-9.6093a19.4863,19.4863,0,0,0-3.8941.4062,19.5013,19.5013,0,0,0-3.4888-.3183H466.157a19.4978,19.4978,0,0,0-4.9092.6264,19.4934,19.4934,0,0,0-4.72-.6255s-9.3535-.0888-9.416-.0888a19.4609,19.4609,0,0,0-5.8132.8969,23.6135,23.6135,0,0,0-4.594-.8823q-.8437-.0732-1.69-.0732H422.5667c-.0928-.1339-.18-.2709-.2759-.4029a19.5146,19.5146,0,0,0-15.76-8.0053l-33.6963.0586a19.4642,19.4642,0,0,0-7.1367,1.3748,24.38,24.38,0,0,0-6.59-1.39c-.4317-.0288-.8652-.0434-1.2979-.0434H337.0974A35.5593,35.5593,0,0,0,326.44,3.3029c-.1484.0449-.2969.0918-.4443.14-.5735.1884-1.1292.4174-1.6843.6469a29.8639,29.8639,0,0,0-5.73-1.8139,19.5362,19.5362,0,0,0-4.043-.4233H286.033a19.4427,19.4427,0,0,0-7.3159,1.4394,24.3693,24.3693,0,0,0-5.9761-1.1616c-.4316-.0288-.8652-.0434-1.2979-.0434H250.73A35.56,35.56,0,0,0,240.073,3.3029q-.2226.0673-.4443.14c-.5735.1884-1.1292.4174-1.6843.6469a29.8639,29.8639,0,0,0-5.73-1.8139,19.5353,19.5353,0,0,0-4.0429-.4233H199.6658a19.4441,19.4441,0,0,0-7.2978,1.4322,24.2715,24.2715,0,0,0-7.7022-1.2564c-.5771,0-1.1592.0215-1.7422.0639l-26.0781.1416a19.4634,19.4634,0,0,0-7.2114,1.4347c-.3184-.1073-.6287-.2284-.9527-.3253q-.3691-.11-.7412-.2056a32.9972,32.9972,0,0,0-5.7666-.94q-.71-.0521-1.4238-.0522H113.7674a19.4684,19.4684,0,0,0-10.669,3.188A19.5119,19.5119,0,0,0,92.41,2.1457H70.2615a19.4923,19.4923,0,0,0-3.96.4208,19.4905,19.4905,0,0,0-4.875-.6259H50.85a19.4948,19.4948,0,0,0-5.75.8647,19.4908,19.4908,0,0,0-5.0313-.66h-12.07A19.5145,19.5145,0,0,0,9.3328,15.9684L5.3484,29.0348a19.5138,19.5138,0,0,0-.3906,9.8965l6.3867,28.9453a19.5158,19.5158,0,0,0,19.0567,15.31S518.4178,82.981,530.991,83.1867Z"/><path class="b" d="M24.5469,63.6721A5.8541,5.8541,0,0,1,18.83,59.0789L12.4434,30.1335a5.8472,5.8472,0,0,1,.1171-2.9687l3.9844-13.0664a5.8542,5.8542,0,0,1,5.6-4.147h12.07a5.8542,5.8542,0,0,1,5.3472,3.4707,5.8549,5.8549,0,0,1,5.4341-3.6758H55.5723A5.8545,5.8545,0,0,1,61.1865,17.26l-4.1894,14.18a5.85,5.85,0,0,1-.5454,1.27L40.2505,60.7468a5.8544,5.8544,0,0,1-5.0689,2.9253Z"/><path class="b" d="M56.7021,63.6721a5.881,5.881,0,0,1-.9433-.0766,10.0358,10.0358,0,0,1-8.3682-9.9673,5.8412,5.8412,0,0,1,.24-1.6573L58.7925,14.1487a5.854,5.854,0,0,1,5.6147-4.1973H86.5557a5.8544,5.8544,0,0,1,5.6089,7.5327C90.269,23.8186,88.5454,29.988,87.0327,35.85h5.2066a5.8548,5.8548,0,0,1,5.5478,7.7241c-1.1445,3.396-2.501,7.539-4.0337,12.3193-.893,4.7456-4.3442,7.7788-8.9263,7.7788Zm29.86-25.0049Z"/><path class="b" d="M95.0811,63.6721a5.8547,5.8547,0,0,1-5.5992-7.5644L102.314,14.0959a5.8543,5.8543,0,0,1,5.5991-4.1445h26.9824q.2139,0,.4273.0156a19.2757,19.2757,0,0,1,3.3706.5489c.0747.019.1484.04.2221.0615a12.888,12.888,0,0,1,6.9146,4.7471,7.3917,7.3917,0,0,1,1.3945,4.6123c0,2.9668-.9629,9.4526-8.47,33.4746-1.1392,3.8428-4.3462,7.12-9.5073,9.6592a5.8571,5.8571,0,0,1-2.5845.6015Zm22.06-30.99a4.3489,4.3489,0,0,0,2.4033.5307,2.6161,2.6161,0,0,0,1.6988-.477,1.1182,1.1182,0,0,0-.3789-.9492A1.9833,1.9833,0,0,0,119.31,31.27a2.0363,2.0363,0,0,0-1.6109.5615,3.0643,3.0643,0,0,0-.6147.7759C117.0981,32.6287,117.1172,32.6536,117.1406,32.6824Z"/><path class="b" d="M138.2646,63.6721a5.8548,5.8548,0,0,1-5.5981-7.5679L145.4985,14.18a5.8551,5.8551,0,0,1,5.5664-4.1411l26.63-.1445a10.5562,10.5562,0,0,1,1.1162-.0606,11.0661,11.0661,0,0,1,8.9033,4.6079,6.3076,6.3076,0,0,1,1.4043,4.147c0,1.38-.2338,3.7593-3.0273,14.5874a11.5781,11.5781,0,0,1-3.6694,5.5972,11.6986,11.6986,0,0,1,.9253,4.4248,7.889,7.889,0,0,1-.3135,2.1963l-2.9776,10.6841a5.8748,5.8748,0,0,1-.7021,1.5742c-3.17,4.9746-7.0791,6.019-9.8008,6.019Zm14.85-15.8052a4.0031,4.0031,0,0,0,2.4062.5806,2.7676,2.7676,0,0,0,1.7036-.4536,1.1169,1.1169,0,0,0-.3838-.9722,2.5461,2.5461,0,0,0-3.1367.0464,2.984,2.984,0,0,0-.6177.771Zm6.1523-17.7539a4.145,4.145,0,0,0,2.4063.5513,2.8324,2.8324,0,0,0,1.7036-.4409,1.1247,1.1247,0,0,0-.3838-.9854,2.5466,2.5466,0,0,0-3.1367.0469,2.86,2.86,0,0,0-.627.791C159.24,30.0872,159.2524,30.0994,159.2666,30.113Z"/><path class="b" d="M181.4482,63.6721a5.8544,5.8544,0,0,1-5.5971-7.5708l5.039-16.4355q.0645-.211.1455-.417c2.0113-5.1406,4.1963-8.4868,6.8682-10.5171a5.8521,5.8521,0,0,1-1.8691-5.7778l2.08-8.7891a5.8543,5.8543,0,0,1,5.6968-4.5064h28.5059a5.852,5.852,0,0,1,1.2129.127,11.878,11.878,0,0,1,6.5595,3.3535,10.253,10.253,0,0,1,2.5059,7.1787q0,.9177-.0693,2.0825a5.8371,5.8371,0,0,1-.209,1.2339c-.6577,2.3335-1.84,5.75-3.6162,10.4444q-.066.175-.1436.3457a10.7966,10.7966,0,0,1-2.3945,3.3877,5.7519,5.7519,0,0,1,.3818.4775,5.8533,5.8533,0,0,1,.793,5.2847c-1.1763,3.49-2.9307,8.8818-5.2158,16.0268a5.8542,5.8542,0,0,1-5.5762,4.0713Z"/><path class="b" d="M229.4365,63.6721a5.881,5.881,0,0,1-.9433-.0766,10.0358,10.0358,0,0,1-8.3682-9.9673,5.8674,5.8674,0,0,1,.2568-1.7154L230.958,17.4011a5.8776,5.8776,0,0,1,.4556-1.0835,11.6564,11.6564,0,0,1,6.625-5.7514c.0444-.0142.0888-.0284.1333-.042a24.1236,24.1236,0,0,1,6.7041-.6314h20.7129q.1948,0,.3891.0132a10.8423,10.8423,0,0,1,3.5645.8643,13.0375,13.0375,0,0,1,5.8979,4.6362,7.477,7.477,0,0,1,1.3057,4.4717c0,3.1787-1.1865,10.208-10.438,36.5678a5.8524,5.8524,0,0,1-.5864,1.2071c-3.17,4.9746-7.0952,6.019-9.83,6.019Zm17.2554-30.9892a4.2752,4.2752,0,0,0,2.3735.53,2.67,2.67,0,0,0,1.7281-.4887,1.0856,1.0856,0,0,0-.3794-.9244,1.9966,1.9966,0,0,0-1.5537-.53,2.1028,2.1028,0,0,0-1.6387.5747,2.6869,2.6869,0,0,0-.5972.7466A.8094.8094,0,0,0,246.6919,32.6829Z"/><path class="b" d="M267.8154,63.6721a5.8544,5.8544,0,0,1-5.5971-7.5708l5.039-16.4355q.0645-.211.1455-.417c2.0113-5.1406,4.1963-8.4868,6.8682-10.5171a5.8521,5.8521,0,0,1-1.8691-5.7778l2.08-8.7891a5.8542,5.8542,0,0,1,5.6968-4.5064h28.5059a5.852,5.852,0,0,1,1.2129.127,11.878,11.878,0,0,1,6.56,3.3535,10.253,10.253,0,0,1,2.5059,7.1787q0,.9177-.0693,2.0825a5.8435,5.8435,0,0,1-.209,1.2339c-.6577,2.3335-1.84,5.75-3.6162,10.4444q-.066.175-.1436.3457a10.7966,10.7966,0,0,1-2.3945,3.3877,5.7727,5.7727,0,0,1,.3818.4775,5.8533,5.8533,0,0,1,.793,5.2847c-1.1763,3.49-2.9307,8.8818-5.2158,16.0268a5.8542,5.8542,0,0,1-5.5762,4.0713Z"/><path class="b" d="M315.8037,63.6721a5.881,5.881,0,0,1-.9433-.0766,10.0356,10.0356,0,0,1-8.3682-9.9673,5.8674,5.8674,0,0,1,.2568-1.7154l10.5762-34.5117a5.8776,5.8776,0,0,1,.4556-1.0835,11.6564,11.6564,0,0,1,6.625-5.7514c.0444-.0142.0888-.0284.1333-.042a24.1236,24.1236,0,0,1,6.7041-.6314h20.7129q.1947,0,.3891.0132a10.8423,10.8423,0,0,1,3.5645.8643,13.0375,13.0375,0,0,1,5.8979,4.6362,7.477,7.477,0,0,1,1.3057,4.4717c0,3.1787-1.1865,10.208-10.438,36.5678a5.8524,5.8524,0,0,1-.5864,1.2071c-3.17,4.9746-7.0952,6.019-9.83,6.019Zm17.2554-30.9892a4.2752,4.2752,0,0,0,2.3735.53,2.669,2.669,0,0,0,1.728-.4887,1.0853,1.0853,0,0,0-.3793-.9244,1.9967,1.9967,0,0,0-1.5538-.53,2.1025,2.1025,0,0,0-1.6386.5747,2.6869,2.6869,0,0,0-.5972.7466A.8094.8094,0,0,0,333.0591,32.6829Z"/><path class="b" d="M365.2861,63.6721a5.8547,5.8547,0,0,1-5.55-7.7187l3.8531-11.4707H359.28a5.8545,5.8545,0,0,1-5.5445-7.7334L361.47,13.927a5.8537,5.8537,0,0,1,5.5342-3.9756l33.6724-.0586a5.855,5.855,0,0,1,5.5737,7.6455L398.897,40.4192a5.855,5.855,0,0,1-5.5738,4.0635h-6.2553l-4.6446,15.06a5.8542,5.8542,0,0,1-5.5942,4.1294Z"/><path class="b" d="M400.2148,63.6721a5.85,5.85,0,0,1-.7446-.0478,8.89,8.89,0,0,1-5.624-3.0357,9.1791,9.1791,0,0,1-2.2691-6.14,5.85,5.85,0,0,1,.2579-1.7173l8.4668-27.5977a5.83,5.83,0,0,1,.4941-1.1528,10.5773,10.5773,0,0,1,6.0063-5.1059c.0464-.0147.0928-.0289.14-.043a20.6039,20.6039,0,0,1,5.6362-.5308H429.16q.2541,0,.5073.022a10.1392,10.1392,0,0,1,3.0317.7544,11.4687,11.4687,0,0,1,5.2866,4.1631q.0953.1339.1817.2734a7.1813,7.1813,0,0,1,1.0366,3.9229c0,2.8227-.9927,8.5551-8.3535,29.6714a5.8653,5.8653,0,0,1-.6323,1.2822c-3.0122,4.5957-6.8018,5.2817-8.7925,5.2817Z"/><path class="b" d="M455.44,63.6721a5.8545,5.8545,0,0,1-5.2779-3.3213L447.77,55.3674l-1.4209,4.2906a5.8544,5.8544,0,0,1-5.5576,4.0141h-9.8144a5.8542,5.8542,0,0,1-5.5982-7.5674l10.2832-33.6035a5.8543,5.8543,0,0,1,5.5977-4.1416c.0185,0,9.2846.0884,9.2846.0884a5.8551,5.8551,0,0,1,4.6456,2.3652q.1075.1451.206.2959a5.8544,5.8544,0,0,1,4.9072-2.6616h8.1739a5.8544,5.8544,0,0,1,5.686,7.2485l-5.1855,21.1524a5.8618,5.8618,0,0,1-.2081.6714,12.8091,12.8091,0,0,1-3.29,5.123l1.2554,2.728a5.8551,5.8551,0,0,1-5.3189,8.3013Z"/><path class="b" d="M474.3652,63.6721a5.8539,5.8539,0,0,1-5.5473-7.7246l2.62-7.7725a7.5444,7.5444,0,0,1-6.97-7.6132,8.8857,8.8857,0,0,1,.7837-3.5542l5.0737-14.7032a5.8547,5.8547,0,0,1,5.5342-3.9448h9.6094a5.8533,5.8533,0,0,1,4.2841,1.8648,5.8529,5.8529,0,0,1,4.3555-2.0108s8.4492-.0884,8.47-.0884a5.854,5.854,0,0,1,5.6055,7.5425L503.625,40.8054c-.8809,3.0425-3.3184,5.3955-7.248,6.9951a5.85,5.85,0,0,1-2.1475.4317l-1.4893.0151-3.4619,11.2866a5.8539,5.8539,0,0,1-5.5967,4.1382Z"/><path class="b" d="M503.9258,63.6721a5.8315,5.8315,0,0,1-.7442-.0478,8.894,8.894,0,0,1-5.625-3.0357,9.179,9.179,0,0,1-2.2685-6.14,5.85,5.85,0,0,1,.2578-1.7173l8.4668-27.5977a5.8357,5.8357,0,0,1,.4941-1.1528,10.5783,10.5783,0,0,1,6.0059-5.1059c.0469-.0147.0937-.0289.14-.043a20.6114,20.6114,0,0,1,5.6368-.5308h16.582c.1689,0,.3389.0073.5068.022a10.1422,10.1422,0,0,1,3.0323.7544,11.4735,11.4735,0,0,1,5.2871,4.1631q.0938.1339.1816.2734a7.1845,7.1845,0,0,1,1.0361,3.9229c0,2.8227-.9921,8.5551-8.3535,29.6714A5.8635,5.8635,0,0,1,533.93,58.39c-3.0127,4.5957-6.8027,5.2817-8.793,5.2817Z"/><path class="a" d="M35.1816,57.8176H24.5469L18.16,28.8723l3.9843-13.0664h12.07l-2.8418,9.375,10.7813.0879,2.8418-9.668H55.5723l-4.1895,14.18Z"/><path class="a" d="M56.7021,57.8176a4.0379,4.0379,0,0,1-2.4462-1.3916,4.1067,4.1067,0,0,1-1.0108-2.7978L64.4072,15.8059H86.5557q-3.1641,10.5762-5.625,20.2734a12.08,12.08,0,0,0-.2344,2.3145q0,3.3105,2.1094,3.3105h9.4336Q90.4522,47.0071,88.05,54.5071q-.4687,3.31-3.2227,3.31Z"/><path class="a" d="M133.167,51.6653q-1.0254,3.457-6.5039,6.1523H95.0811l12.832-42.0117h26.9824a13.3383,13.3383,0,0,1,2.3438.3809,7.1268,7.1268,0,0,1,3.8964,2.6367,1.8793,1.8793,0,0,1,.2344,1.1133Q141.37,25.4152,133.167,51.6653ZM119.5439,39.0676a8.4516,8.4516,0,0,0,5.3174-1.7285,5.4055,5.4055,0,0,0,2.2412-4.4824,6.996,6.996,0,0,0-2.2412-5.3467,8.41,8.41,0,0,0-11.206.0879,7.2433,7.2433,0,0,0-2.461,4.79v.1465a6.05,6.05,0,0,0,1.875,4.3653A9.1693,9.1693,0,0,0,119.5439,39.0676Z"/><path class="a" d="M178.0791,15.7473a4.8261,4.8261,0,0,1,.7324-.0586,5.2632,5.2632,0,0,1,4.3653,2.461q.0879.0585.0878.4394,0,2.1095-2.8417,13.125a6.8337,6.8337,0,0,1-2.2559,3.0176,9.4619,9.4619,0,0,1-4.2774,2.373,6.9178,6.9178,0,0,1,2.5489,2.7246,7.03,7.03,0,0,1,1.0547,3.3692,2.03,2.03,0,0,1-.0879.5859L174.417,54.5071q-2.1094,3.31-4.8633,3.31H138.2646l12.8321-41.9238ZM155.5205,54.302a8.5491,8.5491,0,0,0,5.3174-1.6992,5.4118,5.4118,0,0,0,2.2412-4.541,6.9623,6.9623,0,0,0-2.2412-5.3174,8.3682,8.3682,0,0,0-11.2061.1172A7.1754,7.1754,0,0,0,147.2,47.6223v.2344a5.6717,5.6717,0,0,0,1.875,4.248A8.9858,8.9858,0,0,0,155.5205,54.302Zm6.1524-17.7832a8.5987,8.5987,0,0,0,5.3173-1.6846,5.401,5.401,0,0,0,2.2412-4.5556,6.962,6.962,0,0,0-2.2412-5.3174,8.368,8.368,0,0,0-11.206.1172,7.1751,7.1751,0,0,0-2.4317,4.7607v.2344a5.7033,5.7033,0,0,0,1.875,4.2773A9.0609,9.0609,0,0,0,161.6729,36.5188Z"/><path class="c" d="M208.6064,24.302h-16.875l2.08-8.7891h28.5059a6.4834,6.4834,0,0,1,3.457,1.5821,4.64,4.64,0,0,1,.9668,3.2226q0,.7617-.0586,1.7285-.9083,3.2228-3.457,9.961-1.8457,4.0722-10.6934,4.0722h-.2636a7.1932,7.1932,0,0,0-4.043.9668,4.3794,4.3794,0,0,0-1.582,2.2559q-.381,1.2012-.6739,2.4023h15.82q-1.7871,5.3028-5.2441,16.1133H181.4482l5.0391-16.4355q2.373-6.0645,5.01-8.0274,1.875-1.3476,5.8593-1.4941h8.76q5.42-1.7871,5.42-4.1309a3.2669,3.2669,0,0,0-1.3769-2.3144Q209.4267,24.8879,208.6064,24.302Z"/><path class="c" d="M229.4365,57.8176A4.0384,4.0384,0,0,1,226.99,56.426a4.1071,4.1071,0,0,1-1.0107-2.7978l10.5762-34.5117a5.89,5.89,0,0,1,3.31-2.9883,20.956,20.956,0,0,1,5.01-.3809h20.7129a5.0173,5.0173,0,0,1,1.7285.44,7.2425,7.2425,0,0,1,3.3691,2.6367,1.9483,1.9483,0,0,1,.2051,1.0547q0,5.83-10.1074,34.6289-2.1094,3.31-4.8926,3.31Zm19.6289-18.75a8.5132,8.5132,0,0,0,5.3321-1.7285,5.394,5.394,0,0,0,2.2558-4.4824,6.9742,6.9742,0,0,0-2.2558-5.3467,7.8345,7.8345,0,0,0-5.5371-2.0947,7.9212,7.9212,0,0,0-5.669,2.1826,7.0966,7.0966,0,0,0-2.4463,4.79v.1465A6.05,6.05,0,0,0,242.62,36.9,9.1257,9.1257,0,0,0,249.0654,39.0676Z"/><path class="c" d="M294.9736,24.302h-16.875l2.08-8.7891h28.5059a6.4834,6.4834,0,0,1,3.457,1.5821,4.64,4.64,0,0,1,.9668,3.2226q0,.7617-.0586,1.7285-.9083,3.2228-3.457,9.961-1.8458,4.0722-10.6934,4.0722h-.2637a7.193,7.193,0,0,0-4.0429.9668,4.38,4.38,0,0,0-1.5821,2.2559q-.3808,1.2012-.6738,2.4023h15.82q-1.7871,5.3028-5.2441,16.1133H267.8154l5.0391-16.4355q2.373-6.0645,5.01-8.0274,1.875-1.3476,5.8593-1.4941h8.76q5.42-1.7871,5.42-4.1309a3.2669,3.2669,0,0,0-1.3769-2.3144Q295.794,24.8879,294.9736,24.302Z"/><path class="c" d="M315.8037,57.8176a4.0384,4.0384,0,0,1-2.4463-1.3916,4.1071,4.1071,0,0,1-1.0107-2.7978l10.5762-34.5117a5.89,5.89,0,0,1,3.31-2.9883,20.9554,20.9554,0,0,1,5.01-.3809h20.7129a5.0173,5.0173,0,0,1,1.7285.44,7.2425,7.2425,0,0,1,3.3691,2.6367,1.9483,1.9483,0,0,1,.2051,1.0547q0,5.83-10.1074,34.6289-2.1095,3.31-4.8926,3.31Zm19.6289-18.75a8.5129,8.5129,0,0,0,5.332-1.7285,5.3938,5.3938,0,0,0,2.2559-4.4824,6.974,6.974,0,0,0-2.2559-5.3467,7.8345,7.8345,0,0,0-5.5371-2.0947,7.921,7.921,0,0,0-5.6689,2.1826,7.0966,7.0966,0,0,0-2.4463,4.79v.1465a6.05,6.05,0,0,0,1.875,4.3653A9.1255,9.1255,0,0,0,335.4326,39.0676Z"/><path class="a" d="M365.2861,57.8176l6.4453-19.1894H359.28l7.7343-22.8223,33.6622-.0586-7.3536,22.8809H382.7471l-5.918,19.1894Z"/><path class="a" d="M400.2148,57.8176a3.0679,3.0679,0,0,1-1.9628-1.084,3.3488,3.3488,0,0,1-.82-2.2851l8.4668-27.5977a4.8262,4.8262,0,0,1,2.6954-2.4023,17.1683,17.1683,0,0,1,3.9843-.293H429.16a4.3042,4.3042,0,0,1,1.3476.3516,5.6911,5.6911,0,0,1,2.6953,2.1094,1.65,1.65,0,0,1,.1465.82q0,4.7167-8.0273,27.7441-1.7286,2.6367-3.8965,2.6367Zm15.7325-15a6.8657,6.8657,0,0,0,4.248-1.3916,4.2754,4.2754,0,0,0,1.8457-3.5595,5.6523,5.6523,0,0,0-1.8017-4.3213,6.254,6.254,0,0,0-4.4385-1.6846,6.3661,6.3661,0,0,0-4.6143,1.7725,5.6514,5.6514,0,0,0-1.9189,3.8525v.1465a4.7667,4.7667,0,0,0,1.5234,3.457A7.3158,7.3158,0,0,0,415.9473,42.8176Z"/><path class="a" d="M441.26,24.2141l9.2285.0879-4.9512,16.9336h9.2871l5.4785-16.9336h8.1739L463.291,45.4543q-1.3476,3.5743-3.6035,3.5743H457.373l4.043,8.789H455.44l-4.2188-8.789-7.5-.0586-2.93,8.8476h-9.8144Z"/><path class="a" d="M502.5781,23.98l-4.57,15.1758q-.5272,1.875-3.8379,3.2227l-5.7715.0586-4.7168,15.3808h-9.3164l5.1856-15.3808-6.9727-.0586q-2.2558,0-2.2558-1.8164a3.46,3.46,0,0,1,.3808-1.4063l5.1563-14.9414h9.6094l-2.2559,7.3535,8.6426.2344,2.3144-7.7344Z"/><path class="a" d="M503.9258,57.8176a3.0683,3.0683,0,0,1-1.9629-1.084,3.3487,3.3487,0,0,1-.82-2.2851l8.4668-27.5977a4.8257,4.8257,0,0,1,2.6953-2.4023,17.17,17.17,0,0,1,3.9844-.293h16.582a4.3055,4.3055,0,0,1,1.3477.3516,5.6921,5.6921,0,0,1,2.6953,2.1094,1.6512,1.6512,0,0,1,.1464.82q0,4.7167-8.0273,27.7441-1.7284,2.6367-3.8965,2.6367Zm15.7324-15a6.8658,6.8658,0,0,0,4.2481-1.3916,4.2756,4.2756,0,0,0,1.8457-3.5595,5.652,5.652,0,0,0-1.8018-4.3213,6.254,6.254,0,0,0-4.4385-1.6846,6.366,6.366,0,0,0-4.6142,1.7725,5.6515,5.6515,0,0,0-1.919,3.8525v.1465a4.7664,4.7664,0,0,0,1.5235,3.457A7.3155,7.3155,0,0,0,519.6582,42.8176Z"/></svg>