<svg xmlns="http://www.w3.org/2000/svg" viewBox="0 0 255.11811 212.59843"><defs><style>.a{fill:#fff;}.b{fill:#231815;}</style></defs><title>vldb2020-logo3-bw-db</title><path class="a" d="M221.11,9.768c14.07129,0,21.43359,10.19287,21.43359,20.26172a25.4633,25.4633,0,0,1-.898,6.54443L203.02012,185.79685c-2.86914,10.54-11.34961,17.03369-22.15625,17.03369H34.68321A16.189,16.189,0,0,1,19.0421,182.46286l.52685-1.97266a16.18924,16.18924,0,0,1-6.45361-17.51709l5.51172-20.59521a16.15975,16.15975,0,0,1,5.71881-8.60522,16.17962,16.17962,0,0,1-.27692-9.27955l5.6543-21.09375a27.276,27.276,0,0,1,2.4292-6.09179,16.17148,16.17148,0,0,1,.52832-5.03467l2.666-9.96094A16.18916,16.18916,0,0,1,50.96067,70.30905L45.74522,47.91013a16.18893,16.18893,0,0,1,.12891-7.85694L50.7667,21.77194A16.18891,16.18891,0,0,1,66.40586,9.768h13.1836a16.195,16.195,0,0,1,5.13965.83691A16.17778,16.17778,0,0,1,89.87266,9.768H103.027a16.13557,16.13557,0,0,1,2.9693.30029,16.18634,16.18634,0,0,1,3.05316-.30029h24.90234a16.16179,16.16179,0,0,1,8.04254,2.16833A16.13954,16.13954,0,0,1,150.065,9.768h30.0586a25.43029,25.43029,0,0,1,6.18347.73169,16.14531,16.14531,0,0,1,4.77356-.73169H221.11m0-5.66907h-30.0293a21.645,21.645,0,0,0-4.905.56726,31.81192,31.81192,0,0,0-6.05206-.56726H150.065a21.8143,21.8143,0,0,0-8.073,1.55591A21.73168,21.73168,0,0,0,133.95176,4.099H109.04942a21.5255,21.5255,0,0,0-3.05585.22314A20.58206,20.58206,0,0,0,103.027,4.099H89.87266a21.84114,21.84114,0,0,0-5.144.61218A21.82386,21.82386,0,0,0,79.58946,4.099H66.40586A21.888,21.888,0,0,0,45.29039,20.30661l-4.89252,18.281a21.93448,21.93448,0,0,0-.17395,10.60815L44.08134,65.7623a21.90179,21.90179,0,0,0-14.21081,15.084l-2.666,9.96094a21.82211,21.82211,0,0,0-.73816,5.1565,33.454,33.454,0,0,0-2.2185,5.96655l-5.65467,21.09509a21.75454,21.75454,0,0,0-.5083,8.83679,21.6645,21.6645,0,0,0-4.9342,9.05042L7.639,161.50754a21.86343,21.86343,0,0,0,5.57641,21.0249,21.85639,21.85639,0,0,0,21.46778,25.967H180.86387c13.47852,0,24.06433-8.12854,27.62622-21.21362l.00928-.03418.00891-.0343L247.13377,37.99472a31.0323,31.0323,0,0,0,1.07874-7.965,25.76615,25.76615,0,0,0-6.98987-17.80152C237.71617,8.51975,231.38047,4.099,221.11,4.099Z"/><path class="b" d="M203.02012,185.7968c-2.86914,10.54-11.34961,17.03369-22.15625,17.03369H34.6832a16.189,16.189,0,0,1-15.64111-20.36767l.52685-1.97266a16.18929,16.18929,0,0,1-6.45361-17.51709l5.51172-20.59521a16.16,16.16,0,0,1,5.71881-8.60523,16.17966,16.17966,0,0,1-.27692-9.27954l5.6543-21.09375a27.27674,27.27674,0,0,1,2.4292-6.0918,16.17139,16.17139,0,0,1,.52832-5.03466l2.666-9.96094A16.189,16.189,0,0,1,50.96067,70.30907l-5.21546-22.399a16.189,16.189,0,0,1,.12891-7.85693L50.7667,21.7719A16.18891,16.18891,0,0,1,66.40586,9.768H79.58945a16.1949,16.1949,0,0,1,5.13965.83692A16.17752,16.17752,0,0,1,89.87266,9.768H103.027a16.13561,16.13561,0,0,1,2.9693.30036,16.18058,16.18058,0,0,1,3.05316-.30036h24.90235a16.16113,16.16113,0,0,1,8.04254,2.1684A16.139,16.139,0,0,1,150.065,9.768h30.05859a25.43023,25.43023,0,0,1,6.18347.73169,16.14764,16.14764,0,0,1,4.77356-.73169H221.11c14.07129,0,21.43359,10.19287,21.43359,20.26172a25.463,25.463,0,0,1-.898,6.54444Z"/><path class="a" d="M62.22276,68.14438a4.85644,4.85644,0,0,1-4.73047-3.75488L51.92588,40.48325a4.85156,4.85156,0,0,1,.03907-2.35743l4.89257-18.28125A4.85545,4.85545,0,0,1,61.54893,16.244H74.73252a4.85661,4.85661,0,0,1,4.69336,6.10742L78.711,25.03305H78.923l1.40332-5.19824A4.85771,4.85771,0,0,1,85.01573,16.244H98.17a4.85661,4.85661,0,0,1,4.69336,6.10742l-4.86328,18.252a4.86943,4.86943,0,0,1-.72363,1.54786l-16.875,23.93554a4.85844,4.85844,0,0,1-3.96973,2.05762Z"/><path class="a" d="M99.505,68.14438c-7.4336,0-10.07129-4.79395-10.07129-8.89941a14.27656,14.27656,0,0,1,.50879-3.62793L99.5001,19.84653a4.85723,4.85723,0,0,1,4.69239-3.60254h24.90234a4.85662,4.85662,0,0,1,4.69336,6.10742L129.1671,39.68149h5.37695a4.8561,4.8561,0,0,1,4.69238,6.11035l-4.07226,15.23438a9.16723,9.16723,0,0,1-9.292,7.11816Z"/><path class="a" d="M133.92881,68.14438a4.85642,4.85642,0,0,1-4.69238-6.11133l11.2793-42.1875a4.85746,4.85746,0,0,1,4.69238-3.60156H175.2667c7.4336,0,10.07129,4.80957,10.07129,8.92871a14.1859,14.1859,0,0,1-.51464,3.625l-7.85352,29.27441c-1.709,6.39942-6.45215,10.07227-13.01172,10.07227Zm21.67286-28.4707c.04687.0039.10742.00781.18261.00781a3.39,3.39,0,0,0,2.167-.9082,4.11939,4.11939,0,0,0,1.54981-2.23145,2.55159,2.55159,0,0,0,.09863-.61328,1.9099,1.9099,0,0,0-.21191-.01074,3.33577,3.33577,0,0,0-2.1416.89941,4.14339,4.14339,0,0,0-1.5459,2.24024A2.52862,2.52862,0,0,0,155.60167,39.67368Z"/><path class="a" d="M174.94444,68.14438a4.85642,4.85642,0,0,1-4.69238-6.11133l11.27929-42.1875a4.85747,4.85747,0,0,1,4.69239-3.60156H216.253c7.45606,0,10.10059,4.80957,10.10059,8.92871a14.1855,14.1855,0,0,1-.51465,3.625L223.462,37.60043a14.9059,14.9059,0,0,1-2.82715,5.72754,9.7,9.7,0,0,1,.24023,2.17676,14.69747,14.69747,0,0,1-.543,3.79395l-2.34472,8.79492c-1.71387,6.39062-6.457,10.05078-13.01367,10.05078Zm16.66308-15.29a1.8555,1.8555,0,0,0,.21192.01074,3.33577,3.33577,0,0,0,2.1416-.89941,4.14339,4.14339,0,0,0,1.5459-2.24024,2.54143,2.54143,0,0,0,.09863-.61621c-.04883-.0039-.10937-.00781-.18262-.00781a3.39,3.39,0,0,0-2.167.9082,4.11934,4.11934,0,0,0-1.5498,2.23145A2.53858,2.53858,0,0,0,191.60752,52.85434Zm7.64649-17.5752c.04687.00391.10742.00782.18262.00782a3.39,3.39,0,0,0,2.167-.90821,4.11931,4.11931,0,0,0,1.5498-2.23144,2.5423,2.5423,0,0,0,.09864-.61621c-.04883-.00391-.10938-.00781-.18262-.00781a3.39,3.39,0,0,0-2.167.9082,4.11933,4.11933,0,0,0-1.54981,2.23144A2.52921,2.52921,0,0,0,199.254,35.27914Z"/><path class="a" d="M34.84971,128.68442a4.85683,4.85683,0,0,1-4.6914-6.11426l5.65429-21.09375a13.8967,13.8967,0,0,1,3.918-6.7666c-.041-.04981-.081-.09961-.12012-.15137a4.85293,4.85293,0,0,1-.83886-4.21289l2.666-9.96094A4.85545,4.85545,0,0,1,46.129,76.784h30.0293c7.45605,0,10.10058,4.80957,10.10058,8.92871a14.1855,14.1855,0,0,1-.51465,3.625l-3.168,11.73242a13.87764,13.87764,0,0,1-3.916,6.75977c.041.04882.082.09961.12109.15136a4.85894,4.85894,0,0,1,.83789,4.21387l-3.457,12.89063a4.85652,4.85652,0,0,1-4.6914,3.59863Z"/><path class="a" d="M82.45713,128.68442c-7.43359,0-10.07128-4.79395-10.07128-8.89942a14.277,14.277,0,0,1,.50878-3.62793L80.754,86.829c1.68164-6.377,6.415-10.04492,12.98242-10.04492h23.4375c7.45606,0,10.10059,4.80957,10.10059,8.92871a14.1855,14.1855,0,0,1-.51465,3.625l-7.82324,29.29785c-1.74414,6.39551-6.49512,10.04883-13.042,10.04883Zm16.5459-28.4707c.04688.0039.10742.00781.18262.00781a3.39,3.39,0,0,0,2.167-.90821,4.11939,4.11939,0,0,0,1.54981-2.23144,2.55213,2.55213,0,0,0,.09863-.61328,1.9099,1.9099,0,0,0-.21191-.01074,3.33579,3.33579,0,0,0-2.14161.89941,4.14344,4.14344,0,0,0-1.54589,2.24023A2.529,2.529,0,0,0,99.003,100.21372Z"/><path class="a" d="M116.881,128.68442a4.85683,4.85683,0,0,1-4.6914-6.11426l5.65429-21.09375a13.8967,13.8967,0,0,1,3.918-6.7666c-.041-.04981-.08105-.09961-.12012-.15137a4.85293,4.85293,0,0,1-.83886-4.21289l2.666-9.96094a4.85545,4.85545,0,0,1,4.69141-3.60058h30.0293c7.45605,0,10.10058,4.80957,10.10058,8.92871a14.1855,14.1855,0,0,1-.51465,3.625l-3.168,11.73242a13.87764,13.87764,0,0,1-3.916,6.75977c.041.04882.082.09961.12109.15136a4.85894,4.85894,0,0,1,.83789,4.21387l-3.457,12.89063a4.85652,4.85652,0,0,1-4.6914,3.59863Z"/><path class="a" d="M164.48838,128.68442c-7.43359,0-10.07128-4.79395-10.07128-8.89942a14.277,14.277,0,0,1,.50878-3.62793L162.78526,86.829c1.68164-6.377,6.415-10.04492,12.98242-10.04492h23.4375c7.45606,0,10.10059,4.80957,10.10059,8.92871a14.1855,14.1855,0,0,1-.51465,3.625l-7.82324,29.29785c-1.74414,6.39551-6.49512,10.04883-13.042,10.04883Zm16.5459-28.4707c.04688.0039.10742.00781.18262.00781a3.39,3.39,0,0,0,2.167-.90821,4.11939,4.11939,0,0,0,1.54981-2.23144,2.55213,2.55213,0,0,0,.09863-.61328,1.9099,1.9099,0,0,0-.21191-.01074,3.33579,3.33579,0,0,0-2.14161.89941,4.14344,4.14344,0,0,0-1.54589,2.24023A2.529,2.529,0,0,0,181.03428,100.21372Z"/><path class="a" d="M29.82627,186.64047a4.85578,4.85578,0,0,1-4.69238-6.10937l3.57227-13.37305h-4.8086a4.85645,4.85645,0,0,1-4.6914-6.1123L24.71788,140.45a4.85544,4.85544,0,0,1,4.6914-3.60058H64.19835a4.85735,4.85735,0,0,1,4.69238,6.11133L63.381,163.55649a4.85634,4.85634,0,0,1-4.69238,3.60156H51.28526l-4.24219,15.87988a4.85637,4.85637,0,0,1-4.69238,3.60254Z"/><path class="a" d="M61.89561,186.64047c-6.60547,0-8.94824-4.30957-8.94824-8.001a12.05155,12.05155,0,0,1,.44629-3.13282l5.95215-22.25293a10.92568,10.92568,0,0,1,11.17675-8.61132h17.8125c6.60547,0,8.94825,4.30957,8.94825,8.001a12.052,12.052,0,0,1-.44629,3.13282l-5.92383,22.248c-1.49317,5.48535-5.5752,8.61621-11.20508,8.61621Z"/><path class="a" d="M112.71592,186.64047a4.85712,4.85712,0,0,1-4.28418-2.56738l-.1914-.36035a4.858,4.858,0,0,1-4.458,2.92773h-14.751a4.85609,4.85609,0,0,1-4.69238-6.11035L92.9669,148.245a4.85722,4.85722,0,0,1,4.69238-3.60254h14.751a4.85136,4.85136,0,0,1,2.64355.78222,4.8533,4.8533,0,0,1,2.64454-.78222h8.07128a4.85646,4.85646,0,0,1,4.69141,6.1123l-5.51074,20.5957a8.68561,8.68561,0,0,1-2.7002,4.42774l1.98633,3.7168a4.85673,4.85673,0,0,1-4.28418,7.1455Z"/><path class="a" d="M127.43956,186.64047a4.85661,4.85661,0,0,1-4.69336-6.10742l2.1709-8.1416a7.59019,7.59019,0,0,1-4.39356-7.11133,12.05154,12.05154,0,0,1,.44629-3.13281l3.72656-13.90527a4.85629,4.85629,0,0,1,4.69141-3.59961h10.29785a4.85533,4.85533,0,0,1,3.77051,1.79492,4.856,4.856,0,0,1,3.77148-1.79492h10.27051a4.85558,4.85558,0,0,1,4.69141,6.11328l-3.7295,13.916c-1.25683,4.71387-4.45605,7.69727-8.92773,8.43164l-2.64844,9.93164a4.857,4.857,0,0,1-4.69336,3.60547Z"/><path class="a" d="M158.19444,186.64047c-6.60547,0-8.94824-4.30957-8.94824-8.001a12.05155,12.05155,0,0,1,.44629-3.13282l5.95214-22.25293a10.92569,10.92569,0,0,1,11.17676-8.61132h17.8125c6.60547,0,8.94824,4.30957,8.94824,8.001a12.052,12.052,0,0,1-.44628,3.13282l-5.92383,22.248c-1.49317,5.48535-5.5752,8.61621-11.20508,8.61621Z"/><path class="b" d="M98.17,21.10043l-4.86328,18.252-16.875,23.93554h-14.209L56.65635,39.38168l4.89258-18.28125H74.73252L72.38877,29.8895H82.64268l2.37305-8.78907Z"/><path class="b" d="M99.505,63.28793q-5.21486,0-5.21485-4.043a9.64118,9.64118,0,0,1,.35156-2.40235l9.55079-35.74219h24.90234l-5.625,21.09375a3.5519,3.5519,0,0,0-.14648.9375q0,1.40625,1.69921,1.40625h9.52149l-4.07227,15.23438a4.32372,4.32372,0,0,1-4.59961,3.51562Z"/><path class="b" d="M172.27842,56.81332q-1.72851,6.47462-8.32031,6.47461h-30.0293l11.2793-42.1875H175.2667q5.21486,0,5.21485,4.07227a9.30822,9.30822,0,0,1-.35156,2.37305ZM160.95518,42.58969a8.94,8.94,0,0,0,3.23731-4.79,7.34189,7.34189,0,0,0,.26367-1.875,4.78885,4.78885,0,0,0-5.06836-4.86328,8.19763,8.19763,0,0,0-5.15625,1.94824,8.96728,8.96728,0,0,0-3.22266,4.79,7.342,7.342,0,0,0-.26367,1.875,4.8262,4.8262,0,0,0,5.03906,4.86328A8.25587,8.25587,0,0,0,160.95518,42.58969Z"/><path class="b" d="M204.97374,63.28793h-30.0293l11.2793-42.1875H216.253q5.24415,0,5.24414,4.07227a9.30778,9.30778,0,0,1-.35156,2.37305l-2.37305,8.78906q-1.28906,4.77539-4.80468,5.85937a3.15314,3.15314,0,0,1,2.05078,3.31055,10.08042,10.08042,0,0,1-.38086,2.54883l-2.34375,8.78906Q211.56552,63.28794,204.97374,63.28793Zm-7.99805-7.51464a8.96739,8.96739,0,0,0,3.22266-4.79,7.342,7.342,0,0,0,.26367-1.875,4.96247,4.96247,0,0,0-.90821-2.92969,4.83211,4.83211,0,0,0-4.13086-1.93359,8.25586,8.25586,0,0,0-5.17089,1.94824,8.93992,8.93992,0,0,0-3.23731,4.79,7.34189,7.34189,0,0,0-.26367,1.875,4.72877,4.72877,0,0,0,.9375,2.90039,4.80551,4.80551,0,0,0,4.13086,1.96289A8.19767,8.19767,0,0,0,196.97569,55.77329Zm7.63183-17.57813a8.93987,8.93987,0,0,0,3.23731-4.79,7.34189,7.34189,0,0,0,.26367-1.875,4.96248,4.96248,0,0,0-.9082-2.92969,4.83212,4.83212,0,0,0-4.13086-1.93359,8.25587,8.25587,0,0,0-5.1709,1.94824,8.9399,8.9399,0,0,0-3.2373,4.79,7.34148,7.34148,0,0,0-.26368,1.875,4.8262,4.8262,0,0,0,5.03907,4.86328A8.25586,8.25586,0,0,0,204.60752,38.19516Z"/><path class="b" d="M66.28526,93.94516a3.47486,3.47486,0,0,0,.14648-.9082q0-1.43554-1.72851-1.43555H43.463l2.666-9.96094h30.0293q5.24414,0,5.24414,4.07227a9.30782,9.30782,0,0,1-.35157,2.37305L77.88682,99.80454q-1.72851,6.4453-8.32031,6.44531H66.63682a2.73111,2.73111,0,0,0-2.8125,2.34375l-.61523,2.34375H74.92784l-3.457,12.89062H34.84971l5.6543-21.09375q1.72851-6.4453,8.32031-6.44531H63.47276A2.73111,2.73111,0,0,0,66.28526,93.94516Z"/><path class="b" d="M82.45713,123.828q-5.21484,0-5.21484-4.043a9.64117,9.64117,0,0,1,.35156-2.40234l7.85157-29.29687q1.69922-6.44532,8.291-6.44532h23.4375q5.24413,0,5.24414,4.07227a9.30822,9.30822,0,0,1-.35156,2.37305l-7.82227,29.29687q-1.75781,6.44532-8.34961,6.44531Zm21.89942-20.69824a8.9399,8.9399,0,0,0,3.2373-4.79,7.34189,7.34189,0,0,0,.26367-1.875,4.78884,4.78884,0,0,0-5.06835-4.86328,8.19757,8.19757,0,0,0-5.15625,1.94824,8.96728,8.96728,0,0,0-3.22266,4.79,7.34189,7.34189,0,0,0-.26367,1.875,4.8262,4.8262,0,0,0,5.03906,4.86328A8.25589,8.25589,0,0,0,104.35655,103.12973Z"/><path class="b" d="M148.31651,93.94516a3.47486,3.47486,0,0,0,.14648-.9082q0-1.43554-1.72851-1.43555H125.49424l2.666-9.96094h30.0293q5.24414,0,5.24414,4.07227a9.30782,9.30782,0,0,1-.35157,2.37305l-3.16406,11.71875q-1.72851,6.4453-8.32031,6.44531h-2.92969a2.73111,2.73111,0,0,0-2.8125,2.34375l-.61523,2.34375h11.71875l-3.457,12.89062H116.881l5.6543-21.09375q1.72851-6.4453,8.32031-6.44531H145.504A2.73111,2.73111,0,0,0,148.31651,93.94516Z"/><path class="b" d="M164.48838,123.828q-5.21484,0-5.21484-4.043a9.64117,9.64117,0,0,1,.35156-2.40234l7.85157-29.29687q1.69921-6.44532,8.291-6.44532h23.4375q5.24413,0,5.24414,4.07227a9.30822,9.30822,0,0,1-.35156,2.37305l-7.82227,29.29687q-1.7578,6.44532-8.34961,6.44531Zm21.89942-20.69824a8.9399,8.9399,0,0,0,3.2373-4.79,7.34189,7.34189,0,0,0,.26367-1.875,4.78884,4.78884,0,0,0-5.06835-4.86328,8.19757,8.19757,0,0,0-5.15625,1.94824,8.96728,8.96728,0,0,0-3.22266,4.79,7.34189,7.34189,0,0,0-.26367,1.875,4.8262,4.8262,0,0,0,5.03906,4.86328A8.25589,8.25589,0,0,0,186.3878,103.12973Z"/><path class="b" d="M29.82627,181.784l5.20411-19.48242H23.89756l5.51172-20.59571H64.19835l-5.50977,20.59571H47.55577L42.35069,181.784Z"/><path class="b" d="M61.89561,181.784q-4.09276,0-4.0918-3.14453a7.21724,7.21724,0,0,1,.27832-1.86524l5.95606-22.26562a6.1196,6.1196,0,0,1,6.48437-5.00977h17.8125q4.09278,0,4.0918,3.14453a7.21681,7.21681,0,0,1-.27832,1.86524l-5.92871,22.26562a6.16077,6.16077,0,0,1-6.51172,5.00977ZM78.4835,165.86411a6.59294,6.59294,0,0,0,2.39258-3.5625,5.67,5.67,0,0,0,.19531-1.41993,3.51713,3.51713,0,0,0-3.72949-3.58984,6.03618,6.03618,0,0,0-3.79883,1.44727,6.76623,6.76623,0,0,0-2.40722,3.5625,5.30868,5.30868,0,0,0-.19532,1.3916,3.5686,3.5686,0,0,0,.69532,2.1709A3.53043,3.53043,0,0,0,74.67,167.31137,6.09433,6.09433,0,0,0,78.4835,165.86411Z"/><path class="b" d="M117.69835,149.49887h8.07128l-5.51074,20.5957a3.45059,3.45059,0,0,1-3.67383,2.78321h-1.3916l4.75879,8.90625h-7.23633l-4.75879-8.90625h-1.80957l-2.36523,8.90625h-14.751l8.62793-32.28516h14.751l-4.45313,16.69922H111.714a1.93818,1.93818,0,0,0,1.97656-1.66992Z"/><path class="b" d="M131.00206,168.42465h-1.53028q-4.09276,0-4.09179-3.14453a7.21668,7.21668,0,0,1,.27832-1.86523l3.72949-13.916h10.29785l-2.36621,8.90625h7.51562l2.39258-8.90625h10.27051l-3.72949,13.916a6.12026,6.12026,0,0,1-6.48438,5.00976H145.753l-3.5625,13.35938h-14.751Z"/><path class="b" d="M158.19444,181.784q-4.09278,0-4.0918-3.14453a7.21724,7.21724,0,0,1,.27832-1.86524l5.95606-22.26562a6.11959,6.11959,0,0,1,6.48437-5.00977h17.8125q4.09278,0,4.0918,3.14453a7.21681,7.21681,0,0,1-.27832,1.86524l-5.92871,22.26562a6.16077,6.16077,0,0,1-6.51172,5.00977Zm16.58789-15.91992a6.593,6.593,0,0,0,2.39258-3.5625,5.67,5.67,0,0,0,.19531-1.41993,3.51713,3.51713,0,0,0-3.72949-3.58984,6.03616,6.03616,0,0,0-3.79883,1.44727,6.76631,6.76631,0,0,0-2.40723,3.5625,5.30866,5.30866,0,0,0-.19531,1.3916,3.56865,3.56865,0,0,0,.69531,2.1709,3.53046,3.53046,0,0,0,3.03418,1.44726A6.09433,6.09433,0,0,0,174.78233,165.86411Z"/></svg>