<svg xmlns="http://www.w3.org/2000/svg" viewBox="0 0 255.11811 212.59843"><defs><style>.a{fill:#fff;}.b{fill:#231815;}.c{fill:#e2356b;}.d{fill:#f692ab;}</style></defs><title>vldb2020-logo3-color-db</title><path class="a" d="M221.11,9.76792c14.07129,0,21.43359,10.19287,21.43359,20.26172a25.4633,25.4633,0,0,1-.898,6.54443L203.02012,185.79673c-2.86914,10.54-11.34961,17.03369-22.15625,17.03369H34.68321A16.189,16.189,0,0,1,19.0421,182.46274l.52685-1.97265A16.18928,16.18928,0,0,1,13.11534,162.973l5.51172-20.59522a16.16,16.16,0,0,1,5.71881-8.60522A16.17958,16.17958,0,0,1,24.069,124.493l5.6543-21.09375a27.27588,27.27588,0,0,1,2.4292-6.0918,16.17148,16.17148,0,0,1,.52832-5.03467l2.666-9.96094A16.189,16.189,0,0,1,50.96067,70.309L45.74522,47.91a16.18893,16.18893,0,0,1,.12891-7.85694L50.7667,21.77182A16.18892,16.18892,0,0,1,66.40586,9.76792h13.1836a16.195,16.195,0,0,1,5.13965.83691,16.17778,16.17778,0,0,1,5.14355-.83691H103.027a16.13647,16.13647,0,0,1,2.9693.30035,16.1814,16.1814,0,0,1,3.05316-.30035h24.90234a16.16122,16.16122,0,0,1,8.04254,2.16839A16.139,16.139,0,0,1,150.065,9.76792h30.0586a25.43029,25.43029,0,0,1,6.18347.73169,16.14726,16.14726,0,0,1,4.77356-.73169H221.11m0-5.669h-30.0293a21.64987,21.64987,0,0,0-4.90491.5672,31.81745,31.81745,0,0,0-6.05212-.5672H150.065a21.81516,21.81516,0,0,0-8.073,1.55579,21.73132,21.73132,0,0,0-8.04029-1.55579H109.04942a21.51435,21.51435,0,0,0-3.056.22315,20.57366,20.57366,0,0,0-2.96649-.22315H89.87266a21.84476,21.84476,0,0,0-5.144.61212,21.82381,21.82381,0,0,0-5.13922-.61212H66.40586A21.88806,21.88806,0,0,0,45.29039,20.30643L40.39787,38.5875a21.93423,21.93423,0,0,0-.17395,10.60809l3.85742,16.56665A21.90149,21.90149,0,0,0,29.87053,80.84616l-2.666,9.96094a21.82161,21.82161,0,0,0-.73816,5.15644,33.45635,33.45635,0,0,0-2.2185,5.96661l-5.65467,21.095a21.754,21.754,0,0,0-.5083,8.83691,21.66418,21.66418,0,0,0-4.9342,9.0503L7.639,161.50742a21.86343,21.86343,0,0,0,5.57641,21.0249,21.85639,21.85639,0,0,0,21.46778,25.9671H180.86387c13.47852,0,24.06433-8.1286,27.62622-21.21368l.00928-.03418.00891-.03424L247.13377,37.99466a31.0331,31.0331,0,0,0,1.07874-7.965,25.76626,25.76626,0,0,0-6.98987-17.80152c-3.50647-3.70849-9.84217-8.12921-20.11267-8.12921Z"/><path class="b" d="M203.02012,185.79675c-2.86914,10.54-11.34961,17.0337-22.15625,17.0337H34.6832a16.189,16.189,0,0,1-15.64111-20.36768l.52685-1.97266A16.18929,16.18929,0,0,1,13.11533,162.973l5.51172-20.59521a16.16,16.16,0,0,1,5.71881-8.60522,16.17969,16.17969,0,0,1-.27692-9.27955l5.6543-21.09375a27.27647,27.27647,0,0,1,2.4292-6.09179,16.17148,16.17148,0,0,1,.52832-5.03467l2.666-9.96094A16.189,16.189,0,0,1,50.96067,70.309L45.74521,47.91a16.18905,16.18905,0,0,1,.12891-7.85694L50.7667,21.77185A16.1889,16.1889,0,0,1,66.40586,9.768H79.58945a16.19489,16.19489,0,0,1,5.13965.83691A16.17779,16.17779,0,0,1,89.87266,9.768H103.027a16.13647,16.13647,0,0,1,2.9693.30035,16.1814,16.1814,0,0,1,3.05316-.30035h24.90235a16.16122,16.16122,0,0,1,8.04254,2.16839A16.13894,16.13894,0,0,1,150.065,9.768h30.05859a25.43023,25.43023,0,0,1,6.18347.73169,16.14732,16.14732,0,0,1,4.77356-.73169H221.11c14.07129,0,21.43359,10.19287,21.43359,20.26172a25.46286,25.46286,0,0,1-.898,6.54443Z"/><path class="a" d="M62.22276,68.1445a4.85644,4.85644,0,0,1-4.73047-3.75488L51.92588,40.48337A4.85152,4.85152,0,0,1,51.965,38.126L56.85752,19.8447a4.85546,4.85546,0,0,1,4.69141-3.60059H74.73252a4.85661,4.85661,0,0,1,4.69336,6.10743L78.711,25.03318H78.923l1.40332-5.19825a4.85771,4.85771,0,0,1,4.68946-3.59082H98.17a4.85661,4.85661,0,0,1,4.69336,6.10743l-4.86328,18.252a4.86937,4.86937,0,0,1-.72363,1.54785l-16.875,23.93555a4.85843,4.85843,0,0,1-3.96973,2.05761Z"/><path class="a" d="M99.505,68.1445c-7.4336,0-10.07129-4.79394-10.07129-8.89941a14.27656,14.27656,0,0,1,.50879-3.62793L99.5001,19.84665a4.85723,4.85723,0,0,1,4.69239-3.60254h24.90234a4.85663,4.85663,0,0,1,4.69336,6.10743L129.1671,39.68161h5.37695a4.8561,4.8561,0,0,1,4.69238,6.11036l-4.07226,15.23437a9.16723,9.16723,0,0,1-9.292,7.11816Z"/><path class="a" d="M133.92881,68.1445a4.85641,4.85641,0,0,1-4.69238-6.11132l11.2793-42.1875a4.85746,4.85746,0,0,1,4.69238-3.60157H175.2667c7.4336,0,10.07129,4.80957,10.07129,8.92871a14.1859,14.1859,0,0,1-.51464,3.625l-7.85352,29.27442c-1.709,6.39941-6.45215,10.07226-13.01172,10.07226Zm21.67286-28.4707c.04687.00391.10742.00781.18261.00781a3.39,3.39,0,0,0,2.167-.9082,4.11933,4.11933,0,0,0,1.54981-2.23144,2.55165,2.55165,0,0,0,.09863-.61329,1.9099,1.9099,0,0,0-.21191-.01074,3.33575,3.33575,0,0,0-2.1416.89942,4.14337,4.14337,0,0,0-1.5459,2.24023A2.52868,2.52868,0,0,0,155.60167,39.6738Z"/><path class="a" d="M174.94444,68.1445a4.85641,4.85641,0,0,1-4.69238-6.11132l11.27929-42.1875a4.85747,4.85747,0,0,1,4.69239-3.60157H216.253c7.45606,0,10.10059,4.80957,10.10059,8.92871a14.1855,14.1855,0,0,1-.51465,3.625L223.462,37.60056a14.906,14.906,0,0,1-2.82715,5.72754,9.7,9.7,0,0,1,.24023,2.17676,14.69746,14.69746,0,0,1-.543,3.79394l-2.34472,8.79492c-1.71387,6.39063-6.457,10.05078-13.01367,10.05078Zm16.66308-15.29a1.85784,1.85784,0,0,0,.21192.01074,3.33575,3.33575,0,0,0,2.1416-.89942,4.14337,4.14337,0,0,0,1.5459-2.24023,2.54156,2.54156,0,0,0,.09863-.61621c-.04883-.00391-.10937-.00781-.18262-.00781a3.39,3.39,0,0,0-2.167.9082,4.11931,4.11931,0,0,0-1.5498,2.23144A2.53863,2.53863,0,0,0,191.60752,52.85447Zm7.64649-17.5752c.04687.00391.10742.00781.18262.00781a3.39,3.39,0,0,0,2.167-.9082,4.11934,4.11934,0,0,0,1.5498-2.23145,2.54217,2.54217,0,0,0,.09864-.61621c-.04883-.0039-.10938-.00781-.18262-.00781a3.39,3.39,0,0,0-2.167.9082,4.11936,4.11936,0,0,0-1.54981,2.23145A2.52921,2.52921,0,0,0,199.254,35.27927Z"/><path class="a" d="M34.84971,128.68454a4.85683,4.85683,0,0,1-4.6914-6.11425l5.65429-21.09375a13.89678,13.89678,0,0,1,3.918-6.76661c-.041-.0498-.081-.09961-.12012-.15136a4.85294,4.85294,0,0,1-.83886-4.21289l2.666-9.96094A4.85546,4.85546,0,0,1,46.129,76.78415h30.0293c7.45605,0,10.10058,4.80957,10.10058,8.92871a14.1855,14.1855,0,0,1-.51465,3.625l-3.168,11.73243a13.87761,13.87761,0,0,1-3.916,6.75976c.041.04883.082.09961.12109.15137a4.85893,4.85893,0,0,1,.83789,4.21387l-3.457,12.89062a4.85651,4.85651,0,0,1-4.6914,3.59863Z"/><path class="a" d="M82.45713,128.68454c-7.43359,0-10.07128-4.79394-10.07128-8.89941a14.277,14.277,0,0,1,.50878-3.62793L80.754,86.82907c1.68164-6.377,6.415-10.04492,12.98242-10.04492h23.4375c7.45606,0,10.10059,4.80957,10.10059,8.92871a14.1855,14.1855,0,0,1-.51465,3.625l-7.82324,29.29786c-1.74414,6.3955-6.49512,10.04882-13.042,10.04882Zm16.5459-28.4707c.04688.00391.10742.00781.18262.00781a3.39,3.39,0,0,0,2.167-.9082,4.11941,4.11941,0,0,0,1.54981-2.23145,2.55207,2.55207,0,0,0,.09863-.61328,1.9099,1.9099,0,0,0-.21191-.01074,3.33579,3.33579,0,0,0-2.14161.89941,4.14346,4.14346,0,0,0-1.54589,2.24024A2.52889,2.52889,0,0,0,99.003,100.21384Z"/><path class="a" d="M116.881,128.68454a4.85683,4.85683,0,0,1-4.6914-6.11425l5.65429-21.09375a13.89678,13.89678,0,0,1,3.918-6.76661c-.041-.0498-.08105-.09961-.12012-.15136a4.85294,4.85294,0,0,1-.83886-4.21289l2.666-9.96094a4.85546,4.85546,0,0,1,4.69141-3.60059h30.0293c7.45605,0,10.10058,4.80957,10.10058,8.92871a14.1855,14.1855,0,0,1-.51465,3.625l-3.168,11.73243a13.87761,13.87761,0,0,1-3.916,6.75976c.041.04883.082.09961.12109.15137a4.85893,4.85893,0,0,1,.83789,4.21387l-3.457,12.89062a4.85651,4.85651,0,0,1-4.6914,3.59863Z"/><path class="a" d="M164.48838,128.68454c-7.43359,0-10.07128-4.79394-10.07128-8.89941a14.277,14.277,0,0,1,.50878-3.62793l7.85938-29.32813c1.68164-6.377,6.415-10.04492,12.98242-10.04492h23.4375c7.45606,0,10.10059,4.80957,10.10059,8.92871a14.1855,14.1855,0,0,1-.51465,3.625l-7.82324,29.29786c-1.74414,6.3955-6.49512,10.04882-13.042,10.04882Zm16.5459-28.4707c.04688.00391.10742.00781.18262.00781a3.39,3.39,0,0,0,2.167-.9082A4.11941,4.11941,0,0,0,184.9337,97.082a2.55207,2.55207,0,0,0,.09863-.61328,1.9099,1.9099,0,0,0-.21191-.01074,3.33579,3.33579,0,0,0-2.14161.89941,4.14346,4.14346,0,0,0-1.54589,2.24024A2.52889,2.52889,0,0,0,181.03428,100.21384Z"/><path class="a" d="M29.82627,186.6406a4.85579,4.85579,0,0,1-4.69238-6.10938l3.57227-13.373h-4.8086a4.85646,4.85646,0,0,1-4.6914-6.11231l5.51172-20.5957a4.85544,4.85544,0,0,1,4.6914-3.60059H64.19835a4.85736,4.85736,0,0,1,4.69238,6.11133L63.381,163.55661a4.85635,4.85635,0,0,1-4.69238,3.60157H51.28526l-4.24219,15.87988a4.85637,4.85637,0,0,1-4.69238,3.60254Z"/><path class="a" d="M61.89561,186.6406c-6.60547,0-8.94824-4.30957-8.94824-8.001a12.05154,12.05154,0,0,1,.44629-3.13281l5.95215-22.25293a10.92569,10.92569,0,0,1,11.17675-8.61133h17.8125c6.60547,0,8.94825,4.30957,8.94825,8.001a12.052,12.052,0,0,1-.44629,3.13281l-5.92383,22.24805c-1.49317,5.48535-5.5752,8.61621-11.20508,8.61621Z"/><path class="a" d="M112.71592,186.6406a4.85712,4.85712,0,0,1-4.28418-2.56738l-.1914-.36036a4.858,4.858,0,0,1-4.458,2.92774h-14.751a4.8561,4.8561,0,0,1-4.69238-6.11035l8.62793-32.28516a4.85722,4.85722,0,0,1,4.69238-3.60254h14.751a4.85128,4.85128,0,0,1,2.64355.78223,4.85322,4.85322,0,0,1,2.64454-.78223h8.07128a4.85648,4.85648,0,0,1,4.69141,6.11231l-5.51074,20.5957a8.68558,8.68558,0,0,1-2.7002,4.42773l1.98633,3.7168a4.85674,4.85674,0,0,1-4.28418,7.14551Z"/><path class="a" d="M127.43956,186.6406a4.85661,4.85661,0,0,1-4.69336-6.10742l2.1709-8.14161a7.59017,7.59017,0,0,1-4.39356-7.11132,12.05155,12.05155,0,0,1,.44629-3.13282l3.72656-13.90527a4.8563,4.8563,0,0,1,4.69141-3.59961h10.29785a4.85533,4.85533,0,0,1,3.77051,1.79492,4.85607,4.85607,0,0,1,3.77148-1.79492h10.27051a4.85559,4.85559,0,0,1,4.69141,6.11328l-3.7295,13.916c-1.25683,4.71387-4.45605,7.69726-8.92773,8.43164l-2.64844,9.93164a4.85706,4.85706,0,0,1-4.69336,3.60547Z"/><path class="a" d="M158.19444,186.6406c-6.60547,0-8.94824-4.30957-8.94824-8.001a12.05154,12.05154,0,0,1,.44629-3.13281l5.95214-22.25293a10.9257,10.9257,0,0,1,11.17676-8.61133h17.8125c6.60547,0,8.94824,4.30957,8.94824,8.001a12.05193,12.05193,0,0,1-.44628,3.13281L187.212,178.02439c-1.49317,5.48535-5.5752,8.61621-11.20508,8.61621Z"/><path class="c" d="M98.17,21.10056l-4.86328,18.252-16.875,23.93555h-14.209L56.65635,39.38181l4.89258-18.28125H74.73252l-2.34375,8.78906H82.64268l2.37305-8.78906Z"/><path class="c" d="M99.505,63.28806q-5.21486,0-5.21485-4.043a9.64111,9.64111,0,0,1,.35156-2.40234l9.55079-35.74219h24.90234l-5.625,21.09375a3.55178,3.55178,0,0,0-.14648.9375q0,1.40625,1.69921,1.40625h9.52149l-4.07227,15.23437a4.32372,4.32372,0,0,1-4.59961,3.51563Z"/><path class="c" d="M172.27842,56.81345q-1.72851,6.47462-8.32031,6.47461h-30.0293l11.2793-42.1875H175.2667q5.21486,0,5.21485,4.07226a9.3081,9.3081,0,0,1-.35156,2.373ZM160.95518,42.58982a8.94,8.94,0,0,0,3.23731-4.79,7.34189,7.34189,0,0,0,.26367-1.875,4.78884,4.78884,0,0,0-5.06836-4.86328,8.19757,8.19757,0,0,0-5.15625,1.94824,8.96728,8.96728,0,0,0-3.22266,4.79,7.34189,7.34189,0,0,0-.26367,1.875,4.8262,4.8262,0,0,0,5.03906,4.86328A8.25593,8.25593,0,0,0,160.95518,42.58982Z"/><path class="c" d="M204.97374,63.28806h-30.0293l11.2793-42.1875H216.253q5.24415,0,5.24414,4.07226a9.30765,9.30765,0,0,1-.35156,2.373l-2.37305,8.78906q-1.28906,4.7754-4.80468,5.85938a3.15313,3.15313,0,0,1,2.05078,3.31055,10.08042,10.08042,0,0,1-.38086,2.54882l-2.34375,8.78907Q211.56552,63.28806,204.97374,63.28806Zm-7.99805-7.51465a8.96739,8.96739,0,0,0,3.22266-4.79,7.34189,7.34189,0,0,0,.26367-1.875,4.96249,4.96249,0,0,0-.90821-2.92969,4.83211,4.83211,0,0,0-4.13086-1.93359,8.25586,8.25586,0,0,0-5.17089,1.94824,8.93992,8.93992,0,0,0-3.23731,4.79,7.34189,7.34189,0,0,0-.26367,1.875,4.72875,4.72875,0,0,0,.9375,2.90039,4.80548,4.80548,0,0,0,4.13086,1.96289A8.19761,8.19761,0,0,0,196.97569,55.77341Zm7.63183-17.57812a8.93987,8.93987,0,0,0,3.23731-4.79,7.342,7.342,0,0,0,.26367-1.875,4.96246,4.96246,0,0,0-.9082-2.92969,4.83212,4.83212,0,0,0-4.13086-1.93359,8.25587,8.25587,0,0,0-5.1709,1.94824,8.9399,8.9399,0,0,0-3.2373,4.79,7.34148,7.34148,0,0,0-.26368,1.875,4.8262,4.8262,0,0,0,5.03907,4.86328A8.25592,8.25592,0,0,0,204.60752,38.19529Z"/><path class="d" d="M66.28526,93.94529a3.47493,3.47493,0,0,0,.14648-.90821q0-1.43555-1.72851-1.43554H43.463l2.666-9.96094h30.0293q5.24414,0,5.24414,4.07226a9.30776,9.30776,0,0,1-.35157,2.373L77.88682,99.80466Q76.15831,106.25,69.56651,106.25H66.63682a2.73111,2.73111,0,0,0-2.8125,2.34375l-.61523,2.34375H74.92784l-3.457,12.89063H34.84971l5.6543-21.09375Q42.23252,96.289,48.82432,96.289H63.47276A2.73111,2.73111,0,0,0,66.28526,93.94529Z"/><path class="d" d="M82.45713,123.8281q-5.21484,0-5.21484-4.043a9.641,9.641,0,0,1,.35156-2.40234l7.85157-29.29688q1.69922-6.44531,8.291-6.44531h23.4375q5.24413,0,5.24414,4.07226a9.30816,9.30816,0,0,1-.35156,2.373l-7.82227,29.29688q-1.75781,6.4453-8.34961,6.44531Zm21.89942-20.69824a8.9399,8.9399,0,0,0,3.2373-4.79,7.342,7.342,0,0,0,.26367-1.875,4.78884,4.78884,0,0,0-5.06835-4.86328,8.19757,8.19757,0,0,0-5.15625,1.94824,8.96728,8.96728,0,0,0-3.22266,4.79,7.34189,7.34189,0,0,0-.26367,1.875,4.8262,4.8262,0,0,0,5.03906,4.86328A8.256,8.256,0,0,0,104.35655,103.12986Z"/><path class="d" d="M148.31651,93.94529a3.47493,3.47493,0,0,0,.14648-.90821q0-1.43555-1.72851-1.43554H125.49424l2.666-9.96094h30.0293q5.24414,0,5.24414,4.07226a9.30776,9.30776,0,0,1-.35157,2.373l-3.16406,11.71875q-1.72851,6.44532-8.32031,6.44531h-2.92969a2.73111,2.73111,0,0,0-2.8125,2.34375l-.61523,2.34375h11.71875l-3.457,12.89063H116.881l5.6543-21.09375q1.72851-6.44532,8.32031-6.44531H145.504A2.73111,2.73111,0,0,0,148.31651,93.94529Z"/><path class="d" d="M164.48838,123.8281q-5.21484,0-5.21484-4.043a9.641,9.641,0,0,1,.35156-2.40234l7.85157-29.29688q1.69921-6.44531,8.291-6.44531h23.4375q5.24413,0,5.24414,4.07226a9.30816,9.30816,0,0,1-.35156,2.373l-7.82227,29.29688q-1.7578,6.4453-8.34961,6.44531Zm21.89942-20.69824a8.9399,8.9399,0,0,0,3.2373-4.79,7.342,7.342,0,0,0,.26367-1.875,4.78884,4.78884,0,0,0-5.06835-4.86328,8.19757,8.19757,0,0,0-5.15625,1.94824,8.96728,8.96728,0,0,0-3.22266,4.79,7.34189,7.34189,0,0,0-.26367,1.875,4.8262,4.8262,0,0,0,5.03906,4.86328A8.256,8.256,0,0,0,186.3878,103.12986Z"/><path class="c" d="M29.82627,181.78415l5.20411-19.48242H23.89756l5.51172-20.5957H64.19835l-5.50977,20.5957H47.55577l-5.20508,19.48242Z"/><path class="c" d="M61.89561,181.78415q-4.09276,0-4.0918-3.14453a7.21711,7.21711,0,0,1,.27832-1.86523l5.95606-22.26563a6.1196,6.1196,0,0,1,6.48437-5.00976h17.8125q4.09278,0,4.0918,3.14453a7.21668,7.21668,0,0,1-.27832,1.86523l-5.92871,22.26563a6.16077,6.16077,0,0,1-6.51172,5.00976ZM78.4835,165.86423a6.59286,6.59286,0,0,0,2.39258-3.5625,5.67,5.67,0,0,0,.19531-1.41992A3.51712,3.51712,0,0,0,77.3419,157.292a6.03622,6.03622,0,0,0-3.79883,1.44726,6.76623,6.76623,0,0,0-2.40722,3.5625,5.30874,5.30874,0,0,0-.19532,1.3916,3.56857,3.56857,0,0,0,.69532,2.1709A3.53043,3.53043,0,0,0,74.67,167.3115,6.09435,6.09435,0,0,0,78.4835,165.86423Z"/><path class="c" d="M117.69835,149.499h8.07128l-5.51074,20.5957a3.45058,3.45058,0,0,1-3.67383,2.7832h-1.3916l4.75879,8.90625h-7.23633l-4.75879-8.90625h-1.80957l-2.36523,8.90625h-14.751L97.65928,149.499h14.751l-4.45313,16.69922H111.714a1.93819,1.93819,0,0,0,1.97656-1.66993Z"/><path class="c" d="M131.00206,168.42478h-1.53028q-4.09276,0-4.09179-3.14453a7.21681,7.21681,0,0,1,.27832-1.86524l3.72949-13.916h10.29785l-2.36621,8.90625h7.51562l2.39258-8.90625h10.27051l-3.72949,13.916a6.12026,6.12026,0,0,1-6.48438,5.00977H145.753l-3.5625,13.35937h-14.751Z"/><path class="c" d="M158.19444,181.78415q-4.09278,0-4.0918-3.14453a7.21711,7.21711,0,0,1,.27832-1.86523l5.95606-22.26563a6.11959,6.11959,0,0,1,6.48437-5.00976h17.8125q4.09278,0,4.0918,3.14453a7.21668,7.21668,0,0,1-.27832,1.86523l-5.92871,22.26563a6.16077,6.16077,0,0,1-6.51172,5.00976Zm16.58789-15.91992a6.59292,6.59292,0,0,0,2.39258-3.5625,5.67,5.67,0,0,0,.19531-1.41992,3.51712,3.51712,0,0,0-3.72949-3.58984,6.0362,6.0362,0,0,0-3.79883,1.44726,6.76631,6.76631,0,0,0-2.40723,3.5625,5.30871,5.30871,0,0,0-.19531,1.3916,3.56863,3.56863,0,0,0,.69531,2.1709,3.53046,3.53046,0,0,0,3.03418,1.44727A6.09435,6.09435,0,0,0,174.78233,165.86423Z"/></svg>