<svg xmlns="http://www.w3.org/2000/svg" viewBox="0 0 566.92913 85.03937"><defs><style>.a{fill:#231815;}.b{fill:#fff;}.c{fill:#e2356b;}.d{fill:#f692ab;}</style></defs><title>vldb2020-logo1-color-bb</title><path class="a" d="M521.24963,83.12808A26.04144,26.04144,0,0,0,546.9342,63.466c.00977-.03515,7.21875-28.22412,7.21875-30.52636,0-13.0127-10.24121-22.8252-23.82129-22.8252h-18.75a28.33323,28.33323,0,0,0-5.34045.52,19.50564,19.50564,0,0,0-4.474-.52H490.95666a19.51132,19.51132,0,0,0-3.97266.40723,19.50592,19.50592,0,0,0-3.96679-.40723H472.17736c-.63916,0-1.27026.03992-1.89624.10077-.63269-.06232-1.26995-.10077-1.91235-.10077h-8.49609a19.54308,19.54308,0,0,0-2.78614.19873,19.553,19.553,0,0,0-2.78027-.19873H438.77893a19.49251,19.49251,0,0,0-4.48578.53241,26.78021,26.78021,0,0,0-5.32868-.53241h-9.51483c-.13605-.1911-.269-.384-.41241-.5708a19.51474,19.51474,0,0,0-15.48-7.63232h-36.6211a19.50354,19.50354,0,0,0-4.8703.61767,29.74727,29.74727,0,0,0-6.116-.61767h-23.4375a30.10393,30.10393,0,0,0-8.85522,1.30529,28.41792,28.41792,0,0,0-8.7229-1.30529H284.9049a19.50479,19.50479,0,0,0-4.87042.61767,29.74659,29.74659,0,0,0-6.11591-.61767h-23.4375a30.10393,30.10393,0,0,0-8.85522,1.30529,28.41792,28.41792,0,0,0-8.7229-1.30529h-30.0293a19.50479,19.50479,0,0,0-4.87042.61767,29.74659,29.74659,0,0,0-6.11591-.61767H161.858a19.50131,19.50131,0,0,0-4.91156.62988,28.89188,28.89188,0,0,0-6.04547-.62988H120.8424a19.45862,19.45862,0,0,0-8.05688,1.749,19.49711,19.49711,0,0,0-8.0564-1.749H79.82678a19.53933,19.53933,0,0,0-3.00879.241,19.49388,19.49388,0,0,0-3.01367-.241H60.65a19.49736,19.49736,0,0,0-5.14453.68847,19.51436,19.51436,0,0,0-5.13867-.68847H37.18322A19.51392,19.51392,0,0,0,18.33221,16.381L13.43963,34.66226a19.51723,19.51723,0,0,0-.15527,9.47022l5.5664,23.90625A19.51488,19.51488,0,0,0,37.85705,83.12808Z"/><path class="b" d="M32.00244,63.61361a5.85436,5.85436,0,0,1-5.70166-4.52685l-5.5664-23.90625a5.85318,5.85318,0,0,1,.04638-2.84131L25.67334,14.058a5.85437,5.85437,0,0,1,5.65527-4.34082h13.1836a5.85089,5.85089,0,0,1,5.14111,3.0542,5.85594,5.85594,0,0,1,5.14209-3.0542h13.1543A5.85459,5.85459,0,0,1,73.60693,17.079l-4.86328,18.252a5.85869,5.85869,0,0,1-.87256,1.86621l-16.875,23.93555a5.8541,5.8541,0,0,1-4.78466,2.481Z"/><path class="b" d="M69.28467,63.61361c-8.17041,0-11.06934-5.33154-11.06934-9.89746a15.28843,15.28843,0,0,1,.541-3.87988l9.56006-35.77588a5.85375,5.85375,0,0,1,5.65576-4.34326H98.87451a5.85418,5.85418,0,0,1,5.65674,7.36279l-4.28662,16.07471h4.0791a5.85427,5.85427,0,0,1,5.65576,7.36621l-4.07226,15.23438a10.11882,10.11882,0,0,1-10.25537,7.85839Z"/><path class="b" d="M103.7085,63.61361a5.85444,5.85444,0,0,1-5.65577-7.36669l11.2793-42.1875a5.85428,5.85428,0,0,1,5.65576-4.34229h30.0586c8.17041,0,11.06933,5.34766,11.06933,9.92676a15.16952,15.16952,0,0,1-.54931,3.88135l-7.854,29.27636c-1.83349,6.86866-6.92773,10.812-13.97461,10.812Z"/><path class="b" d="M144.72412,63.61361a5.85444,5.85444,0,0,1-5.65576-7.36669l11.2793-42.1875a5.85428,5.85428,0,0,1,5.65576-4.34229h30.02929c8.1919,0,11.09864,5.34766,11.09864,9.92676a15.16911,15.16911,0,0,1-.54932,3.88135l-2.37793,8.80664a16.20511,16.20511,0,0,1-2.71631,5.729,10.95632,10.95632,0,0,1,.165,1.915,15.70088,15.70088,0,0,1-.57666,4.05029l-2.3457,8.7959c-1.83984,6.86084-6.93359,10.7915-13.977,10.7915Z"/><path class="b" d="M185.73975,63.61361A5.855,5.855,0,0,1,180.085,56.2435l5.6543-21.09375a15.24571,15.24571,0,0,1,3.57275-6.64014,5.85393,5.85393,0,0,1-.61426-4.49072l2.666-9.96094A5.85437,5.85437,0,0,1,197.019,9.71713h30.0293c8.19189,0,11.09863,5.34766,11.09863,9.92676a15.16952,15.16952,0,0,1-.54931,3.88135l-3.16895,11.73632a15.21461,15.21461,0,0,1-3.56933,6.63086,5.85634,5.85634,0,0,1,.61328,4.49268l-3.457,12.89062a5.855,5.855,0,0,1-5.65479,4.33789Z"/><path class="b" d="M233.34717,63.61361c-8.17041,0-11.06934-5.33154-11.06934-9.89746a15.27483,15.27483,0,0,1,.54151-3.88037l7.86132-29.33447c1.80469-6.84473,6.88965-10.78418,13.9458-10.78418H268.064c8.1919,0,11.09864,5.34766,11.09864,9.92676a15.16911,15.16911,0,0,1-.54932,3.88135l-7.82275,29.29882c-1.873,6.86768-6.9751,10.78955-14.00586,10.78955Z"/><path class="b" d="M267.771,63.61361a5.855,5.855,0,0,1-5.65479-7.37011l5.6543-21.09375a15.24571,15.24571,0,0,1,3.57275-6.64014,5.85393,5.85393,0,0,1-.61426-4.49072l2.666-9.96094a5.85437,5.85437,0,0,1,5.65527-4.34082h30.0293c8.19189,0,11.09863,5.34766,11.09863,9.92676a15.16952,15.16952,0,0,1-.54931,3.88135L316.46,35.26156a15.21461,15.21461,0,0,1-3.56933,6.63086,5.85634,5.85634,0,0,1,.61328,4.49268l-3.457,12.89062a5.855,5.855,0,0,1-5.65479,4.33789Z"/><path class="b" d="M315.37842,63.61361c-8.17041,0-11.06934-5.33154-11.06934-9.89746a15.27483,15.27483,0,0,1,.54151-3.88037l7.86132-29.33447c1.80469-6.84473,6.88965-10.78418,13.9458-10.78418h23.4375c8.1919,0,11.09864,5.34766,11.09864,9.92676a15.16911,15.16911,0,0,1-.54932,3.88135l-7.82275,29.29882c-1.873,6.86768-6.9751,10.78955-14.00586,10.78955Z"/><path class="b" d="M361.521,63.61361a5.85469,5.85469,0,0,1-5.65625-7.36523L359.376,43.1058h-4.09522a5.854,5.854,0,0,1-5.65527-7.36767l5.80078-21.67969a5.85425,5.85425,0,0,1,5.65527-4.34131h36.6211a5.854,5.854,0,0,1,5.65527,7.36768l-5.80078,21.67968a5.85425,5.85425,0,0,1-5.65527,4.34131h-7.22315l-4.31787,16.16406a5.85462,5.85462,0,0,1-5.65625,4.34375Z"/><path class="b" d="M395.27783,63.61361c-7.019,0-10.16113-4.603-10.16113-9.165a13.43707,13.43707,0,0,1,.49609-3.49024l6.26514-23.42285c1.62939-6.10889,6.1792-9.61523,12.48193-9.61523h18.75c7.019,0,10.16114,4.603,10.16114,9.165a13.4371,13.4371,0,0,1-.4961,3.49024L426.54053,53.992c-1.66748,6.126-6.2251,9.62158-12.5127,9.62158Z"/><path class="b" d="M448.77393,63.61361a5.85566,5.85566,0,0,1-4.70215-2.36621,5.85483,5.85483,0,0,1-4.70215,2.36621H423.84229a5.85428,5.85428,0,0,1-5.65577-7.36621l9.082-33.98437a5.8543,5.8543,0,0,1,5.65577-4.34277h15.52734a5.8547,5.8547,0,0,1,2.7832.7041,5.83654,5.83654,0,0,1,2.78321-.7041h8.49609a5.854,5.854,0,0,1,5.65527,7.36767l-5.80078,21.67969a9.97873,9.97873,0,0,1-2.64355,4.60889l1.82959,3.42334a5.85441,5.85441,0,0,1-5.16358,8.61376Z"/><path class="b" d="M464.272,63.61361a5.85417,5.85417,0,0,1-5.65674-7.36279l2.13575-8.00976a8.76538,8.76538,0,0,1-4.50147-7.855,13.43667,13.43667,0,0,1,.4961-3.49024L460.668,22.25912a5.85487,5.85487,0,0,1,5.65478-4.33886h10.83936a5.85418,5.85418,0,0,1,3.96973,1.55126,5.85121,5.85121,0,0,1,3.96972-1.55126h10.81055a5.85514,5.85514,0,0,1,5.65527,7.37011L497.6416,39.93881c-1.36133,5.10205-4.76172,8.38916-9.52051,9.332l-2.666,9.99658a5.85314,5.85314,0,0,1-5.65625,4.34619Z"/><path class="b" d="M496.64453,63.61361c-7.01953,0-10.16113-4.603-10.16113-9.165a13.43707,13.43707,0,0,1,.49609-3.49024l6.26563-23.42285c1.6289-6.10889,6.17871-9.61523,12.48144-9.61523h18.75c7.01953,0,10.16114,4.603,10.16114,9.165a13.4371,13.4371,0,0,1-.4961,3.49024L527.90723,53.992c-1.668,6.126-6.22559,9.62158-12.5127,9.62158Z"/><path class="c" d="M67.94971,15.57162l-4.86328,18.252-16.875,23.93554h-14.209L26.436,33.85287l4.89257-18.28125h13.1836l-2.34375,8.78907h10.2539l2.373-8.78907Z"/><path class="c" d="M69.28467,57.75912q-5.21484,0-5.21485-4.043a9.64076,9.64076,0,0,1,.35157-2.40234l9.55078-35.74219H98.87451l-5.625,21.09375a3.55231,3.55231,0,0,0-.14648.9375q0,1.40625,1.69922,1.40625h9.52148L100.25146,54.2435a4.32371,4.32371,0,0,1-4.5996,3.51562Z"/><path class="c" d="M142.05811,51.28451q-1.72853,6.47462-8.32032,6.47461H103.7085l11.27929-42.1875h30.0586q5.21484,0,5.21484,4.07227a9.30822,9.30822,0,0,1-.35156,2.37305ZM130.73486,37.06088a8.93992,8.93992,0,0,0,3.23731-4.79,7.34189,7.34189,0,0,0,.26367-1.875,4.78884,4.78884,0,0,0-5.06836-4.86328,8.19761,8.19761,0,0,0-5.15625,1.94824,8.96739,8.96739,0,0,0-3.22266,4.79,7.34189,7.34189,0,0,0-.26367,1.875,4.8262,4.8262,0,0,0,5.03906,4.86328A8.25587,8.25587,0,0,0,130.73486,37.06088Z"/><path class="c" d="M174.75342,57.75912h-30.0293l11.2793-42.1875h30.02929q5.24415,0,5.24415,4.07227a9.30782,9.30782,0,0,1-.35157,2.37305l-2.373,8.78906q-1.28907,4.77538-4.80469,5.85937a3.15313,3.15313,0,0,1,2.05078,3.31055,10.08,10.08,0,0,1-.38086,2.54883l-2.34375,8.78906Q181.34522,57.75913,174.75342,57.75912Zm-7.99805-7.51465a8.96727,8.96727,0,0,0,3.22266-4.79,7.342,7.342,0,0,0,.26367-1.875,4.96253,4.96253,0,0,0-.9082-2.92969,4.83214,4.83214,0,0,0-4.13086-1.9336,8.25588,8.25588,0,0,0-5.1709,1.94825,8.9399,8.9399,0,0,0-3.23731,4.79,7.34189,7.34189,0,0,0-.26367,1.875,4.72877,4.72877,0,0,0,.9375,2.90039,4.80552,4.80552,0,0,0,4.13086,1.96289A8.19758,8.19758,0,0,0,166.75537,50.24447Zm7.63184-17.57812a8.9399,8.9399,0,0,0,3.2373-4.79,7.34189,7.34189,0,0,0,.26367-1.875,4.96248,4.96248,0,0,0-.9082-2.92969,4.83211,4.83211,0,0,0-4.13086-1.93359,8.25589,8.25589,0,0,0-5.1709,1.94824,8.9399,8.9399,0,0,0-3.2373,4.79,7.34189,7.34189,0,0,0-.26367,1.875,4.8262,4.8262,0,0,0,5.03906,4.86328A8.25589,8.25589,0,0,0,174.38721,32.66635Z"/><path class="d" d="M217.17529,27.87631a3.47493,3.47493,0,0,0,.14649-.9082q0-1.43555-1.72852-1.43555H194.353l2.666-9.96094h30.0293q5.24414,0,5.24414,4.07227a9.30822,9.30822,0,0,1-.35156,2.37305l-3.16406,11.71875q-1.72853,6.4453-8.32032,6.44531h-2.92968a2.7311,2.7311,0,0,0-2.8125,2.34375l-.61524,2.34375h11.71875l-3.457,12.89062H185.73975L191.394,36.66537q1.72853-6.44531,8.32032-6.44531h14.64843A2.7311,2.7311,0,0,0,217.17529,27.87631Z"/><path class="d" d="M233.34717,57.75912q-5.21484,0-5.21485-4.043a9.64076,9.64076,0,0,1,.35157-2.40234l7.85156-29.29687q1.69921-6.44532,8.291-6.44532H268.064q5.24415,0,5.24415,4.07227a9.30782,9.30782,0,0,1-.35157,2.37305l-7.82226,29.29687q-1.75782,6.44532-8.34961,6.44531Zm21.89941-20.69824a8.94,8.94,0,0,0,3.23731-4.79,7.34189,7.34189,0,0,0,.26367-1.875,4.78884,4.78884,0,0,0-5.06836-4.86328A8.19757,8.19757,0,0,0,248.523,27.4808a8.96733,8.96733,0,0,0-3.22266,4.79,7.34189,7.34189,0,0,0-.26367,1.875,4.8262,4.8262,0,0,0,5.03906,4.86328A8.25587,8.25587,0,0,0,255.24658,37.06088Z"/><path class="d" d="M299.20654,27.87631a3.47493,3.47493,0,0,0,.14649-.9082q0-1.43555-1.72852-1.43555H276.38428l2.666-9.96094h30.0293q5.24413,0,5.24414,4.07227a9.30822,9.30822,0,0,1-.35156,2.37305l-3.16406,11.71875q-1.72853,6.4453-8.32032,6.44531h-2.92968a2.7311,2.7311,0,0,0-2.8125,2.34375l-.61524,2.34375h11.71875l-3.457,12.89062H267.771l5.65429-21.09375q1.72852-6.44531,8.32032-6.44531H296.394A2.7311,2.7311,0,0,0,299.20654,27.87631Z"/><path class="d" d="M315.37842,57.75912q-5.21484,0-5.21485-4.043a9.64076,9.64076,0,0,1,.35157-2.40234l7.85156-29.29687q1.69922-6.44532,8.291-6.44532h23.4375q5.24415,0,5.24415,4.07227a9.30782,9.30782,0,0,1-.35157,2.37305l-7.82226,29.29687q-1.75782,6.44532-8.34961,6.44531Zm21.89941-20.69824a8.94,8.94,0,0,0,3.23731-4.79,7.34189,7.34189,0,0,0,.26367-1.875,4.78884,4.78884,0,0,0-5.06836-4.86328,8.19757,8.19757,0,0,0-5.15625,1.94824,8.96733,8.96733,0,0,0-3.22266,4.79,7.34189,7.34189,0,0,0-.26367,1.875,4.8262,4.8262,0,0,0,5.03906,4.86328A8.25587,8.25587,0,0,0,337.27783,37.06088Z"/><path class="c" d="M361.521,57.75912l5.47851-20.50781H355.28076l5.80078-21.67969h36.6211l-5.80078,21.67969H380.18311l-5.47852,20.50781Z"/><path class="c" d="M395.27783,57.75912q-4.30663,0-4.30664-3.31054a7.59314,7.59314,0,0,1,.293-1.96289l6.26953-23.4375q1.40625-5.27345,6.82617-5.27344h18.75q4.30665,0,4.30664,3.31054a7.59322,7.59322,0,0,1-.293,1.9629l-6.24024,23.4375q-1.43555,5.27343-6.85547,5.27343Zm17.46094-16.75781a6.9417,6.9417,0,0,0,2.51953-3.75,5.96257,5.96257,0,0,0,.20508-1.49414,3.70227,3.70227,0,0,0-3.92578-3.7793,6.35566,6.35566,0,0,0-3.999,1.52344,7.13179,7.13179,0,0,0-2.53418,3.75,5.6305,5.6305,0,0,0-.20507,1.46484,3.75684,3.75684,0,0,0,.73242,2.28516,3.71531,3.71531,0,0,0,3.19336,1.52344A6.41371,6.41371,0,0,0,412.73877,41.00131Z"/><path class="c" d="M454.01807,23.77475h8.49609l-5.80078,21.67969a3.6322,3.6322,0,0,1-3.86719,2.92968h-1.46484l5.00976,9.375h-7.61718l-5.00977-9.375h-1.9043l-2.49023,9.375H423.84229l9.082-33.98437h15.52734l-4.6875,17.57812h3.95508a2.0397,2.0397,0,0,0,2.08008-1.75781Z"/><path class="c" d="M468.022,43.69662h-1.61133q-4.30663,0-4.30664-3.31054a7.59314,7.59314,0,0,1,.293-1.96289l3.92578-14.64844h10.83936l-2.48975,9.375H482.582l2.51953-9.375h10.81055l-3.92578,14.64844q-1.40625,5.27343-6.82617,5.27343h-1.61133l-3.75,14.0625H464.272Z"/><path class="c" d="M496.64453,57.75912q-4.30663,0-4.30664-3.31054a7.59314,7.59314,0,0,1,.293-1.96289l6.26953-23.4375q1.40625-5.27345,6.82617-5.27344h18.75q4.30665,0,4.30664,3.31054a7.59284,7.59284,0,0,1-.293,1.9629L522.25,52.48569q-1.43555,5.27343-6.85547,5.27343Zm17.46094-16.75781a6.9417,6.9417,0,0,0,2.51953-3.75,5.96257,5.96257,0,0,0,.20508-1.49414,3.70227,3.70227,0,0,0-3.92578-3.7793,6.35313,6.35313,0,0,0-3.99805,1.52344,7.13353,7.13353,0,0,0-2.53516,3.75,5.6305,5.6305,0,0,0-.20507,1.46484,3.75684,3.75684,0,0,0,.73242,2.28516,3.71531,3.71531,0,0,0,3.19336,1.52344A6.41371,6.41371,0,0,0,514.10547,41.00131Z"/></svg>