<svg xmlns="http://www.w3.org/2000/svg" viewBox="0 0 240.94488 198.4252"><defs><style>.a{fill:#231815;}.b{fill:#fff;}</style></defs><title>vldb2020-logo3-bw-bb</title><path class="a" d="M195.93845,178.71016c-2.86914,10.54-11.34961,17.03369-22.15625,17.03369H27.60154a16.189,16.189,0,0,1-15.64112-20.36768l.52686-1.97265a16.18924,16.18924,0,0,1-6.45361-17.51709l5.51172-20.59522A16.16,16.16,0,0,1,17.2642,126.686a16.17958,16.17958,0,0,1-.27692-9.27954l5.6543-21.09375a27.27588,27.27588,0,0,1,2.4292-6.0918,16.17148,16.17148,0,0,1,.52832-5.03467l2.666-9.96094A16.189,16.189,0,0,1,43.879,63.22243l-5.21545-22.399a16.18893,16.18893,0,0,1,.12891-7.85694L43.685,14.68525A16.18892,16.18892,0,0,1,59.32419,2.68135h13.1836a16.195,16.195,0,0,1,5.13965.83691A16.17773,16.17773,0,0,1,82.791,2.68135h13.1543a16.13647,16.13647,0,0,1,2.9693.30035,16.1814,16.1814,0,0,1,3.05316-.30035h24.90234a16.16122,16.16122,0,0,1,8.04254,2.16839,16.139,16.139,0,0,1,8.07074-2.16839H173.042a25.43029,25.43029,0,0,1,6.18347.73169,16.14726,16.14726,0,0,1,4.77356-.73169h30.0293c14.07129,0,21.43359,10.19287,21.43359,20.26172a25.4633,25.4633,0,0,1-.898,6.54443Z"/><path class="b" d="M55.14073,61.05776a4.85644,4.85644,0,0,1-4.73047-3.75488L44.84385,33.39663a4.8514,4.8514,0,0,1,.03907-2.35742L49.77549,12.758A4.85546,4.85546,0,0,1,54.4669,9.15737H67.65049a4.85661,4.85661,0,0,1,4.69336,6.10743L71.629,17.94644h.21191l1.40332-5.19825A4.85771,4.85771,0,0,1,77.9337,9.15737H91.088a4.85661,4.85661,0,0,1,4.69336,6.10743l-4.86328,18.252a4.86959,4.86959,0,0,1-.72363,1.54785l-16.875,23.93555a4.85844,4.85844,0,0,1-3.96973,2.05761Z"/><path class="b" d="M92.423,61.05776c-7.43359,0-10.07128-4.79394-10.07128-8.89941a14.277,14.277,0,0,1,.50878-3.62793l9.55762-35.77051a4.85723,4.85723,0,0,1,4.69238-3.60254H122.0128a4.85663,4.85663,0,0,1,4.69336,6.10743l-4.6211,17.33007h5.377a4.8561,4.8561,0,0,1,4.69238,6.11036L128.08213,53.9396a9.16721,9.16721,0,0,1-9.292,7.11816Z"/><path class="b" d="M126.84678,61.05776a4.85641,4.85641,0,0,1-4.69238-6.11132l11.2793-42.1875a4.85746,4.85746,0,0,1,4.69238-3.60157h30.05859c7.4336,0,10.07129,4.80957,10.07129,8.92871a14.1855,14.1855,0,0,1-.51465,3.625L169.8878,50.9855c-1.709,6.39941-6.45215,10.07226-13.01172,10.07226Zm21.67285-28.4707c.04688.00391.10743.00781.18262.00781a3.39,3.39,0,0,0,2.167-.9082,4.11933,4.11933,0,0,0,1.54981-2.23144,2.55219,2.55219,0,0,0,.09863-.61329,1.9099,1.9099,0,0,0-.21191-.01074,3.33575,3.33575,0,0,0-2.1416.89942,4.14337,4.14337,0,0,0-1.5459,2.24023A2.52942,2.52942,0,0,0,148.51963,32.58706Z"/><path class="b" d="M167.86241,61.05776A4.85642,4.85642,0,0,1,163.17,54.94644l11.2793-42.1875a4.85747,4.85747,0,0,1,4.69238-3.60157H209.171c7.45606,0,10.10059,4.80957,10.10059,8.92871a14.1855,14.1855,0,0,1-.51465,3.625L216.38,30.51382a14.90619,14.90619,0,0,1-2.82715,5.72754,9.7,9.7,0,0,1,.24023,2.17676,14.69789,14.69789,0,0,1-.543,3.79394L210.90538,51.007c-1.71387,6.39063-6.457,10.05078-13.01368,10.05078Zm16.66308-15.29a1.8577,1.8577,0,0,0,.21192.01074,3.33576,3.33576,0,0,0,2.1416-.89942,4.14337,4.14337,0,0,0,1.5459-2.24023,2.54209,2.54209,0,0,0,.09863-.61621c-.04883-.00391-.10937-.00781-.18262-.00781a3.39,3.39,0,0,0-2.167.9082,4.11931,4.11931,0,0,0-1.5498,2.23144A2.53863,2.53863,0,0,0,184.52549,45.76773Zm7.64649-17.5752c.04687.00391.10742.00781.18262.00781a3.39,3.39,0,0,0,2.167-.9082,4.11934,4.11934,0,0,0,1.5498-2.23145,2.54143,2.54143,0,0,0,.09863-.61621c-.04882-.0039-.10937-.00781-.18261-.00781a3.39,3.39,0,0,0-2.167.9082,4.11936,4.11936,0,0,0-1.54981,2.23145A2.52868,2.52868,0,0,0,192.172,28.19253Z"/><path class="b" d="M27.76768,121.5978a4.85684,4.85684,0,0,1-4.69141-6.11425l5.6543-21.09375a13.89678,13.89678,0,0,1,3.918-6.76661c-.041-.0498-.081-.09961-.12012-.15136a4.85294,4.85294,0,0,1-.83886-4.21289l2.666-9.96094A4.85546,4.85546,0,0,1,39.047,69.69741H69.07627c7.45606,0,10.10059,4.80957,10.10059,8.92871a14.1855,14.1855,0,0,1-.51465,3.625l-3.168,11.73243a13.87769,13.87769,0,0,1-3.916,6.75976c.041.04883.082.09961.12109.15137a4.85893,4.85893,0,0,1,.83789,4.21387l-3.457,12.89062a4.85651,4.85651,0,0,1-4.69141,3.59863Z"/><path class="b" d="M75.3751,121.5978c-7.43359,0-10.07129-4.79394-10.07129-8.89941a14.277,14.277,0,0,1,.50879-3.62793L73.672,79.74233c1.68164-6.37695,6.415-10.04492,12.98242-10.04492h23.4375c7.45605,0,10.10059,4.80957,10.10059,8.92871a14.18594,14.18594,0,0,1-.51465,3.625L111.8546,111.549c-1.74415,6.3955-6.49512,10.04882-13.042,10.04882ZM91.921,93.1271c.04688.00391.10742.00781.18262.00781a3.39,3.39,0,0,0,2.167-.9082,4.11941,4.11941,0,0,0,1.54981-2.23145,2.55207,2.55207,0,0,0,.09863-.61328,1.9101,1.9101,0,0,0-.21192-.01074,3.33579,3.33579,0,0,0-2.1416.89941,4.14353,4.14353,0,0,0-1.5459,2.24024A2.52921,2.52921,0,0,0,91.921,93.1271Z"/><path class="b" d="M109.79893,121.5978a4.85684,4.85684,0,0,1-4.69141-6.11425l5.6543-21.09375a13.89678,13.89678,0,0,1,3.918-6.76661c-.041-.0498-.081-.09961-.12012-.15136a4.85294,4.85294,0,0,1-.83886-4.21289l2.666-9.96094a4.85546,4.85546,0,0,1,4.69141-3.60059h30.02929c7.45606,0,10.10059,4.80957,10.10059,8.92871a14.1855,14.1855,0,0,1-.51465,3.625l-3.168,11.73243a13.87769,13.87769,0,0,1-3.916,6.75976c.041.04883.082.09961.12109.15137a4.85893,4.85893,0,0,1,.83789,4.21387l-3.457,12.89062A4.85651,4.85651,0,0,1,146.42,121.5978Z"/><path class="b" d="M157.40635,121.5978c-7.43359,0-10.07129-4.79394-10.07129-8.89941a14.277,14.277,0,0,1,.50879-3.62793l7.85938-29.32813c1.68164-6.37695,6.415-10.04492,12.98242-10.04492h23.4375c7.456,0,10.10059,4.80957,10.10059,8.92871a14.18594,14.18594,0,0,1-.51465,3.625L193.88585,111.549c-1.74415,6.3955-6.49512,10.04882-13.042,10.04882Zm16.5459-28.4707c.04688.00391.10742.00781.18262.00781a3.39,3.39,0,0,0,2.167-.9082,4.11941,4.11941,0,0,0,1.54981-2.23145,2.55207,2.55207,0,0,0,.09863-.61328,1.9101,1.9101,0,0,0-.21192-.01074,3.33579,3.33579,0,0,0-2.1416.89941,4.14353,4.14353,0,0,0-1.5459,2.24024A2.52921,2.52921,0,0,0,173.95225,93.1271Z"/><path class="b" d="M22.74424,179.55386a4.85578,4.85578,0,0,1-4.69238-6.10938l3.57227-13.373h-4.8086a4.85646,4.85646,0,0,1-4.6914-6.11231l5.51172-20.5957a4.85543,4.85543,0,0,1,4.6914-3.60059H57.11631a4.85736,4.85736,0,0,1,4.69239,6.11133l-5.50977,20.5957a4.85635,4.85635,0,0,1-4.69238,3.60157H44.20323L39.961,175.95132a4.85637,4.85637,0,0,1-4.69238,3.60254Z"/><path class="b" d="M54.81358,179.55386c-6.60547,0-8.94824-4.30957-8.94824-8.001a12.05154,12.05154,0,0,1,.44629-3.13281l5.95214-22.25293a10.9257,10.9257,0,0,1,11.17676-8.61133H81.253c6.60547,0,8.94824,4.30957,8.94824,8.001a12.05193,12.05193,0,0,1-.44628,3.13281l-5.92383,22.248c-1.49317,5.48535-5.5752,8.61621-11.20508,8.61621Z"/><path class="b" d="M105.63389,179.55386a4.85712,4.85712,0,0,1-4.28418-2.56738l-.1914-.36036a4.858,4.858,0,0,1-4.458,2.92774h-14.751a4.8561,4.8561,0,0,1-4.69238-6.11035l8.62793-32.28516a4.85722,4.85722,0,0,1,4.69238-3.60254h14.751a4.85128,4.85128,0,0,1,2.64355.78223,4.85321,4.85321,0,0,1,2.64453-.78223h8.07129a4.85648,4.85648,0,0,1,4.69141,6.11231l-5.51074,20.5957a8.68558,8.68558,0,0,1-2.7002,4.42773l1.98633,3.7168a4.85674,4.85674,0,0,1-4.28418,7.14551Z"/><path class="b" d="M120.35752,179.55386a4.85661,4.85661,0,0,1-4.69335-6.10742l2.17089-8.14161a7.59018,7.59018,0,0,1-4.39355-7.11132,12.05155,12.05155,0,0,1,.44629-3.13282l3.72656-13.90527a4.85629,4.85629,0,0,1,4.69141-3.59961h10.29785a4.85534,4.85534,0,0,1,3.77051,1.79492,4.85607,4.85607,0,0,1,3.77148-1.79492h10.27051a4.85559,4.85559,0,0,1,4.6914,6.11328l-3.72949,13.916c-1.25683,4.71387-4.45605,7.69726-8.92773,8.43164l-2.64844,9.93164a4.85706,4.85706,0,0,1-4.69336,3.60547Z"/><path class="b" d="M151.11241,179.55386c-6.60547,0-8.94824-4.30957-8.94824-8.001a12.05193,12.05193,0,0,1,.44628-3.13281l5.95215-22.25293a10.9257,10.9257,0,0,1,11.17676-8.61133h17.8125c6.60547,0,8.94824,4.30957,8.94824,8.001a12.05154,12.05154,0,0,1-.44629,3.13281l-5.92382,22.248c-1.49317,5.48535-5.5752,8.61621-11.20508,8.61621Z"/><path class="a" d="M91.088,14.01382l-4.86328,18.252-16.875,23.93555h-14.209L49.57432,32.29507,54.4669,14.01382H67.65049l-2.34375,8.78906H75.56065l2.37305-8.78906Z"/><path class="a" d="M92.423,56.20132q-5.21484,0-5.21484-4.043a9.64111,9.64111,0,0,1,.35156-2.40234l9.55078-35.74219H122.0128l-5.625,21.09375a3.55183,3.55183,0,0,0-.14649.9375q0,1.40625,1.69922,1.40625H127.462l-4.07227,15.23437a4.32372,4.32372,0,0,1-4.59961,3.51563Z"/><path class="a" d="M165.19639,49.72671q-1.72851,6.47462-8.32031,6.47461h-30.0293l11.2793-42.1875h30.05859q5.21485,0,5.21485,4.07226a9.3077,9.3077,0,0,1-.35157,2.373ZM153.87315,35.50308a8.9399,8.9399,0,0,0,3.2373-4.79,7.34148,7.34148,0,0,0,.26368-1.875,4.78884,4.78884,0,0,0-5.06836-4.86328,8.19757,8.19757,0,0,0-5.15625,1.94824,8.96728,8.96728,0,0,0-3.22266,4.79,7.34189,7.34189,0,0,0-.26367,1.875,4.8262,4.8262,0,0,0,5.03906,4.86328A8.25593,8.25593,0,0,0,153.87315,35.50308Z"/><path class="a" d="M197.8917,56.20132H167.86241l11.27929-42.1875H209.171q5.24415,0,5.24414,4.07226a9.3081,9.3081,0,0,1-.35156,2.373l-2.37305,8.78906q-1.28905,4.7754-4.80468,5.85938a3.15313,3.15313,0,0,1,2.05078,3.31055,10.08042,10.08042,0,0,1-.38086,2.54882L206.212,49.756Q204.4835,56.20132,197.8917,56.20132Zm-7.998-7.51465a8.96731,8.96731,0,0,0,3.22265-4.79,7.34148,7.34148,0,0,0,.26368-1.875,4.96249,4.96249,0,0,0-.90821-2.92969,4.83211,4.83211,0,0,0-4.13086-1.93359,8.25591,8.25591,0,0,0-5.1709,1.94824,8.9399,8.9399,0,0,0-3.2373,4.79,7.34189,7.34189,0,0,0-.26367,1.875,4.72875,4.72875,0,0,0,.9375,2.90039,4.80548,4.80548,0,0,0,4.13086,1.96289A8.19761,8.19761,0,0,0,189.89366,48.68667Zm7.63183-17.57812a8.93992,8.93992,0,0,0,3.23731-4.79,7.342,7.342,0,0,0,.26367-1.875,4.96246,4.96246,0,0,0-.9082-2.92969,4.83212,4.83212,0,0,0-4.13086-1.93359,8.25587,8.25587,0,0,0-5.1709,1.94824,8.94,8.94,0,0,0-3.23731,4.79,7.34189,7.34189,0,0,0-.26367,1.875,4.8262,4.8262,0,0,0,5.03907,4.86328A8.25592,8.25592,0,0,0,197.52549,31.10855Z"/><path class="a" d="M59.20323,86.85855a3.47535,3.47535,0,0,0,.14648-.90821q0-1.43555-1.72851-1.43554H36.381l2.666-9.96094H69.07627q5.24415,0,5.24415,4.07226a9.30776,9.30776,0,0,1-.35157,2.37305L70.80479,92.71792q-1.72851,6.44532-8.32031,6.44531H59.55479a2.73111,2.73111,0,0,0-2.8125,2.34375l-.61523,2.34375H67.84581l-3.457,12.89063H27.76768L33.422,95.64761q1.72851-6.44532,8.32031-6.44531H56.39073A2.73111,2.73111,0,0,0,59.20323,86.85855Z"/><path class="a" d="M75.3751,116.74136q-5.21484,0-5.21484-4.043a9.641,9.641,0,0,1,.35156-2.40234l7.85156-29.29688q1.69923-6.44531,8.291-6.44531h23.4375q5.24414,0,5.24414,4.07226a9.30816,9.30816,0,0,1-.35156,2.37305l-7.82227,29.29688q-1.75781,6.44531-8.34961,6.44531ZM97.27452,96.04312a8.9399,8.9399,0,0,0,3.2373-4.79,7.342,7.342,0,0,0,.26367-1.875,4.78884,4.78884,0,0,0-5.06836-4.86328A8.19761,8.19761,0,0,0,90.55088,86.463a8.96731,8.96731,0,0,0-3.22265,4.79,7.34189,7.34189,0,0,0-.26367,1.875,4.8262,4.8262,0,0,0,5.03906,4.86328A8.256,8.256,0,0,0,97.27452,96.04312Z"/><path class="a" d="M141.23448,86.85855a3.47535,3.47535,0,0,0,.14648-.90821q0-1.43555-1.72851-1.43554H118.41221l2.666-9.96094h30.02929q5.24415,0,5.24415,4.07226a9.30776,9.30776,0,0,1-.35157,2.37305L152.836,92.71792q-1.72851,6.44532-8.32031,6.44531H141.586a2.73111,2.73111,0,0,0-2.8125,2.34375l-.61523,2.34375h11.71875l-3.457,12.89063H109.79893l5.6543-21.09375q1.72851-6.44532,8.32031-6.44531H138.422A2.73111,2.73111,0,0,0,141.23448,86.85855Z"/><path class="a" d="M157.40635,116.74136q-5.21484,0-5.21484-4.043a9.641,9.641,0,0,1,.35156-2.40234l7.85156-29.29688q1.69923-6.44531,8.291-6.44531h23.4375q5.24413,0,5.24414,4.07226a9.30816,9.30816,0,0,1-.35156,2.37305l-7.82227,29.29688q-1.7578,6.44531-8.34961,6.44531Zm21.89942-20.69824a8.9399,8.9399,0,0,0,3.2373-4.79,7.342,7.342,0,0,0,.26367-1.875,4.78884,4.78884,0,0,0-5.06836-4.86328,8.19761,8.19761,0,0,0-5.15625,1.94824,8.96731,8.96731,0,0,0-3.22265,4.79,7.34189,7.34189,0,0,0-.26367,1.875,4.8262,4.8262,0,0,0,5.03906,4.86328A8.256,8.256,0,0,0,179.30577,96.04312Z"/><path class="a" d="M22.74424,174.69741,27.94835,155.215H16.81553l5.51172-20.5957H57.11631L51.60655,155.215H40.47374l-5.20508,19.48242Z"/><path class="a" d="M54.81358,174.69741q-4.09278,0-4.0918-3.14453a7.21711,7.21711,0,0,1,.27832-1.86523L56.95616,147.422a6.1196,6.1196,0,0,1,6.48437-5.00976H81.253q4.09278,0,4.0918,3.14453a7.21668,7.21668,0,0,1-.27832,1.86523L79.1378,169.68765a6.16077,6.16077,0,0,1-6.51172,5.00976Zm16.58789-15.91992a6.59292,6.59292,0,0,0,2.39258-3.5625,5.67,5.67,0,0,0,.19531-1.41992,3.51712,3.51712,0,0,0-3.72949-3.58984,6.0362,6.0362,0,0,0-3.79883,1.44726,6.76631,6.76631,0,0,0-2.40723,3.5625,5.30871,5.30871,0,0,0-.19531,1.3916,3.56863,3.56863,0,0,0,.69531,2.1709,3.53046,3.53046,0,0,0,3.03418,1.44727A6.09435,6.09435,0,0,0,71.40147,158.77749Z"/><path class="a" d="M110.61631,142.41226h8.07129l-5.51074,20.5957a3.45059,3.45059,0,0,1-3.67383,2.7832h-1.3916l4.75879,8.90625h-7.23633l-4.75879-8.90625H99.06553l-2.36523,8.90625h-14.751l8.62793-32.28515h14.751l-4.45313,16.69922h3.75684a1.93819,1.93819,0,0,0,1.97656-1.66993Z"/><path class="a" d="M123.92,161.338h-1.53027q-4.09276,0-4.0918-3.14453a7.21724,7.21724,0,0,1,.27832-1.86524l3.7295-13.916h10.29785l-2.36621,8.90625H137.753l2.39258-8.90625h10.27051l-3.72949,13.916a6.12026,6.12026,0,0,1-6.48438,5.00977H138.671l-3.5625,13.35937h-14.751Z"/><path class="a" d="M151.11241,174.69741q-4.09278,0-4.0918-3.14453a7.21668,7.21668,0,0,1,.27832-1.86523L153.255,147.422a6.11959,6.11959,0,0,1,6.48437-5.00976h17.8125q4.09278,0,4.0918,3.14453a7.21711,7.21711,0,0,1-.27832,1.86523l-5.92871,22.26563a6.16077,6.16077,0,0,1-6.51172,5.00976Zm16.58789-15.91992a6.59292,6.59292,0,0,0,2.39258-3.5625,5.67,5.67,0,0,0,.19531-1.41992,3.51712,3.51712,0,0,0-3.72949-3.58984,6.03618,6.03618,0,0,0-3.79883,1.44726,6.76625,6.76625,0,0,0-2.40723,3.5625,5.30871,5.30871,0,0,0-.19531,1.3916,3.56857,3.56857,0,0,0,.69531,2.1709,3.53046,3.53046,0,0,0,3.03418,1.44727A6.09437,6.09437,0,0,0,167.7003,158.77749Z"/></svg>