<svg xmlns="http://www.w3.org/2000/svg" viewBox="0 0 581.10236 99.2126"><defs><style>.a{fill:#fff;}.b{fill:#231815;}.c{fill:#e2356b;}.d{fill:#f692ab;}</style></defs><title>vldb2020-logo1-color-db</title><path class="a" d="M410.64252,8.99787a19.51486,19.51486,0,0,1,15.48,7.63235c.14343.18686.27637.37973.41244.5708h9.51477a26.78273,26.78273,0,0,1,5.32871.53241,19.49237,19.49237,0,0,1,4.48581-.53241H461.3916a19.56213,19.56213,0,0,1,2.78021.1987,19.55362,19.55362,0,0,1,2.78614-.1987h8.49615c.64237,0,1.27963.03849,1.91236.10077.62594-.06085,1.25708-.10077,1.8962-.10077h10.83988a19.51111,19.51111,0,0,1,3.96677.4072,19.5107,19.5107,0,0,1,3.97265-.4072h10.81058a19.50458,19.50458,0,0,1,4.474.52,28.32746,28.32746,0,0,1,5.34042-.52h18.75c13.58008,0,23.82129,9.8125,23.82129,22.8252,0,2.30221-7.209,30.49121-7.21872,30.52637A26.04152,26.04152,0,0,1,528.335,90.21473H44.94232A19.51492,19.51492,0,0,1,25.936,75.12537L20.36967,51.21909a19.51756,19.51756,0,0,1,.15522-9.47021l4.89264-18.28122a19.51381,19.51381,0,0,1,18.851-14.46979H57.4521a19.51424,19.51424,0,0,1,5.13865.68851,19.49624,19.49624,0,0,1,5.14457-.68851H80.8896a19.49231,19.49231,0,0,1,3.01365.241,19.53617,19.53617,0,0,1,3.00885-.241h24.90229a19.49646,19.49646,0,0,1,8.05643,1.74908,19.458,19.458,0,0,1,8.05685-1.74908h30.05865a28.89175,28.89175,0,0,1,6.04543.62994,19.4986,19.4986,0,0,1,4.91156-.62994H198.9726a29.74925,29.74925,0,0,1,6.11593.6177,19.50456,19.50456,0,0,1,4.87042-.6177h30.0293a28.41731,28.41731,0,0,1,8.72286,1.30536,30.103,30.103,0,0,1,8.85528-1.30536h23.4375a29.7482,29.7482,0,0,1,6.11586.6177,19.50492,19.50492,0,0,1,4.87042-.6177h30.02936a28.41733,28.41733,0,0,1,8.72287,1.30536,30.10293,30.10293,0,0,1,8.8552-1.30536h23.4375a29.7503,29.7503,0,0,1,6.11608.6177,19.503,19.503,0,0,1,4.87027-.6177h36.62107m0-5.669H374.02145a25.20225,25.20225,0,0,0-4.97924.49744,35.98906,35.98906,0,0,0-6.00711-.49744H339.5976a36.07564,36.07564,0,0,0-8.82724,1.08258,34.8141,34.8141,0,0,0-8.75083-1.08258H291.99017a25.201,25.201,0,0,0-4.97934.49747,35.98393,35.98393,0,0,0-6.00694-.49747h-23.4375a36.07613,36.07613,0,0,0-8.82733,1.08258,34.814,34.814,0,0,0-8.75081-1.08258H209.959a25.20105,25.20105,0,0,0-4.97935.49747,35.98483,35.98483,0,0,0-6.007-.49747H168.94331a25.16981,25.16981,0,0,0-5.01552.50611,34.89085,34.89085,0,0,0-5.94147-.50611H127.92767a24.935,24.935,0,0,0-8.05751,1.32807,24.94031,24.94031,0,0,0-8.05577-1.32807H86.9121a24.88255,24.88255,0,0,0-3.00769.1872,24.90327,24.90327,0,0,0-3.01481-.1872H67.73532a25.22267,25.22267,0,0,0-5.14523.52966,25.19511,25.19511,0,0,0-5.138-.52966H44.26853A25.21746,25.21746,0,0,0,19.94117,22.00235L15.0486,40.28324a25.275,25.275,0,0,0-.20036,12.221L20.41475,76.411A25.07764,25.07764,0,0,0,44.94232,95.88373H528.335a31.58367,31.58367,0,0,0,31.15457-23.84237c.06836-.24692,7.41773-28.4462,7.41773-32.01514a27.9263,27.9263,0,0,0-8.5651-20.38565A29.98579,29.98579,0,0,0,537.417,11.532h-18.75a33.7798,33.7798,0,0,0-5.24438.41839,25.212,25.212,0,0,0-4.57-.41839H498.042a25.29,25.29,0,0,0-3.973.31427,25.24306,25.24306,0,0,0-3.96646-.31427H479.26266c-.6015,0-1.22558.02585-1.89447.07873-.6665-.05288-1.29708-.07873-1.91409-.07873H466.958a25.36031,25.36031,0,0,0-2.78638.15381,25.31274,25.31274,0,0,0-2.78-.15381H445.86426a24.996,24.996,0,0,0-4.562.42547,32.62821,32.62821,0,0,0-5.25251-.42547h-6.812a25.3594,25.3594,0,0,0-18.59521-8.20316Z"/><path class="b" d="M528.33492,90.2147a26.04145,26.04145,0,0,0,25.68457-19.66211c.00977-.03516,7.21875-28.22412,7.21875-30.52637,0-13.01269-10.24121-22.82519-23.82129-22.82519h-18.75a28.33324,28.33324,0,0,0-5.34045.52,19.50563,19.50563,0,0,0-4.474-.52H498.042a19.51115,19.51115,0,0,0-3.97265.40722,19.50672,19.50672,0,0,0-3.9668-.40722H479.26265c-.63916,0-1.27026.03991-1.89624.10076-.63269-.06231-1.26995-.10076-1.91235-.10076H466.958a19.54308,19.54308,0,0,0-2.78614.19873,19.553,19.553,0,0,0-2.78027-.19873H445.86422a19.49251,19.49251,0,0,0-4.48578.53241,26.78021,26.78021,0,0,0-5.32868-.53241h-9.51483c-.136-.19111-.269-.384-.41241-.57081a19.51473,19.51473,0,0,0-15.48-7.63232h-36.6211a19.50308,19.50308,0,0,0-4.8703.61768,29.74722,29.74722,0,0,0-6.116-.61768h-23.4375a30.10367,30.10367,0,0,0-8.85523,1.3053,28.41756,28.41756,0,0,0-8.7229-1.3053h-30.0293a19.50439,19.50439,0,0,0-4.87042.61768,29.74654,29.74654,0,0,0-6.1159-.61768h-23.4375a30.10367,30.10367,0,0,0-8.85523,1.3053,28.41756,28.41756,0,0,0-8.7229-1.3053h-30.0293a19.50439,19.50439,0,0,0-4.87042.61768,29.74654,29.74654,0,0,0-6.1159-.61768h-30.0293a19.50131,19.50131,0,0,0-4.91156.62988,28.89188,28.89188,0,0,0-6.04547-.62988h-30.0586a19.45878,19.45878,0,0,0-8.05688,1.749,19.49727,19.49727,0,0,0-8.0564-1.749H86.91207a19.53933,19.53933,0,0,0-3.00879.241,19.49265,19.49265,0,0,0-3.01367-.241H67.73531a19.49695,19.49695,0,0,0-5.14453.68848,19.51437,19.51437,0,0,0-5.13867-.68848H44.26851a19.51392,19.51392,0,0,0-18.851,14.46973L20.52492,41.74888a19.51719,19.51719,0,0,0-.15527,9.47021l5.56641,23.90625A19.51486,19.51486,0,0,0,44.94234,90.2147Z"/><path class="a" d="M39.08789,70.70026a5.85445,5.85445,0,0,1-5.70166-4.52637L27.81982,42.26764a5.85515,5.85515,0,0,1,.04639-2.84179L32.75879,21.1446a5.85437,5.85437,0,0,1,5.65527-4.34082h13.1836a5.85092,5.85092,0,0,1,5.14111,3.0542,5.85592,5.85592,0,0,1,5.14209-3.0542h13.1543a5.85459,5.85459,0,0,1,5.65722,7.36181L75.8291,42.41706a5.849,5.849,0,0,1-.87256,1.86621l-16.875,23.93555a5.85456,5.85456,0,0,1-4.78466,2.48144Z"/><path class="a" d="M76.37012,70.70026c-8.17041,0-11.06934-5.332-11.06934-9.89746a15.28837,15.28837,0,0,1,.541-3.87988L75.40186,21.147a5.85374,5.85374,0,0,1,5.65576-4.34326H105.96a5.85417,5.85417,0,0,1,5.65674,7.36279l-4.28662,16.07471h4.0791a5.85428,5.85428,0,0,1,5.65576,7.36621l-4.07226,15.23437a10.1193,10.1193,0,0,1-10.25538,7.8584Z"/><path class="a" d="M110.794,70.70026a5.85428,5.85428,0,0,1-5.65577-7.36621l11.2793-42.188a5.85429,5.85429,0,0,1,5.65576-4.34228h30.0586c8.17041,0,11.06933,5.34765,11.06933,9.92675a15.16946,15.16946,0,0,1-.54931,3.88135l-7.854,29.27588c-1.83349,6.86914-6.92773,10.8125-13.97461,10.8125Z"/><path class="a" d="M151.80957,70.70026a5.85428,5.85428,0,0,1-5.65576-7.36621l11.2793-42.188a5.85429,5.85429,0,0,1,5.65576-4.34228h30.02929c8.1919,0,11.09864,5.34765,11.09864,9.92675a15.16905,15.16905,0,0,1-.54932,3.88135L201.28955,39.419a16.21071,16.21071,0,0,1-2.71631,5.72852,10.95623,10.95623,0,0,1,.165,1.915,15.692,15.692,0,0,1-.57666,4.0498l-2.3457,8.79687c-1.83985,6.86036-6.9336,10.791-13.97705,10.791Z"/><path class="a" d="M192.8252,70.70026a5.855,5.855,0,0,1-5.65479-7.37012l5.6543-21.09375a15.24568,15.24568,0,0,1,3.57275-6.64013,5.854,5.854,0,0,1-.61426-4.49073l2.666-9.96093a5.85437,5.85437,0,0,1,5.65527-4.34082h30.0293c8.19189,0,11.09863,5.34765,11.09863,9.92675a15.16946,15.16946,0,0,1-.54931,3.88135L241.51416,42.3487a15.22016,15.22016,0,0,1-3.56934,6.63086,5.85506,5.85506,0,0,1,.61329,4.49218l-3.457,12.89063a5.855,5.855,0,0,1-5.65478,4.33789Z"/><path class="a" d="M240.43262,70.70026c-8.17041,0-11.06934-5.332-11.06934-9.89746a15.26824,15.26824,0,0,1,.54151-3.87988l7.86132-29.335c1.80469-6.84473,6.88965-10.78418,13.9458-10.78418h23.4375c8.1919,0,11.09864,5.34765,11.09864,9.92675a15.16905,15.16905,0,0,1-.54932,3.88135L277.876,59.91022c-1.87305,6.86817-6.9751,10.79-14.00586,10.79Z"/><path class="a" d="M274.85645,70.70026a5.855,5.855,0,0,1-5.65479-7.37012l5.6543-21.09375a15.24568,15.24568,0,0,1,3.57275-6.64013,5.854,5.854,0,0,1-.61426-4.49073l2.666-9.96093a5.85437,5.85437,0,0,1,5.65527-4.34082H316.165c8.19189,0,11.09863,5.34765,11.09863,9.92675a15.16946,15.16946,0,0,1-.54931,3.88135L323.54541,42.3487a15.22016,15.22016,0,0,1-3.56934,6.63086,5.85506,5.85506,0,0,1,.61329,4.49218l-3.457,12.89063a5.855,5.855,0,0,1-5.65478,4.33789Z"/><path class="a" d="M322.46387,70.70026c-8.17041,0-11.06934-5.332-11.06934-9.89746a15.26824,15.26824,0,0,1,.54151-3.87988l7.86132-29.335c1.80469-6.84473,6.88965-10.78418,13.9458-10.78418h23.4375c8.1919,0,11.09864,5.34765,11.09864,9.92675a15.16905,15.16905,0,0,1-.54932,3.88135l-7.82275,29.29834c-1.87305,6.86817-6.9751,10.79-14.00586,10.79Z"/><path class="a" d="M368.60645,70.70026A5.85516,5.85516,0,0,1,362.9502,63.335l3.51123-13.14258h-4.09522a5.85465,5.85465,0,0,1-5.65527-7.36817l5.80078-21.6792a5.85425,5.85425,0,0,1,5.65527-4.3413h36.6211a5.854,5.854,0,0,1,5.65527,7.36767l-5.80078,21.68018a5.85493,5.85493,0,0,1-5.65528,4.34082h-7.22314l-4.31787,16.16406A5.85519,5.85519,0,0,1,381.79,70.70026Z"/><path class="a" d="M402.36328,70.70026c-7.019,0-10.16113-4.60352-10.16113-9.165a13.43987,13.43987,0,0,1,.49609-3.49023l6.26514-23.42285c1.62939-6.10889,6.1792-9.61524,12.48193-9.61524h18.75c7.019,0,10.16114,4.603,10.16114,9.165a13.437,13.437,0,0,1-.4961,3.49023l-6.23437,23.416c-1.66748,6.127-6.2251,9.62207-12.5127,9.62207Z"/><path class="a" d="M455.85938,70.70026a5.857,5.857,0,0,1-4.70215-2.36621,5.85483,5.85483,0,0,1-4.70215,2.36621H430.92773a5.85428,5.85428,0,0,1-5.65576-7.36621l9.082-33.98438a5.85431,5.85431,0,0,1,5.65577-4.34277h15.52734a5.85488,5.85488,0,0,1,2.7832.7041,5.83654,5.83654,0,0,1,2.78321-.7041h8.49609a5.854,5.854,0,0,1,5.65527,7.36768L469.4541,54.05475a9.97944,9.97944,0,0,1-2.64355,4.6084l1.82959,3.42383a5.85445,5.85445,0,0,1-5.16358,8.61328Z"/><path class="a" d="M471.35742,70.70026a5.85481,5.85481,0,0,1-5.65674-7.36328l2.13575-8.00879a8.76666,8.76666,0,0,1-4.50147-7.85547,13.43987,13.43987,0,0,1,.49609-3.49023l3.92237-14.63672a5.85488,5.85488,0,0,1,5.65478-4.33887h10.83985a5.8541,5.8541,0,0,1,3.96972,1.55127,5.85121,5.85121,0,0,1,3.96973-1.55127h10.81055a5.85515,5.85515,0,0,1,5.65527,7.37012l-3.92578,14.64844c-1.36133,5.10156-4.76172,8.38867-9.52051,9.332l-2.666,9.99707a5.85326,5.85326,0,0,1-5.65625,4.3457Z"/><path class="a" d="M503.73047,70.70026c-7.01953,0-10.16113-4.60352-10.16113-9.165a13.43987,13.43987,0,0,1,.49609-3.49023l6.26562-23.42285c1.62891-6.10889,6.17872-9.61524,12.48145-9.61524h18.75c7.01953,0,10.16113,4.603,10.16113,9.165a13.437,13.437,0,0,1-.49609,3.49023l-6.23438,23.416c-1.668,6.127-6.22558,9.62207-12.51269,9.62207Z"/><path class="c" d="M75.03516,22.65827l-4.86328,18.252-16.875,23.93555h-14.209L33.52148,40.93952l4.89258-18.28125h13.1836l-2.34375,8.78906h10.2539l2.373-8.78906Z"/><path class="c" d="M76.37012,64.84577q-5.21485,0-5.21485-4.043a9.64063,9.64063,0,0,1,.35157-2.40234l9.55078-35.74219H105.96L100.335,43.752a3.55178,3.55178,0,0,0-.14648.9375q0,1.40625,1.69922,1.40625h9.52148l-4.07227,15.23437a4.32372,4.32372,0,0,1-4.59961,3.51563Z"/><path class="c" d="M149.14355,58.37116q-1.72851,6.47462-8.32031,6.47461H110.794l11.27929-42.1875h30.0586q5.21484,0,5.21484,4.07226a9.30816,9.30816,0,0,1-.35156,2.373ZM137.82031,44.14753a8.94,8.94,0,0,0,3.23731-4.79,7.342,7.342,0,0,0,.26367-1.875,4.78884,4.78884,0,0,0-5.06836-4.86328,8.19757,8.19757,0,0,0-5.15625,1.94824,8.96733,8.96733,0,0,0-3.22266,4.79,7.34189,7.34189,0,0,0-.26367,1.875,4.8262,4.8262,0,0,0,5.03906,4.86328A8.25593,8.25593,0,0,0,137.82031,44.14753Z"/><path class="c" d="M181.83887,64.84577h-30.0293l11.2793-42.1875h30.02929q5.24415,0,5.24414,4.07226a9.30771,9.30771,0,0,1-.35156,2.373l-2.373,8.78906Q194.34863,42.668,190.833,43.752a3.15312,3.15312,0,0,1,2.05078,3.31055,10.08,10.08,0,0,1-.38086,2.54882l-2.34375,8.78907Q188.43067,64.84577,181.83887,64.84577Zm-7.998-7.51465a8.96733,8.96733,0,0,0,3.22266-4.79,7.34189,7.34189,0,0,0,.26367-1.875,4.96255,4.96255,0,0,0-.9082-2.92969,4.83214,4.83214,0,0,0-4.13086-1.93359,8.25587,8.25587,0,0,0-5.1709,1.94824,8.94,8.94,0,0,0-3.23731,4.79,7.34189,7.34189,0,0,0-.26367,1.875,4.72875,4.72875,0,0,0,.9375,2.90039,4.80549,4.80549,0,0,0,4.13086,1.96289A8.19757,8.19757,0,0,0,173.84082,57.33112ZM181.47266,39.753a8.93984,8.93984,0,0,0,3.2373-4.79,7.342,7.342,0,0,0,.26367-1.875,4.96246,4.96246,0,0,0-.9082-2.92969,4.83212,4.83212,0,0,0-4.13086-1.9336,8.2559,8.2559,0,0,0-5.1709,1.94825,8.93983,8.93983,0,0,0-3.2373,4.79,7.34189,7.34189,0,0,0-.26367,1.875,4.8262,4.8262,0,0,0,5.03906,4.86328A8.2559,8.2559,0,0,0,181.47266,39.753Z"/><path class="d" d="M224.26074,34.963a3.475,3.475,0,0,0,.14649-.90821q0-1.43554-1.72852-1.43554H201.43848l2.666-9.96094h30.0293q5.24414,0,5.24414,4.07226a9.30816,9.30816,0,0,1-.35156,2.373L235.8623,40.82233q-1.72851,6.44532-8.32031,6.44531H224.6123a2.73111,2.73111,0,0,0-2.8125,2.34375l-.61523,2.34375h11.71875l-3.457,12.89063H192.8252L198.47949,43.752q1.72853-6.44532,8.32031-6.44531h14.64844A2.7311,2.7311,0,0,0,224.26074,34.963Z"/><path class="d" d="M240.43262,64.84577q-5.21485,0-5.21485-4.043a9.64063,9.64063,0,0,1,.35157-2.40234l7.85156-29.29688q1.69922-6.44531,8.291-6.44531h23.4375q5.24415,0,5.24414,4.07226a9.30771,9.30771,0,0,1-.35156,2.373l-7.82226,29.29688q-1.75782,6.4453-8.34961,6.44531ZM262.332,44.14753a8.94,8.94,0,0,0,3.23731-4.79,7.342,7.342,0,0,0,.26367-1.875,4.78884,4.78884,0,0,0-5.06836-4.86328,8.19757,8.19757,0,0,0-5.15625,1.94824,8.96728,8.96728,0,0,0-3.22266,4.79,7.34189,7.34189,0,0,0-.26367,1.875,4.8262,4.8262,0,0,0,5.03906,4.86328A8.25593,8.25593,0,0,0,262.332,44.14753Z"/><path class="d" d="M306.292,34.963a3.475,3.475,0,0,0,.14649-.90821q0-1.43554-1.72852-1.43554H283.46973l2.666-9.96094H316.165q5.24414,0,5.24414,4.07226a9.30816,9.30816,0,0,1-.35156,2.373l-3.16407,11.71875q-1.72851,6.44532-8.32031,6.44531h-2.92969a2.73111,2.73111,0,0,0-2.8125,2.34375l-.61523,2.34375h11.71875l-3.457,12.89063H274.85645L280.51074,43.752q1.72853-6.44532,8.32031-6.44531h14.64844A2.7311,2.7311,0,0,0,306.292,34.963Z"/><path class="d" d="M322.46387,64.84577q-5.21485,0-5.21485-4.043a9.64063,9.64063,0,0,1,.35157-2.40234l7.85156-29.29688q1.69922-6.44531,8.291-6.44531h23.4375q5.24415,0,5.24414,4.07226a9.30771,9.30771,0,0,1-.35156,2.373L354.251,58.40046q-1.75782,6.4453-8.34961,6.44531Zm21.89941-20.69824a8.94,8.94,0,0,0,3.23731-4.79,7.342,7.342,0,0,0,.26367-1.875,4.78884,4.78884,0,0,0-5.06836-4.86328,8.19757,8.19757,0,0,0-5.15625,1.94824,8.96728,8.96728,0,0,0-3.22266,4.79,7.34189,7.34189,0,0,0-.26367,1.875,4.8262,4.8262,0,0,0,5.03906,4.86328A8.25593,8.25593,0,0,0,344.36328,44.14753Z"/><path class="c" d="M368.60645,64.84577,374.085,44.338H362.36621L368.167,22.65827h36.6211L398.9873,44.338H387.26855L381.79,64.84577Z"/><path class="c" d="M402.36328,64.84577q-4.30663,0-4.30664-3.31055a7.5932,7.5932,0,0,1,.293-1.96289l6.26953-23.4375q1.40625-5.27343,6.82617-5.27344h18.75q4.30665,0,4.30664,3.31055a7.59277,7.59277,0,0,1-.293,1.96289l-6.24023,23.4375q-1.43554,5.27345-6.85547,5.27344ZM419.82422,48.088a6.94177,6.94177,0,0,0,2.51953-3.75,5.96263,5.96263,0,0,0,.20508-1.49414,3.70227,3.70227,0,0,0-3.92578-3.7793,6.3556,6.3556,0,0,0-3.999,1.52344,7.13171,7.13171,0,0,0-2.53418,3.75,5.6305,5.6305,0,0,0-.20507,1.46484,3.75688,3.75688,0,0,0,.73242,2.28516,3.71533,3.71533,0,0,0,3.19336,1.52343A6.41375,6.41375,0,0,0,419.82422,48.088Z"/><path class="c" d="M461.10352,30.86139h8.49609l-5.80078,21.67969a3.63221,3.63221,0,0,1-3.86719,2.92969H458.4668l5.00976,9.375h-7.61718l-5.00977-9.375h-1.9043l-2.49023,9.375H430.92773l9.082-33.98438h15.52734l-4.6875,17.57813h3.95508a2.03971,2.03971,0,0,0,2.08008-1.75781Z"/><path class="c" d="M475.10742,50.78327h-1.61133q-4.30663,0-4.30664-3.31055a7.5932,7.5932,0,0,1,.293-1.96289l3.92578-14.64844h10.83985l-2.49024,9.375H489.668l2.51953-9.375h10.81055l-3.92578,14.64844q-1.40625,5.27345-6.82618,5.27344h-1.61132l-3.75,14.0625H471.35742Z"/><path class="c" d="M503.73047,64.84577q-4.30664,0-4.30664-3.31055a7.59277,7.59277,0,0,1,.293-1.96289l6.26953-23.4375q1.40625-5.27343,6.82617-5.27344h18.75q4.30663,0,4.30664,3.31055a7.5932,7.5932,0,0,1-.293,1.96289l-6.24023,23.4375q-1.43555,5.27345-6.85547,5.27344ZM521.19141,48.088a6.94183,6.94183,0,0,0,2.51953-3.75,5.96263,5.96263,0,0,0,.20508-1.49414,3.70227,3.70227,0,0,0-3.92579-3.7793,6.3556,6.3556,0,0,0-3.999,1.52344,7.13165,7.13165,0,0,0-2.53418,3.75,5.6301,5.6301,0,0,0-.20508,1.46484,3.75683,3.75683,0,0,0,.73243,2.28516,3.71531,3.71531,0,0,0,3.19335,1.52343A6.4138,6.4138,0,0,0,521.19141,48.088Z"/></svg>