<svg xmlns="http://www.w3.org/2000/svg" viewBox="0 0 240.9449 198.4252"><defs><style>.a{fill:#231815;}.b{fill:#fff;}.c{fill:#9fa0a0;}</style></defs><title>vldb2020-logo3-gray-bb</title><path class="a" d="M237.0288,21.83A16.6337,16.6337,0,0,0,233.12,10.9206,21.3837,21.3837,0,0,0,216.3862,2.74c-.5322,0-1.0694.0205-1.6074.0625l-26.1953.1426A16.1357,16.1357,0,0,0,181.5615,4.6a.1571.1571,0,0,1-.1277.0054c-.6472-.2537-1.3066-.4876-1.9841-.69-.2041-.0606-.4082-.1182-.6143-.1709A29.5831,29.5831,0,0,0,173.6518,2.9q-.59-.0426-1.1816-.043H145.4877A16.17,16.17,0,0,0,134.9038,6.8a.16.16,0,0,1-.2112,0A16.1729,16.1729,0,0,0,124.13,2.8571H101.9819a16.1664,16.1664,0,0,0-4.0549.521.1515.1515,0,0,1-.0823-.0018,16.127,16.127,0,0,0-4.6978-.7243H82.5708a16.16,16.16,0,0,0-5.6321,1.01.1533.1533,0,0,1-.1018.0019A16.1887,16.1887,0,0,0,71.79,2.8571H59.8452A16.3592,16.3592,0,0,0,44.1973,14.4447L40.2618,27.3509a16.3545,16.3545,0,0,0-.327,8.2937l6.0135,27.2539a.1692.1692,0,0,1-.1651.2057H43.9057A16.36,16.36,0,0,0,27.986,75.696l-2.049,8.6582a16.2027,16.2027,0,0,0-.2354,6.2626.1542.1542,0,0,1-.0238.111,45.1212,45.1212,0,0,0-4.34,8.6228c-.1364.35-.26.7129-.37,1.0724L15.93,116.8522a16.1842,16.1842,0,0,0,.477,10.8091.1586.1586,0,0,1-.0392.1769,16.14,16.14,0,0,0-4.302,6.638L4.8731,155.7a16.7691,16.7691,0,0,0,.8407,13.1779,16.2318,16.2318,0,0,0,4.7154,5.4953l-.02.0566a16.2036,16.2036,0,0,0,4.84,17.4765,16.7467,16.7467,0,0,0,10.9438,3.8673H177.6147c6.8755,0,13.1689-3.589,17.26-9.8471a17.773,17.773,0,0,0,1.8632-3.9021c7.7481-22.2708,34.4961-136.7166,34.4493-137.282C231.1848,44.7076,237.0288,24.5876,237.0288,21.83Z"/><path class="b" d="M57.2648,61.0579a4.8574,4.8574,0,0,1-4.7432-3.81L46.1349,28.3021a4.8543,4.8543,0,0,1,.0976-2.4629l3.9844-13.0664a4.8564,4.8564,0,0,1,4.6455-3.44h12.07a4.858,4.858,0,0,1,4.6485,6.2661l-.959,3.1621.624.0049,1.8076-6.1509a4.8577,4.8577,0,0,1,4.66-3.4873H88.29A4.8573,4.8573,0,0,1,92.9483,15.36L88.7589,29.54a4.8814,4.8814,0,0,1-.4531,1.0542L72.1046,58.6312A4.8568,4.8568,0,0,1,67.9,61.0579Z"/><path class="b" d="M89.42,61.0579a4.8844,4.8844,0,0,1-.7822-.0634,9.0367,9.0367,0,0,1-7.5313-8.9829,4.8528,4.8528,0,0,1,.1983-1.3746L92.4669,12.8148a4.8565,4.8565,0,0,1,4.6582-3.4824h22.1484a4.8571,4.8571,0,0,1,4.6534,6.249c-2.0342,6.7978-3.8711,13.4057-5.462,19.6494h6.4922A4.8574,4.8574,0,0,1,129.56,41.639c-1.15,3.4141-2.5147,7.5806-4.0557,12.3877-.9258,5.1728-4.6836,7.0312-7.959,7.0312Z"/><path class="b" d="M127.7989,61.0579a4.8568,4.8568,0,0,1-4.6455-6.2758L135.9855,12.77a4.8578,4.8578,0,0,1,4.6455-3.4379h26.9824q.1771,0,.3545.0131a18.1965,18.1965,0,0,1,3.1953.52q.0938.0234.1846.0512a11.9091,11.9091,0,0,1,6.4013,4.3882,6.4371,6.4371,0,0,1,1.1953,4.0151c0,2.896-.957,9.2837-8.4238,33.1773-1.06,3.5786-4.0947,6.65-8.9951,9.0615a4.8642,4.8642,0,0,1-2.1445.499Zm21.3653-29.27a4.8164,4.8164,0,0,0,3.0976.8067,3.5889,3.5889,0,0,0,2.3516-.7178c.3506-.27.3506-.37.3506-.6362a2.1645,2.1645,0,0,0-.7012-1.7984,2.9512,2.9512,0,0,0-2.2354-.7861,3.0051,3.0051,0,0,0-2.3.8379,2.686,2.686,0,0,0-.958,1.4883A1.16,1.16,0,0,0,149.1642,31.7874Z"/><path class="b" d="M170.9825,61.0579A4.8578,4.8578,0,0,1,166.338,54.78L179.17,12.8558A4.8579,4.8579,0,0,1,183.7882,9.42l26.6826-.1445a9.4173,9.4173,0,0,1,1.0586-.0605,9.9292,9.9292,0,0,1,8.1543,4.2734,5.3548,5.3548,0,0,1,1.1553,3.4839c0,1.4155-.3623,4.1323-2.9951,14.3384a11.0488,11.0488,0,0,1-3.7217,5.4253l-.1836.1616a11.0908,11.0908,0,0,1,1.1289,4.6841,6.8923,6.8923,0,0,1-.292,1.9819l-2.9619,10.63a4.8565,4.8565,0,0,1-.583,1.3061c-2.9268,4.5933-6.4873,5.5576-8.959,5.5576ZM184.7745,46.24c0,.2041,0,.38.3692.7324a4.48,4.48,0,0,0,3.0947.8559,3.6757,3.6757,0,0,0,2.3828-.7124.6279.6279,0,0,0,.3193-.6709,2.1326,2.1326,0,0,0-.7011-1.769,3.5295,3.5295,0,0,0-4.5118.0586,2.8407,2.8407,0,0,0-.9531,1.4683Zm6.1524-17.7832a.8853.8853,0,0,0,.3691.7617,4.576,4.576,0,0,0,3.0947.8266,3.7251,3.7251,0,0,0,2.3994-.71c.2256-.17.3028-.2276.3028-.6734a2.1327,2.1327,0,0,0-.7012-1.769,3.5294,3.5294,0,0,0-4.5117.0586,2.8407,2.8407,0,0,0-.9531,1.4683Z"/><path class="b" d="M26.5519,121.598a4.857,4.857,0,0,1-4.6436-6.2808l5.0391-16.4355c.0361-.1167.0761-.2325.12-.3462C29.006,93.5833,31.1749,90.262,33.7,88.3822a10.7011,10.7011,0,0,1,1.1543-.7222,4.8558,4.8558,0,0,1-2.7461-5.5532l2.08-8.7891a4.8568,4.8568,0,0,1,4.7265-3.7383H67.421a4.8342,4.8342,0,0,1,1.0059.1055,10.9292,10.9292,0,0,1,6.0312,3.0517,9.2864,9.2864,0,0,1,2.2432,6.5044q0,.8915-.0674,2.0225a4.8452,4.8452,0,0,1-.1729,1.0234c-.6494,2.3057-1.8232,5.6949-3.5888,10.3619-.0371.0966-.0762.1923-.1192.2866a9.8331,9.8331,0,0,1-2.9922,3.7715,4.8608,4.8608,0,0,1,1.7354,5.4721c-1.1777,3.4951-2.9346,8.8926-5.2207,16.0415a4.8569,4.8569,0,0,1-4.626,3.3775Z"/><path class="b" d="M74.54,121.598a4.8845,4.8845,0,0,1-.7822-.0635,9.0363,9.0363,0,0,1-7.5312-8.9829,4.845,4.845,0,0,1,.2129-1.4229L77.0157,76.617a4.8221,4.8221,0,0,1,.378-.8989,10.6723,10.6723,0,0,1,6.0605-5.2808c.0361-.0122.0732-.0234.11-.0346a23.3087,23.3087,0,0,1,6.415-.5889h20.7129c.1074,0,.2158.0034.3232.0107a9.8511,9.8511,0,0,1,3.252.7925,12.0577,12.0577,0,0,1,5.4668,4.2954,6.5064,6.5064,0,0,1,1.1172,3.8892c0,3.1-1.18,10.02-10.3809,36.2373a4.8314,4.8314,0,0,1-.4873,1.0015c-2.9268,4.5932-6.5029,5.5576-8.9883,5.5576Zm16.5606-29.27a4.7576,4.7576,0,0,0,3.0683.8066,3.6478,3.6478,0,0,0,2.378-.727c.3535-.27.3535-.36.3535-.627a2.1487,2.1487,0,0,0-.7041-1.7876,2.9667,2.9667,0,0,0-2.2324-.7969,3.0918,3.0918,0,0,0-2.3252.8487,2.5124,2.5124,0,0,0-.9326,1.4463A1.1394,1.1394,0,0,0,91.1007,92.3275Z"/><path class="b" d="M112.919,121.598a4.857,4.857,0,0,1-4.6435-6.2808l5.0391-16.4355c.0361-.1167.0761-.2325.12-.3462,1.9384-4.9522,4.1074-8.2735,6.6328-10.1533a10.7011,10.7011,0,0,1,1.1543-.7222,4.8558,4.8558,0,0,1-2.7461-5.5532l2.08-8.7891a4.8568,4.8568,0,0,1,4.7265-3.7383h28.5059a4.8326,4.8326,0,0,1,1.0058.1055,10.93,10.93,0,0,1,6.0313,3.0517,9.2864,9.2864,0,0,1,2.2432,6.5044q0,.8915-.0674,2.0225a4.8452,4.8452,0,0,1-.1729,1.0234c-.6494,2.3057-1.8232,5.6949-3.5888,10.3619-.0371.0966-.0762.1923-.1192.2866a9.8331,9.8331,0,0,1-2.9922,3.7715,4.8608,4.8608,0,0,1,1.7354,5.4721c-1.1778,3.4951-2.9346,8.8926-5.2207,16.0415a4.8569,4.8569,0,0,1-4.626,3.3775Z"/><path class="b" d="M160.9073,121.598a4.8845,4.8845,0,0,1-.7822-.0635,9.0363,9.0363,0,0,1-7.5312-8.9829,4.8449,4.8449,0,0,1,.2128-1.4229L163.3829,76.617a4.8284,4.8284,0,0,1,.3779-.8989,10.6727,10.6727,0,0,1,6.0606-5.2808c.0361-.0122.0732-.0234.11-.0346a23.31,23.31,0,0,1,6.4151-.5889H197.06c.1074,0,.2158.0034.3232.0107a9.8511,9.8511,0,0,1,3.252.7925,12.0577,12.0577,0,0,1,5.4668,4.2954,6.5064,6.5064,0,0,1,1.1172,3.8892c0,3.1-1.18,10.02-10.3809,36.2373a4.8364,4.8364,0,0,1-.4873,1.0015c-2.9268,4.5932-6.5029,5.5576-8.9883,5.5576Zm16.5606-29.27a4.7574,4.7574,0,0,0,3.0683.8066,3.6481,3.6481,0,0,0,2.378-.727c.3535-.27.3535-.36.3535-.627a2.1487,2.1487,0,0,0-.7041-1.7876,2.9667,2.9667,0,0,0-2.2324-.7969,3.0916,3.0916,0,0,0-2.3252.8487,2.5134,2.5134,0,0,0-.9327,1.4463A1.14,1.14,0,0,0,177.4679,92.3275Z"/><path class="b" d="M20.9005,179.5824a4.8573,4.8573,0,0,1-4.6045-6.4034l3.9727-11.8271H15.1944a4.8559,4.8559,0,0,1-4.6-6.4151l7.3477-21.6806a4.8563,4.8563,0,0,1,4.5908-3.2979l31.9883-.0556a4.8576,4.8576,0,0,1,4.624,6.3432l-6.9863,21.7359a4.8566,4.8566,0,0,1-4.624,3.37h-6.462l-4.5664,14.8056a4.858,4.858,0,0,1-4.6416,3.4249Z"/><path class="b" d="M54.0821,179.5824a4.8218,4.8218,0,0,1-.6172-.0391,7.7466,7.7466,0,0,1-4.9052-2.6514,8.0188,8.0188,0,0,1-1.9776-5.3672A4.862,4.862,0,0,1,46.795,170.1l8.043-26.2168a4.9219,4.9219,0,0,1,.41-.956,9.3583,9.3583,0,0,1,5.3077-4.5264c.041-.0132.082-.0254.123-.0376a19.07,19.07,0,0,1,5.1485-.4726H81.58c.1406,0,.28.0063.4209.018a8.9544,8.9544,0,0,1,2.6767.6675,10.1928,10.1928,0,0,1,4.7129,3.71c.0518.0732.1016.1484.1494.2246a6.1454,6.1454,0,0,1,.876,3.3535c0,2.4678-.8974,7.876-7.8955,27.9551a4.8209,4.8209,0,0,1-.5254,1.0654c-2.5469,3.8828-5.6269,4.6973-7.7627,4.6973Zm13.62-24.1534a3.7688,3.7688,0,0,0,1.3261.19,1.771,1.771,0,0,0,.8965-.2022.4177.4177,0,0,0-.1377-.2041,1.1025,1.1025,0,0,0-.8984-.29c-.6787,0-.876.19-1.0059.3164C67.81,155.3118,67.75,155.3743,67.7023,155.429Z"/><path class="b" d="M106.546,179.5824a4.8561,4.8561,0,0,1-4.3789-2.7549l-2.6963-5.6182-.5586-.0039L97.24,176.2523a4.8562,4.8562,0,0,1-4.61,3.33H83.3058a4.8568,4.8568,0,0,1-4.6446-6.2774l9.77-31.9243a4.8574,4.8574,0,0,1,4.6445-3.4356c.0156,0,8.8135.0845,8.8135.0845a4.8593,4.8593,0,0,1,4.6142,3.4893l.041-.128a4.8573,4.8573,0,0,1,4.6211-3.3618h7.7657a4.8567,4.8567,0,0,1,4.7168,6.0132l-4.9258,20.0947a4.6587,4.6587,0,0,1-.1729.5586,11.0284,11.0284,0,0,1-3.332,4.9151l1.4189,3.0849a4.8561,4.8561,0,0,1-4.4121,6.8868Z"/><path class="b" d="M124.5245,179.5824a4.8564,4.8564,0,0,1-4.6025-6.4083l2.7851-8.26c-4.0381-.0342-6.8789-2.7305-6.8789-6.5811a7.7629,7.7629,0,0,1,.6963-3.1211l4.8291-13.9946a4.8566,4.8566,0,0,1,4.5908-3.2725h9.1289a4.8561,4.8561,0,0,1,3.9053,1.97q.0968.1311.1846.2675a4.8574,4.8574,0,0,1,4.125-2.3754s8.0224-.0845,8.0391-.0845a4.8567,4.8567,0,0,1,4.65,6.2573l-4.3418,14.418c-.7343,2.6152-2.9189,4.7168-6.4677,6.1592a4.8387,4.8387,0,0,1-1.7793.3574l-1.93.02L138.02,176.15a4.8571,4.8571,0,0,1-4.6435,3.4327Z"/><path class="b" d="M152.6075,179.5824a4.8218,4.8218,0,0,1-.6172-.0391,7.7466,7.7466,0,0,1-4.9052-2.6514,8.0188,8.0188,0,0,1-1.9776-5.3672A4.862,4.862,0,0,1,145.32,170.1l8.043-26.2168a4.9219,4.9219,0,0,1,.41-.956,9.3583,9.3583,0,0,1,5.3077-4.5264c.041-.0132.082-.0254.123-.0376a19.07,19.07,0,0,1,5.1484-.4726h15.753c.1406,0,.28.0063.4209.018a8.9544,8.9544,0,0,1,2.6767.6675,10.1928,10.1928,0,0,1,4.7129,3.71c.0518.0732.1016.1484.1494.2246a6.1454,6.1454,0,0,1,.876,3.3535c0,2.4678-.8975,7.876-7.8955,27.9551a4.8253,4.8253,0,0,1-.5254,1.0654c-2.5469,3.8828-5.6269,4.6973-7.7627,4.6973Zm13.62-24.1534a3.77,3.77,0,0,0,1.3262.19,1.771,1.771,0,0,0,.8965-.2022.4184.4184,0,0,0-.1377-.2041,1.1025,1.1025,0,0,0-.8984-.29c-.6787,0-.876.19-1.0059.3164C166.3351,155.3118,166.2755,155.3743,166.2276,155.429Z"/><path class="a" d="M67.9,56.201H57.2648L50.878,27.2557l3.9844-13.0664h12.07l-2.8418,9.375,10.7813.0879,2.8418-9.668H88.29l-4.1894,14.18Z"/><path class="a" d="M89.42,56.201a4.0384,4.0384,0,0,1-2.4463-1.3916,4.1071,4.1071,0,0,1-1.0107-2.7978L97.1251,14.1893h22.1484q-3.164,10.5762-5.625,20.2734a12.0873,12.0873,0,0,0-.2343,2.3145q0,3.31,2.1093,3.31h9.4336q-1.7871,5.3028-4.1894,12.8028-.4687,3.31-3.2227,3.31Z"/><path class="a" d="M165.8849,50.0487q-1.0254,3.4569-6.5039,6.1523H127.7989L140.631,14.1893h26.9824a13.3356,13.3356,0,0,1,2.3437.3808,7.1274,7.1274,0,0,1,3.8965,2.6368,1.8792,1.8792,0,0,1,.2344,1.1132Q174.088,23.7987,165.8849,50.0487ZM152.2618,37.451a8.4522,8.4522,0,0,0,5.3174-1.7285A5.4059,5.4059,0,0,0,159.82,31.24a6.9963,6.9963,0,0,0-2.2412-5.3467,8.41,8.41,0,0,0-11.2061.0879,7.2434,7.2434,0,0,0-2.4609,4.79v.1465a6.0494,6.0494,0,0,0,1.875,4.3652A9.1693,9.1693,0,0,0,152.2618,37.451Z"/><path class="a" d="M210.797,14.1307a4.8133,4.8133,0,0,1,.7324-.0586,5.2633,5.2633,0,0,1,4.3652,2.4609q.0879.0586.0879.4395,0,2.1093-2.8418,13.125a6.8333,6.8333,0,0,1-2.2558,3.0176,9.4638,9.4638,0,0,1-4.2774,2.373,6.9185,6.9185,0,0,1,2.5489,2.7246,7.03,7.03,0,0,1,1.0546,3.3692,2.03,2.03,0,0,1-.0879.5859l-2.9882,10.7227q-2.1094,3.31-4.8633,3.31H170.9825l12.8321-41.9238ZM188.2384,52.6854a8.5493,8.5493,0,0,0,5.3174-1.6992,5.4119,5.4119,0,0,0,2.2412-4.5411,6.9621,6.9621,0,0,0-2.2412-5.3173,8.368,8.368,0,0,0-11.2061.1171,7.1754,7.1754,0,0,0-2.4316,4.7608V46.24a5.6717,5.6717,0,0,0,1.875,4.248A8.9856,8.9856,0,0,0,188.2384,52.6854Zm6.1523-17.7832a8.5988,8.5988,0,0,0,5.3174-1.6846,5.4011,5.4011,0,0,0,2.2412-4.5557,6.9618,6.9618,0,0,0-2.2412-5.3173,8.3679,8.3679,0,0,0-11.206.1171,7.1756,7.1756,0,0,0-2.4317,4.7608v.2344a5.7033,5.7033,0,0,0,1.875,4.2773A9.0608,9.0608,0,0,0,194.3907,34.9022Z"/><path class="c" d="M53.71,83.2254H36.8351l2.08-8.789H67.421a6.483,6.483,0,0,1,3.457,1.582,4.64,4.64,0,0,1,.9668,3.2226q0,.7619-.0586,1.7286-.9081,3.2226-3.457,9.9609-1.8458,4.0722-10.6934,4.0723h-.2636a7.1923,7.1923,0,0,0-4.043.9668,4.3787,4.3787,0,0,0-1.582,2.2558q-.3809,1.2012-.6739,2.4024h15.82Q65.1066,105.93,61.65,116.741H26.5519l5.039-16.4355q2.3731-6.0645,5.01-8.0273Q38.4757,90.93,42.46,90.784h8.76q5.42-1.7871,5.42-4.1308a3.2669,3.2669,0,0,0-1.377-2.3145Q54.53,83.8113,53.71,83.2254Z"/><path class="c" d="M74.54,116.741a4.0379,4.0379,0,0,1-2.4462-1.3916,4.1065,4.1065,0,0,1-1.0108-2.7978L81.6593,78.04A5.89,5.89,0,0,1,84.97,75.0516a20.956,20.956,0,0,1,5.01-.3809h20.7129a5.0173,5.0173,0,0,1,1.7285.44,7.242,7.242,0,0,1,3.3691,2.6367,1.9473,1.9473,0,0,1,.2051,1.0547q0,5.83-10.1074,34.6289-2.1095,3.3105-4.8926,3.3105ZM94.169,97.991a8.5132,8.5132,0,0,0,5.3321-1.7285,5.394,5.394,0,0,0,2.2558-4.4824,6.9742,6.9742,0,0,0-2.2558-5.3467,7.8345,7.8345,0,0,0-5.5371-2.0947,7.9212,7.9212,0,0,0-5.669,2.1826,7.0966,7.0966,0,0,0-2.4463,4.79v.1464a6.05,6.05,0,0,0,1.875,4.3653A9.1257,9.1257,0,0,0,94.169,97.991Z"/><path class="c" d="M140.0773,83.2254h-16.875l2.08-8.789h28.5059a6.4834,6.4834,0,0,1,3.457,1.582,4.64,4.64,0,0,1,.9668,3.2226q0,.7619-.0586,1.7286-.9081,3.2226-3.457,9.9609-1.8458,4.0722-10.6934,4.0723h-.2636a7.1923,7.1923,0,0,0-4.043.9668,4.3787,4.3787,0,0,0-1.582,2.2558q-.3808,1.2012-.6739,2.4024h15.82q-1.7871,5.3027-5.2441,16.1132H112.919l5.0391-16.4355q2.373-6.0645,5.01-8.0273,1.875-1.3477,5.8594-1.4942h8.76q5.42-1.7871,5.42-4.1308a3.2667,3.2667,0,0,0-1.3769-2.3145Q140.8975,83.8113,140.0773,83.2254Z"/><path class="c" d="M160.9073,116.741a4.0384,4.0384,0,0,1-2.4463-1.3916,4.1069,4.1069,0,0,1-1.0107-2.7978L168.0265,78.04a5.89,5.89,0,0,1,3.31-2.9883,20.956,20.956,0,0,1,5.01-.3809H197.06a5.0173,5.0173,0,0,1,1.7285.44,7.2425,7.2425,0,0,1,3.3691,2.6367,1.9483,1.9483,0,0,1,.2051,1.0547q0,5.83-10.1074,34.6289-2.1094,3.3105-4.8926,3.3105Zm19.6289-18.75a8.5132,8.5132,0,0,0,5.3321-1.7285,5.394,5.394,0,0,0,2.2558-4.4824,6.9742,6.9742,0,0,0-2.2558-5.3467,7.8345,7.8345,0,0,0-5.5371-2.0947,7.9212,7.9212,0,0,0-5.669,2.1826,7.0966,7.0966,0,0,0-2.4463,4.79v.1464a6.05,6.05,0,0,0,1.875,4.3653A9.1257,9.1257,0,0,0,180.5362,97.991Z"/><path class="a" d="M20.9005,174.7259l6.123-18.2305H15.1944l7.3477-21.68,31.9795-.0557-6.9863,21.7358H37.4884l-5.6231,18.2305Z"/><path class="a" d="M54.0821,174.7259a2.9106,2.9106,0,0,1-1.8642-1.0293,3.1775,3.1775,0,0,1-.7793-2.1719l8.0429-26.2168a4.5871,4.5871,0,0,1,2.5606-2.2832,16.3913,16.3913,0,0,1,3.7852-.2773H81.58a4.0872,4.0872,0,0,1,1.28.334,5.395,5.395,0,0,1,2.5605,2.0039,1.5688,1.5688,0,0,1,.1387.7793q0,4.481-7.625,26.3564-1.6436,2.5048-3.7022,2.5049Zm14.9463-14.25a6.52,6.52,0,0,0,4.0352-1.3223,4.06,4.06,0,0,0,1.7539-3.3808,5.373,5.373,0,0,0-1.7119-4.1055,5.9408,5.9408,0,0,0-4.2168-1.6006A6.05,6.05,0,0,0,64.505,151.75a5.3675,5.3675,0,0,0-1.8223,3.66v.14a4.5208,4.5208,0,0,0,1.4473,3.2832A6.9424,6.9424,0,0,0,69.0284,160.4759Z"/><path class="a" d="M93.0753,142.8021l8.7666.084L97.1378,158.973h8.8232l5.2041-16.0869h7.7657l-4.9258,20.0947q-1.2818,3.3956-3.4238,3.3955h-2.1993l3.8418,8.35H106.546l-4.0078-8.35-7.125-.0557L92.63,174.7259H83.3058Z"/><path class="a" d="M151.3273,142.5794l-4.3418,14.418q-.501,1.7813-3.6465,3.06l-5.4825.0567-4.48,14.6113h-8.8516l4.9268-14.6113-6.624-.0567q-2.1432,0-2.1426-1.7246a3.2853,3.2853,0,0,1,.3613-1.3359l4.8984-14.1953h9.1289l-2.1425,6.9863,8.21.2227,2.1983-7.3477Z"/><path class="a" d="M152.6075,174.7259a2.9106,2.9106,0,0,1-1.8642-1.0293,3.1775,3.1775,0,0,1-.7793-2.1719l8.0429-26.2168a4.5871,4.5871,0,0,1,2.5606-2.2832,16.39,16.39,0,0,1,3.7851-.2773h15.753a4.0859,4.0859,0,0,1,1.28.334,5.3948,5.3948,0,0,1,2.5606,2.0039,1.5688,1.5688,0,0,1,.1387.7793q0,4.481-7.625,26.3564-1.6436,2.5048-3.7022,2.5049Zm14.9463-14.25a6.52,6.52,0,0,0,4.0352-1.3223,4.06,4.06,0,0,0,1.7539-3.3808,5.373,5.373,0,0,0-1.7119-4.1055,5.9408,5.9408,0,0,0-4.2168-1.6006A6.05,6.05,0,0,0,163.03,151.75a5.3675,5.3675,0,0,0-1.8223,3.66v.14a4.5208,4.5208,0,0,0,1.4473,3.2832A6.9424,6.9424,0,0,0,167.5538,160.4759Z"/></svg>