<svg xmlns="http://www.w3.org/2000/svg" viewBox="0 0 581.10236 99.2126"><defs><style>.a{fill:#fff;}.b{fill:#231815;}</style></defs><title>vldb2020-logo1-bw-db</title><path class="a" d="M410.64249,8.99791a19.51472,19.51472,0,0,1,15.48,7.63233c.14343.18689.27636.3797.41244.5708h9.51477a26.78051,26.78051,0,0,1,5.32871.53241,19.49237,19.49237,0,0,1,4.48581-.53241h15.52734a19.56067,19.56067,0,0,1,2.78021.19873,19.55215,19.55215,0,0,1,2.78614-.19873h8.49615c.64237,0,1.27963.03851,1.91235.10077.62595-.06086,1.25708-.10077,1.89621-.10077h10.83988a19.50677,19.50677,0,0,1,3.96676.40722,19.51159,19.51159,0,0,1,3.97266-.40722h10.81058a19.50567,19.50567,0,0,1,4.474.52,28.32664,28.32664,0,0,1,5.34042-.52h18.75c13.58008,0,23.82129,9.8125,23.82129,22.82519,0,2.30225-7.209,30.49121-7.21872,30.52637a26.04151,26.04151,0,0,1-25.68457,19.66211H44.94236A19.51473,19.51473,0,0,1,25.93607,75.12535L20.36964,51.2191a19.51671,19.51671,0,0,1,.15529-9.47021L25.4175,23.46764A19.51389,19.51389,0,0,1,44.2685,8.99791H57.45207a19.51475,19.51475,0,0,1,5.13872.68848,19.4965,19.4965,0,0,1,5.1445-.68848H80.88957a19.49319,19.49319,0,0,1,3.01372.241,19.5391,19.5391,0,0,1,3.00878-.241h24.90236a19.497,19.497,0,0,1,8.05636,1.749,19.45885,19.45885,0,0,1,8.05692-1.749h30.05858a28.89178,28.89178,0,0,1,6.04543.62989,19.50127,19.50127,0,0,1,4.91156-.62989h30.02928a29.74622,29.74622,0,0,1,6.11594.61768,19.50409,19.50409,0,0,1,4.87042-.61768h30.0293a28.418,28.418,0,0,1,8.72292,1.3053,30.1033,30.1033,0,0,1,8.85522-1.3053h23.4375a29.74717,29.74717,0,0,1,6.11592.61768,19.504,19.504,0,0,1,4.87036-.61768H322.0195a28.41772,28.41772,0,0,1,8.72287,1.3053,30.1039,30.1039,0,0,1,8.85519-1.3053h23.4375a29.74828,29.74828,0,0,1,6.11609.61768,19.50249,19.50249,0,0,1,4.87027-.61768h36.62107m0-5.669H374.02142a25.19849,25.19849,0,0,0-4.97924.49743,35.98592,35.98592,0,0,0-6.00712-.49743h-23.4375a36.07382,36.07382,0,0,0-8.82724,1.08258,34.81213,34.81213,0,0,0-8.75082-1.08258H291.99014a25.19919,25.19919,0,0,0-4.97928.49743,35.98492,35.98492,0,0,0-6.007-.49743h-23.4375A36.07644,36.07644,0,0,0,248.739,4.41143a34.81506,34.81506,0,0,0-8.75082-1.08252h-30.0293a25.19948,25.19948,0,0,0-4.97934.49743,35.984,35.984,0,0,0-6.007-.49743H168.94328a25.16835,25.16835,0,0,0-5.01547.5061,34.88838,34.88838,0,0,0-5.94152-.5061H127.92771a24.936,24.936,0,0,0-8.05755,1.328,24.94055,24.94055,0,0,0-8.05573-1.328H86.91207a24.87031,24.87031,0,0,0-3.00766.18719,24.9046,24.9046,0,0,0-3.01484-.18719H67.73529a25.2209,25.2209,0,0,0-5.14512.52966,25.193,25.193,0,0,0-5.1381-.52966H44.2685A25.21748,25.21748,0,0,0,19.94114,22.00237L15.04865,40.28331a25.27382,25.27382,0,0,0-.20044,12.221l5.56658,23.90668A25.07741,25.07741,0,0,0,44.94236,95.88372H528.33493A31.58369,31.58369,0,0,0,559.4895,72.04137c.06836-.24689,7.41773-28.44623,7.41773-32.01514a27.92615,27.92615,0,0,0-8.5651-20.38562,29.98568,29.98568,0,0,0-20.9252-8.10858h-18.75a33.78228,33.78228,0,0,0-5.24438.4184,25.21382,25.21382,0,0,0-4.57-.4184H498.04193a25.29,25.29,0,0,0-3.973.31427,25.24665,25.24665,0,0,0-3.96646-.31427H479.26263c-.6015,0-1.22558.02588-1.89447.07874-.6665-.05292-1.29708-.07874-1.91409-.07874h-8.49615a25.37019,25.37019,0,0,0-2.78638.15381,25.31521,25.31521,0,0,0-2.78-.15381H445.86423a24.99773,24.99773,0,0,0-4.562.42548,32.62707,32.62707,0,0,0-5.25251-.42548h-6.812a25.35936,25.35936,0,0,0-18.59521-8.20312Z"/><path class="b" d="M528.3349,90.21471A26.04144,26.04144,0,0,0,554.01948,70.5526c.00976-.03516,7.21875-28.22412,7.21875-30.52637,0-13.01269-10.24122-22.82519-23.82129-22.82519h-18.75a28.33342,28.33342,0,0,0-5.34046.52,19.50551,19.50551,0,0,0-4.474-.52H498.04194a19.512,19.512,0,0,0-3.97266.40722,19.50672,19.50672,0,0,0-3.9668-.40722H479.26264c-.63916,0-1.27026.03991-1.89624.10077-.63269-.06232-1.27-.10077-1.91235-.10077H466.958a19.54294,19.54294,0,0,0-2.78613.19873,19.553,19.553,0,0,0-2.78027-.19873H445.8642a19.49264,19.49264,0,0,0-4.48578.53241,26.78018,26.78018,0,0,0-5.32867-.53241h-9.51483c-.13605-.1911-.269-.384-.41242-.5708a19.51471,19.51471,0,0,0-15.48-7.63233H374.02143a19.503,19.503,0,0,0-4.8703.61768,29.74732,29.74732,0,0,0-6.116-.61768H339.5976a30.10393,30.10393,0,0,0-8.85522,1.3053,28.418,28.418,0,0,0-8.7229-1.3053h-30.0293a19.50427,19.50427,0,0,0-4.87042.61768,29.74657,29.74657,0,0,0-6.11591-.61768h-23.4375a30.10393,30.10393,0,0,0-8.85522,1.3053,28.418,28.418,0,0,0-8.7229-1.3053h-30.0293a19.50427,19.50427,0,0,0-4.87042.61768,29.74657,29.74657,0,0,0-6.11591-.61768H168.9433a19.50092,19.50092,0,0,0-4.91156.62989,28.89188,28.89188,0,0,0-6.04547-.62989H127.92768a19.45871,19.45871,0,0,0-8.05689,1.749,19.497,19.497,0,0,0-8.05639-1.749H86.912a19.53933,19.53933,0,0,0-3.00879.241,19.49255,19.49255,0,0,0-3.01367-.241H67.7353a19.49708,19.49708,0,0,0-5.14454.68848,19.51432,19.51432,0,0,0-5.13867-.68848H44.2685a19.51392,19.51392,0,0,0-18.851,14.46973L20.52491,41.74889a19.51707,19.51707,0,0,0-.15528,9.47021L25.936,75.12535A19.51487,19.51487,0,0,0,44.94233,90.21471Z"/><path class="a" d="M39.08789,70.7003a5.85444,5.85444,0,0,1-5.70166-4.52636L27.81982,42.26769a5.85519,5.85519,0,0,1,.04639-2.8418l4.89258-18.28125a5.85381,5.85381,0,0,1,5.65527-4.34082h13.1836a5.85518,5.85518,0,0,1,4.64257,2.28809,5.78388,5.78388,0,0,1,.49854.7666,5.85542,5.85542,0,0,1,5.14209-3.05469h13.1543a5.85476,5.85476,0,0,1,5.65722,7.36231L75.8291,42.4171a5.84887,5.84887,0,0,1-.87256,1.86621l-16.875,23.93555a5.85456,5.85456,0,0,1-4.78466,2.48144Z"/><path class="a" d="M76.37012,70.7003c-8.17041,0-11.06934-5.332-11.06934-9.89746a15.28843,15.28843,0,0,1,.541-3.87988l9.56006-35.77637a5.85442,5.85442,0,0,1,5.65576-4.34277H105.96a5.85481,5.85481,0,0,1,5.65674,7.36328l-4.28662,16.07422h4.0791a5.85428,5.85428,0,0,1,5.65576,7.36621l-4.07226,15.23438A10.11931,10.11931,0,0,1,102.7373,70.7003Z"/><path class="a" d="M110.794,70.7003a5.85428,5.85428,0,0,1-5.65577-7.36621l11.2793-42.1875a5.85417,5.85417,0,0,1,5.65576-4.34277h30.0586c8.17041,0,11.06933,5.34766,11.06933,9.92676a15.17591,15.17591,0,0,1-.54931,3.88183l-7.854,29.27539c-1.83349,6.86915-6.92773,10.8125-13.97461,10.8125Z"/><path class="a" d="M151.80957,70.7003a5.85428,5.85428,0,0,1-5.65576-7.36621l11.2793-42.1875a5.85417,5.85417,0,0,1,5.65576-4.34277h30.02929c8.1919,0,11.09864,5.34766,11.09864,9.92676a15.17551,15.17551,0,0,1-.54932,3.88183l-2.37793,8.80664a16.21071,16.21071,0,0,1-2.71631,5.72852,10.95632,10.95632,0,0,1,.165,1.915,15.692,15.692,0,0,1-.57666,4.0498l-2.3457,8.79688c-1.83985,6.86035-6.9336,10.791-13.97705,10.791Z"/><path class="a" d="M192.8252,70.7003a5.855,5.855,0,0,1-5.65479-7.37011l5.6543-21.09375a15.25035,15.25035,0,0,1,3.57275-6.64063,5.85213,5.85213,0,0,1-.61426-4.49023l2.666-9.96094a5.85381,5.85381,0,0,1,5.65527-4.34082h30.0293c8.19189,0,11.09863,5.34766,11.09863,9.92676a15.17591,15.17591,0,0,1-.54931,3.88183l-3.16895,11.73633a15.22016,15.22016,0,0,1-3.56934,6.63086,5.85509,5.85509,0,0,1,.61329,4.49219l-3.457,12.89062a5.855,5.855,0,0,1-5.65478,4.33789Z"/><path class="a" d="M240.43262,70.7003c-8.17041,0-11.06934-5.332-11.06934-9.89746a15.2683,15.2683,0,0,1,.54151-3.87988l7.86132-29.335c1.80469-6.84473,6.88965-10.78418,13.9458-10.78418h23.4375c8.1919,0,11.09864,5.34766,11.09864,9.92676a15.17551,15.17551,0,0,1-.54932,3.88183L277.876,59.91027c-1.87305,6.86816-6.9751,10.79-14.00586,10.79Z"/><path class="a" d="M274.85645,70.7003a5.855,5.855,0,0,1-5.65479-7.37011l5.6543-21.09375a15.25035,15.25035,0,0,1,3.57275-6.64063,5.85213,5.85213,0,0,1-.61426-4.49023l2.666-9.96094a5.85381,5.85381,0,0,1,5.65527-4.34082H316.165c8.19189,0,11.09863,5.34766,11.09863,9.92676a15.17591,15.17591,0,0,1-.54931,3.88183l-3.16895,11.73633a15.22016,15.22016,0,0,1-3.56934,6.63086,5.85509,5.85509,0,0,1,.61329,4.49219l-3.457,12.89062a5.855,5.855,0,0,1-5.65478,4.33789Z"/><path class="a" d="M322.46387,70.7003c-8.17041,0-11.06934-5.332-11.06934-9.89746A15.2683,15.2683,0,0,1,311.936,56.923l7.86132-29.335c1.80469-6.84473,6.88965-10.78418,13.9458-10.78418h23.4375c8.1919,0,11.09864,5.34766,11.09864,9.92676a15.17551,15.17551,0,0,1-.54932,3.88183l-7.82275,29.29786c-1.87305,6.86816-6.9751,10.79-14.00586,10.79Z"/><path class="a" d="M368.60645,70.7003a5.85516,5.85516,0,0,1-5.65625-7.36523l3.51123-13.14258h-4.09522a5.85465,5.85465,0,0,1-5.65527-7.36816l5.80078-21.67969a5.85493,5.85493,0,0,1,5.65527-4.34082h36.6211a5.85465,5.85465,0,0,1,5.65527,7.36816l-5.80078,21.67969a5.85493,5.85493,0,0,1-5.65528,4.34082h-7.22314l-4.31787,16.16406A5.85518,5.85518,0,0,1,381.79,70.7003Z"/><path class="a" d="M402.36328,70.7003c-7.019,0-10.16113-4.60351-10.16113-9.165a13.43994,13.43994,0,0,1,.49609-3.49024l6.26514-23.42285c1.62939-6.10938,6.1792-9.61523,12.48193-9.61523h18.75c7.019,0,10.16114,4.60351,10.16114,9.165a13.44,13.44,0,0,1-.4961,3.49024l-6.23437,23.416c-1.66748,6.127-6.2251,9.62207-12.5127,9.62207Z"/><path class="a" d="M455.85938,70.7003a5.857,5.857,0,0,1-4.70215-2.36621,5.85483,5.85483,0,0,1-4.70215,2.36621H430.92773a5.85428,5.85428,0,0,1-5.65576-7.36621l9.082-33.98437a5.85375,5.85375,0,0,1,5.65577-4.34277h15.52734a5.85476,5.85476,0,0,1,2.7832.7041,5.84216,5.84216,0,0,1,2.78321-.7041h8.49609a5.85464,5.85464,0,0,1,5.65527,7.36816L469.4541,54.0548a9.97954,9.97954,0,0,1-2.64355,4.6084l1.82959,3.42382a5.85444,5.85444,0,0,1-5.16358,8.61328Z"/><path class="a" d="M471.35742,70.7003a5.8548,5.8548,0,0,1-5.65674-7.36328l2.13575-8.00879a8.76663,8.76663,0,0,1-4.50147-7.85546,13.43994,13.43994,0,0,1,.49609-3.49024l3.92237-14.63672A5.85431,5.85431,0,0,1,473.4082,25.007h10.83985a5.8546,5.8546,0,0,1,3.96972,1.55175A5.84937,5.84937,0,0,1,492.1875,25.007h10.81055a5.85561,5.85561,0,0,1,5.65527,7.37011L504.72754,47.0255c-1.36133,5.10156-4.76172,8.38867-9.52051,9.332l-2.666,9.99707a5.85326,5.85326,0,0,1-5.65625,4.3457Z"/><path class="a" d="M503.73047,70.7003c-7.01953,0-10.16113-4.60351-10.16113-9.165a13.43994,13.43994,0,0,1,.49609-3.49024l6.26562-23.42285C501.96,28.5128,506.50977,25.007,512.8125,25.007h18.75c7.01953,0,10.16113,4.60351,10.16113,9.165a13.43994,13.43994,0,0,1-.49609,3.49024l-6.23438,23.416c-1.668,6.127-6.22558,9.62207-12.51269,9.62207Z"/><path class="b" d="M75.03516,22.65831l-4.86328,18.252-16.875,23.93554h-14.209L33.52148,40.93956l4.89258-18.28125h13.1836l-2.34375,8.78907h10.2539l2.373-8.78907Z"/><path class="b" d="M76.37012,64.84581q-5.21485,0-5.21485-4.043a9.64076,9.64076,0,0,1,.35157-2.40234l9.55078-35.74219H105.96l-5.625,21.09375a3.5519,3.5519,0,0,0-.14648.9375q0,1.40625,1.69922,1.40625h9.52148l-4.07227,15.23438a4.32372,4.32372,0,0,1-4.59961,3.51562Z"/><path class="b" d="M149.14355,58.3712q-1.72851,6.47462-8.32031,6.47461H110.794l11.27929-42.1875h30.0586q5.21484,0,5.21484,4.07227a9.30822,9.30822,0,0,1-.35156,2.373ZM137.82031,44.14757a8.94,8.94,0,0,0,3.23731-4.79,7.34189,7.34189,0,0,0,.26367-1.875,4.78884,4.78884,0,0,0-5.06836-4.86328,8.19757,8.19757,0,0,0-5.15625,1.94824,8.96733,8.96733,0,0,0-3.22266,4.79,7.34189,7.34189,0,0,0-.26367,1.875,4.8262,4.8262,0,0,0,5.03906,4.86328A8.25587,8.25587,0,0,0,137.82031,44.14757Z"/><path class="b" d="M181.83887,64.84581h-30.0293l11.2793-42.1875h30.02929q5.24415,0,5.24414,4.07227a9.30778,9.30778,0,0,1-.35156,2.373l-2.373,8.78906q-1.28907,4.77538-4.80469,5.85937a3.15313,3.15313,0,0,1,2.05078,3.31055,10.08,10.08,0,0,1-.38086,2.54883l-2.34375,8.78906Q188.43067,64.84582,181.83887,64.84581Zm-7.998-7.51465a8.96727,8.96727,0,0,0,3.22266-4.79,7.342,7.342,0,0,0,.26367-1.875,4.96253,4.96253,0,0,0-.9082-2.92969,4.83214,4.83214,0,0,0-4.13086-1.9336,8.25588,8.25588,0,0,0-5.1709,1.94825,8.9399,8.9399,0,0,0-3.23731,4.79,7.34189,7.34189,0,0,0-.26367,1.875,4.72877,4.72877,0,0,0,.9375,2.90039,4.80552,4.80552,0,0,0,4.13086,1.96289A8.19758,8.19758,0,0,0,173.84082,57.33116ZM181.47266,39.753a8.9399,8.9399,0,0,0,3.2373-4.79,7.34189,7.34189,0,0,0,.26367-1.875,4.96248,4.96248,0,0,0-.9082-2.92969,4.83211,4.83211,0,0,0-4.13086-1.93359,8.25589,8.25589,0,0,0-5.1709,1.94824,8.9399,8.9399,0,0,0-3.2373,4.79,7.34189,7.34189,0,0,0-.26367,1.875,4.8262,4.8262,0,0,0,5.03906,4.86328A8.25589,8.25589,0,0,0,181.47266,39.753Z"/><path class="b" d="M224.26074,34.963a3.47493,3.47493,0,0,0,.14649-.9082q0-1.43555-1.72852-1.43555H201.43848l2.666-9.96094h30.0293q5.24414,0,5.24414,4.07227a9.30822,9.30822,0,0,1-.35156,2.373L235.8623,40.82238q-1.72851,6.4453-8.32031,6.44531H224.6123a2.73111,2.73111,0,0,0-2.8125,2.34375l-.61523,2.34375h11.71875l-3.457,12.89062H192.8252l5.65429-21.09375q1.72853-6.4453,8.32031-6.44531h14.64844A2.7311,2.7311,0,0,0,224.26074,34.963Z"/><path class="b" d="M240.43262,64.84581q-5.21485,0-5.21485-4.043a9.64076,9.64076,0,0,1,.35157-2.40234l7.85156-29.29687q1.69922-6.44532,8.291-6.44532h23.4375q5.24415,0,5.24414,4.07227a9.30778,9.30778,0,0,1-.35156,2.373L272.21973,58.4005q-1.75782,6.44532-8.34961,6.44531ZM262.332,44.14757a8.94,8.94,0,0,0,3.23731-4.79,7.34189,7.34189,0,0,0,.26367-1.875,4.78884,4.78884,0,0,0-5.06836-4.86328,8.19757,8.19757,0,0,0-5.15625,1.94824,8.96728,8.96728,0,0,0-3.22266,4.79,7.34189,7.34189,0,0,0-.26367,1.875,4.8262,4.8262,0,0,0,5.03906,4.86328A8.25587,8.25587,0,0,0,262.332,44.14757Z"/><path class="b" d="M306.292,34.963a3.47493,3.47493,0,0,0,.14649-.9082q0-1.43555-1.72852-1.43555H283.46973l2.666-9.96094H316.165q5.24414,0,5.24414,4.07227a9.30822,9.30822,0,0,1-.35156,2.373l-3.16407,11.71875q-1.72851,6.4453-8.32031,6.44531h-2.92969a2.73111,2.73111,0,0,0-2.8125,2.34375l-.61523,2.34375h11.71875l-3.457,12.89062H274.85645l5.65429-21.09375q1.72853-6.4453,8.32031-6.44531h14.64844A2.7311,2.7311,0,0,0,306.292,34.963Z"/><path class="b" d="M322.46387,64.84581q-5.21485,0-5.21485-4.043a9.64076,9.64076,0,0,1,.35157-2.40234l7.85156-29.29687q1.69922-6.44532,8.291-6.44532h23.4375q5.24415,0,5.24414,4.07227a9.30778,9.30778,0,0,1-.35156,2.373L354.251,58.4005q-1.75782,6.44532-8.34961,6.44531Zm21.89941-20.69824a8.94,8.94,0,0,0,3.23731-4.79,7.34189,7.34189,0,0,0,.26367-1.875,4.78884,4.78884,0,0,0-5.06836-4.86328,8.19757,8.19757,0,0,0-5.15625,1.94824,8.96728,8.96728,0,0,0-3.22266,4.79,7.34189,7.34189,0,0,0-.26367,1.875,4.8262,4.8262,0,0,0,5.03906,4.86328A8.25587,8.25587,0,0,0,344.36328,44.14757Z"/><path class="b" d="M368.60645,64.84581,374.085,44.338H362.36621L368.167,22.65831h36.6211L398.9873,44.338H387.26855L381.79,64.84581Z"/><path class="b" d="M402.36328,64.84581q-4.30663,0-4.30664-3.31054a7.59314,7.59314,0,0,1,.293-1.96289l6.26953-23.4375q1.40625-5.27345,6.82617-5.27344h18.75q4.30665,0,4.30664,3.31054a7.59284,7.59284,0,0,1-.293,1.9629l-6.24023,23.4375q-1.43554,5.27343-6.85547,5.27343ZM419.82422,48.088a6.9417,6.9417,0,0,0,2.51953-3.75,5.96257,5.96257,0,0,0,.20508-1.49414,3.70227,3.70227,0,0,0-3.92578-3.7793,6.35566,6.35566,0,0,0-3.999,1.52344,7.13179,7.13179,0,0,0-2.53418,3.75,5.6305,5.6305,0,0,0-.20507,1.46484,3.75684,3.75684,0,0,0,.73242,2.28516,3.71531,3.71531,0,0,0,3.19336,1.52344A6.41371,6.41371,0,0,0,419.82422,48.088Z"/><path class="b" d="M461.10352,30.86144h8.49609l-5.80078,21.67969a3.63221,3.63221,0,0,1-3.86719,2.92968H458.4668l5.00976,9.375h-7.61718l-5.00977-9.375h-1.9043l-2.49023,9.375H430.92773l9.082-33.98437h15.52734l-4.6875,17.57812h3.95508a2.0397,2.0397,0,0,0,2.08008-1.75781Z"/><path class="b" d="M475.10742,50.78331h-1.61133q-4.30663,0-4.30664-3.31054a7.59314,7.59314,0,0,1,.293-1.96289l3.92578-14.64844h10.83985l-2.49024,9.375H489.668l2.51953-9.375h10.81055l-3.92578,14.64844q-1.40625,5.27343-6.82618,5.27343h-1.61132l-3.75,14.0625H471.35742Z"/><path class="b" d="M503.73047,64.84581q-4.30664,0-4.30664-3.31054a7.59271,7.59271,0,0,1,.293-1.96289l6.26953-23.4375q1.40625-5.27345,6.82617-5.27344h18.75q4.30663,0,4.30664,3.31054a7.59327,7.59327,0,0,1-.293,1.9629l-6.24023,23.4375q-1.43555,5.27343-6.85547,5.27343ZM521.19141,48.088a6.94175,6.94175,0,0,0,2.51953-3.75,5.96257,5.96257,0,0,0,.20508-1.49414,3.70227,3.70227,0,0,0-3.92579-3.7793,6.35565,6.35565,0,0,0-3.999,1.52344,7.13173,7.13173,0,0,0-2.53418,3.75,5.6301,5.6301,0,0,0-.20508,1.46484,3.75678,3.75678,0,0,0,.73243,2.28516,3.71529,3.71529,0,0,0,3.19335,1.52344A6.41375,6.41375,0,0,0,521.19141,48.088Z"/></svg>