<svg xmlns="http://www.w3.org/2000/svg" viewBox="0 0 240.94488 198.4252"><defs><style>.a{fill:#231815;}.b{fill:#fff;}.c{fill:#e2356b;}.d{fill:#f692ab;}</style></defs><title>vldb2020-logo3-color-bb</title><path class="a" d="M195.93845,178.71016c-2.86914,10.54-11.34961,17.03369-22.15625,17.03369H27.60154a16.189,16.189,0,0,1-15.64112-20.36768l.52686-1.97265a16.18924,16.18924,0,0,1-6.45361-17.51709l5.51172-20.59522A16.16,16.16,0,0,1,17.2642,126.686a16.17958,16.17958,0,0,1-.27692-9.27954l5.6543-21.09375a27.27588,27.27588,0,0,1,2.4292-6.0918,16.17148,16.17148,0,0,1,.52832-5.03467l2.666-9.96094A16.189,16.189,0,0,1,43.879,63.22243l-5.21545-22.399a16.18893,16.18893,0,0,1,.12891-7.85694L43.685,14.68525A16.18892,16.18892,0,0,1,59.32419,2.68135h13.1836a16.195,16.195,0,0,1,5.13965.83691A16.17773,16.17773,0,0,1,82.791,2.68135h13.1543a16.13647,16.13647,0,0,1,2.9693.30035,16.1814,16.1814,0,0,1,3.05316-.30035h24.90234a16.16122,16.16122,0,0,1,8.04254,2.16839,16.139,16.139,0,0,1,8.07074-2.16839H173.042a25.43029,25.43029,0,0,1,6.18347.73169,16.14726,16.14726,0,0,1,4.77356-.73169h30.0293c14.07129,0,21.43359,10.19287,21.43359,20.26172a25.4633,25.4633,0,0,1-.898,6.54443Z"/><path class="b" d="M55.14073,61.0586a4.85687,4.85687,0,0,1-4.73047-3.75537L44.84385,33.397a4.85159,4.85159,0,0,1,.03907-2.35742l4.89257-18.28125A4.85589,4.85589,0,0,1,54.4669,9.15723H67.65049a4.8574,4.8574,0,0,1,4.69336,6.1084L71.629,17.9463h.21191L73.24424,12.748A4.85827,4.85827,0,0,1,77.9337,9.15723H91.088a4.85661,4.85661,0,0,1,4.69336,6.10743l-4.86328,18.252a4.86716,4.86716,0,0,1-.72363,1.54834l-16.875,23.93554a4.85762,4.85762,0,0,1-3.96973,2.05811Z"/><path class="b" d="M92.423,61.0586c-7.43359,0-10.07128-4.79443-10.07128-8.8999a14.28056,14.28056,0,0,1,.50878-3.62842l9.55762-35.77a4.85767,4.85767,0,0,1,4.69238-3.603H122.0128a4.85741,4.85741,0,0,1,4.69336,6.1084l-4.6211,17.3291h5.377a4.85689,4.85689,0,0,1,4.69238,6.11133l-4.07227,15.23438a9.16721,9.16721,0,0,1-9.292,7.11816Z"/><path class="b" d="M126.84678,61.0586a4.85734,4.85734,0,0,1-4.69238-6.11133l11.2793-42.1875a4.85778,4.85778,0,0,1,4.69238-3.60254h30.05859c7.4336,0,10.07129,4.81006,10.07129,8.9292a14.179,14.179,0,0,1-.51465,3.62451L169.8878,50.98536c-1.709,6.39941-6.45215,10.07324-13.01172,10.07324Zm21.67285-28.47168c.04688.0044.10743.00781.18262.00781a3.38717,3.38717,0,0,0,2.167-.9082,4.12064,4.12064,0,0,0,1.54981-2.23047,2.55479,2.55479,0,0,0,.09863-.61377,1.93057,1.93057,0,0,0-.21191-.01025,3.33294,3.33294,0,0,0-2.1416.89941,4.143,4.143,0,0,0-1.5459,2.23926A2.5423,2.5423,0,0,0,148.51963,32.58692Z"/><path class="b" d="M167.86241,61.0586A4.85735,4.85735,0,0,1,163.17,54.94727l11.2793-42.1875a4.85779,4.85779,0,0,1,4.69238-3.60254H209.171c7.45606,0,10.10059,4.81006,10.10059,8.9292a14.179,14.179,0,0,1-.51465,3.62451L216.38,30.51466a14.90486,14.90486,0,0,1-2.82715,5.72656,9.70751,9.70751,0,0,1,.24023,2.17724,14.69853,14.69853,0,0,1-.543,3.79444l-2.34472,8.79492c-1.71387,6.38965-6.457,10.05078-13.01368,10.05078Zm16.66308-15.291a1.85493,1.85493,0,0,0,.21192.01075,3.33293,3.33293,0,0,0,2.1416-.89942,4.1429,4.1429,0,0,0,1.5459-2.23925,2.548,2.548,0,0,0,.09863-.6167c-.04883-.0044-.10937-.00733-.18262-.00733a3.38717,3.38717,0,0,0-2.167.9082,4.12066,4.12066,0,0,0-1.5498,2.23047A2.54524,2.54524,0,0,0,184.52549,45.76758ZM192.172,28.19239c.04687.00439.10742.00781.18262.00781a3.38717,3.38717,0,0,0,2.167-.9082,4.12062,4.12062,0,0,0,1.5498-2.23047,2.54744,2.54744,0,0,0,.09863-.6167c-.04882-.00439-.10937-.00732-.18261-.00732a3.38712,3.38712,0,0,0-2.167.9082,4.12064,4.12064,0,0,0-1.54981,2.23047A2.54149,2.54149,0,0,0,192.172,28.19239Z"/><path class="b" d="M27.76768,121.59864a4.85684,4.85684,0,0,1-4.69141-6.11426l5.6543-21.09375a13.89611,13.89611,0,0,1,3.918-6.76709c-.041-.04931-.081-.1001-.12012-.15137a4.85324,4.85324,0,0,1-.83886-4.21289l2.666-9.96093A4.85589,4.85589,0,0,1,39.047,69.69727H69.07627c7.45606,0,10.10059,4.81006,10.10059,8.9292a14.179,14.179,0,0,1-.51465,3.62451l-3.168,11.7334a13.87448,13.87448,0,0,1-3.916,6.75879c.041.04981.082.1001.12109.15186a4.859,4.859,0,0,1,.83789,4.21435L69.08018,118a4.85707,4.85707,0,0,1-4.69141,3.59863Z"/><path class="b" d="M75.3751,121.59864c-7.43359,0-10.07129-4.79443-10.07129-8.8999a14.28059,14.28059,0,0,1,.50879-3.62842L73.672,79.74219c1.68164-6.37646,6.415-10.04492,12.98242-10.04492h23.4375c7.45605,0,10.10059,4.81006,10.10059,8.9292a14.17941,14.17941,0,0,1-.51465,3.62451l-7.82324,29.29834c-1.74415,6.39551-6.49512,10.04932-13.042,10.04932ZM91.921,93.127c.04688.00439.10742.00781.18262.00781a3.38717,3.38717,0,0,0,2.167-.9082,4.12069,4.12069,0,0,0,1.54981-2.23047,2.55486,2.55486,0,0,0,.09863-.61377,1.93078,1.93078,0,0,0-.21192-.01025,3.333,3.333,0,0,0-2.1416.89941,4.143,4.143,0,0,0-1.5459,2.23926A2.542,2.542,0,0,0,91.921,93.127Z"/><path class="b" d="M109.79893,121.59864a4.85684,4.85684,0,0,1-4.69141-6.11426l5.6543-21.09375a13.89611,13.89611,0,0,1,3.918-6.76709c-.041-.04931-.081-.1001-.12012-.15137a4.85324,4.85324,0,0,1-.83886-4.21289l2.666-9.96093a4.85589,4.85589,0,0,1,4.69141-3.60108h30.02929c7.45606,0,10.10059,4.81006,10.10059,8.9292a14.179,14.179,0,0,1-.51465,3.62451l-3.168,11.7334a13.87448,13.87448,0,0,1-3.916,6.75879c.041.04981.082.1001.12109.15186a4.859,4.859,0,0,1,.83789,4.21435L151.11143,118a4.85707,4.85707,0,0,1-4.69141,3.59863Z"/><path class="b" d="M157.40635,121.59864c-7.43359,0-10.07129-4.79443-10.07129-8.8999a14.28059,14.28059,0,0,1,.50879-3.62842l7.85938-29.32813c1.68164-6.37646,6.415-10.04492,12.98242-10.04492h23.4375c7.456,0,10.10059,4.81006,10.10059,8.9292a14.17941,14.17941,0,0,1-.51465,3.62451l-7.82324,29.29834c-1.74415,6.39551-6.49512,10.04932-13.042,10.04932ZM173.95225,93.127c.04688.00439.10742.00781.18262.00781a3.38717,3.38717,0,0,0,2.167-.9082,4.12069,4.12069,0,0,0,1.54981-2.23047,2.55486,2.55486,0,0,0,.09863-.61377,1.93078,1.93078,0,0,0-.21192-.01025,3.333,3.333,0,0,0-2.1416.89941,4.143,4.143,0,0,0-1.5459,2.23926A2.542,2.542,0,0,0,173.95225,93.127Z"/><path class="b" d="M22.74424,179.55469a4.85655,4.85655,0,0,1-4.69238-6.11035l3.57227-13.37207h-4.8086a4.85645,4.85645,0,0,1-4.6914-6.1123l5.51172-20.59571a4.85575,4.85575,0,0,1,4.6914-3.60156H57.11631A4.85769,4.85769,0,0,1,61.8087,135.875l-5.50977,20.5957a4.85746,4.85746,0,0,1-4.69238,3.60156H44.20323L39.961,175.95118a4.85668,4.85668,0,0,1-4.69238,3.60351Z"/><path class="b" d="M54.81358,179.55469c-6.60547,0-8.94824-4.31054-8.94824-8.00146a12.04513,12.04513,0,0,1,.44629-3.13232l5.95214-22.25342a10.92611,10.92611,0,0,1,11.17676-8.61182H81.253c6.60547,0,8.94824,4.31055,8.94824,8.00147a12.04552,12.04552,0,0,1-.44628,3.13232l-5.92383,22.24805c-1.49317,5.48584-5.5752,8.61718-11.20508,8.61718Z"/><path class="b" d="M105.63389,179.55469a4.8585,4.8585,0,0,1-4.28418-2.56787l-.1914-.35986a4.85878,4.85878,0,0,1-4.458,2.92773h-14.751a4.85672,4.85672,0,0,1-4.69238-6.11084l8.62793-32.28515a4.85766,4.85766,0,0,1,4.69238-3.603h14.751a4.85583,4.85583,0,0,1,2.64355.78272,4.84953,4.84953,0,0,1,2.64453-.78272h8.07129A4.85647,4.85647,0,0,1,123.379,143.668l-5.51074,20.5957a8.68651,8.68651,0,0,1-2.7002,4.42871l1.98633,3.71631a4.85723,4.85723,0,0,1-4.28418,7.146Z"/><path class="b" d="M120.35752,179.55469a4.8574,4.8574,0,0,1-4.69335-6.10839l2.17089-8.14112a7.58972,7.58972,0,0,1-4.39355-7.11133,12.04513,12.04513,0,0,1,.44629-3.13232l3.72656-13.90625a4.8574,4.8574,0,0,1,4.69141-3.59961h10.29785a4.85473,4.85473,0,0,1,3.77051,1.7959,4.85542,4.85542,0,0,1,3.77148-1.7959h10.27051a4.85683,4.85683,0,0,1,4.6914,6.11426l-3.72949,13.916c-1.25683,4.71289-4.45605,7.69678-8.92773,8.43164l-2.64844,9.93165a4.85816,4.85816,0,0,1-4.69336,3.60546Z"/><path class="b" d="M151.11241,179.55469c-6.60547,0-8.94824-4.31054-8.94824-8.00146a12.04552,12.04552,0,0,1,.44628-3.13232l5.95215-22.25342a10.9261,10.9261,0,0,1,11.17676-8.61182h17.8125c6.60547,0,8.94824,4.31055,8.94824,8.00147a12.04513,12.04513,0,0,1-.44629,3.13232L180.13,170.93751c-1.49317,5.48584-5.5752,8.61718-11.20508,8.61718Z"/><path class="c" d="M91.088,14.01417l-4.86328,18.252-16.875,23.93555h-14.209L49.57432,32.29542,54.4669,14.01417H67.65049l-2.34375,8.78906H75.56065l2.37305-8.78906Z"/><path class="c" d="M92.423,56.20167q-5.21484,0-5.21484-4.043a9.64118,9.64118,0,0,1,.35156-2.40235l9.55078-35.74218H122.0128l-5.625,21.09375a3.55183,3.55183,0,0,0-.14649.9375q0,1.40625,1.69922,1.40625H127.462L123.38975,52.686a4.32372,4.32372,0,0,1-4.59961,3.51563Z"/><path class="c" d="M165.19639,49.72706q-1.72851,6.4746-8.32031,6.47461h-30.0293l11.2793-42.1875h30.05859q5.21485,0,5.21485,4.07226a9.30776,9.30776,0,0,1-.35157,2.373ZM153.87315,35.50342a8.93984,8.93984,0,0,0,3.2373-4.79,7.3416,7.3416,0,0,0,.26368-1.875,4.78885,4.78885,0,0,0-5.06836-4.86329,8.19758,8.19758,0,0,0-5.15625,1.94825,8.9672,8.9672,0,0,0-3.22266,4.79,7.34189,7.34189,0,0,0-.26367,1.875,4.8262,4.8262,0,0,0,5.03906,4.86328A8.25588,8.25588,0,0,0,153.87315,35.50342Z"/><path class="c" d="M197.8917,56.20167H167.86241l11.27929-42.1875H209.171q5.24415,0,5.24414,4.07226a9.30816,9.30816,0,0,1-.35156,2.373l-2.37305,8.78906q-1.28905,4.7754-4.80468,5.85938a3.15312,3.15312,0,0,1,2.05078,3.31054,10.08042,10.08042,0,0,1-.38086,2.54883L206.212,49.75635Q204.4835,56.20167,197.8917,56.20167Zm-7.998-7.51465a8.96731,8.96731,0,0,0,3.22265-4.79,7.34148,7.34148,0,0,0,.26368-1.875,4.96249,4.96249,0,0,0-.90821-2.92969,4.83211,4.83211,0,0,0-4.13086-1.93359,8.25591,8.25591,0,0,0-5.1709,1.94824,8.9399,8.9399,0,0,0-3.2373,4.79,7.34189,7.34189,0,0,0-.26367,1.875,4.72875,4.72875,0,0,0,.9375,2.90039,4.80551,4.80551,0,0,0,4.13086,1.96289A8.19761,8.19761,0,0,0,189.89366,48.687Zm7.63183-17.57813a8.93985,8.93985,0,0,0,3.23731-4.79,7.34189,7.34189,0,0,0,.26367-1.875,4.96243,4.96243,0,0,0-.9082-2.92968,4.83211,4.83211,0,0,0-4.13086-1.9336,8.25588,8.25588,0,0,0-5.1709,1.94825,8.93992,8.93992,0,0,0-3.23731,4.79,7.342,7.342,0,0,0-.26367,1.875,4.82621,4.82621,0,0,0,5.03907,4.86329A8.25588,8.25588,0,0,0,197.52549,31.10889Z"/><path class="d" d="M59.20323,86.85889a3.47522,3.47522,0,0,0,.14648-.9082q0-1.43554-1.72851-1.43555H36.381l2.666-9.96093H69.07627q5.24415,0,5.24415,4.07226a9.30776,9.30776,0,0,1-.35157,2.37305L70.80479,92.71827q-1.72851,6.44531-8.32031,6.44531H59.55479a2.73111,2.73111,0,0,0-2.8125,2.34375l-.61523,2.34375H67.84581l-3.457,12.89063H27.76768L33.422,95.648q1.72851-6.44532,8.32031-6.44532H56.39073A2.73111,2.73111,0,0,0,59.20323,86.85889Z"/><path class="d" d="M75.3751,116.74171q-5.21484,0-5.21484-4.043a9.64118,9.64118,0,0,1,.35156-2.40235l7.85156-29.29687q1.69923-6.44532,8.291-6.44531h23.4375q5.24414,0,5.24414,4.07226a9.30816,9.30816,0,0,1-.35156,2.37305l-7.82227,29.29687q-1.75781,6.44532-8.34961,6.44532ZM97.27452,96.04346a8.93983,8.93983,0,0,0,3.2373-4.79,7.34189,7.34189,0,0,0,.26367-1.875,4.78885,4.78885,0,0,0-5.06836-4.86328,8.19762,8.19762,0,0,0-5.15625,1.94825,8.96725,8.96725,0,0,0-3.22265,4.79,7.342,7.342,0,0,0-.26367,1.875,4.8262,4.8262,0,0,0,5.03906,4.86329A8.2559,8.2559,0,0,0,97.27452,96.04346Z"/><path class="d" d="M141.23448,86.85889a3.47522,3.47522,0,0,0,.14648-.9082q0-1.43554-1.72851-1.43555H118.41221l2.666-9.96093h30.02929q5.24415,0,5.24415,4.07226a9.30776,9.30776,0,0,1-.35157,2.37305L152.836,92.71827q-1.72851,6.44531-8.32031,6.44531H141.586a2.73111,2.73111,0,0,0-2.8125,2.34375l-.61523,2.34375h11.71875l-3.457,12.89063H109.79893l5.6543-21.09375q1.72851-6.44532,8.32031-6.44532H138.422A2.73111,2.73111,0,0,0,141.23448,86.85889Z"/><path class="d" d="M157.40635,116.74171q-5.21484,0-5.21484-4.043a9.64118,9.64118,0,0,1,.35156-2.40235l7.85156-29.29687q1.69923-6.44532,8.291-6.44531h23.4375q5.24413,0,5.24414,4.07226a9.30816,9.30816,0,0,1-.35156,2.37305l-7.82227,29.29687q-1.7578,6.44532-8.34961,6.44532Zm21.89942-20.69825a8.93983,8.93983,0,0,0,3.2373-4.79,7.34189,7.34189,0,0,0,.26367-1.875,4.78885,4.78885,0,0,0-5.06836-4.86328,8.19762,8.19762,0,0,0-5.15625,1.94825,8.96725,8.96725,0,0,0-3.22265,4.79,7.342,7.342,0,0,0-.26367,1.875,4.8262,4.8262,0,0,0,5.03906,4.86329A8.2559,8.2559,0,0,0,179.30577,96.04346Z"/><path class="c" d="M22.74424,174.69776l5.20411-19.48242H16.81553l5.51172-20.5957H57.11631l-5.50976,20.5957H40.47374l-5.20508,19.48242Z"/><path class="c" d="M54.81358,174.69776q-4.09278,0-4.0918-3.14453a7.21724,7.21724,0,0,1,.27832-1.86524l5.95606-22.26562a6.11961,6.11961,0,0,1,6.48437-5.00977H81.253q4.09278,0,4.0918,3.14454a7.21668,7.21668,0,0,1-.27832,1.86523L79.1378,169.688a6.16077,6.16077,0,0,1-6.51172,5.00977Zm16.58789-15.91992a6.593,6.593,0,0,0,2.39258-3.5625,5.67,5.67,0,0,0,.19531-1.41992,3.51713,3.51713,0,0,0-3.72949-3.58985,6.03616,6.03616,0,0,0-3.79883,1.44727,6.76631,6.76631,0,0,0-2.40723,3.5625,5.30871,5.30871,0,0,0-.19531,1.3916,3.56863,3.56863,0,0,0,.69531,2.1709A3.53046,3.53046,0,0,0,67.588,160.2251,6.09433,6.09433,0,0,0,71.40147,158.77784Z"/><path class="c" d="M110.61631,142.4126h8.07129l-5.51074,20.59571a3.45059,3.45059,0,0,1-3.67383,2.7832h-1.3916l4.75879,8.90625h-7.23633l-4.75879-8.90625H99.06553l-2.36523,8.90625h-14.751l8.62793-32.28516h14.751l-4.45313,16.69922h3.75684a1.93818,1.93818,0,0,0,1.97656-1.66992Z"/><path class="c" d="M123.92,161.33839h-1.53027q-4.09276,0-4.0918-3.14454a7.21711,7.21711,0,0,1,.27832-1.86523l3.7295-13.916h10.29785l-2.36621,8.90625H137.753l2.39258-8.90625h10.27051l-3.72949,13.916a6.12026,6.12026,0,0,1-6.48438,5.00977H138.671l-3.5625,13.35937h-14.751Z"/><path class="c" d="M151.11241,174.69776q-4.09278,0-4.0918-3.14453a7.21681,7.21681,0,0,1,.27832-1.86524l5.95606-22.26562a6.1196,6.1196,0,0,1,6.48437-5.00977h17.8125q4.09278,0,4.0918,3.14454a7.21711,7.21711,0,0,1-.27832,1.86523L175.43663,169.688a6.16077,6.16077,0,0,1-6.51172,5.00977Zm16.58789-15.91992a6.593,6.593,0,0,0,2.39258-3.5625,5.67,5.67,0,0,0,.19531-1.41992,3.51713,3.51713,0,0,0-3.72949-3.58985,6.03614,6.03614,0,0,0-3.79883,1.44727,6.76625,6.76625,0,0,0-2.40723,3.5625,5.30871,5.30871,0,0,0-.19531,1.3916,3.56857,3.56857,0,0,0,.69531,2.1709,3.53046,3.53046,0,0,0,3.03418,1.44726A6.09435,6.09435,0,0,0,167.7003,158.77784Z"/></svg>