<svg xmlns="http://www.w3.org/2000/svg" viewBox="0 0 255.1181 212.5984"><defs><style>.a{fill:#231815;}.b{fill:#fff;}</style></defs><title>vldb2020-logo3-bw-db</title><rect class="a" width="255.1181" height="212.5984"/><path class="a" d="M33.2769,205.11a18.9808,18.9808,0,0,1-12.41-4.4107,18.413,18.413,0,0,1-5.9326-18.435,18.6581,18.6581,0,0,1-4.1269-5.2505,19.0635,19.0635,0,0,1-.9815-14.95l7.1934-21.2232a18.4292,18.4292,0,0,1,3.9111-6.5693,18.4918,18.4918,0,0,1-.0674-10.9922L25.9,106.85c.127-.4131.2686-.8286.4258-1.23a48.476,48.476,0,0,1,4.126-8.3789,18.3459,18.3459,0,0,1,.38-6.3173L32.88,82.2646A18.5361,18.5361,0,0,1,50.28,67.954l-5.459-24.7378a18.655,18.655,0,0,1,.3721-9.435l3.9356-12.9063A18.51,18.51,0,0,1,66.9292,7.6938H78.8736a18.4092,18.4092,0,0,1,5.0527.705,18.394,18.394,0,0,1,5.7285-.91H100.231a18.2349,18.2349,0,0,1,4.7891.6592,18.3718,18.3718,0,0,1,4.0459-.4541h22.1484a18.4167,18.4167,0,0,1,10.667,3.4189,18.44,18.44,0,0,1,10.69-3.4189h26.9824q.6724,0,1.3428.0488a31.8134,31.8134,0,0,1,5.5811.91c.2324.059.4638.1245.6953.1928.4355.13.8721.2744,1.3213.4356a18.2246,18.2246,0,0,1,7.1611-1.499L221.771,7.64c.5625-.042,1.1338-.063,1.6993-.063a23.73,23.73,0,0,1,18.4853,9.0185,18.7324,18.7324,0,0,1,4.4072,12.3213c0,.7554,0,2.7622-5.7236,22.8071l-.1924.6778-.04-.0108c-1.8789,10.2671-27.8906,118.5762-34.46,137.46a19.78,19.78,0,0,1-2.1054,4.3941c-4.5137,6.9052-11.4913,10.8657-19.1426,10.8657Z"/><path class="b" d="M100.2308,9.7386a16.1264,16.1264,0,0,1,4.6977.7243.1548.1548,0,0,0,.0444.0067.1528.1528,0,0,0,.0379-.0049,16.1676,16.1676,0,0,1,4.0549-.521h22.1485a16.1728,16.1728,0,0,1,10.5622,3.9431.16.16,0,0,0,.2112,0,16.1707,16.1707,0,0,1,10.584-3.9431H179.554q.5917,0,1.1816.043a29.5815,29.5815,0,0,1,5.1836.8447c.2061.0527.41.11.6143.1709.6775.2025,1.3369.4364,1.9841.69a.1577.1577,0,0,0,.1277-.0053,16.1343,16.1343,0,0,1,7.022-1.6555l26.1953-.1426c.5381-.042,1.0752-.0625,1.6074-.0625a21.3839,21.3839,0,0,1,16.7334,8.1806,16.6342,16.6342,0,0,1,3.9092,10.9093c0,2.7578-5.844,22.8779-5.8413,22.9122.0469.5654-26.7012,115.0112-34.4492,137.282a17.7733,17.7733,0,0,1-1.8633,3.9021c-4.0913,6.2581-10.3848,9.8471-17.26,9.8471H33.2769a16.7465,16.7465,0,0,1-10.9438-3.8673,16.203,16.203,0,0,1-4.84-17.4765l.02-.0566a16.231,16.231,0,0,1-4.7153-5.4952,16.77,16.77,0,0,1-.8409-13.178L19.15,141.5628a16.14,16.14,0,0,1,4.302-6.638.1582.1582,0,0,0,.0391-.1769,16.1842,16.1842,0,0,1-.4768-10.8091L28.0511,107.51c.11-.36.2339-.722.37-1.0724a45.127,45.127,0,0,1,4.34-8.6228.1547.1547,0,0,0,.0239-.111,16.2007,16.2007,0,0,1,.2354-6.2626L35.07,82.7826A16.3593,16.3593,0,0,1,50.99,70.1908H52.867a.169.169,0,0,0,.165-.2056L47.0186,42.7311a16.3552,16.3552,0,0,1,.3269-8.2936l3.9356-12.9061A16.3592,16.3592,0,0,1,66.929,9.9437H78.8733a16.1883,16.1883,0,0,1,5.0474.8063.1545.1545,0,0,0,.0483.0078.1519.1519,0,0,0,.0535-.01,16.16,16.16,0,0,1,5.6321-1.01h10.5762m0-4.5H89.6546a20.625,20.625,0,0,0-5.773.8195,20.6673,20.6673,0,0,0-5.0083-.6144H66.929A20.7461,20.7461,0,0,0,46.9766,20.2189l-3.9355,12.906a20.9009,20.9009,0,0,0-.4168,10.5757L47.5386,65.973A20.7734,20.7734,0,0,0,30.6907,81.7462l-2.0491,8.6582a20.61,20.61,0,0,0-.5,6.2946,51.9611,51.9611,0,0,0-3.9141,8.1053c-.1709.44-.332.9061-.4795,1.3877L18.7117,122.62a20.7371,20.7371,0,0,0-.2773,11.0977,20.6648,20.6648,0,0,0-3.5467,6.4014l-7.1928,21.223a21.3239,21.3239,0,0,0,1.122,16.7211,20.9143,20.9143,0,0,0,3.657,4.9711,20.6562,20.6562,0,0,0,6.927,19.372,21.2317,21.2317,0,0,0,13.876,4.9538H184.6985c8.4251,0,16.0889-4.3318,21.0269-11.8846a22.0678,22.0678,0,0,0,2.3469-4.886c4.1245-11.8554,13.3-48.5232,20.27-77.1961,4.4575-18.3348,8.2012-34.17,10.0362-41.9779,2.875-12.232,3.8938-16.6086,4.2346-18.4188l.0034.001c.02-.0738.0845-.2977.1838-.6454,5.8123-20.3563,5.8123-22.4361,5.8123-23.4356a20.9984,20.9984,0,0,0-4.9443-13.7812A25.965,25.965,0,0,0,223.47,5.3265c-.5945,0-1.1946.0213-1.7866.0635l-26.0405.1417A20.4342,20.4342,0,0,0,188.427,6.88q-.3042-.0989-.6047-.1887c-.2678-.0794-.5266-.1522-.7878-.219a34.0859,34.0859,0,0,0-5.9712-.9732c-.5086-.0366-1.0147-.0549-1.5093-.0549H152.5716a20.6861,20.6861,0,0,0-10.69,2.98,20.6409,20.6409,0,0,0-10.6669-2.98H109.0657a20.5985,20.5985,0,0,0-3.9934.3934,20.3194,20.3194,0,0,0-4.8415-.5985Z"/><path class="b" d="M64.3478,68.1444a4.8566,4.8566,0,0,1-4.7432-3.81L53.2179,35.39a4.8582,4.8582,0,0,1,.0976-2.4639L57.3,19.8592A4.8557,4.8557,0,0,1,61.9454,16.42h12.07a4.8575,4.8575,0,0,1,4.6485,6.2656l-.959,3.1621.624.0049,1.8076-6.1514a4.8568,4.8568,0,0,1,4.66-3.4863H95.3731a4.8568,4.8568,0,0,1,4.6583,6.2324l-4.19,14.18a4.86,4.86,0,0,1-.4531,1.0537L79.1876,65.7176a4.8556,4.8556,0,0,1-4.2051,2.4268Z"/><path class="b" d="M96.503,68.1444a4.7719,4.7719,0,0,1-.7822-.0635A9.0344,9.0344,0,0,1,88.19,59.0985a4.8534,4.8534,0,0,1,.1982-1.375L99.55,19.9012a4.8563,4.8563,0,0,1,4.6582-3.4814h22.1484a4.8567,4.8567,0,0,1,4.6534,6.248c-2.0342,6.7988-3.8711,13.4063-5.4619,19.65H132.04a4.857,4.857,0,0,1,4.6026,6.4072c-1.15,3.4151-2.5147,7.5811-4.0557,12.3887-.9258,5.1729-4.6836,7.03-7.959,7.03Z"/><path class="b" d="M134.8819,68.1444a4.8563,4.8563,0,0,1-4.6455-6.2754l12.8321-42.0117A4.8567,4.8567,0,0,1,147.714,16.42h26.9824c.1182,0,.2363.0039.3545.0127a18.2516,18.2516,0,0,1,3.1953.52c.0625.0166.124.0332.1846.0518a11.9108,11.9108,0,0,1,6.4013,4.3876,6.4387,6.4387,0,0,1,1.1953,4.0157c0,2.8955-.957,9.2842-8.4238,33.1767-1.06,3.5791-4.0947,6.65-8.9951,9.0625a4.8619,4.8619,0,0,1-2.1445.4981Zm21.3653-29.2705a4.8106,4.8106,0,0,0,3.0976.8076,3.5918,3.5918,0,0,0,2.3516-.7178c.3506-.2705.3506-.37.3506-.6367a2.1654,2.1654,0,0,0-.7012-1.7988,2.9507,2.9507,0,0,0-2.2353-.7862,3.0037,3.0037,0,0,0-2.3.8389,2.6815,2.6815,0,0,0-.958,1.4883A1.1575,1.1575,0,0,0,156.2472,38.8739Z"/><path class="b" d="M178.0655,68.1444a4.857,4.857,0,0,1-4.6445-6.2783l12.832-41.9239a4.8568,4.8568,0,0,1,4.6182-3.4345l26.6826-.1455a9.509,9.509,0,0,1,1.0586-.06,9.9281,9.9281,0,0,1,8.1543,4.2734,5.3533,5.3533,0,0,1,1.1553,3.4834c0,1.416-.3623,4.1328-2.9951,14.3379a11.0514,11.0514,0,0,1-3.7217,5.4258c-.0615.0547-.1231.1084-.1836.1611a11.0929,11.0929,0,0,1,1.1289,4.6846,6.8853,6.8853,0,0,1-.292,1.9814l-2.9619,10.6309a4.86,4.86,0,0,1-.583,1.3066c-2.9268,4.5928-6.4873,5.5567-8.959,5.5567Zm13.792-14.8174c0,.2041,0,.3809.3692.7324a4.4824,4.4824,0,0,0,3.0947.8565,3.6758,3.6758,0,0,0,2.3828-.7129.6281.6281,0,0,0,.3193-.6709,2.1311,2.1311,0,0,0-.7011-1.7686,3.5262,3.5262,0,0,0-4.5118.0586,2.8389,2.8389,0,0,0-.9531,1.4678ZM198.01,35.5438a.8852.8852,0,0,0,.3691.7617,4.5731,4.5731,0,0,0,3.0947.8272,3.7181,3.7181,0,0,0,2.3994-.711c.2256-.17.3028-.2265.3028-.6728a2.1347,2.1347,0,0,0-.7012-1.77,3.5277,3.5277,0,0,0-4.5117.06,2.8382,2.8382,0,0,0-.9531,1.4678Z"/><path class="b" d="M33.6349,128.6844a4.8563,4.8563,0,0,1-4.6436-6.28L34.03,105.9686q.0541-.1758.12-.3457c1.9385-4.9531,4.1074-8.2744,6.6328-10.1533a10.72,10.72,0,0,1,1.1543-.7227,4.8567,4.8567,0,0,1-2.7461-5.5527l2.08-8.7891a4.8562,4.8562,0,0,1,4.7265-3.7383H74.504a4.9018,4.9018,0,0,1,1.0059.1045,10.935,10.935,0,0,1,6.0312,3.0518,9.2882,9.2882,0,0,1,2.2432,6.5049q0,.8905-.0674,2.0224a4.8418,4.8418,0,0,1-.1729,1.0235c-.6494,2.3056-1.8232,5.6953-3.5888,10.3623-.0371.0967-.0762.1924-.1192.2861a9.8365,9.8365,0,0,1-2.9921,3.7715,4.8625,4.8625,0,0,1,1.7353,5.4717c-1.1777,3.4961-2.9346,8.8926-5.2207,16.042a4.857,4.857,0,0,1-4.626,3.3769Z"/><path class="b" d="M81.6231,128.6844a4.7719,4.7719,0,0,1-.7822-.0635,9.0344,9.0344,0,0,1-7.5312-8.9824,4.8438,4.8438,0,0,1,.2129-1.4228L84.0987,83.7039a4.8436,4.8436,0,0,1,.378-.8994,10.6742,10.6742,0,0,1,6.0605-5.28c.0361-.0118.0733-.0235.11-.0352a23.3387,23.3387,0,0,1,6.415-.5879h20.7129c.1074,0,.2158.0029.3232.0108a9.8231,9.8231,0,0,1,3.252.7919,12.06,12.06,0,0,1,5.4668,4.295,6.507,6.507,0,0,1,1.1172,3.89c0,3.1-1.18,10.02-10.3809,36.2373a4.8475,4.8475,0,0,1-.4873,1.002c-2.9267,4.5928-6.5029,5.5566-8.9883,5.5566Zm16.5606-29.27a4.7577,4.7577,0,0,0,3.0684.8066,3.6445,3.6445,0,0,0,2.3779-.7275c.3535-.27.3535-.36.3535-.627a2.1455,2.1455,0,0,0-.7041-1.7871,2.9646,2.9646,0,0,0-2.2324-.7978,3.0921,3.0921,0,0,0-2.3252.8486,2.5138,2.5138,0,0,0-.9326,1.4463A1.1416,1.1416,0,0,0,98.1837,99.4149Z"/><path class="b" d="M120.0021,128.6844a4.8563,4.8563,0,0,1-4.6436-6.28l5.0391-16.4355q.0542-.1758.12-.3457c1.9385-4.9531,4.1074-8.2744,6.6328-10.1533a10.72,10.72,0,0,1,1.1543-.7227,4.8567,4.8567,0,0,1-2.7461-5.5527l2.08-8.7891a4.8562,4.8562,0,0,1,4.7265-3.7383h28.5059a4.9018,4.9018,0,0,1,1.0059.1045,10.935,10.935,0,0,1,6.0312,3.0518,9.2882,9.2882,0,0,1,2.2432,6.5049q0,.8905-.0674,2.0224a4.8418,4.8418,0,0,1-.1729,1.0235c-.6494,2.3056-1.8232,5.6953-3.5888,10.3623-.0371.0967-.0762.1924-.1192.2861a9.8368,9.8368,0,0,1-2.9922,3.7715,4.8622,4.8622,0,0,1,1.7354,5.4717c-1.1777,3.4961-2.9346,8.8926-5.2207,16.042a4.857,4.857,0,0,1-4.626,3.3769Z"/><path class="b" d="M167.99,128.6844a4.7719,4.7719,0,0,1-.7822-.0635,9.0342,9.0342,0,0,1-7.5312-8.9824,4.84,4.84,0,0,1,.2129-1.4228l10.5761-34.5118a4.8436,4.8436,0,0,1,.378-.8994,10.6742,10.6742,0,0,1,6.0605-5.28c.0361-.0118.0732-.0235.11-.0352a23.3387,23.3387,0,0,1,6.415-.5879h20.7129c.1074,0,.2158.0029.3232.0108a9.8231,9.8231,0,0,1,3.252.7919,12.06,12.06,0,0,1,5.4668,4.295,6.5077,6.5077,0,0,1,1.1172,3.89c0,3.1-1.18,10.02-10.3809,36.2373a4.8475,4.8475,0,0,1-.4873,1.002c-2.9268,4.5928-6.5029,5.5566-8.9883,5.5566Zm16.5606-29.27a4.7576,4.7576,0,0,0,3.0683.8066,3.6448,3.6448,0,0,0,2.378-.7275c.3535-.27.3535-.36.3535-.627a2.1455,2.1455,0,0,0-.7041-1.7871,2.9646,2.9646,0,0,0-2.2324-.7978,3.0919,3.0919,0,0,0-2.3252.8486,2.5138,2.5138,0,0,0-.9326,1.4463A1.1416,1.1416,0,0,0,184.5509,99.4149Z"/><path class="b" d="M27.9835,186.67a4.8569,4.8569,0,0,1-4.6045-6.4024l3.9727-11.8281H22.2774a4.8558,4.8558,0,0,1-4.6-6.415l7.3477-21.6807a4.8551,4.8551,0,0,1,4.5908-3.2979l31.9883-.0556a4.8571,4.8571,0,0,1,4.624,6.3428l-6.9863,21.7363a4.8566,4.8566,0,0,1-4.624,3.37H48.1564L43.59,183.245a4.858,4.858,0,0,1-4.6416,3.4248Z"/><path class="b" d="M61.1651,186.67a4.82,4.82,0,0,1-.6171-.0391,7.7461,7.7461,0,0,1-4.9053-2.6514,8.0187,8.0187,0,0,1-1.9776-5.3671,4.8627,4.8627,0,0,1,.2129-1.4249l8.043-26.2167a4.9144,4.9144,0,0,1,.41-.9561,9.3562,9.3562,0,0,1,5.3076-4.5264c.041-.0127.082-.0254.123-.0371a19.03,19.03,0,0,1,5.1485-.4726H88.6632c.1406,0,.28.0058.4209.0175a8.9433,8.9433,0,0,1,2.6767.668,10.1886,10.1886,0,0,1,4.7129,3.71c.0518.0732.1016.1484.1494.2246a6.1454,6.1454,0,0,1,.876,3.3535c0,2.4678-.8974,7.876-7.8955,27.9551a4.8209,4.8209,0,0,1-.5254,1.0654c-2.5468,3.8828-5.6269,4.6973-7.7627,4.6973Zm13.62-24.1534a3.7688,3.7688,0,0,0,1.3261.19,1.77,1.77,0,0,0,.8965-.2022.4177.4177,0,0,0-.1377-.2041,1.1025,1.1025,0,0,0-.8984-.29c-.6787,0-.876.19-1.0059.3164C74.8927,162.3993,74.8331,162.4618,74.7853,162.5164Z"/><path class="b" d="M113.629,186.67a4.856,4.856,0,0,1-4.3789-2.7549l-2.6963-5.6182-.5586-.0039-1.6719,5.0469a4.8562,4.8562,0,0,1-4.61,3.33H90.3888a4.8568,4.8568,0,0,1-4.6446-6.2774l9.77-31.9238a4.8573,4.8573,0,0,1,4.6445-3.4355c.0156,0,8.8135.0839,8.8135.0839a4.8578,4.8578,0,0,1,4.6142,3.4893l.0411-.1279a4.8567,4.8567,0,0,1,4.621-3.3614h7.7657a4.8555,4.8555,0,0,1,4.7168,6.0127l-4.9258,20.0948a4.67,4.67,0,0,1-.1729.5586,11.0286,11.0286,0,0,1-3.332,4.915l1.419,3.085a4.8561,4.8561,0,0,1-4.4122,6.8867Z"/><path class="b" d="M131.6075,186.67a4.8563,4.8563,0,0,1-4.6025-6.4082l2.7851-8.26c-4.038-.0342-6.8789-2.7305-6.8789-6.5811a7.7621,7.7621,0,0,1,.6963-3.121l4.8291-13.9942a4.8559,4.8559,0,0,1,4.5908-3.2724h9.129a4.8564,4.8564,0,0,1,3.9052,1.9687c.0645.0879.126.1768.1846.2676a4.8581,4.8581,0,0,1,4.125-2.375s8.0225-.084,8.0391-.084a4.8558,4.8558,0,0,1,4.65,6.2568l-4.3417,14.418c-.7344,2.6152-2.919,4.7168-6.4678,6.1592a4.8387,4.8387,0,0,1-1.7793.3574l-1.93.02-3.44,11.2149a4.8571,4.8571,0,0,1-4.6435,3.4326Z"/><path class="b" d="M159.6905,186.67a4.8218,4.8218,0,0,1-.6172-.0391,7.7461,7.7461,0,0,1-4.9052-2.6514,8.0187,8.0187,0,0,1-1.9776-5.3671,4.8627,4.8627,0,0,1,.2129-1.4249l8.043-26.2167a4.92,4.92,0,0,1,.41-.9561,9.3567,9.3567,0,0,1,5.3077-4.5264c.041-.0127.082-.0254.123-.0371a19.0287,19.0287,0,0,1,5.1484-.4726h15.753c.1406,0,.28.0058.4209.0175a8.9433,8.9433,0,0,1,2.6767.668,10.1886,10.1886,0,0,1,4.7129,3.71c.0518.0732.1016.1484.1494.2246a6.1454,6.1454,0,0,1,.876,3.3535c0,2.4678-.8974,7.876-7.8955,27.9551a4.8253,4.8253,0,0,1-.5254,1.0654c-2.5469,3.8828-5.6269,4.6973-7.7627,4.6973Zm13.62-24.1534a3.77,3.77,0,0,0,1.3262.19,1.77,1.77,0,0,0,.8965-.2022.4177.4177,0,0,0-.1377-.2041,1.1025,1.1025,0,0,0-.8984-.29c-.6787,0-.876.19-1.0059.3164C173.4181,162.3993,173.3585,162.4618,173.3106,162.5164Z"/><path class="a" d="M74.9825,63.2879H64.3478L57.961,34.3426l3.9844-13.0664h12.07l-2.8418,9.375,10.7813.0879,2.8418-9.668H95.3731l-4.1894,14.18Z"/><path class="a" d="M96.503,63.2879a4.0384,4.0384,0,0,1-2.4463-1.3916,4.1071,4.1071,0,0,1-1.0107-2.7978l11.1621-37.8223h22.1484q-3.1639,10.5762-5.625,20.2735a12.0855,12.0855,0,0,0-.2343,2.3144q0,3.31,2.1093,3.3106H132.04q-1.7871,5.3027-4.1894,12.8027-.4687,3.31-3.2227,3.31Z"/><path class="a" d="M172.9679,57.1356q-1.0254,3.4571-6.5039,6.1523H134.8819L147.714,21.2762h26.9824a13.3357,13.3357,0,0,1,2.3437.3809,7.1267,7.1267,0,0,1,3.8965,2.6367,1.8793,1.8793,0,0,1,.2344,1.1133Q181.171,30.8856,172.9679,57.1356ZM159.3448,44.5379a8.4516,8.4516,0,0,0,5.3174-1.7285,5.4055,5.4055,0,0,0,2.2412-4.4824,6.996,6.996,0,0,0-2.2412-5.3467,8.41,8.41,0,0,0-11.206.0879,7.2433,7.2433,0,0,0-2.461,4.79v.1465A6.05,6.05,0,0,0,152.87,42.37,9.1693,9.1693,0,0,0,159.3448,44.5379Z"/><path class="a" d="M217.88,21.2176a4.8261,4.8261,0,0,1,.7324-.0586,5.263,5.263,0,0,1,4.3652,2.461q.0879.0585.0879.4394,0,2.1094-2.8418,13.125a6.8328,6.8328,0,0,1-2.2558,3.0176,9.4619,9.4619,0,0,1-4.2774,2.373A6.9189,6.9189,0,0,1,216.2394,45.3a7.03,7.03,0,0,1,1.0546,3.3691,2.0294,2.0294,0,0,1-.0878.5859l-2.9883,10.7227q-2.1094,3.31-4.8633,3.31H178.0655l12.8321-41.9238ZM195.3214,59.7723a8.5493,8.5493,0,0,0,5.3174-1.6992,5.4118,5.4118,0,0,0,2.2412-4.541,6.9623,6.9623,0,0,0-2.2412-5.3174,8.3682,8.3682,0,0,0-11.2061.1172,7.175,7.175,0,0,0-2.4316,4.7607v.2344a5.6717,5.6717,0,0,0,1.875,4.248A8.9856,8.9856,0,0,0,195.3214,59.7723Zm6.1523-17.7832a8.5988,8.5988,0,0,0,5.3174-1.6846,5.401,5.401,0,0,0,2.2412-4.5556,6.962,6.962,0,0,0-2.2412-5.3174,8.368,8.368,0,0,0-11.206.1172,7.1751,7.1751,0,0,0-2.4317,4.7607v.2344a5.7033,5.7033,0,0,0,1.875,4.2773A9.0608,9.0608,0,0,0,201.4737,41.9891Z"/><path class="a" d="M60.7931,90.3123H43.9181l2.08-8.789H74.504a6.483,6.483,0,0,1,3.457,1.582,4.64,4.64,0,0,1,.9668,3.2227q0,.7617-.0586,1.7285-.9081,3.2226-3.457,9.9609Q73.5665,102.09,64.7189,102.09h-.2637a7.1932,7.1932,0,0,0-4.043.9668,4.3792,4.3792,0,0,0-1.582,2.2558q-.3808,1.2012-.6738,2.4024h15.82q-1.7871,5.3027-5.2442,16.1133H33.6349l5.039-16.4356q2.3731-6.0643,5.01-8.0273,1.875-1.3478,5.8594-1.4942h8.76q5.42-1.7871,5.42-4.1308a3.2669,3.2669,0,0,0-1.377-2.3145Q61.6134,90.8983,60.7931,90.3123Z"/><path class="a" d="M81.6231,123.828a4.0383,4.0383,0,0,1-2.4462-1.3916,4.1068,4.1068,0,0,1-1.0108-2.7979L88.7423,85.1268a5.89,5.89,0,0,1,3.3105-2.9883,20.9577,20.9577,0,0,1,5.01-.3808h20.7129a5.0148,5.0148,0,0,1,1.7285.4394,7.242,7.242,0,0,1,3.3691,2.6367,1.9473,1.9473,0,0,1,.2051,1.0547q0,5.83-10.1074,34.6289-2.1093,3.3107-4.8926,3.3106Zm19.629-18.75a8.5137,8.5137,0,0,0,5.332-1.7285A5.3941,5.3941,0,0,0,108.84,98.867a6.974,6.974,0,0,0-2.2558-5.3466,7.8346,7.8346,0,0,0-5.5371-2.0948,7.9216,7.9216,0,0,0-5.669,2.1826,7.0966,7.0966,0,0,0-2.4463,4.79v.1465a6.0494,6.0494,0,0,0,1.875,4.3652A9.1259,9.1259,0,0,0,101.2521,105.078Z"/><path class="a" d="M147.16,90.3123h-16.875l2.08-8.789h28.5059a6.483,6.483,0,0,1,3.457,1.582,4.64,4.64,0,0,1,.9668,3.2227q0,.7617-.0586,1.7285-.9081,3.2226-3.457,9.9609-1.8458,4.0724-10.6934,4.0723h-.2636a7.1932,7.1932,0,0,0-4.043.9668,4.3792,4.3792,0,0,0-1.582,2.2558q-.3808,1.2012-.6739,2.4024h15.82q-1.7873,5.3027-5.2442,16.1133H120.0021l5.039-16.4356q2.373-6.0643,5.01-8.0273,1.875-1.3478,5.8594-1.4942h8.76q5.42-1.7871,5.42-4.1308a3.2667,3.2667,0,0,0-1.3769-2.3145Q147.9806,90.8983,147.16,90.3123Z"/><path class="a" d="M167.99,123.828a4.0389,4.0389,0,0,1-2.4463-1.3916,4.1072,4.1072,0,0,1-1.0107-2.7979L175.11,85.1268a5.89,5.89,0,0,1,3.31-2.9883,20.9577,20.9577,0,0,1,5.01-.3808h20.7129a5.0148,5.0148,0,0,1,1.7285.4394,7.242,7.242,0,0,1,3.3691,2.6367,1.9473,1.9473,0,0,1,.2051,1.0547q0,5.83-10.1074,34.6289-2.1094,3.3107-4.8926,3.3106Zm19.6289-18.75a8.5138,8.5138,0,0,0,5.3321-1.7285,5.3941,5.3941,0,0,0,2.2558-4.4825,6.974,6.974,0,0,0-2.2558-5.3466,7.8346,7.8346,0,0,0-5.5371-2.0948,7.9216,7.9216,0,0,0-5.669,2.1826,7.0966,7.0966,0,0,0-2.4463,4.79v.1465a6.0494,6.0494,0,0,0,1.875,4.3652A9.1258,9.1258,0,0,0,187.6192,105.078Z"/><path class="a" d="M27.9835,181.8133l6.123-18.23H22.2774l7.3477-21.6807,31.9795-.0557-6.9863,21.7364H44.5714l-5.6231,18.23Z"/><path class="a" d="M61.1651,181.8133a2.91,2.91,0,0,1-1.8642-1.0293,3.1775,3.1775,0,0,1-.7793-2.1718l8.043-26.2168a4.5862,4.5862,0,0,1,2.5605-2.2832,16.3836,16.3836,0,0,1,3.7852-.2774H88.6632a4.0872,4.0872,0,0,1,1.28.334,5.3956,5.3956,0,0,1,2.5605,2.0039,1.5688,1.5688,0,0,1,.1387.7793q0,4.481-7.625,26.3564-1.6436,2.505-3.7022,2.5049Zm14.9463-14.25a6.5209,6.5209,0,0,0,4.0352-1.3222,4.0607,4.0607,0,0,0,1.7539-3.3809,5.373,5.373,0,0,0-1.7119-4.1055,5.9408,5.9408,0,0,0-4.2168-1.6006,6.05,6.05,0,0,0-4.3838,1.6836,5.3675,5.3675,0,0,0-1.8223,3.66v.14a4.5206,4.5206,0,0,0,1.4473,3.2832A6.9424,6.9424,0,0,0,76.1114,167.5633Z"/><path class="a" d="M100.1583,149.89l8.7666.084L104.2208,166.06h8.8232l5.2041-16.0869h7.7657l-4.9258,20.0947q-1.2817,3.3956-3.4238,3.3955h-2.1993l3.8418,8.35H113.629l-4.0078-8.35-7.125-.0556-2.7832,8.4052H90.3888Z"/><path class="a" d="M158.41,149.6668l-4.3418,14.418q-.501,1.7813-3.6465,3.0606l-5.4824.0566-4.4805,14.6113h-8.8516l4.9268-14.6113-6.624-.0566q-2.1432,0-2.1426-1.7247a3.2857,3.2857,0,0,1,.3613-1.3359l4.8984-14.1953h9.129l-2.1426,6.9863,8.21.2227,2.1983-7.3477Z"/><path class="a" d="M159.6905,181.8133a2.91,2.91,0,0,1-1.8642-1.0293,3.1775,3.1775,0,0,1-.7793-2.1718l8.0429-26.2168a4.5867,4.5867,0,0,1,2.5606-2.2832,16.3831,16.3831,0,0,1,3.7851-.2774h15.753a4.0872,4.0872,0,0,1,1.28.334,5.3956,5.3956,0,0,1,2.5605,2.0039,1.5688,1.5688,0,0,1,.1387.7793q0,4.481-7.625,26.3564-1.6436,2.505-3.7022,2.5049Zm14.9463-14.25a6.5209,6.5209,0,0,0,4.0352-1.3222,4.0607,4.0607,0,0,0,1.7539-3.3809,5.373,5.373,0,0,0-1.7119-4.1055,5.9408,5.9408,0,0,0-4.2168-1.6006,6.05,6.05,0,0,0-4.3838,1.6836,5.3675,5.3675,0,0,0-1.8223,3.66v.14a4.5206,4.5206,0,0,0,1.4473,3.2832A6.9424,6.9424,0,0,0,174.6368,167.5633Z"/></svg>