<svg xmlns="http://www.w3.org/2000/svg" viewBox="0 0 581.1024 99.2126"><defs><style>.a{fill:#231815;}.b{fill:#fff;}.c{fill:#9fa0a0;}</style></defs><title>vldb2020-logo1-gray-db</title><rect class="a" x="-0.0008" width="581.1024" height="99.2126"/><path class="a" d="M538.04,92.5226c-3.6953-.06-49.2285-.0908-135.334-.0908-146.625,0-363.0488.09-365.2178.0913A21.9024,21.9024,0,0,1,16.2329,75.4479L9.8462,46.5026a21.8073,21.8073,0,0,1,.4356-11.0381l3.9843-13.0659A21.646,21.646,0,0,1,35.0845,6.9821h12.07a21.7639,21.7639,0,0,1,4.9873.5786,21.76,21.76,0,0,1,5.794-.7837H68.5122a21.7134,21.7134,0,0,1,4.93.5727,21.6313,21.6313,0,0,1,3.9053-.3676H99.4956a21.701,21.701,0,0,1,10.6885,2.8061,21.6742,21.6742,0,0,1,10.669-2.8061h26.9824q.7955,0,1.5879.0581a35.2587,35.2587,0,0,1,6.1611,1.0044c.2783.0717.5518.1474.8242.2285.0938.0283.1846.0571.2754.0874a21.5981,21.5981,0,0,1,7.2344-1.29l26.0049-.1411c.6113-.0429,1.2265-.0644,1.8281-.0644a26.49,26.49,0,0,1,7.6328,1.1245,21.56,21.56,0,0,1,7.3672-1.3h28.5059a21.8027,21.8027,0,0,1,4.5087.4722,32.6615,32.6615,0,0,1,5.2745,1.583c.3125-.1221.6377-.2427.9707-.3521.166-.0547.331-.1064.4961-.1562a37.5688,37.5688,0,0,1,11.3085-1.3125h20.7129c.4825,0,.9668.0161,1.4483.0483a26.6656,26.6656,0,0,1,5.748,1.0269,21.5694,21.5694,0,0,1,7.3936-1.31h28.5058a21.803,21.803,0,0,1,4.5088.4722,32.6634,32.6634,0,0,1,5.2744,1.583c.3116-.1221.6377-.2427.9707-.3521.1661-.0547.3311-.1064.4961-.1562a37.57,37.57,0,0,1,11.3086-1.3125H364.896c.4824,0,.9668.0161,1.4483.0483a26.554,26.554,0,0,1,6.4043,1.2466,21.6107,21.6107,0,0,1,7.1679-1.2363l33.7-.0586a21.84,21.84,0,0,1,17.1846,8.4082H442.1c.627,0,1.2608.0273,1.8848.0815a25.6932,25.6932,0,0,1,4.3828.7827,21.68,21.68,0,0,1,5.83-.8056c.0625,0,9.4375.0888,9.4375.0888a21.7845,21.7845,0,0,1,4.6982.5591,21.7515,21.7515,0,0,1,4.9092-.56h8.1738a21.7844,21.7844,0,0,1,3.4639.2812,21.6436,21.6436,0,0,1,3.9189-.3691h9.6094a21.8008,21.8008,0,0,1,3.9883.3686,21.8406,21.8406,0,0,1,4.4854-.5141s8.5683-.0889,8.6367-.0889a21.7032,21.7032,0,0,1,5.8467.8047,40.1591,40.1591,0,0,1,7.8632-.6289h16.5821c.6269,0,1.2607.0273,1.8847.0815A26.0574,26.0574,0,0,1,555.32,17.27a27.4864,27.4864,0,0,1,12.3144,9.7363q.3544.501.6787,1.02a22.94,22.94,0,0,1,3.4522,12.3511c0,4.4272-.7071,10.4287-9.24,34.9087a21.8072,21.8072,0,0,1-2.35,4.7675c-5.1943,7.9244-13.249,12.4693-22.0986,12.4693Z"/><path class="b" d="M321.6245,8.9393a19.5362,19.5362,0,0,1,4.043.4233,29.8607,29.8607,0,0,1,5.73,1.8139c.5552-.23,1.1109-.4585,1.6844-.6469.1474-.0483.2959-.0952.4443-.14a35.5588,35.5588,0,0,1,10.6572-1.2158H364.896c.4326,0,.8662.0146,1.2979.0434a24.38,24.38,0,0,1,6.59,1.39A19.4621,19.4621,0,0,1,379.92,9.2323l33.6963-.0586a19.5145,19.5145,0,0,1,15.76,8.0054c.0962.1319.1831.2689.2759.4028H442.1q.8468,0,1.69.0732a23.6224,23.6224,0,0,1,4.594.8823,19.4609,19.4609,0,0,1,5.8132-.8969c.0625,0,9.416.0889,9.416.0889a19.4933,19.4933,0,0,1,4.72.6254,19.4978,19.4978,0,0,1,4.9092-.6264h8.1738a19.5013,19.5013,0,0,1,3.4888.3183,19.486,19.486,0,0,1,3.894-.4062h9.6094a19.49,19.49,0,0,1,4.0274.42,19.5342,19.5342,0,0,1,4.47-.5654s8.5449-.0889,8.6133-.0889a19.4946,19.4946,0,0,1,5.7549.8723,36.1882,36.1882,0,0,1,7.955-.6965h16.5821q.8466,0,1.69.0732a23.7719,23.7719,0,0,1,6.9648,1.6968,25.2371,25.2371,0,0,1,11.33,8.9516q.3165.4483.6074.9136a20.7231,20.7231,0,0,1,3.1114,11.1607c0,4.2266-.6973,10.02-9.1153,34.1679a19.5059,19.5059,0,0,1-2.1064,4.2749c-4.77,7.2784-12.14,11.4527-20.2168,11.4527-4.1914-.0686-61.1961-.0914-135.3706-.0914-148.3223,0-365.2193.0914-365.2193.0914A19.5157,19.5157,0,0,1,18.43,74.9632L12.0435,46.0179a19.5133,19.5133,0,0,1,.3906-9.8964l3.9844-13.0664A19.5145,19.5145,0,0,1,35.0845,9.2323h12.07a19.4908,19.4908,0,0,1,5.0313.66,19.4916,19.4916,0,0,1,5.75-.8648H68.5122a19.4905,19.4905,0,0,1,4.875.6259,19.4915,19.4915,0,0,1,3.96-.4208H99.4956a19.5119,19.5119,0,0,1,10.6885,3.188,19.4684,19.4684,0,0,1,10.669-3.188h26.9824q.7134,0,1.4238.0523a32.9785,32.9785,0,0,1,5.7666.94q.3722.096.7412.2056c.324.0969.6343.2179.9527.3253a19.4635,19.4635,0,0,1,7.2114-1.4348l26.0781-.1415c.583-.0426,1.165-.064,1.7422-.064a24.2705,24.2705,0,0,1,7.7021,1.2565,19.4431,19.4431,0,0,1,7.2979-1.4323h28.5059a19.5353,19.5353,0,0,1,4.0429.4233,29.8639,29.8639,0,0,1,5.73,1.8139c.5551-.23,1.1108-.4585,1.6843-.6469.1474-.0483.2959-.0952.4443-.14a35.5593,35.5593,0,0,1,10.6572-1.2158h20.7129c.4327,0,.8663.0146,1.2979.0434a24.37,24.37,0,0,1,5.9761,1.1617,19.4428,19.4428,0,0,1,7.3159-1.44h28.5058m0-4.5H293.1187a23.7668,23.7668,0,0,0-7.4641,1.2029,28.8809,28.8809,0,0,0-5.5286-.9151c-.53-.0354-1.0676-.0534-1.5972-.0534H257.8159a39.6078,39.6078,0,0,0-11.96,1.4083q-.2729.0827-.5437.1716-.1314.0432-.26.0876a35.18,35.18,0,0,0-4.82-1.3809,24.0734,24.0734,0,0,0-4.9753-.521H206.7515a23.7633,23.7633,0,0,0-7.43,1.1917,28.7154,28.7154,0,0,0-7.57-1.0159c-.63,0-1.2727.0217-1.9119.0648l-25.9328.1408a23.8075,23.8075,0,0,0-7.27,1.1771q-.2436-.0679-.4866-.1306a37.5275,37.5275,0,0,0-6.5627-1.0707c-.5825-.0426-1.1721-.0642-1.7522-.0642H120.8531a23.9022,23.9022,0,0,0-10.6683,2.5094A23.9448,23.9448,0,0,0,99.4956,4.7323H77.3472a23.6611,23.6611,0,0,0-3.8516.3242,23.9172,23.9172,0,0,0-4.9834-.5293H57.9361a24.0085,24.0085,0,0,0-5.8387.719,24.0209,24.0209,0,0,0-4.9426-.5139h-12.07a23.8841,23.8841,0,0,0-22.97,17.01L8.13,34.8089a24.0609,24.0609,0,0,0-.48,12.178l6.3867,28.9459A24.1664,24.1664,0,0,0,37.4868,94.7733c2.1709-.0009,218.594-.0914,365.2193-.0914,86.0935,0,131.6142.0306,135.2969.0908l.0737.0006c9.6225,0,18.3633-4.9154,23.9805-13.4858a24.0368,24.0368,0,0,0,2.5922-5.2614c8.6612-24.8444,9.3658-30.8434,9.3658-35.6483a25.1569,25.1569,0,0,0-3.795-13.5452c-.2309-.37-.4829-.7495-.7475-1.1239A29.7543,29.7543,0,0,0,556.1275,15.17a28.1865,28.1865,0,0,0-8.2354-1.9976c-.69-.06-1.39-.09-2.081-.09H529.229a43.8394,43.8394,0,0,0-7.7758.5728,23.9359,23.9359,0,0,0-5.9341-.7486c-.03,0-.0918,0-8.66.0891a24.1027,24.1027,0,0,0-4.5.4723,24.0681,24.0681,0,0,0-3.95-.327h-9.6094a23.744,23.744,0,0,0-3.9445.3388,23.9517,23.9517,0,0,0-3.4383-.2509h-8.1738a24.05,24.05,0,0,0-4.9094.5061,24.0338,24.0338,0,0,0-4.6773-.5049c-9.3742-.0891-9.4311-.0891-9.4582-.0891a23.841,23.841,0,0,0-5.84.73,27.6024,27.6024,0,0,0-4.1765-.6988c-.69-.06-1.39-.09-2.0811-.09H431.868a24.1043,24.1043,0,0,0-18.2513-8.4082l-33.7041.0586a23.8241,23.8241,0,0,0-7.19,1.1224,28.5992,28.5992,0,0,0-6.229-1.1276c-.53-.0354-1.0676-.0534-1.5972-.0534H344.1831a39.6078,39.6078,0,0,0-11.96,1.4083q-.2736.0829-.5439.1716c-.0874.0288-.1741.058-.26.0875A35.1935,35.1935,0,0,0,326.6,4.96a24.0737,24.0737,0,0,0-4.9754-.521Z"/><path class="b" d="M31.6309,70.7584a5.8543,5.8543,0,0,1-5.7168-4.5928L19.5273,37.22a5.8524,5.8524,0,0,1,.1172-2.97l3.9844-13.0664a5.8543,5.8543,0,0,1,5.6-4.1465h12.07a5.8517,5.8517,0,0,1,5.3472,3.4707A5.8542,5.8542,0,0,1,52.08,16.8326H62.6563a5.8542,5.8542,0,0,1,5.6142,7.5137l-4.1894,14.18a5.84,5.84,0,0,1-.5455,1.2695L47.3345,67.8326a5.8539,5.8539,0,0,1-5.0689,2.9258Z"/><path class="b" d="M63.7861,70.7584a5.8691,5.8691,0,0,1-.9433-.0762,10.0356,10.0356,0,0,1-8.3682-9.9678,5.8436,5.8436,0,0,1,.24-1.6572L65.8765,21.235a5.8533,5.8533,0,0,1,5.6147-4.1973H93.64A5.8547,5.8547,0,0,1,99.2485,24.57c-1.8955,6.335-3.6191,12.5049-5.1318,18.3662h5.2065a5.8551,5.8551,0,0,1,5.5479,7.7246c-1.1445,3.3955-2.501,7.5391-4.0337,12.3184-.8931,4.7461-4.3442,7.7793-8.9263,7.7793Zm29.86-25.0049Z"/><path class="b" d="M102.165,70.7584a5.8543,5.8543,0,0,1-5.5991-7.5645l12.832-42.0117a5.8539,5.8539,0,0,1,5.5992-4.1445H141.98c.1426,0,.2851.0049.4272.0156a19.3289,19.3289,0,0,1,3.3706.5488c.0748.02.1485.04.2222.0616a12.883,12.883,0,0,1,6.9146,4.747,7.3919,7.3919,0,0,1,1.3945,4.6123c0,2.9668-.9629,9.4522-8.47,33.4746-1.1392,3.8428-4.3462,7.12-9.5074,9.6592a5.8568,5.8568,0,0,1-2.5844.6016Zm22.06-30.9893a4.3563,4.3563,0,0,0,2.4033.53,2.6157,2.6157,0,0,0,1.6988-.4775,1.1168,1.1168,0,0,0-.3789-.9483,1.9794,1.9794,0,0,0-1.5542-.5176,2.0363,2.0363,0,0,0-1.6109.5616,3.07,3.07,0,0,0-.6147.7754C124.1821,39.7144,124.2012,39.74,124.2246,39.7691Z"/><path class="b" d="M145.3486,70.7584a5.8551,5.8551,0,0,1-5.5981-7.5684l12.832-41.9238a5.8545,5.8545,0,0,1,5.5664-4.1406l26.63-.1446a10.5826,10.5826,0,0,1,1.1162-.0605,11.0683,11.0683,0,0,1,8.9033,4.6074,6.31,6.31,0,0,1,1.4043,4.1475c0,1.38-.2339,3.7588-3.0273,14.5879a11.58,11.58,0,0,1-3.6695,5.5967,11.6982,11.6982,0,0,1,.9253,4.4248,7.885,7.885,0,0,1-.3134,2.1962l-2.9776,10.6836a5.87,5.87,0,0,1-.7021,1.5743c-3.17,4.9755-7.0791,6.0195-9.8008,6.0195Zm14.85-15.8057a4,4,0,0,0,2.4063.5811,2.7644,2.7644,0,0,0,1.7036-.4541,1.1168,1.1168,0,0,0-.3838-.9717,2.5466,2.5466,0,0,0-3.1367.0459,2.9725,2.9725,0,0,0-.6177.7715Zm6.1524-17.7539a4.1413,4.1413,0,0,0,2.4062.5518A2.836,2.836,0,0,0,170.46,37.31a1.1233,1.1233,0,0,0-.3837-.9853,2.5467,2.5467,0,0,0-3.1368.0459,2.8739,2.8739,0,0,0-.6269.791C166.3237,37.1734,166.3364,37.1861,166.3506,37.1988Z"/><path class="b" d="M188.5322,70.7584a5.8542,5.8542,0,0,1-5.5971-7.57l5.039-16.4356c.043-.1416.0918-.28.1455-.4179,2.0113-5.14,4.1963-8.4864,6.8682-10.5166a5.8524,5.8524,0,0,1-1.8691-5.7784l2.08-8.789a5.8543,5.8543,0,0,1,5.6968-4.5059h28.5059a5.8862,5.8862,0,0,1,1.2129.127,11.8773,11.8773,0,0,1,6.56,3.3535,10.253,10.253,0,0,1,2.5059,7.1787q0,.9185-.0693,2.083a5.8443,5.8443,0,0,1-.209,1.2334c-.6577,2.334-1.84,5.75-3.6162,10.4443q-.066.1743-.1436.3457a10.7852,10.7852,0,0,1-2.3945,3.3877,5.7909,5.7909,0,0,1,.3818.4776,5.8539,5.8539,0,0,1,.793,5.2851c-1.1763,3.4893-2.9307,8.8809-5.2158,16.0264a5.8536,5.8536,0,0,1-5.5762,4.0713Z"/><path class="b" d="M236.5205,70.7584a5.8713,5.8713,0,0,1-.9434-.0762,10.0354,10.0354,0,0,1-8.3681-9.9678,5.8781,5.8781,0,0,1,.2568-1.7158L238.042,24.4869a5.8846,5.8846,0,0,1,.4556-1.083,11.6535,11.6535,0,0,1,6.625-5.751c.0444-.0146.0888-.0293.1333-.042a24.0848,24.0848,0,0,1,6.7041-.6318h20.7129c.13,0,.26.0049.3891.0127a10.88,10.88,0,0,1,3.5645.8642,13.0455,13.0455,0,0,1,5.8979,4.6368,7.4769,7.4769,0,0,1,1.3057,4.4716c0,3.1788-1.1865,10.2081-10.438,36.5674a5.818,5.818,0,0,1-.5864,1.2071c-3.17,4.9755-7.0953,6.0195-9.83,6.0195Zm17.2554-30.9893a4.2744,4.2744,0,0,0,2.3735.53,2.6687,2.6687,0,0,0,1.728-.4883,1.086,1.086,0,0,0-.3794-.9248,1.9944,1.9944,0,0,0-1.5537-.53,2.1039,2.1039,0,0,0-1.6386.5743,2.696,2.696,0,0,0-.5972.747A.8005.8005,0,0,0,253.7759,39.7691Z"/><path class="b" d="M274.8994,70.7584a5.8543,5.8543,0,0,1-5.5972-7.57l5.0391-16.4356c.043-.1416.0918-.28.1455-.4179,2.0112-5.14,4.1963-8.4864,6.8682-10.5166a5.8526,5.8526,0,0,1-1.8692-5.7784l2.08-8.789a5.8543,5.8543,0,0,1,5.6968-4.5059h28.5059a5.8846,5.8846,0,0,1,1.2128.127,11.8773,11.8773,0,0,1,6.56,3.3535,10.253,10.253,0,0,1,2.5059,7.1787q0,.9185-.0694,2.083a5.8442,5.8442,0,0,1-.2089,1.2334c-.6578,2.334-1.84,5.75-3.6163,10.4443q-.0659.1743-.1435.3457a10.7852,10.7852,0,0,1-2.3945,3.3877,5.7909,5.7909,0,0,1,.3818.4776,5.8539,5.8539,0,0,1,.793,5.2851c-1.1763,3.4893-2.9307,8.8809-5.2159,16.0264a5.8534,5.8534,0,0,1-5.5761,4.0713Z"/><path class="b" d="M322.8877,70.7584a5.87,5.87,0,0,1-.9434-.0762,10.0354,10.0354,0,0,1-8.3681-9.9678,5.8781,5.8781,0,0,1,.2568-1.7158l10.5762-34.5117a5.8842,5.8842,0,0,1,.4555-1.083,11.6535,11.6535,0,0,1,6.625-5.751c.0445-.0146.0889-.0293.1333-.042a24.0857,24.0857,0,0,1,6.7041-.6318H359.04c.13,0,.26.0049.3892.0127a10.88,10.88,0,0,1,3.5645.8642,13.0455,13.0455,0,0,1,5.8979,4.6368,7.4769,7.4769,0,0,1,1.3057,4.4716c0,3.1788-1.1866,10.2081-10.438,36.5674a5.823,5.823,0,0,1-.5864,1.2071c-3.17,4.9755-7.0953,6.0195-9.83,6.0195Zm17.2554-30.9893a4.2744,4.2744,0,0,0,2.3735.53,2.6689,2.6689,0,0,0,1.728-.4883,1.086,1.086,0,0,0-.3794-.9248,1.9944,1.9944,0,0,0-1.5537-.53,2.1039,2.1039,0,0,0-1.6386.5743,2.696,2.696,0,0,0-.5972.747A.8005.8005,0,0,0,340.1431,39.7691Z"/><path class="b" d="M372.37,70.7584a5.8543,5.8543,0,0,1-5.55-7.7188l3.853-11.4707h-4.309a5.8543,5.8543,0,0,1-5.5445-7.7334l7.7344-22.8222a5.8543,5.8543,0,0,1,5.5342-3.9756l33.6723-.0586a5.8546,5.8546,0,0,1,5.5738,7.6455L405.981,47.5055a5.8545,5.8545,0,0,1-5.5738,4.0634h-6.2553L389.5073,66.63a5.8544,5.8544,0,0,1-5.5942,4.1289Z"/><path class="b" d="M407.2988,70.7584a5.7416,5.7416,0,0,1-.7446-.0479,8.8914,8.8914,0,0,1-5.624-3.0351,9.1813,9.1813,0,0,1-2.2691-6.1406,5.8415,5.8415,0,0,1,.2578-1.7168L407.3857,32.22a5.8125,5.8125,0,0,1,.4942-1.1533,10.5764,10.5764,0,0,1,6.0063-5.1055c.0464-.0156.0928-.0293.14-.043a20.6043,20.6043,0,0,1,5.6362-.5312h16.582c.1695,0,.3384.0078.5074.0225a10.1172,10.1172,0,0,1,3.0317.7539,11.4646,11.4646,0,0,1,5.2866,4.163c.0635.0889.124.1807.1817.2735a7.1788,7.1788,0,0,1,1.0366,3.9228c0,2.8223-.9927,8.5547-8.3535,29.6709a5.8663,5.8663,0,0,1-.6324,1.2832c-3.0122,4.5948-6.8017,5.2813-8.7924,5.2813Z"/><path class="b" d="M462.5234,70.7584a5.8536,5.8536,0,0,1-5.2778-3.3213l-2.3921-4.9834-1.4209,4.29a5.8543,5.8543,0,0,1-5.5576,4.0147h-9.8145a5.8547,5.8547,0,0,1-5.5981-7.5674l10.2832-33.6035a5.8543,5.8543,0,0,1,5.5977-4.1416c.0185,0,9.2846.0879,9.2846.0879A5.854,5.854,0,0,1,462.2734,27.9c.0718.0967.1407.1953.2061.2949a5.8563,5.8563,0,0,1,4.9072-2.6611h8.1738a5.8536,5.8536,0,0,1,5.6856,7.248L476.061,53.9342a5.8309,5.8309,0,0,1-.208.6718,12.8059,12.8059,0,0,1-3.29,5.1231l1.2553,2.7285A5.8548,5.8548,0,0,1,468.5,70.7584Z"/><path class="b" d="M481.4492,70.7584a5.8538,5.8538,0,0,1-5.5473-7.7246l2.6206-7.7725a7.5448,7.5448,0,0,1-6.9707-7.6133,8.892,8.892,0,0,1,.7836-3.5547L477.4092,29.39a5.8545,5.8545,0,0,1,5.5342-3.9443h9.6093a5.8522,5.8522,0,0,1,4.2842,1.8652,5.8571,5.8571,0,0,1,4.3555-2.0117s8.4492-.0879,8.47-.0879a5.8542,5.8542,0,0,1,5.6055,7.543L510.709,47.8922c-.8809,3.042-3.3184,5.3955-7.2481,6.9941a5.8516,5.8516,0,0,1-2.1474.4326l-1.4893.0147-3.4619,11.2871a5.8534,5.8534,0,0,1-5.5967,4.1377Z"/><path class="b" d="M511.01,70.7584a5.723,5.723,0,0,1-.7442-.0479,8.895,8.895,0,0,1-5.625-3.0351,9.1812,9.1812,0,0,1-2.2685-6.1406,5.8415,5.8415,0,0,1,.2578-1.7168L511.0967,32.22a5.8121,5.8121,0,0,1,.4941-1.1533,10.5777,10.5777,0,0,1,6.0059-5.1055c.0469-.0156.0937-.0293.14-.043a20.6114,20.6114,0,0,1,5.6367-.5312h16.5821c.1689,0,.3388.0078.5068.0225a10.12,10.12,0,0,1,3.0322.7539,11.4692,11.4692,0,0,1,5.2872,4.163c.0625.0889.123.1807.1816.2735a7.182,7.182,0,0,1,1.0361,3.9228c0,2.8223-.9922,8.5547-8.3535,29.6709a5.8686,5.8686,0,0,1-.6318,1.2832c-3.0127,4.5948-6.8028,5.2813-8.793,5.2813Z"/><path class="a" d="M42.2656,64.9039H31.6309L25.2441,35.9586l3.9844-13.0664h12.07l-2.8418,9.375,10.7813.0879,2.8418-9.668H62.6563l-4.19,14.18Z"/><path class="a" d="M63.7861,64.9039A4.0389,4.0389,0,0,1,61.34,63.5123a4.1072,4.1072,0,0,1-1.0107-2.7979L71.4912,22.8922H93.64q-3.1639,10.5762-5.625,20.2734A12.0873,12.0873,0,0,0,87.78,45.48q0,3.31,2.1093,3.31h9.4336q-1.7871,5.3028-4.1894,12.8027-.4687,3.3107-3.2227,3.3106Z"/><path class="a" d="M140.251,58.7516q-1.0254,3.4569-6.5039,6.1523H102.165l12.8321-42.0117H141.98a13.3356,13.3356,0,0,1,2.3437.3808A7.1269,7.1269,0,0,1,148.22,25.91a1.8792,1.8792,0,0,1,.2344,1.1132Q148.4541,32.5016,140.251,58.7516ZM126.6279,46.1539a8.4522,8.4522,0,0,0,5.3174-1.7285,5.4056,5.4056,0,0,0,2.2412-4.4824,6.996,6.996,0,0,0-2.2412-5.3467,8.41,8.41,0,0,0-11.206.0879,7.2429,7.2429,0,0,0-2.461,4.79v.1465a6.0494,6.0494,0,0,0,1.875,4.3652A9.1693,9.1693,0,0,0,126.6279,46.1539Z"/><path class="a" d="M185.1631,22.8336a4.8133,4.8133,0,0,1,.7324-.0586,5.2631,5.2631,0,0,1,4.3652,2.4609q.0879.0586.0879.4395,0,2.1093-2.8418,13.125a6.8333,6.8333,0,0,1-2.2558,3.0176,9.4638,9.4638,0,0,1-4.2774,2.373,6.9185,6.9185,0,0,1,2.5489,2.7246,7.03,7.03,0,0,1,1.0546,3.3692,2.0294,2.0294,0,0,1-.0878.5859L181.501,61.5933q-2.1095,3.3107-4.8633,3.3106H145.3486L158.1807,22.98ZM162.6045,61.3883a8.5493,8.5493,0,0,0,5.3174-1.6992,5.4119,5.4119,0,0,0,2.2412-4.5411,6.9621,6.9621,0,0,0-2.2412-5.3173,8.368,8.368,0,0,0-11.2061.1171,7.1754,7.1754,0,0,0-2.4316,4.7608v.2344a5.6717,5.6717,0,0,0,1.875,4.248A8.9861,8.9861,0,0,0,162.6045,61.3883Zm6.1523-17.7832a8.5994,8.5994,0,0,0,5.3174-1.6846,5.4011,5.4011,0,0,0,2.2412-4.5557,6.9618,6.9618,0,0,0-2.2412-5.3173,8.3679,8.3679,0,0,0-11.206.1171,7.1754,7.1754,0,0,0-2.4317,4.7608V37.16a5.7033,5.7033,0,0,0,1.875,4.2773A9.0608,9.0608,0,0,0,168.7568,43.6051Z"/><path class="c" d="M215.69,31.3883h-16.875l2.08-8.7891h28.5059a6.4841,6.4841,0,0,1,3.457,1.582,4.6409,4.6409,0,0,1,.9668,3.2227q0,.7617-.0586,1.7285-.9083,3.2226-3.457,9.9609-1.8457,4.0724-10.6934,4.0723h-.2637a7.193,7.193,0,0,0-4.0429.9668,4.3792,4.3792,0,0,0-1.5821,2.2559q-.3808,1.2012-.6738,2.4023h15.82q-1.7871,5.3028-5.2441,16.1133H188.5322l5.0391-16.4356q2.373-6.0643,5.01-8.0273,1.875-1.3476,5.8593-1.4941h8.76q5.42-1.7871,5.42-4.1309a3.2667,3.2667,0,0,0-1.3769-2.3144Q216.5107,31.9742,215.69,31.3883Z"/><path class="c" d="M236.5205,64.9039a4.0386,4.0386,0,0,1-2.4463-1.3916,4.1072,4.1072,0,0,1-1.0107-2.7979L243.64,26.2027a5.8915,5.8915,0,0,1,3.3106-2.9883,20.9571,20.9571,0,0,1,5.01-.3808h20.7129a5.0148,5.0148,0,0,1,1.7285.4394,7.2427,7.2427,0,0,1,3.3691,2.6368,1.9478,1.9478,0,0,1,.2051,1.0546q0,5.83-10.1074,34.6289-2.1094,3.3107-4.8926,3.3106Zm19.6289-18.75a8.5135,8.5135,0,0,0,5.332-1.7285,5.3939,5.3939,0,0,0,2.2559-4.4824,6.974,6.974,0,0,0-2.2559-5.3467,7.8345,7.8345,0,0,0-5.5371-2.0947,7.921,7.921,0,0,0-5.6689,2.1826,7.0962,7.0962,0,0,0-2.4463,4.79v.1465a6.0494,6.0494,0,0,0,1.875,4.3652A9.1256,9.1256,0,0,0,256.1494,46.1539Z"/><path class="c" d="M302.0576,31.3883h-16.875l2.08-8.7891h28.5059a6.4841,6.4841,0,0,1,3.457,1.582,4.6409,4.6409,0,0,1,.9668,3.2227q0,.7617-.0586,1.7285-.9083,3.2226-3.457,9.9609-1.8458,4.0724-10.6934,4.0723H305.72a7.1928,7.1928,0,0,0-4.0429.9668,4.3792,4.3792,0,0,0-1.5821,2.2559q-.3809,1.2012-.6738,2.4023h15.82q-1.7871,5.3028-5.2441,16.1133H274.8994l5.0391-16.4356q2.373-6.0643,5.01-8.0273,1.875-1.3476,5.8594-1.4941h8.76q5.42-1.7871,5.42-4.1309a3.2667,3.2667,0,0,0-1.3769-2.3144Q302.8779,31.9742,302.0576,31.3883Z"/><path class="c" d="M322.8877,64.9039a4.0386,4.0386,0,0,1-2.4463-1.3916,4.1072,4.1072,0,0,1-1.0107-2.7979l10.5761-34.5117a5.8915,5.8915,0,0,1,3.3106-2.9883,20.9561,20.9561,0,0,1,5.01-.3808H359.04a5.0154,5.0154,0,0,1,1.7286.4394,7.2427,7.2427,0,0,1,3.3691,2.6368,1.9478,1.9478,0,0,1,.2051,1.0546q0,5.83-10.1074,34.6289-2.1095,3.3107-4.8926,3.3106Zm19.6289-18.75a8.5135,8.5135,0,0,0,5.332-1.7285,5.3942,5.3942,0,0,0,2.2559-4.4824,6.9743,6.9743,0,0,0-2.2559-5.3467,7.8345,7.8345,0,0,0-5.5371-2.0947,7.921,7.921,0,0,0-5.6689,2.1826,7.0958,7.0958,0,0,0-2.4463,4.79v.1465a6.0494,6.0494,0,0,0,1.875,4.3652A9.1256,9.1256,0,0,0,342.5166,46.1539Z"/><path class="a" d="M372.37,64.9039l6.4453-19.1895H366.3643l7.7343-22.8222,33.6621-.0586-7.3535,22.8808H389.8311l-5.918,19.1895Z"/><path class="a" d="M407.2988,64.9039a3.0688,3.0688,0,0,1-1.9629-1.084,3.3492,3.3492,0,0,1-.82-2.2851l8.4668-27.5977a4.8261,4.8261,0,0,1,2.6953-2.4023,17.1641,17.1641,0,0,1,3.9844-.293h16.582a4.3012,4.3012,0,0,1,1.3477.3515,5.6922,5.6922,0,0,1,2.6953,2.1094,1.65,1.65,0,0,1,.1465.82q0,4.7169-8.0273,27.7442-1.7286,2.6367-3.8965,2.6367Zm15.7325-15a6.8663,6.8663,0,0,0,4.248-1.3916,4.2755,4.2755,0,0,0,1.8457-3.56,5.6523,5.6523,0,0,0-1.8018-4.3213,6.2539,6.2539,0,0,0-4.4384-1.6845,6.3664,6.3664,0,0,0-4.6143,1.7724,5.6516,5.6516,0,0,0-1.9189,3.8526v.1464a4.7667,4.7667,0,0,0,1.5234,3.4571A7.3162,7.3162,0,0,0,423.0313,49.9039Z"/><path class="a" d="M448.3438,31.3l9.2285.0879-4.9512,16.9336h9.2871l5.4785-16.9336h8.1738L470.375,52.5406q-1.3476,3.5742-3.6035,3.5742H464.457l4.043,8.7891h-5.9766l-4.2187-8.7891-7.5-.0586-2.93,8.8477h-9.8145Z"/><path class="a" d="M509.6621,31.066l-4.57,15.1758q-.5274,1.875-3.8379,3.2226l-5.7715.0586-4.7168,15.3809h-9.3164l5.1856-15.3809-6.9727-.0586q-2.2559,0-2.2558-1.8164a3.46,3.46,0,0,1,.3808-1.4062L482.9434,31.3h9.6093l-2.2558,7.3535,8.6426.2344,2.3144-7.7344Z"/><path class="a" d="M511.01,64.9039a3.0685,3.0685,0,0,1-1.9629-1.084,3.3487,3.3487,0,0,1-.82-2.2851l8.4668-27.5977a4.8257,4.8257,0,0,1,2.6953-2.4023,17.1631,17.1631,0,0,1,3.9843-.293h16.5821a4.3013,4.3013,0,0,1,1.3476.3515,5.6917,5.6917,0,0,1,2.6953,2.1094,1.65,1.65,0,0,1,.1465.82q0,4.7169-8.0273,27.7442-1.7286,2.6367-3.8965,2.6367Zm15.7324-15a6.8659,6.8659,0,0,0,4.248-1.3916,4.2755,4.2755,0,0,0,1.8457-3.56,5.6523,5.6523,0,0,0-1.8017-4.3213,6.2543,6.2543,0,0,0-4.4385-1.6845,6.3664,6.3664,0,0,0-4.6143,1.7724,5.6516,5.6516,0,0,0-1.9189,3.8526v.1464a4.7667,4.7667,0,0,0,1.5234,3.4571A7.3162,7.3162,0,0,0,526.7422,49.9039Z"/></svg>