<svg xmlns="http://www.w3.org/2000/svg" viewBox="0 0 566.92913 283.46457"><defs><style>.a{fill:#fff;opacity:0.7;}.b{fill:#231815;}.c{fill:none;stroke:#231815;stroke-linecap:round;stroke-linejoin:round;stroke-width:1.0207px;}.d{fill:#dcdddd;}</style></defs><title>vldb2020-eye-logo</title><path class="a" d="M333.61911,136.97832A89.50881,89.50881,0,1,1,230.08287,64.14907a89.51366,89.51366,0,0,1,103.53624,72.82925"/><path class="b" d="M23.48248,188.7013c52.96728-33.25653,57.34508-37.94155,83.57714-55.72422s58.94862-40.8975,115.16687-50.387c56.21719-9.48947,123.11506,3.60411,147.86709,5.867,24.751,2.26294,68.65856,5.19541,100.77705-12.16065,32.11842-17.357,58.82819-32.689,72.576-45.7652C516.02344,50.585,473.27031,75.18391,432.92291,78.41853c-28.29284,2.267-63.2927-3.49085-76.20767-6.09157-12.91695-2.59973-57.79216-16.68541-113.3255-11.00931-54.93318,5.61492-80.28129,14.05509-131.03065,54.93726C61.60977,157.13814,23.48248,188.7013,23.48248,188.7013"/><path class="c" d="M23.48248,188.7013c52.96728-33.25653,57.34508-37.94155,83.57714-55.72422s58.94862-40.8975,115.16687-50.387c56.21719-9.48947,123.11506,3.60411,147.86709,5.867,24.751,2.26294,68.65856,5.19541,100.77705-12.16065,32.11842-17.357,58.82819-32.689,72.576-45.7652C516.02344,50.585,473.27031,75.18391,432.92291,78.41853c-28.29284,2.267-63.2927-3.49085-76.20767-6.09157-12.91695-2.59973-57.79216-16.68541-113.3255-11.00931-54.93318,5.61492-80.28129,14.05509-131.03065,54.93726C61.60977,157.13814,23.48248,188.7013,23.48248,188.7013Z"/><path class="b" d="M37.68955,89.69765c31.97451-15.81372,87.27513-27.5528,110.13684-30.53734,26.16266-3.41628,87.58238.56853,119.46507,10.38974,31.88368,9.82121,92.13166,18.01642,105.77433,18.11641,13.64374.1,57.19709-9.18327,67.82264-16.82215,10.62654-7.63895,32.22252-24.206,42.50306-33.824-11.37575,9.83242-60.1194,36.04611-98.08032,35.71537-38.14159-.33174-69.269-3.41834-132.80971-23.82628-29.041-9.32817-74.09789-7.17245-113.81445-.49808C106.43692,53.83221,37.68955,89.69765,37.68955,89.69765"/><path class="c" d="M37.68955,89.69765c31.97451-15.81372,87.27513-27.5528,110.13684-30.53734,26.16266-3.41628,87.58238.56853,119.46507,10.38974,31.88368,9.82121,92.13166,18.01642,105.77433,18.11641,13.64374.1,57.19709-9.18327,67.82264-16.82215,10.62654-7.63895,32.22252-24.206,42.50306-33.824-11.37575,9.83242-60.1194,36.04611-98.08032,35.71537-38.14159-.33174-69.269-3.41834-132.80971-23.82628-29.041-9.32817-74.09789-7.17245-113.81445-.49808C106.43692,53.83221,37.68955,89.69765,37.68955,89.69765Z"/><path class="b" d="M363.55571,84.326c12.9139-4.02661,52.93255-23.49758,62.0699-31.89695,8.21459-7.5501,11.8514-11.93195,21.1275-22.337-9.54965,10.15905-36.88409,32.94114-72.823,44.11068Z"/><path class="c" d="M363.55571,84.326c12.9139-4.02661,52.93255-23.49758,62.0699-31.89695,8.21459-7.5501,11.8514-11.93195,21.1275-22.337-9.54965,10.15905-36.88409,32.94114-72.823,44.11068Z"/><path class="b" d="M389.95647,85.82871c-.146,25.195-8.71378,76.20362-15.4902,91.24774,11.21034-25.71966,18.24811-58.64547,19.0269-68.9423.7788-10.29786.74921-23.05153.74921-23.05153Z"/><path class="c" d="M389.95647,85.82871c-.146,25.195-8.71378,76.20362-15.4902,91.24774,11.21034-25.71966,18.24811-58.64547,19.0269-68.9423.7788-10.29786.74921-23.05153.74921-23.05153Z"/><path class="b" d="M410.36759,88.978c-5.228,25.95546-25.76457,74.72359-35.87871,88.22853,16.89772-23.20058,31.51419-60.46743,34.18637-67.98082,2.67324-7.51235,5.01978-21.05609,5.01978-21.05609Z"/><path class="c" d="M410.36759,88.978c-5.228,25.95546-25.76457,74.72359-35.87871,88.22853,16.89772-23.20058,31.51419-60.46743,34.18637-67.98082,2.67324-7.51235,5.01978-21.05609,5.01978-21.05609Z"/><path class="b" d="M170.3689,274.33467c4.8565-6.58248,11.57984-19.63728,20.37016-19.2984,12.92614.49708,34.48848,6.51311,41.07816,6.6417,11.93712.23374,35.19178-.18883,50.20527-5.23008,17.23762-5.78839,33.65564-13.0864,46.21233-24.4948a282.35037,282.35037,0,0,0,22.31864-22.29522,214.31732,214.31732,0,0,0,12.624-17.5326,184.97583,184.97583,0,0,1-27.70182,37.39241c-1.61683,1.66169,1.39836,11.42982,14.02139,31.94492-16.18527-19.23716-23.59352-22.94129-24.6275-22.03288a57.21407,57.21407,0,0,1-5.40871,4.21345c-2.2772,1.6954,4.094,13.44777,16.418,29.40646-15.14414-15.139-26.376-22.76473-27.8641-21.92164-6.6846,3.78172-17.27239,9.01995-24.99806,11.044-33.20955,8.70353-49.77045,6.53146-73.86414,1.64231-7.37356-1.49532-14.65217-3.38568-20.89275-2.87225-8.19011.67467-17.89086,13.39261-17.89086,13.39261"/><path class="b" d="M170.33856,274.37541c2.7447-3.9797,5.178-7.97065,8.16768-11.688a30.40888,30.40888,0,0,1,4.99632-5.04943,11.71307,11.71307,0,0,1,6.51414-2.65483,52.10666,52.10666,0,0,1,7.09184.52259c2.35374.28069,4.69216.66753,7.02855,1.06154,4.67075.80122,9.31085,1.75866,13.953,2.69464,2.32.46951,4.64216.935,6.96936,1.35957a47.25169,47.25169,0,0,0,7.01325.90741c4.733.07246,9.467.03776,14.19695-.14085A165.5999,165.5999,0,0,0,274.44,258.25649c1.15751-.23477,2.30374-.52262,3.44387-.82677,1.14929-.27355,2.268-.64713,3.3979-.99008,2.24861-.72164,4.47884-1.52392,6.70191-2.32518,4.4452-1.62085,8.84137-3.37546,13.1436-5.33622a107.49269,107.49269,0,0,0,24.159-14.65933c1.81071-1.51165,3.55819-3.10089,5.29234-4.71461,1.73215-1.6117,3.4602-3.22851,5.1617-4.87183q5.11676-4.91775,9.99577-10.0723c1.61883-1.72191,3.22028-3.46833,4.76971-5.24639,1.51679-1.78829,2.92125-3.70005,4.32167-5.60265,2.77428-3.82764,5.49344-7.70835,8.0574-11.67376a.34784.34784,0,0,1,.59608.35825,195.887,195.887,0,0,1-11.02763,17.357,177.77078,177.77078,0,0,1-12.866,16.04647c-1.14212,1.28-2.32617,2.52213-3.51016,3.76434-.34806.35725-.48176.48179-.54811.87374a4.13252,4.13252,0,0,0-.02249,1.16564,14.22241,14.22241,0,0,0,.491,2.44049,60.86991,60.86991,0,0,0,3.83991,9.42926c3.00286,6.12726,6.461,12.03406,10.03857,17.85718a.44437.44437,0,0,1-.71856.51851c-4.02568-4.75545-8.17789-9.4119-12.63935-13.74272a67.37577,67.37577,0,0,0-7.04181-6.05177c-.62573-.44808-1.26161-.87778-1.91694-1.25749a7.557,7.557,0,0,0-1.98932-.86761.99137.99137,0,0,0-.36744-.02246c-.00616.00511-.03675.00309-.01738.00408.00717.001.02044-.02753-.03264.02349l-.22048.19291-.89212.77063c-.59813.51035-1.22479,1.00846-1.86173,1.47287l-1.88827,1.38-.46855.347a.6431.6431,0,0,0-.21126.25109,2.05726,2.05726,0,0,0-.08778.90128,15.17143,15.17143,0,0,0,1.40752,4.26142,73.96812,73.96812,0,0,0,4.54724,8.1003c3.33056,5.2515,7.00406,10.29277,10.80416,15.22889a.50776.50776,0,0,1-.76148.66856,206.66693,206.66693,0,0,0-16.814-15.20849c-1.476-1.17483-2.97844-2.317-4.51765-3.39893a31.65963,31.65963,0,0,0-4.76772-2.88857,3.27813,3.27813,0,0,0-1.12175-.33174c-.04081-.00614-.04492.002-.03365.001,0,0,.00817-.01124-.00716-.00716l-.07756.04389-.31031.17456-.62367.347-2.50578,1.3606q-2.51862,1.3335-5.08414,2.58032c-3.42139,1.65864-6.89585,3.21113-10.4612,4.55846-1.78112.67367-3.59184,1.283-5.43625,1.79439-1.84442.494-3.68678.92068-5.52914,1.38409a175.65322,175.65322,0,0,1-22.42789,3.97665,117.07359,117.07359,0,0,1-22.77186.13983,205.16074,205.16074,0,0,1-22.47689-3.57551c-3.7225-.7349-7.41439-1.60456-11.13076-2.30374a43.5191,43.5191,0,0,0-11.2461-.92884,13.51857,13.51857,0,0,0-5.2658,1.83728,29.011,29.011,0,0,0-4.62176,3.253,64.33007,64.33007,0,0,0-7.95025,8.15848m.06127-.08167c.02651-.06326.00816-.10513.03775-.13167l.11024-.13983.21945-.27966.44808-.55221.9166-1.088q.92936-1.07787,1.90463-2.11492a50.604,50.604,0,0,1,4.11138-3.93684,29.04753,29.04753,0,0,1,4.62583-3.3275,13.813,13.813,0,0,1,5.372-1.93117,43.83859,43.83859,0,0,1,11.35737.81964c3.74188.66142,7.43274,1.527,11.15116,2.23636a204.98093,204.98093,0,0,0,22.433,3.45,116.39828,116.39828,0,0,0,22.6351-.25723,174.71213,174.71213,0,0,0,22.30129-4.07362c1.82915-.47054,3.67862-.90844,5.49244-1.40552,1.80561-.51035,3.58878-1.1197,5.34847-1.79539,3.51938-1.35244,6.96425-2.91106,10.35505-4.57786,1.69639-.83188,3.37441-1.70048,5.04121-2.58749l2.49158-1.35241.6175-.345.30925-.17251a1.2475,1.2475,0,0,1,.55222-.16842,3.87888,3.87888,0,0,1,1.59641.41544,32.40394,32.40394,0,0,1,4.94527,2.98965c1.5627,1.09827,3.07843,2.25167,4.56662,3.43668a207.311,207.311,0,0,1,16.89878,15.28708l-.76148.66856c-3.81231-4.95552-7.49908-10.01514-10.85518-15.30748a74.90877,74.90877,0,0,1-4.61048-8.2187,15.739,15.739,0,0,1-1.49025-4.59927,2.97978,2.97978,0,0,1,.17762-1.39938,1.77,1.77,0,0,1,.22764-.36134,2.09946,2.09946,0,0,1,.299-.27763l.4726-.34909,1.89444-1.3759c.62467-.45422,1.22174-.92476,1.81171-1.42592l.8829-.75737.21842-.19088a1.21334,1.21334,0,0,1,.20826-.14494.86009.86009,0,0,1,.25412-.097,1.83617,1.83617,0,0,1,.79007.01327,8.273,8.273,0,0,1,2.28942.98806c.69407.40419,1.35039.85125,1.99237,1.31363a68.22573,68.22573,0,0,1,7.13271,6.161c4.486,4.37882,8.63921,9.06384,12.6649,13.8448l-.71756.51954c-3.57146-5.84863-7.02449-11.78094-10.03047-17.95823a61.81282,61.81282,0,0,1-3.86844-9.57724,14.80067,14.80067,0,0,1-.51241-2.58646,4.85448,4.85448,0,0,1,.03882-1.39123,2.05927,2.05927,0,0,1,.28576-.739,4.7772,4.7772,0,0,1,.4726-.53281c1.17994-1.233,2.35987-2.467,3.501-3.73783a177.26449,177.26449,0,0,0,12.8445-15.94947,195.42385,195.42385,0,0,0,11.02358-17.26825l.59613.35825c-2.58851,3.98279-5.31483,7.85737-8.10743,11.69114-1.41063,1.90768-2.81515,3.81436-4.36558,5.63529-1.56675,1.78829-3.17132,3.53063-4.80037,5.25558q-4.88865,5.16732-10.03963,10.07231c-1.70661,1.64334-3.44181,3.25909-5.18007,4.86874-1.73621,1.60967-3.4959,3.203-5.325,4.72383a108.13491,108.13491,0,0,1-24.31413,14.68484c-4.32273,1.95465-8.73522,3.7-13.19363,5.31274-2.23328.79615-4.46352,1.5913-6.7254,2.31088-1.13807.343-2.267.71553-3.42443.987-1.14829.30212-2.30069.58894-3.46431.82063a166.07089,166.07089,0,0,1-28.24892,3.06008c-4.73707.16534-9.4762.18578-14.2143.099a47.3835,47.3835,0,0,1-7.06019-.93086c-2.33028-.43279-4.65135-.90536-6.97039-1.382-4.6401-.94822-9.27513-1.92-13.93871-2.73345-2.33231-.40011-4.66768-.79306-7.01528-1.07989a52.08973,52.08973,0,0,0-7.05816-.542,11.55446,11.55446,0,0,0-6.42328,2.60076,30.2139,30.2139,0,0,0-4.98309,5.01062c-1.49224,1.83523-2.858,3.77048-4.18794,5.72818l-1.98425,2.94574-1.00435,1.46573c-.32766.48892-.67469.8972-1.04213,1.3759"/><path class="b" d="M230.35507,62.36047c-.65121.099-1.30142.2011-1.95363.31542a88.58356,88.58356,0,0,0-72.081,102.46319c.11332.65223.2368,1.29936.36439,1.94546A92.54106,92.54106,0,0,1,230.35507,62.36047"/><path class="c" d="M230.35507,62.36047c-.65121.099-1.30142.2011-1.95363.31542a88.58356,88.58356,0,0,0-72.081,102.46319c.11332.65223.2368,1.29936.36439,1.94546A92.54106,92.54106,0,0,1,230.35507,62.36047Z"/><path class="b" d="M232.30187,61.99608c-.65223.11332-1.29936.23786-1.94649.36445a88.58272,88.58272,0,1,1-73.67021,104.724c.1.65121.20107,1.30345.31539,1.95568A92.54369,92.54369,0,0,0,264.0447,244.34254c50.35326-8.76478,84.79175-65.376,76.02594-115.7303C331.3059,78.259,282.65613,53.23134,232.30187,61.99608"/><path class="c" d="M232.30187,61.99608c-.65223.11332-1.29936.23786-1.94649.36445a88.58272,88.58272,0,1,1-73.67021,104.724c.1.65121.20107,1.30345.31539,1.95568A92.54369,92.54369,0,0,0,264.0447,244.34254c50.35326-8.76478,84.79175-65.376,76.02594-115.7303C331.3059,78.259,282.65613,53.23134,232.30187,61.99608Z"/><path class="b" d="M240.49637,98.76641c-.4236.06436-.8472.13071-1.2718.20522a57.66471,57.66471,0,0,0-46.92069,66.69776c.07351.4246.15515.84614.23782,1.26669a60.238,60.238,0,0,1,47.95467-68.16967"/><path class="c" d="M240.49637,98.76641c-.4236.06436-.8472.13071-1.2718.20522a57.66471,57.66471,0,0,0-46.92069,66.69776c.07351.4246.15515.84614.23782,1.26669A60.238,60.238,0,0,1,240.49637,98.76641Z"/><path class="b" d="M239.372,98.94571c-.40728.07046-.8125.14908-1.21567.22764a55.33832,55.33832,0,1,1-46.02243,65.42192c.06123.40725.12553.8135.196,1.22177A57.81319,57.81319,0,1,0,239.372,98.94571"/><path class="c" d="M259.471,149.88816a14.24571,14.24571,0,1,1-16.47824-11.59108A14.24649,14.24649,0,0,1,259.471,149.88816Z"/><path class="b" d="M153.624,263.23054c4.12159-5.50362,4.47373-5.29642,7.28882-8.06964,1.6821-1.65662,5.83842-3.50611,2.57319-5.617-4.13078-2.67115-9.862,13.68659-9.862,13.68659"/><path class="b" d="M153.88958,262.5874a1.459,1.459,0,0,0-.00411-.31028.31072.31072,0,0,1,.0541-.28377l.69918-.88392c.48587-.59916.96865-1.19832,1.479-1.78215a32.6349,32.6349,0,0,1,3.29891-3.2642c.58283-.51138,1.07786-1.034,1.70764-1.56271.61243-.49708,1.24323-.92781,1.83012-1.3963a4.152,4.152,0,0,0,1.39019-1.576c.26642-.5961-.21944-1.19729-.79309-1.6178a1.7888,1.7888,0,0,0-.90639-.41441,1.97862,1.97862,0,0,0-.988.21128,5.60543,5.60543,0,0,0-1.69437,1.39939,22.48386,22.48386,0,0,0-2.5436,3.77353,63.77032,63.77032,0,0,0-3.52956,7.70731m-.40012,1.02784.13473-.38479a65.30345,65.30345,0,0,1,3.5704-8.47082,22.71474,22.71474,0,0,1,2.47827-3.90214,5.96866,5.96866,0,0,1,1.78726-1.55043,2.42021,2.42021,0,0,1,1.22383-.28785,2.26987,2.26987,0,0,1,1.16972.47973,2.85865,2.85865,0,0,1,.87984.886,1.51094,1.51094,0,0,1,.15718,1.32076,4.62551,4.62551,0,0,1-1.531,1.89139c-.5971.50319-1.21872.95535-1.78215,1.44019-.53384.46955-1.084,1.07073-1.63924,1.58516a31.88057,31.88057,0,0,0-3.13764,3.28156c-.48278.58284-.94516,1.18913-1.40652,1.79336l-.70123.937a2.99771,2.99771,0,0,1-.63691.63286c-.20618.147-.40114.25006-.56649.348"/><path class="b" d="M160.52966,270.72627c5.75571-7.68384,6.24669-7.396,10.1774-11.26751,2.34863-2.314,8.15235-4.89531,3.59389-7.8431-5.768-3.72964-13.77129,19.11061-13.77129,19.11061"/><path class="b" d="M160.84308,269.959c.03162-.13678.07043-.26132.0847-.36747a.88665.88665,0,0,1,.19191-.46544l.97681-1.24526c.67161-.837,1.34322-1.676,2.05159-2.48948a45.4017,45.4017,0,0,1,4.57276-4.56254c.80839-.71448,1.51165-1.4596,2.37212-2.18532.84411-.69205,1.724-1.29834,2.54562-1.95976a5.86879,5.86879,0,0,0,1.96792-2.26288c.3899-.90127-.345-1.79236-1.1534-2.37517a2.57692,2.57692,0,0,0-1.31977-.591,2.83759,2.83759,0,0,0-1.427.31028,7.92838,7.92838,0,0,0-2.38436,1.98325,31.542,31.542,0,0,0-3.53875,5.29539,89.16216,89.16216,0,0,0-4.9402,10.9154m-.444,1.137.13064-.36949a91.02308,91.02308,0,0,1,5.03-11.8044,31.73715,31.73715,0,0,1,3.47241-5.423,8.31227,8.31227,0,0,1,2.47724-2.13532,3.31182,3.31182,0,0,1,1.66375-.38581,3.06556,3.06556,0,0,1,1.58108.65734,3.72607,3.72607,0,0,1,.64916.53178,2.63969,2.63969,0,0,1,.544.67569,1.93977,1.93977,0,0,1,.20621,1.75561,6.35042,6.35042,0,0,1-2.11084,2.5783c-.83085.69612-1.70253,1.32285-2.49765,2.00262-.76347.66753-1.52084,1.49125-2.30169,2.20983a44.3389,44.3389,0,0,0-4.41352,4.57887c-.67874.81349-1.329,1.65864-1.97914,2.50073l-.97883,1.29834a4.63436,4.63436,0,0,1-.77369.81449c-.25315.20312-.492.36236-.69918.51443"/><path class="b" d="M179.4595,211.06458c-3.12338-9.81-13.02009-23.41286,2.52316-36.06754,15.54223-12.65365,31.059-13.09968,37.325-18.81356,6.26507-5.71289,20.15071-18.61558,19.79754-31.46011-.35417-12.84451-5.55873-14.62768,1.24628-22.80246,6.804-8.17484,25.77274-3.29585,37.89866-2.84163,12.12595.45316,16.79873-12.86394,22.30238-10.5949a23.16923,23.16923,0,0,0,10.50712,1.66581s-35.26326-29.581-50.19817-28.88387c-14.93593.69818-59.3324-1.36266-84.03544,32.97073-24.703,34.33438-22.12272,64.79825-19.30351,78.10108,2.81917,13.30178,21.93694,38.72645,21.93694,38.72645"/><path class="c" d="M179.4595,211.06458c-3.12338-9.81-13.02009-23.41286,2.52316-36.06754,15.54223-12.65365,31.059-13.09968,37.325-18.81356,6.26507-5.71289,20.15071-18.61558,19.79754-31.46011-.35417-12.84451-5.55873-14.62768,1.24628-22.80246,6.804-8.17484,25.77274-3.29585,37.89866-2.84163,12.12595.45316,16.79873-12.86394,22.30238-10.5949a23.16923,23.16923,0,0,0,10.50712,1.66581s-35.26326-29.581-50.19817-28.88387c-14.93593.69818-59.3324-1.36266-84.03544,32.97073-24.703,34.33438-22.12272,64.79825-19.30351,78.10108C160.34173,185.63991,179.4595,211.06458,179.4595,211.06458Z"/><path class="b" d="M50.08351,46.556C68.40205,37.232,156.76018,7.27842,239.91272,13.51185c83.15149,6.23442,113.02747,14.84,129.82719,18.81764,16.79873,3.97871,127.66231,37.224,135.98106,40.95057S363.22783,25.15909,306.6493,17.367c72.14835,13.5182,117.76454,21.88492,164.02689,30.58232C414.02409,35.12116,323.29285,13.16478,269.559,11.104c0,0-71.00311-5.41993-119.42524,4.3145C75.67249,30.38714,50.08351,46.556,50.08351,46.556"/><path class="c" d="M50.08351,46.556C68.40205,37.232,156.76018,7.27842,239.91272,13.51185c83.15149,6.23442,113.02747,14.84,129.82719,18.81764,16.79873,3.97871,127.66231,37.224,135.98106,40.95057S363.22783,25.15909,306.6493,17.367c72.14835,13.5182,117.76454,21.88492,164.02689,30.58232C414.02409,35.12116,323.29285,13.16478,269.559,11.104c0,0-71.00311-5.41993-119.42524,4.3145C75.67249,30.38714,50.08351,46.556,50.08351,46.556Z"/><path class="b" d="M297.87,143.20435a53.222,53.222,0,1,0-43.3064,61.56158A53.22168,53.22168,0,0,0,297.87,143.20435Zm-49.99012,23.162a14.2458,14.2458,0,1,1,11.59119-16.47821A14.2464,14.2464,0,0,1,247.87986,166.36639Z"/><path class="d" d="M159.1544,156.83789l6.61133.98486,9.24219,5.04737.55175,4.81006-8.32324,2.96875-6.61035-.98487-.49023-4.27539,3.30468.48731-.49023-4.27588-3.30664-.49756Z"/><path class="d" d="M174.57335,152.17529q-.21387,1.67505-1.53711,1.50684a3.352,3.352,0,0,1-.7959-.22119l-12.37012-5.0586,1.08887-8.53808,7.21582,2.94824a1.48627,1.48627,0,0,0,.39746.11572q.6621.085.76953-.7583l.4082-3.20215,5.15332,2.11084a1.30173,1.30173,0,0,1,.89453,1.49121Z"/><path class="d" d="M179.48838,124.17432a2.60612,2.60612,0,0,1,1.03711,3.32714L176.66417,137.543l-12.61036-9.17236L167.92,118.31885q.605-1.57617,1.86133-1.09375a3.20987,3.20987,0,0,1,.71.3999Zm-6.07812,1.65673a3.57513,3.57513,0,0,0-1.31152-1.89355,2.74262,2.74262,0,0,0-.64454-.36328,1.941,1.941,0,0,0-1.22949-.06934,1.98457,1.98457,0,0,0-1.34375,1.30469,3.36221,3.36221,0,0,0-.02539,2.25537,3.57664,3.57664,0,0,0,1.3125,1.89356,2.73521,2.73521,0,0,0,.64356.36279,1.90381,1.90381,0,0,0,1.23339.05957,1.95194,1.95194,0,0,0,1.33985-1.29492A3.35478,3.35478,0,0,0,173.41026,125.83105Z"/><path class="d" d="M189.08995,112.978l-6.13282,8.83984L172.88194,109.917l6.13281-8.83935q.96827-1.39674,2.07324-.63037a3.23569,3.23569,0,0,1,.59571.55712l2.15527,2.55616a2.98423,2.98423,0,0,1,.5166,3.02978,1.504,1.504,0,0,1,1.86133-.09668,2.684,2.684,0,0,1,.50195.46582l2.16114,2.54688A2.6045,2.6045,0,0,1,189.08995,112.978Zm-7.29-5.0249a3.57531,3.57531,0,0,0-.82617-2.15088,2.72916,2.72916,0,0,0-.53907-.50537,1.9426,1.9426,0,0,0-1.17871-.35889,1.98323,1.98323,0,0,0-1.61426.94873,3.36218,3.36218,0,0,0-.55957,2.18506,3.5779,3.5779,0,0,0,.8252,2.15039,2.76053,2.76053,0,0,0,.54.50537,1.90671,1.90671,0,0,0,1.18457.35059,1.95657,1.95657,0,0,0,1.6084-.94043A3.36,3.36,0,0,0,181.79991,107.95313Zm3.70312,5.98681a3.57533,3.57533,0,0,0-.82617-2.15088,2.73,2.73,0,0,0-.53906-.50537,1.94275,1.94275,0,0,0-1.17871-.35889,1.98323,1.98323,0,0,0-1.61426.94874,3.36141,3.36141,0,0,0-.55957,2.18457,3.57812,3.57812,0,0,0,.82519,2.15087,2.76085,2.76085,0,0,0,.54.50538,1.90315,1.90315,0,0,0,1.18457.35009,1.95481,1.95481,0,0,0,1.6084-.93994A3.35987,3.35987,0,0,0,185.503,113.93994Z"/><path class="d" d="M194.24815,92.33838a1.50855,1.50855,0,0,0-.22363-.34815q-.44385-.49878-1.07813.06592L187.31846,97.061l-1.50195-2.98389,8.03906-7.14942q1.27149-1.12939,2.16406-.125a3.25758,3.25758,0,0,1,.44825.68165l1.99121,3.98828a2.58826,2.58826,0,0,1-.60352,3.4165l-.80469.71484a1.303,1.303,0,0,0-.30566,1.71192l.49805.99707,3.21582-2.85986,2,3.98095-9.64746,8.57959-3.49317-6.97168a2.58794,2.58794,0,0,1,.60352-3.417l4.01953-3.57471A1.302,1.302,0,0,0,194.24815,92.33838Z"/><path class="d" d="M207.51573,95.91113q-1.49121.79322-2.11817-.38427a3.39157,3.39157,0,0,1-.27929-.77735L202.61045,83.897a2.58925,2.58925,0,0,1,1.39258-3.17822l7.59864-4.04248q1.50145-.79834,2.13281.38916a3.23791,3.23791,0,0,1,.27441.76758l2.5166,10.84765a2.61885,2.61885,0,0,1-1.41113,3.188Zm3.79394-10.21972a3.5729,3.5729,0,0,0,.25-2.29,2.74713,2.74713,0,0,0-.248-.69678,1.942,1.942,0,0,0-.88379-.8584,1.9823,1.9823,0,0,0-1.86914.105,3.35634,3.35634,0,0,0-1.498,1.68653,3.57942,3.57942,0,0,0-.25,2.29,2.775,2.775,0,0,0,.249.69629,1.9021,1.9021,0,0,0,.89258.85352,1.95349,1.95349,0,0,0,1.86035-.1001A3.35588,3.35588,0,0,0,211.30967,85.69141Z"/><path class="d" d="M229.172,75.91064a1.48559,1.48559,0,0,0-.03809-.4121q-.16406-.646-.98828-.4375l-7.2998,1.85107.041-3.34033,10.42871-2.64405q1.648-.4182,1.97852.88575a3.27247,3.27247,0,0,1,.084.811l-.06933,4.457a2.58812,2.58812,0,0,1-2.10938,2.75489l-1.043.26464a1.30107,1.30107,0,0,0-1.05957,1.37842l-.01758,1.11426,4.17188-1.05762-.05859,4.45459-12.51465,3.17285.11035-7.79736a2.58791,2.58791,0,0,1,2.10937-2.75439l5.21387-1.32227A1.30285,1.30285,0,0,0,229.172,75.91064Z"/><path class="d" d="M239.56651,85.23584q-1.689.02711-1.71094-1.30664a3.33024,3.33024,0,0,1,.10547-.81934l2.708-10.8042a2.59018,2.59018,0,0,1,2.6875-2.1958l8.60547-.13965q1.69922-.02709,1.72168,1.31739a3.21269,3.21269,0,0,1-.10547.80859L250.88,82.8999a2.62009,2.62009,0,0,1-2.708,2.19629Zm8.03125-7.37207a3.5851,3.5851,0,0,0,1.26562-1.92529,2.77274,2.77274,0,0,0,.09571-.73291,1.95025,1.95025,0,0,0-.39551-1.16651,1.98394,1.98394,0,0,0-1.71289-.75781,3.35545,3.35545,0,0,0-2.10059.81982,3.57478,3.57478,0,0,0-1.26562,1.92481,2.737,2.737,0,0,0-.09571.7334,1.90175,1.90175,0,0,0,.40625,1.166,1.95319,1.95319,0,0,0,1.70118.7583A3.36,3.36,0,0,0,247.59776,77.86377Z"/><path class="d" d="M201.52745,139.44482l-6.20215-4.39794-1.457,3.93505-6.20508-4.38818,4.36914-11.80518,6.20508,4.38819-1.45606,3.93506,6.20215,4.398Z"/><path class="d" d="M205.47764,129.83057q-.75732,1.08324-1.6084.48828a2.52689,2.52689,0,0,1-.46972-.44434l-5.59082-6.64892a2.02982,2.02982,0,0,1-.15528-2.707l3.84766-5.50146q.75732-1.08325,1.6084-.48779a2.52563,2.52563,0,0,1,.4707.44384l5.59668,6.64063a2.04355,2.04355,0,0,1,.14844,2.71533Zm-.98535-8.44629a2.776,2.776,0,0,0-.63965-1.67627,2.03837,2.03837,0,0,0-.416-.39307,1.50592,1.50592,0,0,0-2.18067.4458,2.6363,2.6363,0,0,0-.44433,1.70557,2.76457,2.76457,0,0,0,.63672,1.68017,2.26178,2.26178,0,0,0,.41308.37891,1.513,1.513,0,0,0,.92481.28857,1.5323,1.5323,0,0,0,1.26464-.72851A2.61472,2.61472,0,0,0,204.49229,121.38428Z"/><path class="d" d="M210.587,106.49463l1.87207-1.68359,3.5459,6.96923a1.00694,1.00694,0,0,1-.22657,1.33252l-.749.67334,3.57031,1.30323-1.55957,1.40283-3.57031-1.30323-.81152.7295,1.57421,3.09912-3.74414,3.36719-5.5166-10.83985,3.74414-3.3667,2.95313,5.8086,1.24805-1.12207a1.02251,1.02251,0,0,0,.23339-1.33936Z"/><path class="d" d="M219.06944,108.99414l-.73438.40527q-1.16748.6438-1.67382-.2749a2.40384,2.40384,0,0,1-.22071-.59668l-1.24707-5.0625,2.93848-1.62158.832,3.375,2.93945-1.62109-.82226-3.37989,2.92969-1.61621,1.24707,5.062a2.01356,2.01356,0,0,1-1.04493,2.49317l-.73437.40527,1.24707,5.0625-4.40918,2.43213Z"/><path class="d" d="M228.92491,109.53955q-1.27442.3545-1.55176-.64648a2.50832,2.50832,0,0,1-.08105-.64161l-.08594-8.68652a2.02931,2.02931,0,0,1,1.60254-2.1875l6.46777-1.79883q1.27295-.35448,1.55176.64649a2.556,2.556,0,0,1,.08008.6416l.0957,8.68359a2.04352,2.04352,0,0,1-1.61133,2.19043Zm4.61035-7.14551a2.77057,2.77057,0,0,0,.57226-1.6997,2.07443,2.07443,0,0,0-.07031-.56836,1.50765,1.50765,0,0,0-1.96679-1.04248,2.63321,2.63321,0,0,0-1.42774,1.03369,2.75906,2.75906,0,0,0-.57715,1.70117,2.27377,2.27377,0,0,0,.07813.55566,1.51516,1.51516,0,0,0,.53027.81055,1.53365,1.53365,0,0,0,1.43945.24219A2.61547,2.61547,0,0,0,233.53526,102.394Z"/></svg>