<svg xmlns="http://www.w3.org/2000/svg" viewBox="0 0 255.1181 212.5984"><defs><style>.a{fill:#231815;}.b{fill:#fff;}.c{fill:#9fa0a0;}</style></defs><title>vldb2020-logo3-gray-db</title><rect class="a" x="-0.0027" width="255.1181" height="212.5984"/><path class="a" d="M33.2769,205.11a18.976,18.976,0,0,1-12.4092-4.4107,18.41,18.41,0,0,1-5.9336-18.4321,18.3856,18.3856,0,0,1-4.127-5.2529,19.065,19.065,0,0,1-.9814-14.95l7.1933-21.2232a18.428,18.428,0,0,1,3.9112-6.5693,18.4918,18.4918,0,0,1-.0674-10.9922L25.9,106.85c.127-.4131.2686-.8291.4258-1.2309a48.4892,48.4892,0,0,1,4.126-8.3785,18.3429,18.3429,0,0,1,.38-6.3173L32.88,82.2646A18.5387,18.5387,0,0,1,50.28,67.954l-5.458-24.7378a18.6437,18.6437,0,0,1,.3711-9.435l3.9355-12.9063A18.51,18.51,0,0,1,66.9292,7.6938H78.8735a18.4147,18.4147,0,0,1,5.0528.705,18.3672,18.3672,0,0,1,5.7285-.91H100.231a18.2206,18.2206,0,0,1,4.788.6592,18.3732,18.3732,0,0,1,4.0469-.4541h22.1485a18.4164,18.4164,0,0,1,10.6669,3.4189,18.44,18.44,0,0,1,10.69-3.4189h26.9824q.6723,0,1.3428.0488a31.8123,31.8123,0,0,1,5.581.91c.2334.059.4639.1245.6953.1928.4336.1294.87.2735,1.3223.4356a18.2273,18.2273,0,0,1,7.16-1.499L221.771,7.64c.5625-.042,1.1338-.063,1.6992-.063a23.73,23.73,0,0,1,18.4854,9.0185,18.733,18.733,0,0,1,4.4072,12.3213c0,.6861,0,2.7735-5.7373,22.8565l-.18.6313-.0264-.0073c-1.8027,9.8887-27.8916,118.5366-34.4726,137.4531a19.7761,19.7761,0,0,1-2.1055,4.3941c-4.5137,6.9052-11.4912,10.8657-19.1426,10.8657Z"/><path class="b" d="M100.2307,9.7386a16.127,16.127,0,0,1,4.6978.7243.1537.1537,0,0,0,.0444.0067.1514.1514,0,0,0,.0378-.0049,16.1678,16.1678,0,0,1,4.055-.521h22.1484a16.1729,16.1729,0,0,1,10.5623,3.9431.16.16,0,0,0,.2111,0,16.1707,16.1707,0,0,1,10.584-3.9431H179.554q.5917,0,1.1816.043a29.5831,29.5831,0,0,1,5.1836.8447c.206.0527.41.11.6142.1709.6775.2025,1.337.4364,1.9842.69a.1573.1573,0,0,0,.0578.011.16.16,0,0,0,.07-.0163,16.1339,16.1339,0,0,1,7.0219-1.6555l26.1953-.1426c.5381-.042,1.0752-.0625,1.6075-.0625a21.384,21.384,0,0,1,16.7334,8.1806,16.6341,16.6341,0,0,1,3.9091,10.9093c0,2.7578-5.8439,22.8779-5.8413,22.9122.0469.5654-26.7011,115.0112-34.4492,137.2821a17.77,17.77,0,0,1-1.8633,3.902c-4.0913,6.2581-10.3847,9.8471-17.26,9.8471H33.2769a16.7462,16.7462,0,0,1-10.9437-3.8673,16.2037,16.2037,0,0,1-4.84-17.4765l.0195-.0566a16.2321,16.2321,0,0,1-4.7153-5.4952,16.7685,16.7685,0,0,1-.8406-13.178L19.15,141.5629a16.1417,16.1417,0,0,1,4.302-6.6381.1588.1588,0,0,0,.0393-.1769,16.1836,16.1836,0,0,1-.4771-10.8091L28.051,107.51c.11-.36.2339-.722.37-1.0724a45.1154,45.1154,0,0,1,4.34-8.6228.1537.1537,0,0,0,.0237-.111,16.2046,16.2046,0,0,1,.2353-6.2626L35.07,82.7826A16.36,16.36,0,0,1,50.99,70.1908h1.8774a.1693.1693,0,0,0,.1653-.2056L47.0186,42.7311a16.352,16.352,0,0,1,.3271-8.2936l3.9355-12.9061A16.3591,16.3591,0,0,1,66.929,9.9437H78.8733a16.1887,16.1887,0,0,1,5.0474.8063.1529.1529,0,0,0,.1018-.0019,16.1593,16.1593,0,0,1,5.632-1.01h10.5762m0-4.5H89.6545a20.6249,20.6249,0,0,0-5.7729.8195,20.6679,20.6679,0,0,0-5.0083-.6144H66.929A20.7459,20.7459,0,0,0,46.9768,20.2189l-3.9355,12.906a20.8939,20.8939,0,0,0-.417,10.5757L47.5386,65.973A20.7733,20.7733,0,0,0,30.6907,81.7462l-2.0491,8.6582a20.6078,20.6078,0,0,0-.5,6.2949,51.9277,51.9277,0,0,0-3.9138,8.1053c-.1687.4328-.33.8989-.479,1.3847l-5.0373,16.43a20.7385,20.7385,0,0,0-.2774,11.0978,20.6773,20.6773,0,0,0-3.5466,6.401L7.6951,161.3419a21.3217,21.3217,0,0,0,1.1218,16.721,20.9127,20.9127,0,0,0,3.6572,4.9713,20.6571,20.6571,0,0,0,6.927,19.3718A21.2309,21.2309,0,0,0,33.2769,207.36H184.6985c8.425,0,16.0888-4.3318,21.0268-11.8846a22.0715,22.0715,0,0,0,2.347-4.8859c4.1245-11.8555,13.2995-48.5233,20.27-77.1962,4.4575-18.3348,8.2012-34.17,10.0361-41.9779,2.875-12.232,3.8938-16.6086,4.2346-18.4188l.0035.001c.02-.0738.0844-.2977.1838-.6454,5.8122-20.3563,5.8122-22.4361,5.8122-23.4356a20.9979,20.9979,0,0,0-4.9443-13.7812A25.9647,25.9647,0,0,0,223.47,5.3265c-.5945,0-1.1946.0213-1.7867.0635l-26.0405.1417A20.4333,20.4333,0,0,0,188.427,6.88q-.3043-.0989-.6047-.1887c-.2679-.0794-.5266-.1522-.7879-.219a34.0828,34.0828,0,0,0-5.9712-.9732c-.5085-.0366-1.0146-.0549-1.5092-.0549H152.5715a20.686,20.686,0,0,0-10.69,2.98,20.6415,20.6415,0,0,0-10.667-2.98H109.0657a20.5977,20.5977,0,0,0-3.9934.3934,20.32,20.32,0,0,0-4.8416-.5985Z"/><path class="b" d="M64.3478,68.144a4.8566,4.8566,0,0,1-4.7432-3.81L53.2179,35.3891a4.8582,4.8582,0,0,1,.0976-2.4639L57.3,19.8588a4.8558,4.8558,0,0,1,4.6455-3.4395h12.07a4.8576,4.8576,0,0,1,4.6485,6.2657l-.959,3.1621.624.0049,1.8076-6.1514a4.8568,4.8568,0,0,1,4.66-3.4863H95.3731a4.8568,4.8568,0,0,1,4.6583,6.2324l-4.19,14.18a4.862,4.862,0,0,1-.4531,1.0537L79.1876,65.7172a4.8558,4.8558,0,0,1-4.2051,2.4268Z"/><path class="b" d="M96.503,68.144a4.7829,4.7829,0,0,1-.7822-.0635A9.0344,9.0344,0,0,1,88.19,59.0981a4.8523,4.8523,0,0,1,.1982-1.375L99.55,19.9008a4.8563,4.8563,0,0,1,4.6582-3.4815h22.1484a4.8568,4.8568,0,0,1,4.6534,6.2481c-2.0342,6.7988-3.8711,13.4062-5.4619,19.65H132.04a4.857,4.857,0,0,1,4.6026,6.4072c-1.15,3.415-2.5147,7.5811-4.0557,12.3887-.9258,5.1728-4.6836,7.03-7.959,7.03Z"/><path class="b" d="M134.8819,68.144a4.8563,4.8563,0,0,1-4.6455-6.2754l12.8321-42.0118a4.8568,4.8568,0,0,1,4.6455-3.4375h26.9824c.1182,0,.2363.004.3545.0127a18.2424,18.2424,0,0,1,3.1953.52c.0625.0166.124.0332.1846.0517a11.911,11.911,0,0,1,6.4013,4.3877,6.4386,6.4386,0,0,1,1.1953,4.0156c0,2.8956-.957,9.2842-8.4238,33.1768-1.06,3.5791-4.0947,6.65-8.9951,9.0625a4.8633,4.8633,0,0,1-2.1445.4981Zm21.3653-29.2706a4.81,4.81,0,0,0,3.0976.8077,3.5918,3.5918,0,0,0,2.3516-.7178c.3506-.27.3506-.37.3506-.6367a2.1658,2.1658,0,0,0-.7012-1.7989,2.9511,2.9511,0,0,0-2.2353-.7861,3.0033,3.0033,0,0,0-2.3.8389,2.6815,2.6815,0,0,0-.958,1.4883A1.1573,1.1573,0,0,0,156.2472,38.8734Z"/><path class="b" d="M178.0655,68.144a4.8571,4.8571,0,0,1-4.6445-6.2784l12.832-41.9238a4.857,4.857,0,0,1,4.6182-3.4346l26.6826-.1455a9.5327,9.5327,0,0,1,1.0586-.0595,9.9278,9.9278,0,0,1,8.1543,4.2734,5.3533,5.3533,0,0,1,1.1553,3.4834c0,1.416-.3623,4.1328-2.9951,14.3379a11.0514,11.0514,0,0,1-3.7217,5.4258c-.0615.0547-.1231.1084-.1836.1611a11.0929,11.0929,0,0,1,1.1289,4.6846,6.8858,6.8858,0,0,1-.292,1.9814l-2.9619,10.6309a4.86,4.86,0,0,1-.583,1.3066c-2.9268,4.5928-6.4873,5.5567-8.959,5.5567Zm13.792-14.8174c0,.2041,0,.3808.3692.7324a4.4824,4.4824,0,0,0,3.0947.8564,3.6752,3.6752,0,0,0,2.3828-.7129.6279.6279,0,0,0,.3193-.6709,2.1309,2.1309,0,0,0-.7011-1.7685,3.5262,3.5262,0,0,0-4.5118.0586,2.8389,2.8389,0,0,0-.9531,1.4678ZM198.01,35.5434a.8852.8852,0,0,0,.3691.7617,4.5737,4.5737,0,0,0,3.0947.8271,3.7182,3.7182,0,0,0,2.3994-.7109c.2256-.17.3028-.2266.3028-.6729a2.1345,2.1345,0,0,0-.7012-1.7695,3.5277,3.5277,0,0,0-4.5117.06,2.8379,2.8379,0,0,0-.9531,1.4678Z"/><path class="b" d="M33.6349,128.684a4.8564,4.8564,0,0,1-4.6436-6.28L34.03,105.9682q.0541-.1758.12-.3457c1.9385-4.9532,4.1074-8.2744,6.6328-10.1534a10.7353,10.7353,0,0,1,1.1543-.7226,4.8567,4.8567,0,0,1-2.7461-5.5527l2.08-8.7891a4.8562,4.8562,0,0,1,4.7265-3.7383H74.504a4.9018,4.9018,0,0,1,1.0059.1045,10.935,10.935,0,0,1,6.0312,3.0518,9.2881,9.2881,0,0,1,2.2432,6.5048q0,.8907-.0674,2.0225a4.84,4.84,0,0,1-.1729,1.0234c-.6494,2.3057-1.8232,5.6954-3.5888,10.3624-.0371.0966-.0762.1923-.1192.2861a9.8365,9.8365,0,0,1-2.9921,3.7715,4.8625,4.8625,0,0,1,1.7353,5.4716c-1.1777,3.4961-2.9346,8.8926-5.2207,16.042a4.8569,4.8569,0,0,1-4.626,3.377Z"/><path class="b" d="M81.6231,128.684a4.7719,4.7719,0,0,1-.7822-.0635,9.0344,9.0344,0,0,1-7.5312-8.9824,4.845,4.845,0,0,1,.2129-1.4229L84.0987,83.7035a4.8408,4.8408,0,0,1,.378-.8994,10.6749,10.6749,0,0,1,6.0605-5.28c.0361-.0117.0733-.0234.11-.0351a23.3387,23.3387,0,0,1,6.415-.5879h20.7129c.1074,0,.2158.0029.3232.0107a9.8257,9.8257,0,0,1,3.252.792,12.06,12.06,0,0,1,5.4668,4.2949,6.5073,6.5073,0,0,1,1.1172,3.89c0,3.1-1.18,10.02-10.3809,36.2373a4.8475,4.8475,0,0,1-.4873,1.002c-2.9267,4.5927-6.5029,5.5566-8.9883,5.5566ZM98.1837,99.4145a4.7577,4.7577,0,0,0,3.0684.8066,3.6445,3.6445,0,0,0,2.3779-.7275c.3535-.27.3535-.36.3535-.627a2.1455,2.1455,0,0,0-.7041-1.7871,2.9646,2.9646,0,0,0-2.2324-.7979,3.0922,3.0922,0,0,0-2.3252.8487,2.5138,2.5138,0,0,0-.9326,1.4463A1.1416,1.1416,0,0,0,98.1837,99.4145Z"/><path class="b" d="M120.0021,128.684a4.8564,4.8564,0,0,1-4.6436-6.28l5.0391-16.4355q.0542-.1758.12-.3457c1.9385-4.9532,4.1074-8.2744,6.6328-10.1534a10.7353,10.7353,0,0,1,1.1543-.7226,4.8567,4.8567,0,0,1-2.7461-5.5527l2.08-8.7891a4.8562,4.8562,0,0,1,4.7265-3.7383h28.5059a4.9018,4.9018,0,0,1,1.0059.1045,10.935,10.935,0,0,1,6.0312,3.0518,9.2881,9.2881,0,0,1,2.2432,6.5048q0,.8907-.0674,2.0225a4.84,4.84,0,0,1-.1729,1.0234c-.6494,2.3057-1.8232,5.6954-3.5888,10.3624-.0371.0966-.0762.1923-.1192.2861a9.8368,9.8368,0,0,1-2.9922,3.7715,4.8622,4.8622,0,0,1,1.7354,5.4716c-1.1777,3.4961-2.9346,8.8926-5.2207,16.042a4.8569,4.8569,0,0,1-4.626,3.377Z"/><path class="b" d="M167.99,128.684a4.7719,4.7719,0,0,1-.7822-.0635,9.0342,9.0342,0,0,1-7.5312-8.9824,4.8417,4.8417,0,0,1,.2129-1.4229l10.5761-34.5117a4.8408,4.8408,0,0,1,.378-.8994,10.6749,10.6749,0,0,1,6.0605-5.28c.0361-.0117.0732-.0234.11-.0351a23.3387,23.3387,0,0,1,6.415-.5879h20.7129c.1074,0,.2158.0029.3232.0107a9.8257,9.8257,0,0,1,3.252.792,12.06,12.06,0,0,1,5.4668,4.2949,6.508,6.508,0,0,1,1.1172,3.89c0,3.1-1.18,10.02-10.3809,36.2373a4.8475,4.8475,0,0,1-.4873,1.002c-2.9268,4.5927-6.5029,5.5566-8.9883,5.5566Zm16.5606-29.2695a4.7576,4.7576,0,0,0,3.0683.8066,3.6448,3.6448,0,0,0,2.378-.7275c.3535-.27.3535-.36.3535-.627a2.1455,2.1455,0,0,0-.7041-1.7871,2.9646,2.9646,0,0,0-2.2324-.7979,3.092,3.092,0,0,0-2.3252.8487,2.5138,2.5138,0,0,0-.9326,1.4463A1.1416,1.1416,0,0,0,184.5509,99.4145Z"/><path class="b" d="M27.9835,186.6693a4.8568,4.8568,0,0,1-4.6045-6.4023l3.9727-11.8281H22.2774a4.8559,4.8559,0,0,1-4.6-6.4151l7.3477-21.6806a4.8551,4.8551,0,0,1,4.5908-3.2979l31.9883-.0556a4.857,4.857,0,0,1,4.624,6.3427l-6.9863,21.7364a4.8567,4.8567,0,0,1-4.624,3.37H48.1564L43.59,183.2445a4.8579,4.8579,0,0,1-4.6416,3.4248Z"/><path class="b" d="M61.1651,186.6693a4.8383,4.8383,0,0,1-.6171-.039,7.747,7.747,0,0,1-4.9053-2.6514,8.0188,8.0188,0,0,1-1.9776-5.3672,4.862,4.862,0,0,1,.2129-1.4248L61.921,150.97a4.9161,4.9161,0,0,1,.41-.956,9.3558,9.3558,0,0,1,5.3076-4.5264c.041-.0127.082-.0254.123-.0371a19.0286,19.0286,0,0,1,5.1485-.4727H88.6632c.1406,0,.28.0059.4209.0176a8.94,8.94,0,0,1,2.6767.668,10.189,10.189,0,0,1,4.7129,3.71c.0518.0733.1016.1485.1494.2247a6.1454,6.1454,0,0,1,.876,3.3535c0,2.4677-.8974,7.8759-7.8955,27.955a4.8238,4.8238,0,0,1-.5254,1.0655c-2.5468,3.8828-5.6269,4.6972-7.7627,4.6972Zm13.62-24.1533a3.7688,3.7688,0,0,0,1.3261.1905,1.771,1.771,0,0,0,.8965-.2022A.4177.4177,0,0,0,76.87,162.3a1.1025,1.1025,0,0,0-.8984-.29c-.6787,0-.876.19-1.0059.3164C74.8927,162.3988,74.8331,162.4613,74.7853,162.516Z"/><path class="b" d="M113.629,186.6693a4.8561,4.8561,0,0,1-4.3789-2.7548l-2.6963-5.6182-.5586-.0039-1.6719,5.0469a4.8562,4.8562,0,0,1-4.61,3.33H90.3888a4.8567,4.8567,0,0,1-4.6446-6.2773l9.77-31.9238a4.8574,4.8574,0,0,1,4.6445-3.4356c.0156,0,8.8135.084,8.8135.084a4.8578,4.8578,0,0,1,4.6142,3.4893l.0411-.128a4.8566,4.8566,0,0,1,4.621-3.3613h7.7657a4.8555,4.8555,0,0,1,4.7168,6.0127l-4.9258,20.0947a4.6587,4.6587,0,0,1-.1729.5586,11.0284,11.0284,0,0,1-3.332,4.9151l1.419,3.0849a4.856,4.856,0,0,1-4.4122,6.8867Z"/><path class="b" d="M131.6075,186.6693a4.8562,4.8562,0,0,1-4.6025-6.4082l2.7851-8.26c-4.038-.0342-6.8789-2.73-6.8789-6.5811a7.7629,7.7629,0,0,1,.6963-3.1211l4.8291-13.9941a4.856,4.856,0,0,1,4.5908-3.2725h9.129a4.8565,4.8565,0,0,1,3.9052,1.9688c.0645.0879.126.1767.1846.2676a4.8577,4.8577,0,0,1,4.125-2.375s8.0225-.084,8.0391-.084a4.8557,4.8557,0,0,1,4.65,6.2568l-4.3417,14.418c-.7344,2.6152-2.919,4.7168-6.4678,6.1592a4.8387,4.8387,0,0,1-1.7793.3574l-1.93.02-3.44,11.2148a4.857,4.857,0,0,1-4.6435,3.4326Z"/><path class="b" d="M159.6905,186.6693a4.84,4.84,0,0,1-.6172-.039,7.747,7.747,0,0,1-4.9052-2.6514,8.0188,8.0188,0,0,1-1.9776-5.3672,4.862,4.862,0,0,1,.2129-1.4248l8.043-26.2168a4.9219,4.9219,0,0,1,.41-.956,9.3563,9.3563,0,0,1,5.3077-4.5264c.041-.0127.082-.0254.123-.0371a19.0277,19.0277,0,0,1,5.1484-.4727h15.753c.1406,0,.28.0059.4209.0176a8.94,8.94,0,0,1,2.6767.668,10.189,10.189,0,0,1,4.7129,3.71c.0518.0733.1016.1485.1494.2247a6.1454,6.1454,0,0,1,.876,3.3535c0,2.4677-.8974,7.8759-7.8955,27.955a4.8282,4.8282,0,0,1-.5254,1.0655c-2.5469,3.8828-5.6269,4.6972-7.7627,4.6972Zm13.62-24.1533a3.77,3.77,0,0,0,1.3262.1905,1.771,1.771,0,0,0,.8965-.2022.4177.4177,0,0,0-.1377-.2041,1.1025,1.1025,0,0,0-.8984-.29c-.6787,0-.876.19-1.0059.3164C173.4181,162.3988,173.3585,162.4613,173.3106,162.516Z"/><path class="a" d="M74.9825,63.2875H64.3478L57.961,34.3422l3.9844-13.0664h12.07l-2.8418,9.375,10.7813.0879,2.8418-9.668H95.3731L91.1837,35.25Z"/><path class="a" d="M96.503,63.2875a4.0384,4.0384,0,0,1-2.4463-1.3916,4.1071,4.1071,0,0,1-1.0107-2.7978l11.1621-37.8223h22.1484q-3.1639,10.5762-5.625,20.2734a12.0873,12.0873,0,0,0-.2343,2.3145q0,3.31,2.1093,3.31H132.04q-1.7871,5.3028-4.1894,12.8028-.4687,3.31-3.2227,3.3105Z"/><path class="a" d="M172.9679,57.1352q-1.0254,3.4571-6.5039,6.1523H134.8819L147.714,21.2758h26.9824a13.3356,13.3356,0,0,1,2.3437.3808,7.1274,7.1274,0,0,1,3.8965,2.6368,1.8792,1.8792,0,0,1,.2344,1.1132Q181.171,30.8852,172.9679,57.1352ZM159.3448,44.5375a8.4522,8.4522,0,0,0,5.3174-1.7285,5.4056,5.4056,0,0,0,2.2412-4.4824,6.996,6.996,0,0,0-2.2412-5.3467,8.41,8.41,0,0,0-11.206.0879,7.2431,7.2431,0,0,0-2.461,4.79v.1465A6.0494,6.0494,0,0,0,152.87,42.37,9.1689,9.1689,0,0,0,159.3448,44.5375Z"/><path class="a" d="M217.88,21.2172a4.8133,4.8133,0,0,1,.7324-.0586,5.2631,5.2631,0,0,1,4.3652,2.4609q.0879.0587.0879.44,0,2.1093-2.8418,13.125a6.8333,6.8333,0,0,1-2.2558,3.0176,9.4638,9.4638,0,0,1-4.2774,2.373,6.9185,6.9185,0,0,1,2.5489,2.7246,7.03,7.03,0,0,1,1.0546,3.3692,2.0294,2.0294,0,0,1-.0878.5859L214.2179,59.977q-2.1094,3.31-4.8633,3.3105H178.0655l12.8321-41.9238ZM195.3214,59.7719a8.5493,8.5493,0,0,0,5.3174-1.6992,5.4118,5.4118,0,0,0,2.2412-4.5411,6.9623,6.9623,0,0,0-2.2412-5.3173,8.3679,8.3679,0,0,0-11.2061.1172,7.175,7.175,0,0,0-2.4316,4.7607v.2344a5.6717,5.6717,0,0,0,1.875,4.248A8.9856,8.9856,0,0,0,195.3214,59.7719Zm6.1523-17.7832a8.5988,8.5988,0,0,0,5.3174-1.6846,5.4011,5.4011,0,0,0,2.2412-4.5557,6.9618,6.9618,0,0,0-2.2412-5.3173,8.3678,8.3678,0,0,0-11.206.1172,7.1751,7.1751,0,0,0-2.4317,4.7607v.2344a5.7033,5.7033,0,0,0,1.875,4.2773A9.0608,9.0608,0,0,0,201.4737,41.9887Z"/><path class="c" d="M60.7931,90.3119H43.9181l2.08-8.789H74.504a6.483,6.483,0,0,1,3.457,1.582,4.64,4.64,0,0,1,.9668,3.2226q0,.7619-.0586,1.7286-.9081,3.2226-3.457,9.9609-1.8457,4.0722-10.6933,4.0723h-.2637a7.1923,7.1923,0,0,0-4.043.9668,4.3787,4.3787,0,0,0-1.582,2.2558q-.3808,1.2012-.6738,2.4024h15.82q-1.7871,5.3027-5.2442,16.1132H33.6349l5.039-16.4355q2.3731-6.0645,5.01-8.0273,1.875-1.3477,5.8594-1.4942h8.76q5.42-1.7871,5.42-4.1308a3.2669,3.2669,0,0,0-1.377-2.3145Q61.6134,90.8978,60.7931,90.3119Z"/><path class="c" d="M81.6231,123.8275a4.0379,4.0379,0,0,1-2.4462-1.3916,4.1065,4.1065,0,0,1-1.0108-2.7978L88.7423,85.1264a5.89,5.89,0,0,1,3.3105-2.9883,20.956,20.956,0,0,1,5.01-.3809h20.7129a5.0173,5.0173,0,0,1,1.7285.44,7.242,7.242,0,0,1,3.3691,2.6367,1.9473,1.9473,0,0,1,.2051,1.0547q0,5.83-10.1074,34.6289-2.1093,3.3105-4.8926,3.3105Zm19.629-18.75a8.5131,8.5131,0,0,0,5.332-1.7285,5.394,5.394,0,0,0,2.2558-4.4824,6.9742,6.9742,0,0,0-2.2558-5.3467,7.8345,7.8345,0,0,0-5.5371-2.0947,7.9212,7.9212,0,0,0-5.669,2.1826,7.0966,7.0966,0,0,0-2.4463,4.79v.1464a6.05,6.05,0,0,0,1.875,4.3653A9.1258,9.1258,0,0,0,101.2521,105.0775Z"/><path class="c" d="M147.16,90.3119h-16.875l2.08-8.789h28.5059a6.483,6.483,0,0,1,3.457,1.582,4.64,4.64,0,0,1,.9668,3.2226q0,.7619-.0586,1.7286-.9081,3.2226-3.457,9.9609-1.8458,4.0722-10.6934,4.0723h-.2636a7.1923,7.1923,0,0,0-4.043.9668,4.3787,4.3787,0,0,0-1.582,2.2558q-.3808,1.2012-.6739,2.4024h15.82q-1.7873,5.3027-5.2442,16.1132H120.0021l5.039-16.4355q2.373-6.0645,5.01-8.0273,1.875-1.3477,5.8594-1.4942h8.76q5.42-1.7871,5.42-4.1308a3.2667,3.2667,0,0,0-1.3769-2.3145Q147.9806,90.8978,147.16,90.3119Z"/><path class="c" d="M167.99,123.8275a4.0384,4.0384,0,0,1-2.4463-1.3916,4.1069,4.1069,0,0,1-1.0107-2.7978L175.11,85.1264a5.89,5.89,0,0,1,3.31-2.9883,20.956,20.956,0,0,1,5.01-.3809h20.7129a5.0173,5.0173,0,0,1,1.7285.44,7.242,7.242,0,0,1,3.3691,2.6367,1.9473,1.9473,0,0,1,.2051,1.0547q0,5.83-10.1074,34.6289-2.1094,3.3105-4.8926,3.3105Zm19.6289-18.75a8.5132,8.5132,0,0,0,5.3321-1.7285,5.394,5.394,0,0,0,2.2558-4.4824,6.9742,6.9742,0,0,0-2.2558-5.3467,7.8345,7.8345,0,0,0-5.5371-2.0947,7.9212,7.9212,0,0,0-5.669,2.1826,7.0966,7.0966,0,0,0-2.4463,4.79v.1464a6.05,6.05,0,0,0,1.875,4.3653A9.1257,9.1257,0,0,0,187.6192,105.0775Z"/><path class="a" d="M27.9835,181.8129l6.123-18.2305H22.2774l7.3477-21.6806,31.9795-.0557-6.9863,21.7363H44.5714l-5.6231,18.2305Z"/><path class="a" d="M61.1651,181.8129a2.9106,2.9106,0,0,1-1.8642-1.0293,3.1775,3.1775,0,0,1-.7793-2.1719l8.043-26.2168a4.5866,4.5866,0,0,1,2.5605-2.2832,16.3913,16.3913,0,0,1,3.7852-.2773H88.6632a4.0872,4.0872,0,0,1,1.28.334,5.395,5.395,0,0,1,2.5605,2.0039,1.5688,1.5688,0,0,1,.1387.7793q0,4.4809-7.625,26.3564-1.6436,2.5049-3.7022,2.5049Zm14.9463-14.25a6.52,6.52,0,0,0,4.0352-1.3223,4.06,4.06,0,0,0,1.7539-3.3808,5.373,5.373,0,0,0-1.7119-4.1055,5.9408,5.9408,0,0,0-4.2168-1.6006,6.05,6.05,0,0,0-4.3838,1.6836,5.3675,5.3675,0,0,0-1.8223,3.66v.14A4.5208,4.5208,0,0,0,71.213,165.92,6.9424,6.9424,0,0,0,76.1114,167.5629Z"/><path class="a" d="M100.1583,149.8891l8.7666.084L104.2208,166.06h8.8232l5.2041-16.0869h7.7657l-4.9258,20.0947q-1.2817,3.3955-3.4238,3.3955h-2.1993l3.8418,8.35H113.629l-4.0078-8.35-7.125-.0557-2.7832,8.4053H90.3888Z"/><path class="a" d="M158.41,149.6664l-4.3418,14.418q-.501,1.7813-3.6465,3.0605l-5.4824.0567-4.4805,14.6113h-8.8516l4.9268-14.6113-6.624-.0567q-2.1432,0-2.1426-1.7246a3.2853,3.2853,0,0,1,.3613-1.3359l4.8984-14.1953h9.129l-2.1426,6.9863,8.21.2227,2.1983-7.3477Z"/><path class="a" d="M159.6905,181.8129a2.9106,2.9106,0,0,1-1.8642-1.0293,3.1775,3.1775,0,0,1-.7793-2.1719l8.0429-26.2168a4.5871,4.5871,0,0,1,2.5606-2.2832,16.3908,16.3908,0,0,1,3.7851-.2773h15.753a4.0872,4.0872,0,0,1,1.28.334,5.395,5.395,0,0,1,2.5605,2.0039,1.5688,1.5688,0,0,1,.1387.7793q0,4.4809-7.625,26.3564-1.6436,2.5049-3.7022,2.5049Zm14.9463-14.25a6.52,6.52,0,0,0,4.0352-1.3223,4.06,4.06,0,0,0,1.7539-3.3808,5.373,5.373,0,0,0-1.7119-4.1055,5.9408,5.9408,0,0,0-4.2168-1.6006,6.05,6.05,0,0,0-4.3838,1.6836,5.3675,5.3675,0,0,0-1.8223,3.66v.14a4.5208,4.5208,0,0,0,1.4473,3.2832A6.9424,6.9424,0,0,0,174.6368,167.5629Z"/></svg>