<svg xmlns="http://www.w3.org/2000/svg" viewBox="0 0 566.92913 85.03937"><defs><style>.a{fill:#231815;}.b{fill:#fff;}</style></defs><title>vldb2020-logo1-bw-bb</title><path class="a" d="M521.24963,83.12808A26.04144,26.04144,0,0,0,546.9342,63.466c.00977-.03515,7.21875-28.22412,7.21875-30.52636,0-13.0127-10.24121-22.8252-23.82129-22.8252h-18.75a28.33323,28.33323,0,0,0-5.34045.52,19.50564,19.50564,0,0,0-4.474-.52H490.95666a19.51132,19.51132,0,0,0-3.97266.40723,19.50592,19.50592,0,0,0-3.96679-.40723H472.17736c-.63916,0-1.27026.03992-1.89624.10077-.63269-.06232-1.26995-.10077-1.91235-.10077h-8.49609a19.54308,19.54308,0,0,0-2.78614.19873,19.553,19.553,0,0,0-2.78027-.19873H438.77893a19.49251,19.49251,0,0,0-4.48578.53241,26.78021,26.78021,0,0,0-5.32868-.53241h-9.51483c-.13605-.1911-.269-.384-.41241-.5708a19.51474,19.51474,0,0,0-15.48-7.63232h-36.6211a19.50354,19.50354,0,0,0-4.8703.61767,29.74727,29.74727,0,0,0-6.116-.61767h-23.4375a30.10393,30.10393,0,0,0-8.85522,1.30529,28.41792,28.41792,0,0,0-8.7229-1.30529H284.9049a19.50479,19.50479,0,0,0-4.87042.61767,29.74659,29.74659,0,0,0-6.11591-.61767h-23.4375a30.10393,30.10393,0,0,0-8.85522,1.30529,28.41792,28.41792,0,0,0-8.7229-1.30529h-30.0293a19.50479,19.50479,0,0,0-4.87042.61767,29.74659,29.74659,0,0,0-6.11591-.61767H161.858a19.50131,19.50131,0,0,0-4.91156.62988,28.89188,28.89188,0,0,0-6.04547-.62988H120.8424a19.45862,19.45862,0,0,0-8.05688,1.749,19.49711,19.49711,0,0,0-8.0564-1.749H79.82678a19.53933,19.53933,0,0,0-3.00879.241,19.49388,19.49388,0,0,0-3.01367-.241H60.65a19.49736,19.49736,0,0,0-5.14453.68847,19.51436,19.51436,0,0,0-5.13867-.68847H37.18322A19.51392,19.51392,0,0,0,18.33221,16.381L13.43963,34.66226a19.51723,19.51723,0,0,0-.15527,9.47022l5.5664,23.90625A19.51488,19.51488,0,0,0,37.85705,83.12808Z"/><path class="b" d="M32.00244,63.61344a5.85436,5.85436,0,0,1-5.70166-4.52686l-5.5664-23.90625a5.85318,5.85318,0,0,1,.04638-2.84131l4.89258-18.28125A5.85437,5.85437,0,0,1,31.32861,9.717h13.1836a5.85089,5.85089,0,0,1,5.14111,3.0542A5.85594,5.85594,0,0,1,54.79541,9.717h13.1543a5.85459,5.85459,0,0,1,5.65722,7.36182l-4.86328,18.252a5.85869,5.85869,0,0,1-.87256,1.86621l-16.875,23.93555a5.85411,5.85411,0,0,1-4.78466,2.481Z"/><path class="b" d="M69.28467,63.61344c-8.17041,0-11.06934-5.33155-11.06934-9.89746a15.28844,15.28844,0,0,1,.541-3.87989l9.56006-35.77588A5.85375,5.85375,0,0,1,73.97217,9.717H98.87451a5.85418,5.85418,0,0,1,5.65674,7.36279l-4.28662,16.07471h4.0791a5.85427,5.85427,0,0,1,5.65576,7.36621L105.90723,55.755a10.11882,10.11882,0,0,1-10.25537,7.8584Z"/><path class="b" d="M103.7085,63.61344a5.85446,5.85446,0,0,1-5.65577-7.3667l11.2793-42.1875A5.85428,5.85428,0,0,1,114.98779,9.717h30.0586c8.17041,0,11.06933,5.34766,11.06933,9.92676a15.16952,15.16952,0,0,1-.54931,3.88135l-7.854,29.27636c-1.83349,6.86866-6.92773,10.812-13.97461,10.812Z"/><path class="b" d="M144.72412,63.61344a5.85446,5.85446,0,0,1-5.65576-7.3667l11.2793-42.1875A5.85428,5.85428,0,0,1,156.00342,9.717h30.02929c8.1919,0,11.09864,5.34766,11.09864,9.92676a15.16911,15.16911,0,0,1-.54932,3.88135L194.2041,32.3317a16.20511,16.20511,0,0,1-2.71631,5.729,10.95632,10.95632,0,0,1,.165,1.915,15.70082,15.70082,0,0,1-.57666,4.05029l-2.3457,8.7959c-1.83984,6.86084-6.93359,10.79151-13.977,10.79151Z"/><path class="b" d="M185.73975,63.61344a5.855,5.855,0,0,1-5.65479-7.37012l5.6543-21.09375a15.24571,15.24571,0,0,1,3.57275-6.64014,5.85393,5.85393,0,0,1-.61426-4.49072l2.666-9.96094A5.85437,5.85437,0,0,1,197.019,9.717h30.0293c8.19189,0,11.09863,5.34766,11.09863,9.92676a15.16952,15.16952,0,0,1-.54931,3.88135l-3.16895,11.73633a15.21462,15.21462,0,0,1-3.56933,6.63085,5.85634,5.85634,0,0,1,.61328,4.49268l-3.457,12.89063a5.855,5.855,0,0,1-5.65479,4.33789Z"/><path class="b" d="M233.34717,63.61344c-8.17041,0-11.06934-5.33155-11.06934-9.89746a15.27484,15.27484,0,0,1,.54151-3.88038l7.86132-29.33447C232.48535,13.6564,237.57031,9.717,244.62646,9.717H268.064c8.1919,0,11.09864,5.34766,11.09864,9.92676a15.16911,15.16911,0,0,1-.54932,3.88135l-7.82275,29.29883c-1.873,6.86767-6.9751,10.78955-14.00586,10.78955Z"/><path class="b" d="M267.771,63.61344a5.855,5.855,0,0,1-5.65479-7.37012l5.6543-21.09375a15.24571,15.24571,0,0,1,3.57275-6.64014,5.85393,5.85393,0,0,1-.61426-4.49072l2.666-9.96094A5.85437,5.85437,0,0,1,279.05029,9.717h30.0293c8.19189,0,11.09863,5.34766,11.09863,9.92676a15.16952,15.16952,0,0,1-.54931,3.88135L316.46,35.26139a15.21462,15.21462,0,0,1-3.56933,6.63085,5.85634,5.85634,0,0,1,.61328,4.49268l-3.457,12.89063a5.855,5.855,0,0,1-5.65479,4.33789Z"/><path class="b" d="M315.37842,63.61344c-8.17041,0-11.06934-5.33155-11.06934-9.89746a15.27484,15.27484,0,0,1,.54151-3.88038l7.86132-29.33447C314.5166,13.6564,319.60156,9.717,326.65771,9.717h23.4375c8.1919,0,11.09864,5.34766,11.09864,9.92676a15.16911,15.16911,0,0,1-.54932,3.88135l-7.82275,29.29883c-1.873,6.86767-6.9751,10.78955-14.00586,10.78955Z"/><path class="b" d="M361.521,63.61344a5.85471,5.85471,0,0,1-5.65625-7.36524L359.376,43.10562h-4.09522a5.854,5.854,0,0,1-5.65527-7.36767l5.80078-21.67969A5.85425,5.85425,0,0,1,361.08154,9.717h36.6211a5.854,5.854,0,0,1,5.65527,7.36768l-5.80078,21.67968a5.85425,5.85425,0,0,1-5.65527,4.34131h-7.22315l-4.31787,16.16407a5.85463,5.85463,0,0,1-5.65625,4.34375Z"/><path class="b" d="M395.27783,63.61344c-7.019,0-10.16113-4.603-10.16113-9.165a13.43712,13.43712,0,0,1,.49609-3.49024l6.26514-23.42285c1.62939-6.10889,6.1792-9.61523,12.48193-9.61523h18.75c7.019,0,10.16114,4.603,10.16114,9.165a13.43708,13.43708,0,0,1-.4961,3.49023l-6.23437,23.4165c-1.66748,6.126-6.2251,9.62159-12.5127,9.62159Z"/><path class="b" d="M448.77393,63.61344a5.85569,5.85569,0,0,1-4.70215-2.36621,5.85486,5.85486,0,0,1-4.70215,2.36621H423.84229a5.85429,5.85429,0,0,1-5.65577-7.36621l9.082-33.98438a5.8543,5.8543,0,0,1,5.65577-4.34277h15.52734a5.8547,5.8547,0,0,1,2.7832.7041,5.83654,5.83654,0,0,1,2.78321-.7041h8.49609a5.854,5.854,0,0,1,5.65527,7.36767l-5.80078,21.67969a9.97873,9.97873,0,0,1-2.64355,4.60889l1.82959,3.42334a5.85442,5.85442,0,0,1-5.16358,8.61377Z"/><path class="b" d="M464.272,63.61344a5.85418,5.85418,0,0,1-5.65674-7.3628l2.13575-8.00976a8.76538,8.76538,0,0,1-4.50147-7.855,13.43673,13.43673,0,0,1,.4961-3.49024L460.668,22.25894a5.85487,5.85487,0,0,1,5.65478-4.33886h10.83936a5.85415,5.85415,0,0,1,3.96973,1.55127,5.85117,5.85117,0,0,1,3.96972-1.55127h10.81055a5.85514,5.85514,0,0,1,5.65527,7.37011L497.6416,39.93863c-1.36133,5.102-4.76172,8.38916-9.52051,9.332l-2.666,9.99658a5.85315,5.85315,0,0,1-5.65625,4.3462Z"/><path class="b" d="M496.64453,63.61344c-7.01953,0-10.16113-4.603-10.16113-9.165a13.43712,13.43712,0,0,1,.49609-3.49024l6.26563-23.42285c1.6289-6.10889,6.17871-9.61523,12.48144-9.61523h18.75c7.01953,0,10.16114,4.603,10.16114,9.165a13.43708,13.43708,0,0,1-.4961,3.49023l-6.23437,23.4165c-1.668,6.126-6.22559,9.62159-12.5127,9.62159Z"/><path class="a" d="M67.94971,15.57144l-4.86328,18.252-16.875,23.93554h-14.209L26.436,33.85269l4.89257-18.28125h13.1836l-2.34375,8.78907h10.2539l2.373-8.78907Z"/><path class="a" d="M69.28467,57.75894q-5.21484,0-5.21485-4.043a9.64077,9.64077,0,0,1,.35157-2.40235l9.55078-35.74219H98.87451l-5.625,21.09375a3.55231,3.55231,0,0,0-.14648.9375q0,1.40625,1.69922,1.40625h9.52148l-4.07227,15.23438a4.32371,4.32371,0,0,1-4.5996,3.51562Z"/><path class="a" d="M142.05811,51.28433q-1.72853,6.47462-8.32032,6.47461H103.7085l11.27929-42.1875h30.0586q5.21484,0,5.21484,4.07227a9.30822,9.30822,0,0,1-.35156,2.37305ZM130.73486,37.0607a8.93992,8.93992,0,0,0,3.23731-4.79,7.34189,7.34189,0,0,0,.26367-1.875,4.78885,4.78885,0,0,0-5.06836-4.86328,8.19767,8.19767,0,0,0-5.15625,1.94824,8.96739,8.96739,0,0,0-3.22266,4.79,7.342,7.342,0,0,0-.26367,1.875,4.8262,4.8262,0,0,0,5.03906,4.86328A8.25587,8.25587,0,0,0,130.73486,37.0607Z"/><path class="a" d="M174.75342,57.75894h-30.0293l11.2793-42.1875h30.02929q5.24415,0,5.24415,4.07227a9.30782,9.30782,0,0,1-.35157,2.37305l-2.373,8.78906q-1.28907,4.77538-4.80469,5.85937a3.15313,3.15313,0,0,1,2.05078,3.31055,10.08,10.08,0,0,1-.38086,2.54883l-2.34375,8.78906Q181.34522,57.759,174.75342,57.75894Zm-7.99805-7.51464a8.96733,8.96733,0,0,0,3.22266-4.79,7.342,7.342,0,0,0,.26367-1.875,4.96253,4.96253,0,0,0-.9082-2.92969,4.83214,4.83214,0,0,0-4.13086-1.93359,8.25587,8.25587,0,0,0-5.1709,1.94824,8.94,8.94,0,0,0-3.23731,4.79,7.34189,7.34189,0,0,0-.26367,1.875,4.72877,4.72877,0,0,0,.9375,2.90039,4.80552,4.80552,0,0,0,4.13086,1.96289A8.19763,8.19763,0,0,0,166.75537,50.2443Zm7.63184-17.57813a8.9399,8.9399,0,0,0,3.2373-4.79,7.34189,7.34189,0,0,0,.26367-1.875,4.96248,4.96248,0,0,0-.9082-2.92969,4.83211,4.83211,0,0,0-4.13086-1.93359,8.25589,8.25589,0,0,0-5.1709,1.94824,8.9399,8.9399,0,0,0-3.2373,4.79,7.34189,7.34189,0,0,0-.26367,1.875,4.8262,4.8262,0,0,0,5.03906,4.86328A8.25589,8.25589,0,0,0,174.38721,32.66617Z"/><path class="a" d="M217.17529,27.87613a3.47493,3.47493,0,0,0,.14649-.9082q0-1.43555-1.72852-1.43555H194.353l2.666-9.96094h30.0293q5.24414,0,5.24414,4.07227a9.30822,9.30822,0,0,1-.35156,2.37305l-3.16406,11.71875q-1.72853,6.44531-8.32032,6.44531h-2.92968a2.7311,2.7311,0,0,0-2.8125,2.34375l-.61524,2.34375h11.71875l-3.457,12.89062H185.73975L191.394,36.66519q1.72853-6.44531,8.32032-6.44531h14.64843A2.7311,2.7311,0,0,0,217.17529,27.87613Z"/><path class="a" d="M233.34717,57.75894q-5.21484,0-5.21485-4.043a9.64077,9.64077,0,0,1,.35157-2.40235l7.85156-29.29687q1.69921-6.44532,8.291-6.44532H268.064q5.24415,0,5.24415,4.07227a9.30782,9.30782,0,0,1-.35157,2.37305l-7.82226,29.29687q-1.75782,6.44532-8.34961,6.44531ZM255.24658,37.0607a8.94,8.94,0,0,0,3.23731-4.79,7.34189,7.34189,0,0,0,.26367-1.875,4.78885,4.78885,0,0,0-5.06836-4.86328,8.19763,8.19763,0,0,0-5.15625,1.94824,8.96733,8.96733,0,0,0-3.22266,4.79,7.342,7.342,0,0,0-.26367,1.875,4.8262,4.8262,0,0,0,5.03906,4.86328A8.25587,8.25587,0,0,0,255.24658,37.0607Z"/><path class="a" d="M299.20654,27.87613a3.47493,3.47493,0,0,0,.14649-.9082q0-1.43555-1.72852-1.43555H276.38428l2.666-9.96094h30.0293q5.24413,0,5.24414,4.07227a9.30822,9.30822,0,0,1-.35156,2.37305l-3.16406,11.71875q-1.72853,6.44531-8.32032,6.44531h-2.92968a2.7311,2.7311,0,0,0-2.8125,2.34375l-.61524,2.34375h11.71875l-3.457,12.89062H267.771l5.65429-21.09375q1.72852-6.44531,8.32032-6.44531H296.394A2.7311,2.7311,0,0,0,299.20654,27.87613Z"/><path class="a" d="M315.37842,57.75894q-5.21484,0-5.21485-4.043a9.64077,9.64077,0,0,1,.35157-2.40235l7.85156-29.29687q1.69922-6.44532,8.291-6.44532h23.4375q5.24415,0,5.24415,4.07227a9.30782,9.30782,0,0,1-.35157,2.37305l-7.82226,29.29687q-1.75782,6.44532-8.34961,6.44531ZM337.27783,37.0607a8.94,8.94,0,0,0,3.23731-4.79,7.34189,7.34189,0,0,0,.26367-1.875,4.78885,4.78885,0,0,0-5.06836-4.86328,8.19763,8.19763,0,0,0-5.15625,1.94824,8.96733,8.96733,0,0,0-3.22266,4.79,7.342,7.342,0,0,0-.26367,1.875,4.8262,4.8262,0,0,0,5.03906,4.86328A8.25587,8.25587,0,0,0,337.27783,37.0607Z"/><path class="a" d="M361.521,57.75894l5.47851-20.50781H355.28076l5.80078-21.67969h36.6211l-5.80078,21.67969H380.18311l-5.47852,20.50781Z"/><path class="a" d="M395.27783,57.75894q-4.30663,0-4.30664-3.31054a7.59314,7.59314,0,0,1,.293-1.96289l6.26953-23.4375q1.40625-5.27345,6.82617-5.27344h18.75q4.30665,0,4.30664,3.31055a7.59321,7.59321,0,0,1-.293,1.96289l-6.24024,23.4375q-1.43555,5.27343-6.85547,5.27343Zm17.46094-16.75781a6.9417,6.9417,0,0,0,2.51953-3.75,5.96257,5.96257,0,0,0,.20508-1.49414,3.70227,3.70227,0,0,0-3.92578-3.7793,6.35566,6.35566,0,0,0-3.999,1.52344,7.13179,7.13179,0,0,0-2.53418,3.75,5.63057,5.63057,0,0,0-.20507,1.46485,3.75683,3.75683,0,0,0,.73242,2.28515,3.71531,3.71531,0,0,0,3.19336,1.52344A6.41371,6.41371,0,0,0,412.73877,41.00113Z"/><path class="a" d="M454.01807,23.77457h8.49609l-5.80078,21.67969a3.6322,3.6322,0,0,1-3.86719,2.92968h-1.46484l5.00976,9.375h-7.61718l-5.00977-9.375h-1.9043l-2.49023,9.375H423.84229l9.082-33.98437h15.52734l-4.6875,17.57812h3.95508a2.0397,2.0397,0,0,0,2.08008-1.75781Z"/><path class="a" d="M468.022,43.69644h-1.61133q-4.30663,0-4.30664-3.31054a7.59314,7.59314,0,0,1,.293-1.96289l3.92578-14.64844h10.83936l-2.48975,9.375H482.582l2.51953-9.375h10.81055L491.98633,38.423q-1.40625,5.27343-6.82617,5.27343h-1.61133l-3.75,14.0625H464.272Z"/><path class="a" d="M496.64453,57.75894q-4.30663,0-4.30664-3.31054a7.59314,7.59314,0,0,1,.293-1.96289l6.26953-23.4375q1.40625-5.27345,6.82617-5.27344h18.75q4.30665,0,4.30664,3.31055a7.59283,7.59283,0,0,1-.293,1.96289L522.25,52.48551q-1.43555,5.27343-6.85547,5.27343Zm17.46094-16.75781a6.9417,6.9417,0,0,0,2.51953-3.75,5.96257,5.96257,0,0,0,.20508-1.49414,3.70227,3.70227,0,0,0-3.92578-3.7793,6.35313,6.35313,0,0,0-3.99805,1.52344,7.13353,7.13353,0,0,0-2.53516,3.75A5.63057,5.63057,0,0,0,506.166,38.716a3.75683,3.75683,0,0,0,.73242,2.28515,3.71531,3.71531,0,0,0,3.19336,1.52344A6.41371,6.41371,0,0,0,514.10547,41.00113Z"/></svg>