<svg xmlns="http://www.w3.org/2000/svg" viewBox="0 0 240.94488 198.4252"><defs><style>.a{fill:#231815;}.b{fill:#fff;}.c{fill:#9fa0a0;}</style></defs><title>vldb2020-logo3-gray-bb</title><path class="a" d="M195.93845,178.71016c-2.86914,10.54-11.34961,17.03369-22.15625,17.03369H27.60154a16.189,16.189,0,0,1-15.64112-20.36768l.52686-1.97265a16.18924,16.18924,0,0,1-6.45361-17.51709l5.51172-20.59522A16.16,16.16,0,0,1,17.2642,126.686a16.17958,16.17958,0,0,1-.27692-9.27954l5.6543-21.09375a27.27588,27.27588,0,0,1,2.4292-6.0918,16.17148,16.17148,0,0,1,.52832-5.03467l2.666-9.96094A16.189,16.189,0,0,1,43.879,63.22243l-5.21545-22.399a16.18893,16.18893,0,0,1,.12891-7.85694L43.685,14.68525A16.18892,16.18892,0,0,1,59.32419,2.68135h13.1836a16.195,16.195,0,0,1,5.13965.83691A16.17773,16.17773,0,0,1,82.791,2.68135h13.1543a16.13647,16.13647,0,0,1,2.9693.30035,16.1814,16.1814,0,0,1,3.05316-.30035h24.90234a16.16122,16.16122,0,0,1,8.04254,2.16839,16.139,16.139,0,0,1,8.07074-2.16839H173.042a25.43029,25.43029,0,0,1,6.18347.73169,16.14726,16.14726,0,0,1,4.77356-.73169h30.0293c14.07129,0,21.43359,10.19287,21.43359,20.26172a25.4633,25.4633,0,0,1-.898,6.54443Z"/><path class="b" d="M55.14073,61.05843a4.85688,4.85688,0,0,1-4.73047-3.75537L44.84385,33.39681a4.85163,4.85163,0,0,1,.03907-2.35743l4.89257-18.28125A4.85589,4.85589,0,0,1,54.4669,9.15706H67.65049a4.8574,4.8574,0,0,1,4.69336,6.1084L71.629,17.94612h.21191l1.40332-5.19824A4.85827,4.85827,0,0,1,77.9337,9.15706H91.088a4.85661,4.85661,0,0,1,4.69336,6.10742l-4.86328,18.252a4.86706,4.86706,0,0,1-.72363,1.54834l-16.875,23.93555a4.85762,4.85762,0,0,1-3.96973,2.05811Z"/><path class="b" d="M92.423,61.05843c-7.43359,0-10.07128-4.79444-10.07128-8.89991a14.28054,14.28054,0,0,1,.50878-3.62841l9.55762-35.77a4.85767,4.85767,0,0,1,4.69238-3.603H122.0128a4.85741,4.85741,0,0,1,4.69336,6.1084l-4.6211,17.3291h5.377a4.85689,4.85689,0,0,1,4.69238,6.11133l-4.07227,15.23437a9.16721,9.16721,0,0,1-9.292,7.11817Z"/><path class="b" d="M126.84678,61.05843a4.85735,4.85735,0,0,1-4.69238-6.11133l11.2793-42.1875a4.85778,4.85778,0,0,1,4.69238-3.60254h30.05859c7.4336,0,10.07129,4.81006,10.07129,8.9292a14.179,14.179,0,0,1-.51465,3.62451L169.8878,50.98518c-1.709,6.39942-6.45215,10.07325-13.01172,10.07325Zm21.67285-28.47168c.04688.00439.10743.00781.18262.00781a3.38717,3.38717,0,0,0,2.167-.9082,4.12064,4.12064,0,0,0,1.54981-2.23047,2.55486,2.55486,0,0,0,.09863-.61377,1.93015,1.93015,0,0,0-.21191-.01026,3.333,3.333,0,0,0-2.1416.89942,4.14292,4.14292,0,0,0-1.5459,2.23926A2.54217,2.54217,0,0,0,148.51963,32.58675Z"/><path class="b" d="M167.86241,61.05843A4.85736,4.85736,0,0,1,163.17,54.9471l11.2793-42.1875a4.85779,4.85779,0,0,1,4.69238-3.60254H209.171c7.45606,0,10.10059,4.81006,10.10059,8.9292a14.179,14.179,0,0,1-.51465,3.62451L216.38,30.51448a14.90471,14.90471,0,0,1-2.82715,5.72656,9.7076,9.7076,0,0,1,.24023,2.17725,14.69851,14.69851,0,0,1-.543,3.79443l-2.34472,8.79493c-1.71387,6.38964-6.457,10.05078-13.01368,10.05078Zm16.66308-15.291a1.85536,1.85536,0,0,0,.21192.01074,3.333,3.333,0,0,0,2.1416-.89941,4.14292,4.14292,0,0,0,1.5459-2.23926,2.54791,2.54791,0,0,0,.09863-.6167c-.04883-.00439-.10937-.00732-.18262-.00732a3.38717,3.38717,0,0,0-2.167.9082,4.12062,4.12062,0,0,0-1.5498,2.23047A2.54517,2.54517,0,0,0,184.52549,45.76741ZM192.172,28.19222c.04687.00439.10742.00781.18262.00781a3.38715,3.38715,0,0,0,2.167-.90821,4.1206,4.1206,0,0,0,1.5498-2.23046,2.54751,2.54751,0,0,0,.09863-.6167c-.04882-.0044-.10937-.00733-.18261-.00733a3.38715,3.38715,0,0,0-2.167.90821,4.12062,4.12062,0,0,0-1.54981,2.23046A2.54155,2.54155,0,0,0,192.172,28.19222Z"/><path class="b" d="M27.76768,121.59847a4.85685,4.85685,0,0,1-4.69141-6.11426l5.6543-21.09375a13.89606,13.89606,0,0,1,3.918-6.76709c-.041-.04932-.081-.1001-.12012-.15137a4.85324,4.85324,0,0,1-.83886-4.21289l2.666-9.96094A4.85589,4.85589,0,0,1,39.047,69.6971H69.07627c7.45606,0,10.10059,4.81006,10.10059,8.9292a14.179,14.179,0,0,1-.51465,3.62451l-3.168,11.7334a13.87453,13.87453,0,0,1-3.916,6.75879c.041.0498.082.10009.12109.15185a4.859,4.859,0,0,1,.83789,4.21436l-3.457,12.89062a4.85708,4.85708,0,0,1-4.69141,3.59864Z"/><path class="b" d="M75.3751,121.59847c-7.43359,0-10.07129-4.79444-10.07129-8.89991a14.28058,14.28058,0,0,1,.50879-3.62841L73.672,79.742C75.35362,73.36556,80.087,69.6971,86.6544,69.6971h23.4375c7.45605,0,10.10059,4.81006,10.10059,8.9292a14.17947,14.17947,0,0,1-.51465,3.62451l-7.82324,29.29834c-1.74415,6.39551-6.49512,10.04932-13.042,10.04932ZM91.921,93.12679c.04688.00439.10742.00781.18262.00781a3.38717,3.38717,0,0,0,2.167-.9082,4.12073,4.12073,0,0,0,1.54981-2.23047,2.55486,2.55486,0,0,0,.09863-.61377,1.93035,1.93035,0,0,0-.21192-.01026,3.33293,3.33293,0,0,0-2.1416.89942,4.143,4.143,0,0,0-1.5459,2.23925A2.54208,2.54208,0,0,0,91.921,93.12679Z"/><path class="b" d="M109.79893,121.59847a4.85685,4.85685,0,0,1-4.69141-6.11426l5.6543-21.09375a13.89606,13.89606,0,0,1,3.918-6.76709c-.041-.04932-.081-.1001-.12012-.15137a4.85324,4.85324,0,0,1-.83886-4.21289l2.666-9.96094a4.85589,4.85589,0,0,1,4.69141-3.60107h30.02929c7.45606,0,10.10059,4.81006,10.10059,8.9292a14.179,14.179,0,0,1-.51465,3.62451l-3.168,11.7334a13.87453,13.87453,0,0,1-3.916,6.75879c.041.0498.082.10009.12109.15185a4.859,4.859,0,0,1,.83789,4.21436l-3.457,12.89062a4.85708,4.85708,0,0,1-4.69141,3.59864Z"/><path class="b" d="M157.40635,121.59847c-7.43359,0-10.07129-4.79444-10.07129-8.89991a14.28058,14.28058,0,0,1,.50879-3.62841L155.70323,79.742c1.68164-6.37646,6.415-10.04492,12.98242-10.04492h23.4375c7.456,0,10.10059,4.81006,10.10059,8.9292a14.17947,14.17947,0,0,1-.51465,3.62451l-7.82324,29.29834c-1.74415,6.39551-6.49512,10.04932-13.042,10.04932Zm16.5459-28.47168c.04688.00439.10742.00781.18262.00781a3.38717,3.38717,0,0,0,2.167-.9082,4.12073,4.12073,0,0,0,1.54981-2.23047,2.55486,2.55486,0,0,0,.09863-.61377,1.93035,1.93035,0,0,0-.21192-.01026,3.33293,3.33293,0,0,0-2.1416.89942,4.143,4.143,0,0,0-1.5459,2.23925A2.54208,2.54208,0,0,0,173.95225,93.12679Z"/><path class="b" d="M22.74424,179.554a4.85577,4.85577,0,0,1-4.69238-6.10937l3.57227-13.37305h-4.8086a4.85645,4.85645,0,0,1-4.6914-6.1123l5.51172-20.59522a4.85575,4.85575,0,0,1,4.6914-3.60156H57.11631a4.85767,4.85767,0,0,1,4.69239,6.1123L56.29893,156.47a4.85634,4.85634,0,0,1-4.69238,3.60156H44.20323L39.961,175.95149a4.85637,4.85637,0,0,1-4.69238,3.60254Z"/><path class="b" d="M54.81358,179.554c-6.60547,0-8.94824-4.30957-8.94824-8.001a12.05155,12.05155,0,0,1,.44629-3.13282l5.95214-22.25293a10.9261,10.9261,0,0,1,11.17676-8.61181H81.253c6.60547,0,8.94824,4.31006,8.94824,8.00146a12.05193,12.05193,0,0,1-.44628,3.13281l-5.92383,22.248C82.338,176.42317,78.256,179.554,72.62608,179.554Z"/><path class="b" d="M105.63389,179.554a4.85712,4.85712,0,0,1-4.28418-2.56738l-.1914-.36035a4.858,4.858,0,0,1-4.458,2.92773h-14.751a4.8561,4.8561,0,0,1-4.69238-6.11035l8.62793-32.28516a4.85765,4.85765,0,0,1,4.69238-3.603h14.751a4.8559,4.8559,0,0,1,2.64355.78271,4.84961,4.84961,0,0,1,2.64453-.78271h8.07129a4.85663,4.85663,0,0,1,4.69141,6.11279l-5.51074,20.5957a8.68561,8.68561,0,0,1-2.7002,4.42774l1.98633,3.71679a4.85674,4.85674,0,0,1-4.28418,7.14551Z"/><path class="b" d="M120.35752,179.554a4.85661,4.85661,0,0,1-4.69335-6.10742l2.17089-8.1416a7.59019,7.59019,0,0,1-4.39355-7.11133,12.05154,12.05154,0,0,1,.44629-3.13281l3.72656-13.90576a4.8574,4.8574,0,0,1,4.69141-3.59961h10.29785a4.85473,4.85473,0,0,1,3.77051,1.7959,4.85539,4.85539,0,0,1,3.77148-1.7959h10.27051a4.85667,4.85667,0,0,1,4.6914,6.11377l-3.72949,13.916c-1.25683,4.71387-4.45605,7.69727-8.92773,8.43164l-2.64844,9.93164a4.857,4.857,0,0,1-4.69336,3.60547Z"/><path class="b" d="M151.11241,179.554c-6.60547,0-8.94824-4.30957-8.94824-8.001a12.052,12.052,0,0,1,.44628-3.13282l5.95215-22.25293a10.9261,10.9261,0,0,1,11.17676-8.61181h17.8125c6.60547,0,8.94824,4.31006,8.94824,8.00146a12.05154,12.05154,0,0,1-.44629,3.13281l-5.92382,22.248c-1.49317,5.48535-5.5752,8.61621-11.20508,8.61621Z"/><path class="a" d="M91.088,14.014l-4.86328,18.252-16.875,23.93554h-14.209L49.57432,32.29524,54.4669,14.014H67.65049l-2.34375,8.78907H75.56065L77.9337,14.014Z"/><path class="a" d="M92.423,56.20149q-5.21484,0-5.21484-4.043a9.64117,9.64117,0,0,1,.35156-2.40234L97.11045,14.014H122.0128l-5.625,21.09375a3.552,3.552,0,0,0-.14649.9375q0,1.40625,1.69922,1.40625H127.462l-4.07227,15.23438a4.32372,4.32372,0,0,1-4.59961,3.51562Z"/><path class="a" d="M165.19639,49.72688q-1.72851,6.47461-8.32031,6.47461h-30.0293l11.2793-42.1875h30.05859q5.21485,0,5.21485,4.07227a9.30782,9.30782,0,0,1-.35157,2.373ZM153.87315,35.50325a8.9399,8.9399,0,0,0,3.2373-4.79,7.34148,7.34148,0,0,0,.26368-1.875,4.78884,4.78884,0,0,0-5.06836-4.86328,8.19757,8.19757,0,0,0-5.15625,1.94824,8.96728,8.96728,0,0,0-3.22266,4.79,7.34189,7.34189,0,0,0-.26367,1.875,4.8262,4.8262,0,0,0,5.03906,4.86328A8.25587,8.25587,0,0,0,153.87315,35.50325Z"/><path class="a" d="M197.8917,56.20149H167.86241L179.1417,14.014H209.171q5.24415,0,5.24414,4.07227a9.30822,9.30822,0,0,1-.35156,2.373l-2.37305,8.78906q-1.28905,4.77538-4.80468,5.85937a3.15314,3.15314,0,0,1,2.05078,3.31055,10.08042,10.08042,0,0,1-.38086,2.54883L206.212,49.75618Q204.4835,56.2015,197.8917,56.20149Zm-7.998-7.51465a8.96725,8.96725,0,0,0,3.22265-4.79,7.3416,7.3416,0,0,0,.26368-1.875,4.96247,4.96247,0,0,0-.90821-2.92969,4.83212,4.83212,0,0,0-4.13086-1.9336,8.25592,8.25592,0,0,0-5.1709,1.94825,8.93983,8.93983,0,0,0-3.2373,4.79,7.34189,7.34189,0,0,0-.26367,1.875,4.72877,4.72877,0,0,0,.9375,2.90039,4.80551,4.80551,0,0,0,4.13086,1.96289A8.19762,8.19762,0,0,0,189.89366,48.68684Zm7.63183-17.57812a8.93992,8.93992,0,0,0,3.23731-4.79,7.34189,7.34189,0,0,0,.26367-1.875,4.96248,4.96248,0,0,0-.9082-2.92969,4.83212,4.83212,0,0,0-4.13086-1.93359,8.25587,8.25587,0,0,0-5.1709,1.94824,8.94,8.94,0,0,0-3.23731,4.79,7.34189,7.34189,0,0,0-.26367,1.875A4.8262,4.8262,0,0,0,192.3546,33.057,8.25586,8.25586,0,0,0,197.52549,31.10872Z"/><path class="c" d="M59.20323,86.85872a3.47528,3.47528,0,0,0,.14648-.9082q0-1.43555-1.72851-1.43555H36.381L39.047,74.554H69.07627q5.24415,0,5.24415,4.07227a9.30769,9.30769,0,0,1-.35157,2.373L70.80479,92.71809q-1.72851,6.44532-8.32031,6.44532H59.55479a2.73111,2.73111,0,0,0-2.8125,2.34375l-.61523,2.34375H67.84581l-3.457,12.89062H27.76768L33.422,95.64778q1.72851-6.44531,8.32031-6.44531H56.39073A2.73111,2.73111,0,0,0,59.20323,86.85872Z"/><path class="c" d="M75.3751,116.74153q-5.21484,0-5.21484-4.043a9.64117,9.64117,0,0,1,.35156-2.40234l7.85156-29.29688q1.69923-6.44531,8.291-6.44531h23.4375q5.24414,0,5.24414,4.07227a9.30809,9.30809,0,0,1-.35156,2.373l-7.82227,29.29688q-1.75781,6.4453-8.34961,6.44531ZM97.27452,96.04329a8.9399,8.9399,0,0,0,3.2373-4.79,7.34189,7.34189,0,0,0,.26367-1.875A4.78884,4.78884,0,0,0,95.70713,84.515a8.19761,8.19761,0,0,0-5.15625,1.94824,8.96731,8.96731,0,0,0-3.22265,4.79,7.34189,7.34189,0,0,0-.26367,1.875,4.8262,4.8262,0,0,0,5.03906,4.86328A8.25589,8.25589,0,0,0,97.27452,96.04329Z"/><path class="c" d="M141.23448,86.85872a3.47528,3.47528,0,0,0,.14648-.9082q0-1.43555-1.72851-1.43555H118.41221l2.666-9.96094h30.02929q5.24415,0,5.24415,4.07227a9.30769,9.30769,0,0,1-.35157,2.373L152.836,92.71809q-1.72851,6.44532-8.32031,6.44532H141.586a2.73111,2.73111,0,0,0-2.8125,2.34375l-.61523,2.34375h11.71875l-3.457,12.89062H109.79893l5.6543-21.09375q1.72851-6.44531,8.32031-6.44531H138.422A2.73111,2.73111,0,0,0,141.23448,86.85872Z"/><path class="c" d="M157.40635,116.74153q-5.21484,0-5.21484-4.043a9.64117,9.64117,0,0,1,.35156-2.40234l7.85156-29.29688q1.69923-6.44531,8.291-6.44531h23.4375q5.24413,0,5.24414,4.07227a9.30809,9.30809,0,0,1-.35156,2.373l-7.82227,29.29688q-1.7578,6.4453-8.34961,6.44531Zm21.89942-20.69824a8.9399,8.9399,0,0,0,3.2373-4.79,7.34189,7.34189,0,0,0,.26367-1.875,4.78884,4.78884,0,0,0-5.06836-4.86328,8.19761,8.19761,0,0,0-5.15625,1.94824,8.96731,8.96731,0,0,0-3.22265,4.79,7.34189,7.34189,0,0,0-.26367,1.875,4.8262,4.8262,0,0,0,5.03906,4.86328A8.25589,8.25589,0,0,0,179.30577,96.04329Z"/><path class="a" d="M22.74424,174.69759l5.20411-19.48243H16.81553l5.51172-20.5957H57.11631l-5.50976,20.5957H40.47374l-5.20508,19.48243Z"/><path class="a" d="M54.81358,174.69759q-4.09278,0-4.0918-3.14453a7.21712,7.21712,0,0,1,.27832-1.86524l5.95606-22.26562a6.1196,6.1196,0,0,1,6.48437-5.00977H81.253q4.09278,0,4.0918,3.14453a7.21681,7.21681,0,0,1-.27832,1.86524L79.1378,169.68782a6.16078,6.16078,0,0,1-6.51172,5.00977Zm16.58789-15.91993a6.59292,6.59292,0,0,0,2.39258-3.5625,5.66985,5.66985,0,0,0,.19531-1.41992,3.51712,3.51712,0,0,0-3.72949-3.58984,6.0362,6.0362,0,0,0-3.79883,1.44726,6.76639,6.76639,0,0,0-2.40723,3.5625,5.30879,5.30879,0,0,0-.19531,1.39161,3.5686,3.5686,0,0,0,.69531,2.17089,3.53044,3.53044,0,0,0,3.03418,1.44727A6.09429,6.09429,0,0,0,71.40147,158.77766Z"/><path class="a" d="M110.61631,142.41243h8.07129l-5.51074,20.5957a3.4506,3.4506,0,0,1-3.67383,2.78321h-1.3916l4.75879,8.90625h-7.23633l-4.75879-8.90625H99.06553l-2.36523,8.90625h-14.751l8.62793-32.28516h14.751l-4.45313,16.69922h3.75684a1.93818,1.93818,0,0,0,1.97656-1.66992Z"/><path class="a" d="M123.92,161.33821h-1.53027q-4.09276,0-4.0918-3.14453a7.21711,7.21711,0,0,1,.27832-1.86523l3.7295-13.916h10.29785l-2.36621,8.90625H137.753l2.39258-8.90625h10.27051l-3.72949,13.916a6.12026,6.12026,0,0,1-6.48438,5.00976H138.671l-3.5625,13.35938h-14.751Z"/><path class="a" d="M151.11241,174.69759q-4.09278,0-4.0918-3.14453a7.21669,7.21669,0,0,1,.27832-1.86524L153.255,147.4222a6.11959,6.11959,0,0,1,6.48437-5.00977h17.8125q4.09278,0,4.0918,3.14453a7.21724,7.21724,0,0,1-.27832,1.86524l-5.92871,22.26562a6.16078,6.16078,0,0,1-6.51172,5.00977Zm16.58789-15.91993a6.59292,6.59292,0,0,0,2.39258-3.5625,5.66985,5.66985,0,0,0,.19531-1.41992,3.51712,3.51712,0,0,0-3.72949-3.58984,6.03618,6.03618,0,0,0-3.79883,1.44726,6.76633,6.76633,0,0,0-2.40723,3.5625,5.30879,5.30879,0,0,0-.19531,1.39161,3.56854,3.56854,0,0,0,.69531,2.17089,3.53044,3.53044,0,0,0,3.03418,1.44727A6.09431,6.09431,0,0,0,167.7003,158.77766Z"/></svg>