<svg xmlns="http://www.w3.org/2000/svg" viewBox="0 0 255.1181 212.5984"><defs><style>.a{fill:#231815;}.b{fill:#fff;}.c{fill:#e2356b;}.d{fill:#f692ab;}</style></defs><title>vldb2020-logo3-color-db</title><rect class="a" width="255.1181" height="212.5984"/><path class="a" d="M32.2049,205.11a18.974,18.974,0,0,1-12.41-4.4121,18.4106,18.4106,0,0,1-5.9326-18.4336,18.6594,18.6594,0,0,1-4.127-5.252,19.0592,19.0592,0,0,1-.9814-14.9482L15.9471,140.84a18.4333,18.4333,0,0,1,3.9111-6.5684,18.4991,18.4991,0,0,1-.0673-10.9922l5.0371-16.4287c.1269-.4131.2685-.8281.4248-1.23A48.54,48.54,0,0,1,29.38,97.2411a18.3373,18.3373,0,0,1,.38-6.3183l2.0488-8.6592a18.537,18.537,0,0,1,17.4-14.31l-5.459-24.7383a18.6535,18.6535,0,0,1,.372-9.4345l3.9356-12.9063A18.51,18.51,0,0,1,65.8573,7.6933H77.8016a18.4125,18.4125,0,0,1,5.0557.706,18.3886,18.3886,0,0,1,5.7256-.9111H99.159a18.2236,18.2236,0,0,1,4.7891.6592,18.4055,18.4055,0,0,1,4.0459-.4541h22.1484a18.4082,18.4082,0,0,1,10.667,3.42,18.448,18.448,0,0,1,10.69-3.42h26.9825q.6723,0,1.3427.0488a31.82,31.82,0,0,1,5.5811.9092c.2334.06.4639.125.6953.1934.4385.1318.875.2753,1.3213.4355a18.2208,18.2208,0,0,1,7.16-1.499l26.1162-.1426c.5625-.041,1.1338-.0625,1.6992-.0625a23.73,23.73,0,0,1,18.4853,9.0186,18.733,18.733,0,0,1,4.4073,12.3212c0,.7549,0,2.7588-5.72,22.795l-.1963.69-.039-.0107c-1.87,10.2265-27.89,118.5712-34.461,137.4589a19.8339,19.8339,0,0,1-2.1054,4.3946c-4.5137,6.9052-11.4912,10.8662-19.1426,10.8662Z"/><path class="b" d="M99.1588,9.7386a16.1264,16.1264,0,0,1,4.6977.7243.1549.1549,0,0,0,.0445.0067.1514.1514,0,0,0,.0378-.0049,16.1676,16.1676,0,0,1,4.0549-.521h22.1485a16.1726,16.1726,0,0,1,10.5622,3.9431.162.162,0,0,0,.1057.04.16.16,0,0,0,.1055-.04A16.1707,16.1707,0,0,1,151.5,9.9437H178.482q.5919,0,1.1817.043a29.5846,29.5846,0,0,1,5.1836.8447c.206.0527.41.11.6142.1709.6775.2025,1.3369.4364,1.9841.69a.1577.1577,0,0,0,.1277-.0053,16.1347,16.1347,0,0,1,7.022-1.6555l26.1953-.1426c.5381-.042,1.0752-.0625,1.6074-.0625a21.3835,21.3835,0,0,1,16.7334,8.1807,16.6337,16.6337,0,0,1,3.9092,10.9092c0,2.7578-5.844,22.8778-5.8413,22.9122.0469.5654-26.7012,115.0112-34.4492,137.282a17.7733,17.7733,0,0,1-1.8633,3.9021c-4.0913,6.2581-10.3848,9.8471-17.26,9.8471H32.2049a16.7465,16.7465,0,0,1-10.9438-3.8673,16.203,16.203,0,0,1-4.84-17.4765l.0195-.0566a16.231,16.231,0,0,1-4.7153-5.4952,16.7694,16.7694,0,0,1-.8408-13.178l7.1928-21.2233a16.14,16.14,0,0,1,4.302-6.6381.1582.1582,0,0,0,.0391-.1769,16.1848,16.1848,0,0,1-.4768-10.8091L26.9791,107.51c.11-.36.2339-.722.37-1.0724a45.127,45.127,0,0,1,4.34-8.6228.1548.1548,0,0,0,.024-.111,16.1987,16.1987,0,0,1,.2353-6.2626l2.0491-8.6582a16.3594,16.3594,0,0,1,15.92-12.5918H51.795a.169.169,0,0,0,.1651-.2056l-6.0135-27.254a16.3567,16.3567,0,0,1,.3269-8.2937l3.9356-12.9061A16.3592,16.3592,0,0,1,65.857,9.9437H77.8014a16.1876,16.1876,0,0,1,5.0473.8063.1546.1546,0,0,0,.0484.0078.1518.1518,0,0,0,.0534-.01,16.16,16.16,0,0,1,5.6321-1.01H99.1588m0-4.5H88.5826a20.6258,20.6258,0,0,0-5.7734.82,20.665,20.665,0,0,0-5.0078-.6145H65.857A20.7463,20.7463,0,0,0,45.9046,20.2189l-3.9355,12.906a20.9012,20.9012,0,0,0-.4168,10.5758L46.4666,65.973A20.7734,20.7734,0,0,0,29.6187,81.7462L27.57,90.4044a20.6,20.6,0,0,0-.5,6.2945,51.9341,51.9341,0,0,0-3.914,8.1055c-.1709.44-.3321.9059-.4795,1.3876L17.64,122.62a20.7381,20.7381,0,0,0-.2773,11.0977,20.6657,20.6657,0,0,0-3.5466,6.4014l-7.1929,21.223A21.3239,21.3239,0,0,0,7.745,178.0629a20.9067,20.9067,0,0,0,3.6572,4.9712,20.6559,20.6559,0,0,0,6.9267,19.372,21.2322,21.2322,0,0,0,13.876,4.9537H183.6266c8.425,0,16.0888-4.3318,21.0268-11.8847A22.064,22.064,0,0,0,207,190.5893c4.1245-11.8555,13.3-48.5233,20.27-77.1962,4.4575-18.3347,8.2011-34.17,10.0361-41.9779,2.875-12.232,3.8938-16.6086,4.2346-18.4188l.0034.0009c.02-.0737.0845-.2978.1839-.6458,5.8122-20.3558,5.8122-22.4356,5.8122-23.4351a20.9988,20.9988,0,0,0-4.9433-13.78,25.9649,25.9649,0,0,0-20.1993-9.81c-.5944,0-1.1945.0214-1.7866.0634l-26.0405.1418A20.4291,20.4291,0,0,0,187.3553,6.88c-.2031-.0659-.4043-.1287-.6052-.1887-.2666-.0792-.5256-.1519-.7866-.2188a34.1,34.1,0,0,0-5.9722-.9734c-.5078-.0365-1.0142-.0549-1.5093-.0549H151.5a20.688,20.688,0,0,0-10.69,2.98,20.6419,20.6419,0,0,0-10.6672-2.98H107.9937A20.6029,20.6029,0,0,0,104,5.8371a20.3165,20.3165,0,0,0-4.8413-.5985Z"/><path class="b" d="M63.2765,68.1445a4.8566,4.8566,0,0,1-4.7432-3.81L52.1466,35.39a4.8579,4.8579,0,0,1,.0976-2.4638l3.9844-13.0665A4.8557,4.8557,0,0,1,60.8741,16.42h12.07a4.8575,4.8575,0,0,1,4.6485,6.2656l-.959,3.1621.624.0049,1.8076-6.1514a4.857,4.857,0,0,1,4.66-3.4863H94.3019A4.8568,4.8568,0,0,1,98.96,22.4472l-4.1895,14.18a4.86,4.86,0,0,1-.4531,1.0537L78.1163,65.7177a4.8556,4.8556,0,0,1-4.2051,2.4268Z"/><path class="b" d="M95.4317,68.1445a4.7719,4.7719,0,0,1-.7822-.0635,9.0344,9.0344,0,0,1-7.5312-8.9824,4.8534,4.8534,0,0,1,.1982-1.375L98.4786,19.9013a4.8563,4.8563,0,0,1,4.6582-3.4814h22.1485a4.8567,4.8567,0,0,1,4.6533,6.248c-2.0342,6.7989-3.8711,13.4063-5.4619,19.65h6.4922a4.8571,4.8571,0,0,1,4.6025,6.4073c-1.15,3.415-2.5147,7.581-4.0557,12.3886-.9258,5.1729-4.6836,7.03-7.959,7.03Z"/><path class="b" d="M133.8106,68.1445a4.8564,4.8564,0,0,1-4.6455-6.2754l12.8321-42.0117a4.8567,4.8567,0,0,1,4.6455-3.4375h26.9824c.1182,0,.2363.0039.3545.0127a18.2516,18.2516,0,0,1,3.1953.52c.0625.0166.124.0332.1846.0518a11.91,11.91,0,0,1,6.4013,4.3877,6.4383,6.4383,0,0,1,1.1954,4.0156c0,2.8955-.9571,9.2842-8.4239,33.1768-1.06,3.5791-4.0947,6.65-8.9951,9.0625a4.8632,4.8632,0,0,1-2.1445.498Zm21.3653-29.27a4.8106,4.8106,0,0,0,3.0976.8076,3.5912,3.5912,0,0,0,2.3516-.7178c.3506-.27.3506-.37.3506-.6367a2.1654,2.1654,0,0,0-.7012-1.7988,2.9507,2.9507,0,0,0-2.2353-.7861,3.0034,3.0034,0,0,0-2.3.8388,2.6806,2.6806,0,0,0-.958,1.4883A1.1572,1.1572,0,0,0,155.1759,38.874Z"/><path class="b" d="M176.9942,68.1445a4.857,4.857,0,0,1-4.6445-6.2783l12.832-41.9238A4.8567,4.8567,0,0,1,189.8,16.5078l26.6826-.1455a9.509,9.509,0,0,1,1.0586-.06,9.9281,9.9281,0,0,1,8.1543,4.2734,5.3535,5.3535,0,0,1,1.1553,3.4834c0,1.4161-.3623,4.1329-2.9951,14.3379a11.0509,11.0509,0,0,1-3.7217,5.4258c-.0615.0547-.1231.1084-.1836.1611a11.0929,11.0929,0,0,1,1.1289,4.6846,6.8865,6.8865,0,0,1-.292,1.9815l-2.9619,10.6308a4.86,4.86,0,0,1-.583,1.3067c-2.9268,4.5927-6.4873,5.5566-8.959,5.5566Zm13.792-14.8174c0,.2041,0,.3809.3692.7324a4.482,4.482,0,0,0,3.0947.8565,3.6752,3.6752,0,0,0,2.3828-.7129.6281.6281,0,0,0,.3194-.6709,2.1311,2.1311,0,0,0-.7012-1.7686,3.526,3.526,0,0,0-4.5117.0586,2.8386,2.8386,0,0,0-.9532,1.4678Zm6.1524-17.7832a.8852.8852,0,0,0,.3691.7617,4.5731,4.5731,0,0,0,3.0947.8272,3.7184,3.7184,0,0,0,2.3995-.711c.2255-.17.3027-.2265.3027-.6728a2.1343,2.1343,0,0,0-.7012-1.77,3.5276,3.5276,0,0,0-4.5117.0595,2.8382,2.8382,0,0,0-.9531,1.4678Z"/><path class="b" d="M32.5636,128.6845a4.8563,4.8563,0,0,1-4.6436-6.28l5.0391-16.4356q.0541-.1758.12-.3457c1.9385-4.9531,4.1074-8.2744,6.6328-10.1533a10.7459,10.7459,0,0,1,1.1543-.7227A4.8565,4.8565,0,0,1,38.12,89.1943l2.08-8.7891a4.8562,4.8562,0,0,1,4.7266-3.7382H73.4327a4.8949,4.8949,0,0,1,1.0059.1045A10.935,10.935,0,0,1,80.47,79.8232a9.2882,9.2882,0,0,1,2.2432,6.5049q0,.8905-.0674,2.0225a4.8482,4.8482,0,0,1-.1728,1.0234c-.65,2.3057-1.8233,5.6953-3.5889,10.3623-.0371.0967-.0762.1924-.1191.2861a9.8363,9.8363,0,0,1-2.9922,3.7715,4.8625,4.8625,0,0,1,1.7353,5.4717c-1.1777,3.4961-2.9346,8.8926-5.2207,16.042a4.8569,4.8569,0,0,1-4.626,3.3769Z"/><path class="b" d="M80.5519,128.6845a4.7831,4.7831,0,0,1-.7823-.0634,9.0346,9.0346,0,0,1-7.5312-8.9825,4.8438,4.8438,0,0,1,.2129-1.4228L83.0274,83.7041a4.8408,4.8408,0,0,1,.378-.8994,10.6741,10.6741,0,0,1,6.0605-5.28c.0362-.0117.0733-.0235.11-.0352a23.3387,23.3387,0,0,1,6.415-.5879h20.7129c.1074,0,.2158.003.3232.0108a9.8208,9.8208,0,0,1,3.252.792,12.0593,12.0593,0,0,1,5.4668,4.2949,6.507,6.507,0,0,1,1.1172,3.89c0,3.1-1.18,10.02-10.3809,36.2373a4.8475,4.8475,0,0,1-.4873,1.002c-2.9267,4.5928-6.5029,5.5566-8.9883,5.5566Zm16.56-29.27a4.757,4.757,0,0,0,3.0684.8067,3.6444,3.6444,0,0,0,2.3779-.7276c.3535-.27.3535-.36.3535-.6269a2.1455,2.1455,0,0,0-.7041-1.7871,2.9642,2.9642,0,0,0-2.2324-.7979,3.0922,3.0922,0,0,0-2.3252.8486,2.5144,2.5144,0,0,0-.9326,1.4463A1.142,1.142,0,0,0,97.1124,99.415Z"/><path class="b" d="M118.9308,128.6845a4.8563,4.8563,0,0,1-4.6436-6.28l5.0391-16.4356q.0541-.1758.12-.3457c1.9385-4.9531,4.1074-8.2744,6.6328-10.1533a10.736,10.736,0,0,1,1.1543-.7227,4.8565,4.8565,0,0,1-2.7461-5.5527l2.08-8.7891a4.8561,4.8561,0,0,1,4.7265-3.7382H159.8a4.8949,4.8949,0,0,1,1.0059.1045,10.935,10.935,0,0,1,6.0312,3.0517,9.2882,9.2882,0,0,1,2.2432,6.5049q0,.8905-.0674,2.0225a4.8419,4.8419,0,0,1-.1729,1.0234c-.6494,2.3057-1.8232,5.6953-3.5888,10.3623-.0371.0967-.0762.1924-.1192.2861a9.8351,9.8351,0,0,1-2.9921,3.7715,4.8625,4.8625,0,0,1,1.7353,5.4717c-1.1777,3.4961-2.9346,8.8926-5.2207,16.042a4.857,4.857,0,0,1-4.626,3.3769Z"/><path class="b" d="M166.919,128.6845a4.7828,4.7828,0,0,1-.7822-.0634,9.0346,9.0346,0,0,1-7.5312-8.9825,4.8438,4.8438,0,0,1,.2129-1.4228l10.5761-34.5117a4.8408,4.8408,0,0,1,.378-.8994,10.6741,10.6741,0,0,1,6.06-5.28c.0361-.0117.0733-.0235.11-.0352a23.3387,23.3387,0,0,1,6.415-.5879h20.7129c.1074,0,.2158.003.3232.0108a9.8208,9.8208,0,0,1,3.252.792,12.0593,12.0593,0,0,1,5.4668,4.2949,6.507,6.507,0,0,1,1.1172,3.89c0,3.1-1.18,10.02-10.3809,36.2373a4.8475,4.8475,0,0,1-.4873,1.002c-2.9268,4.5928-6.5029,5.5566-8.9883,5.5566ZM183.48,99.415a4.757,4.757,0,0,0,3.0684.8067,3.6444,3.6444,0,0,0,2.3779-.7276c.3535-.27.3535-.36.3535-.6269a2.1455,2.1455,0,0,0-.7041-1.7871,2.9642,2.9642,0,0,0-2.2324-.7979,3.0921,3.0921,0,0,0-2.3252.8486,2.5138,2.5138,0,0,0-.9326,1.4463A1.1416,1.1416,0,0,0,183.48,99.415Z"/><path class="b" d="M26.9122,186.67a4.8574,4.8574,0,0,1-4.6045-6.4033L26.28,168.4394H21.2062a4.8558,4.8558,0,0,1-4.6-6.415l7.3477-21.6807a4.855,4.855,0,0,1,4.5908-3.2978l31.9883-.0557a4.8571,4.8571,0,0,1,4.624,6.3428L58.171,165.0693a4.8565,4.8565,0,0,1-4.624,3.37H47.0851l-4.5664,14.8057a4.8581,4.8581,0,0,1-4.6416,3.4248Z"/><path class="b" d="M60.0939,186.67a4.8206,4.8206,0,0,1-.6172-.0391,7.7464,7.7464,0,0,1-4.9053-2.6513,8.0189,8.0189,0,0,1-1.9775-5.3672,4.8619,4.8619,0,0,1,.2128-1.4248l8.043-26.2168a4.9231,4.9231,0,0,1,.41-.9561,9.3559,9.3559,0,0,1,5.3076-4.5263c.041-.0127.082-.0254.123-.0372a19.03,19.03,0,0,1,5.1485-.4726H87.5919c.1406,0,.28.0058.4209.0176a8.9445,8.9445,0,0,1,2.6768.6679,10.1888,10.1888,0,0,1,4.7128,3.71c.0518.0732.1016.1484.15.2246a6.1462,6.1462,0,0,1,.8759,3.3535c0,2.4678-.8974,7.876-7.8955,27.9551a4.8209,4.8209,0,0,1-.5254,1.0654C85.46,185.8554,82.38,186.67,80.2442,186.67Zm13.62-24.1533a3.7719,3.7719,0,0,0,1.3261.19,1.7711,1.7711,0,0,0,.8965-.2021.4168.4168,0,0,0-.1377-.2041,1.1024,1.1024,0,0,0-.8984-.29c-.6787,0-.876.19-1.0059.3164C73.8214,162.3994,73.7618,162.4619,73.714,162.5166Z"/><path class="b" d="M112.5577,186.67a4.8561,4.8561,0,0,1-4.3789-2.7549l-2.6963-5.6182-.5586-.0039-1.6718,5.0469a4.8562,4.8562,0,0,1-4.61,3.33H89.3175a4.8567,4.8567,0,0,1-4.6445-6.2773l9.7695-31.9239a4.8575,4.8575,0,0,1,4.6445-3.4355c.0156,0,8.8135.084,8.8135.084a4.8583,4.8583,0,0,1,4.6143,3.4892l.041-.1279a4.8566,4.8566,0,0,1,4.6211-3.3613h7.7656a4.8555,4.8555,0,0,1,4.7168,6.0127l-4.9258,20.0947a4.6643,4.6643,0,0,1-.1729.5586,11.0274,11.0274,0,0,1-3.332,4.915l1.419,3.085a4.856,4.856,0,0,1-4.4121,6.8867Z"/><path class="b" d="M130.5362,186.67a4.8562,4.8562,0,0,1-4.6025-6.4082l2.7852-8.26c-4.0381-.0342-6.879-2.73-6.879-6.581a7.7622,7.7622,0,0,1,.6963-3.1211l4.8291-13.9942a4.8561,4.8561,0,0,1,4.5909-3.2724h9.1289a4.8564,4.8564,0,0,1,3.9052,1.9687c.0645.0879.126.1768.1846.2676a4.8582,4.8582,0,0,1,4.125-2.375s8.0225-.084,8.0391-.084a4.8559,4.8559,0,0,1,4.65,6.2569l-4.3418,14.4179c-.7344,2.6153-2.919,4.7168-6.4678,6.1592a4.8342,4.8342,0,0,1-1.7793.3574l-1.93.02-3.4394,11.2149a4.8573,4.8573,0,0,1-4.6436,3.4326Z"/><path class="b" d="M158.6192,186.67a4.82,4.82,0,0,1-.6171-.0391,7.7464,7.7464,0,0,1-4.9053-2.6513,8.019,8.019,0,0,1-1.9776-5.3672,4.862,4.862,0,0,1,.2129-1.4248l8.043-26.2168a4.917,4.917,0,0,1,.41-.9561,9.3556,9.3556,0,0,1,5.3076-4.5263c.041-.0127.082-.0254.123-.0372a19.03,19.03,0,0,1,5.1485-.4726h15.7529c.1406,0,.28.0058.4209.0176a8.9431,8.9431,0,0,1,2.6767.6679,10.1886,10.1886,0,0,1,4.7129,3.71c.0518.0732.1016.1484.15.2246a6.1462,6.1462,0,0,1,.8759,3.3535c0,2.4678-.8974,7.876-7.8955,27.9551a4.8209,4.8209,0,0,1-.5254,1.0654c-2.5468,3.8828-5.6269,4.6973-7.7627,4.6973Zm13.62-24.1533a3.7715,3.7715,0,0,0,1.3261.19,1.7711,1.7711,0,0,0,.8965-.2021.4168.4168,0,0,0-.1377-.2041,1.1024,1.1024,0,0,0-.8984-.29c-.6787,0-.876.19-1.0059.3164C172.3468,162.3994,172.2872,162.4619,172.2394,162.5166Z"/><path class="c" d="M73.9112,63.2881H63.2765L56.89,34.3427l3.9843-13.0664h12.07l-2.8418,9.375,10.7813.0879,2.8418-9.6679H94.3019l-4.19,14.18Z"/><path class="c" d="M95.4317,63.2881a4.0388,4.0388,0,0,1-2.4462-1.3916,4.1068,4.1068,0,0,1-1.0108-2.7979l11.1621-37.8223h22.1485Q122.1212,31.8525,119.66,41.55a12.0787,12.0787,0,0,0-.2344,2.3144q0,3.3107,2.1094,3.3106h9.4336q-1.7873,5.3027-4.1895,12.8027-.4687,3.31-3.2227,3.3106Z"/><path class="c" d="M171.8966,57.1357q-1.0254,3.457-6.5039,6.1524H133.8106l12.8321-42.0118h26.9824a13.3383,13.3383,0,0,1,2.3438.3809,7.1268,7.1268,0,0,1,3.8964,2.6367,1.8793,1.8793,0,0,1,.2344,1.1133Q180.1,30.8857,171.8966,57.1357ZM158.2735,44.5381a8.4516,8.4516,0,0,0,5.3174-1.7286,5.4054,5.4054,0,0,0,2.2412-4.4824,6.9961,6.9961,0,0,0-2.2412-5.3467,8.41,8.41,0,0,0-11.206.0879,7.2433,7.2433,0,0,0-2.461,4.79v.1465a6.0494,6.0494,0,0,0,1.875,4.3652A9.1693,9.1693,0,0,0,158.2735,44.5381Z"/><path class="c" d="M216.8087,21.2177a4.8256,4.8256,0,0,1,.7324-.0585,5.2634,5.2634,0,0,1,4.3653,2.4609q.0877.0586.0878.4394,0,2.1095-2.8418,13.125a6.8328,6.8328,0,0,1-2.2558,3.0176,9.4631,9.4631,0,0,1-4.2774,2.3731A6.9185,6.9185,0,0,1,215.1681,45.3a7.03,7.03,0,0,1,1.0547,3.3691,2.0308,2.0308,0,0,1-.0879.586l-2.9883,10.7226q-2.1095,3.31-4.8633,3.3106H176.9942l12.8321-41.9239ZM194.25,59.7724a8.5493,8.5493,0,0,0,5.3174-1.6992,5.4118,5.4118,0,0,0,2.2412-4.541,6.9625,6.9625,0,0,0-2.2412-5.3174,8.3682,8.3682,0,0,0-11.2061.1172,7.175,7.175,0,0,0-2.4316,4.7607v.2344a5.6719,5.6719,0,0,0,1.875,4.2481A8.9862,8.9862,0,0,0,194.25,59.7724Zm6.1523-17.7832a8.5994,8.5994,0,0,0,5.3174-1.6845,5.4012,5.4012,0,0,0,2.2412-4.5557,6.9621,6.9621,0,0,0-2.2412-5.3174,8.368,8.368,0,0,0-11.206.1172,7.1751,7.1751,0,0,0-2.4317,4.7607v.2344a5.7034,5.7034,0,0,0,1.875,4.2774A9.0607,9.0607,0,0,0,200.4024,41.9892Z"/><path class="d" d="M59.7218,90.3125H42.8468l2.08-8.7891H73.4327a6.4845,6.4845,0,0,1,3.4571,1.582,4.6409,4.6409,0,0,1,.9667,3.2227q0,.7617-.0585,1.7285-.9083,3.2227-3.4571,9.961Q72.4953,102.09,63.6476,102.09h-.2637a7.1934,7.1934,0,0,0-4.043.9668,4.38,4.38,0,0,0-1.582,2.2559q-.3808,1.2012-.6738,2.4023h15.82q-1.7871,5.3028-5.2442,16.1133H32.5636l5.039-16.4355q2.3731-6.0645,5.01-8.0274,1.875-1.3476,5.8594-1.4941h8.76q5.42-1.7871,5.42-4.1309a3.2665,3.2665,0,0,0-1.377-2.3144Q60.5421,90.8984,59.7218,90.3125Z"/><path class="d" d="M80.5519,123.8281a4.0383,4.0383,0,0,1-2.4463-1.3916,4.1068,4.1068,0,0,1-1.0108-2.7979L87.671,85.1269a5.8914,5.8914,0,0,1,3.31-2.9883,20.9577,20.9577,0,0,1,5.01-.3808h20.7129a5.0148,5.0148,0,0,1,1.7285.4394,7.2436,7.2436,0,0,1,3.3692,2.6368,1.948,1.948,0,0,1,.205,1.0546q0,5.83-10.1074,34.629-2.1093,3.31-4.8926,3.3105Zm19.6289-18.75a8.5137,8.5137,0,0,0,5.332-1.7285,5.3942,5.3942,0,0,0,2.2559-4.4824,6.9743,6.9743,0,0,0-2.2559-5.3467,7.8345,7.8345,0,0,0-5.5371-2.0947,7.9212,7.9212,0,0,0-5.669,2.1826,7.0956,7.0956,0,0,0-2.4462,4.79v.1465a6.0494,6.0494,0,0,0,1.875,4.3652A9.1256,9.1256,0,0,0,100.1808,105.0781Z"/><path class="d" d="M146.089,90.3125H129.214l2.08-8.7891H159.8a6.4838,6.4838,0,0,1,3.457,1.582,4.64,4.64,0,0,1,.9668,3.2227q0,.7617-.0586,1.7285-.9081,3.2227-3.457,9.961-1.8458,4.0722-10.6933,4.0722h-.2637a7.1932,7.1932,0,0,0-4.043.9668,4.379,4.379,0,0,0-1.582,2.2559q-.3809,1.2012-.6738,2.4023h15.82q-1.7871,5.3028-5.2442,16.1133H118.9308l5.039-16.4355q2.3731-6.0645,5.01-8.0274,1.875-1.3476,5.8594-1.4941h8.76q5.42-1.7871,5.42-4.1309a3.2665,3.2665,0,0,0-1.377-2.3144Q146.9093,90.8984,146.089,90.3125Z"/><path class="d" d="M166.919,123.8281a4.0383,4.0383,0,0,1-2.4462-1.3916,4.1068,4.1068,0,0,1-1.0108-2.7979l10.5762-34.5117a5.8911,5.8911,0,0,1,3.3105-2.9883,20.9577,20.9577,0,0,1,5.01-.3808h20.7129a5.0148,5.0148,0,0,1,1.7285.4394,7.2429,7.2429,0,0,1,3.3691,2.6368,1.9469,1.9469,0,0,1,.2051,1.0546q0,5.83-10.1074,34.629-2.1093,3.31-4.8926,3.3105Zm19.629-18.75a8.5137,8.5137,0,0,0,5.332-1.7285,5.3941,5.3941,0,0,0,2.2558-4.4824,6.9742,6.9742,0,0,0-2.2558-5.3467,7.8345,7.8345,0,0,0-5.5371-2.0947,7.9212,7.9212,0,0,0-5.669,2.1826,7.0962,7.0962,0,0,0-2.4463,4.79v.1465a6.0494,6.0494,0,0,0,1.875,4.3652A9.1259,9.1259,0,0,0,186.548,105.0781Z"/><path class="c" d="M26.9122,181.8134l6.1231-18.23H21.2062l7.3476-21.6807,31.9795-.0556L53.547,163.583H43.5l-5.623,18.23Z"/><path class="c" d="M60.0939,181.8134a2.91,2.91,0,0,1-1.8643-1.0292,3.1777,3.1777,0,0,1-.7793-2.1719l8.043-26.2168a4.5869,4.5869,0,0,1,2.56-2.2832,16.3836,16.3836,0,0,1,3.7852-.2774H87.5919a4.0892,4.0892,0,0,1,1.28.334,5.3958,5.3958,0,0,1,2.56,2.0039,1.5691,1.5691,0,0,1,.1387.7793q0,4.481-7.625,26.3565-1.6435,2.5048-3.7022,2.5048Zm14.9462-14.25a6.5207,6.5207,0,0,0,4.0352-1.3222,4.0606,4.0606,0,0,0,1.7539-3.3809,5.3727,5.3727,0,0,0-1.7119-4.1054,5.9408,5.9408,0,0,0-4.2168-1.6006,6.05,6.05,0,0,0-4.3838,1.6836,5.3671,5.3671,0,0,0-1.8223,3.66v.14a4.521,4.521,0,0,0,1.4473,3.2832A6.9424,6.9424,0,0,0,75.04,167.5634Z"/><path class="c" d="M99.087,149.89l8.7666.084L103.15,166.0605h8.8233l5.2041-16.0869h7.7656l-4.9258,20.0947q-1.2818,3.3955-3.4238,3.3955h-2.1992l3.8418,8.35h-5.6778l-4.0078-8.35-7.125-.0556-2.7832,8.4052H89.3175Z"/><path class="c" d="M157.339,149.667l-4.3418,14.4179q-.501,1.7813-3.6465,3.0606l-5.4824.0566-4.4805,14.6113h-8.8516l4.9268-14.6113-6.624-.0566q-2.143,0-2.1426-1.7246a3.2861,3.2861,0,0,1,.3613-1.336l4.8985-14.1953h9.1289l-2.1426,6.9863,8.21.2227,2.1983-7.3477Z"/><path class="c" d="M158.6192,181.8134a2.91,2.91,0,0,1-1.8642-1.0292,3.1777,3.1777,0,0,1-.7793-2.1719l8.043-26.2168a4.5866,4.5866,0,0,1,2.56-2.2832,16.3836,16.3836,0,0,1,3.7852-.2774h15.7529a4.09,4.09,0,0,1,1.28.334,5.3962,5.3962,0,0,1,2.56,2.0039,1.5691,1.5691,0,0,1,.1387.7793q0,4.481-7.625,26.3565-1.6435,2.5048-3.7022,2.5048Zm14.9463-14.25a6.5209,6.5209,0,0,0,4.0352-1.3222,4.0606,4.0606,0,0,0,1.7539-3.3809,5.3727,5.3727,0,0,0-1.7119-4.1054,5.9408,5.9408,0,0,0-4.2168-1.6006,6.05,6.05,0,0,0-4.3838,1.6836,5.3671,5.3671,0,0,0-1.8223,3.66v.14a4.521,4.521,0,0,0,1.4473,3.2832A6.9424,6.9424,0,0,0,173.5655,167.5634Z"/></svg>