<svg xmlns="http://www.w3.org/2000/svg" viewBox="0 0 566.9291 283.4646"><defs><style>.a{fill:#fff;opacity:0.7;}.b{fill:#231815;}.c{fill:none;stroke:#231815;stroke-linecap:round;stroke-linejoin:round;stroke-width:1.0207px;}.d{fill:#dcdddd;}</style></defs><title>vldb2020-eye-logo</title><path class="a" d="M333.6191,136.9783A89.5088,89.5088,0,1,1,230.0829,64.1491a89.5137,89.5137,0,0,1,103.5362,72.8292"/><path class="b" d="M23.4825,188.7013C76.45,155.4448,80.8276,150.76,107.06,132.9771S166.0082,92.08,222.2265,82.59s123.1151,3.6041,147.8671,5.867,68.6585,5.1954,100.777-12.1607,58.8282-32.689,72.5761-45.7652C516.0234,50.5849,473.27,75.1839,432.9229,78.4185c-28.2928,2.267-63.2927-3.4908-76.2077-6.0915-12.9169-2.6-57.7921-16.6855-113.3255-11.0094-54.9331,5.615-80.2812,14.0551-131.0306,54.9373s-88.8766,72.4464-88.8766,72.4464"/><path class="c" d="M23.4825,188.7013C76.45,155.4448,80.8276,150.76,107.06,132.9771S166.0082,92.08,222.2265,82.59s123.1151,3.6041,147.8671,5.867,68.6585,5.1954,100.777-12.1607,58.8282-32.689,72.5761-45.7652C516.0234,50.5849,473.27,75.1839,432.9229,78.4185c-28.2928,2.267-63.2927-3.4908-76.2077-6.0915-12.9169-2.6-57.7921-16.6855-113.3255-11.0094-54.9331,5.615-80.2812,14.0551-131.0306,54.9373S23.4825,188.7013,23.4825,188.7013Z"/><path class="b" d="M37.69,89.6976C69.6641,73.8839,124.9647,62.1449,147.8264,59.16c26.1626-3.4163,87.5824.5685,119.4651,10.39s92.1316,18.0164,105.7743,18.1164,57.1971-9.1833,67.8226-16.8222,32.2226-24.206,42.5031-33.824c-11.3758,9.8324-60.1194,36.0461-98.08,35.7153-38.1416-.3317-69.269-3.4183-132.81-23.8262-29.0411-9.3282-74.0979-7.1725-113.8145-.4981C106.4369,53.8322,37.69,89.6976,37.69,89.6976"/><path class="c" d="M37.69,89.6976C69.6641,73.8839,124.9647,62.1449,147.8264,59.16c26.1626-3.4163,87.5824.5685,119.4651,10.39s92.1316,18.0164,105.7743,18.1164,57.1971-9.1833,67.8226-16.8222,32.2226-24.206,42.5031-33.824c-11.3758,9.8324-60.1194,36.0461-98.08,35.7153-38.1416-.3317-69.269-3.4183-132.81-23.8262-29.0411-9.3282-74.0979-7.1725-113.8145-.4981C106.4369,53.8322,37.69,89.6976,37.69,89.6976Z"/><path class="b" d="M363.5557,84.326c12.9139-4.0266,52.9326-23.4976,62.07-31.8969,8.2146-7.55,11.8514-11.932,21.1275-22.3371-9.55,10.1591-36.8841,32.9412-72.823,44.1107Z"/><path class="c" d="M363.5557,84.326c12.9139-4.0266,52.9326-23.4976,62.07-31.8969,8.2146-7.55,11.8514-11.932,21.1275-22.3371-9.55,10.1591-36.8841,32.9412-72.823,44.1107Z"/><path class="b" d="M389.9565,85.8287c-.146,25.1951-8.7138,76.2036-15.49,91.2477,11.21-25.72,18.2481-58.6454,19.0269-68.9423s.7492-23.0515.7492-23.0515Z"/><path class="c" d="M389.9565,85.8287c-.146,25.1951-8.7138,76.2036-15.49,91.2477,11.21-25.72,18.2481-58.6454,19.0269-68.9423s.7492-23.0515.7492-23.0515Z"/><path class="b" d="M410.3676,88.978c-5.2281,25.9554-25.7646,74.7236-35.8787,88.2285,16.8977-23.2006,31.5142-60.4674,34.1863-67.9808s5.02-21.0561,5.02-21.0561Z"/><path class="c" d="M410.3676,88.978c-5.2281,25.9554-25.7646,74.7236-35.8787,88.2285,16.8977-23.2006,31.5142-60.4674,34.1863-67.9808s5.02-21.0561,5.02-21.0561Z"/><path class="b" d="M170.3689,274.3347c4.8565-6.5825,11.58-19.6373,20.37-19.2984,12.9261.497,34.4884,6.5131,41.0781,6.6417,11.9371.2337,35.1918-.1889,50.2053-5.23,17.2376-5.7884,33.6556-13.0864,46.2123-24.4948a282.3831,282.3831,0,0,0,22.3187-22.2952,214.3336,214.3336,0,0,0,12.624-17.5326,184.9789,184.9789,0,0,1-27.7018,37.3924c-1.6169,1.6617,1.3983,11.43,14.0214,31.9449-16.1853-19.2372-23.5936-22.9413-24.6275-22.0329a57.2376,57.2376,0,0,1-5.4087,4.2135c-2.2773,1.6954,4.094,13.4477,16.4179,29.4064-15.1441-15.139-26.376-22.7647-27.8641-21.9216-6.6846,3.7817-17.2724,9.02-24.998,11.044-33.21,8.7035-49.7705,6.5315-73.8642,1.6423-7.3735-1.4953-14.6522-3.3857-20.8927-2.8722-8.19.6746-17.8909,13.3926-17.8909,13.3926"/><path class="b" d="M170.3386,274.3754c2.7447-3.98,5.178-7.9706,8.1676-11.688a30.41,30.41,0,0,1,4.9964-5.05,11.7125,11.7125,0,0,1,6.5141-2.6548,52.1,52.1,0,0,1,7.0918.5226c2.3538.2807,4.6922.6675,7.0286,1.0615,4.6707.8013,9.3108,1.7587,13.953,2.6947,2.32.4695,4.6422.9349,6.9694,1.3595a47.26,47.26,0,0,0,7.0132.9075c4.733.0724,9.467.0377,14.197-.1409a165.5977,165.5977,0,0,0,28.17-3.1315c1.1575-.2348,2.3037-.5226,3.4439-.8268,1.1492-.2735,2.2679-.6471,3.3979-.99,2.2486-.7216,4.4788-1.5239,6.7019-2.3251,4.4452-1.6209,8.8413-3.3755,13.1436-5.3363a107.4923,107.4923,0,0,0,24.159-14.6593c1.8107-1.5116,3.5582-3.1009,5.2923-4.7146,1.7322-1.6117,3.46-3.2285,5.1617-4.8718q5.1168-4.9178,9.9958-10.0723c1.6188-1.7219,3.22-3.4684,4.77-5.2464,1.5168-1.7883,2.9213-3.7,4.3217-5.6027,2.7743-3.8276,5.4934-7.7083,8.0574-11.6737a.3478.3478,0,0,1,.596.3582,195.8833,195.8833,0,0,1-11.0276,17.3571,177.7462,177.7462,0,0,1-12.866,16.0464c-1.1421,1.28-2.3261,2.5222-3.51,3.7644-.3481.3572-.4818.4818-.5481.8737a4.13,4.13,0,0,0-.0225,1.1657,14.2153,14.2153,0,0,0,.491,2.44,60.8586,60.8586,0,0,0,3.84,9.4292c3.0028,6.1273,6.461,12.0341,10.0385,17.8572a.4443.4443,0,0,1-.7185.5185c-4.0257-4.7554-8.1779-9.4119-12.6394-13.7427a67.3727,67.3727,0,0,0-7.0418-6.0518c-.6257-.4481-1.2616-.8778-1.9169-1.2575a7.5588,7.5588,0,0,0-1.9893-.8676.9911.9911,0,0,0-.3675-.0224c-.0062.0051-.0367.003-.0174.004.0072.0011.02-.0275-.0326.0235l-.2205.1929-.8921.7707c-.5981.51-1.2248,1.0084-1.8617,1.4728l-1.8883,1.38-.4686.3471a.6433.6433,0,0,0-.2112.2511,2.0565,2.0565,0,0,0-.0878.9012,15.1726,15.1726,0,0,0,1.4075,4.2615,73.9713,73.9713,0,0,0,4.5473,8.1c3.3305,5.2515,7.004,10.2927,10.8041,15.2289a.5077.5077,0,0,1-.7615.6685A206.6943,206.6943,0,0,0,318.7059,258.2c-1.476-1.1748-2.9785-2.317-4.5177-3.3989a31.6618,31.6618,0,0,0-4.7677-2.8886,3.2778,3.2778,0,0,0-1.1218-.3317c-.0408-.0061-.0449.002-.0336.001,0,0,.0081-.0112-.0072-.0071l-.0775.0438-.31.1746-.6236.347-2.5058,1.3606q-2.5186,1.3335-5.0841,2.58c-3.4214,1.6586-6.8959,3.2111-10.4612,4.5584-1.7812.6737-3.5919,1.283-5.4363,1.7944-1.8444.494-3.6868.9207-5.5291,1.3841a175.6668,175.6668,0,0,1-22.4279,3.9767,117.0827,117.0827,0,0,1-22.7719.14,205.16,205.16,0,0,1-22.4769-3.5755c-3.7225-.7349-7.4144-1.6046-11.1307-2.3038a43.5167,43.5167,0,0,0-11.2461-.9288,13.5172,13.5172,0,0,0-5.2658,1.8373,29.008,29.008,0,0,0-4.6218,3.2529,64.3319,64.3319,0,0,0-7.95,8.1585m.0612-.0817c.0265-.0632.0082-.1051.0378-.1316l.11-.14.22-.28.4481-.5522.9166-1.0881q.9292-1.0779,1.9046-2.1149a50.5889,50.5889,0,0,1,4.1114-3.9368,29.0385,29.0385,0,0,1,4.6258-3.3275,13.8117,13.8117,0,0,1,5.3719-1.9312,43.8384,43.8384,0,0,1,11.3574.82c3.7419.6615,7.4328,1.527,11.1512,2.2364a204.9986,204.9986,0,0,0,22.433,3.45,116.3992,116.3992,0,0,0,22.6351-.2573,174.7,174.7,0,0,0,22.3013-4.0736c1.8291-.47,3.6786-.9084,5.4924-1.4055,1.8056-.51,3.5888-1.12,5.3485-1.7954,3.5194-1.3524,6.9642-2.9111,10.355-4.5779,1.6964-.8318,3.3744-1.7,5.0412-2.5874l2.4916-1.3525.6175-.345.3093-.1725a1.2478,1.2478,0,0,1,.5522-.1684,3.8806,3.8806,0,0,1,1.5964.4154,32.4079,32.4079,0,0,1,4.9453,2.99c1.5627,1.0983,3.0784,2.2517,4.5666,3.4367a207.3165,207.3165,0,0,1,16.8988,15.2871l-.7615.6685c-3.8123-4.9555-7.4991-10.0151-10.8552-15.3075a74.8844,74.8844,0,0,1-4.6105-8.2187,15.7381,15.7381,0,0,1-1.49-4.5992,2.9785,2.9785,0,0,1,.1776-1.3994,1.7682,1.7682,0,0,1,.2276-.3613,2.1014,2.1014,0,0,1,.2991-.2777l.4726-.3491,1.8944-1.3759c.6247-.4542,1.2217-.9247,1.8117-1.4259l.8829-.7574.2184-.1908a1.2127,1.2127,0,0,1,.2083-.145.8586.8586,0,0,1,.2541-.0969,1.8353,1.8353,0,0,1,.79.0132,8.2711,8.2711,0,0,1,2.2894.9881c.6941.4042,1.35.8512,1.9924,1.3136a68.2358,68.2358,0,0,1,7.1327,6.161c4.486,4.3788,8.6392,9.0638,12.6649,13.8448l-.7176.5195c-3.5714-5.8486-7.0245-11.7809-10.0305-17.9582a61.8147,61.8147,0,0,1-3.8684-9.5773,14.8013,14.8013,0,0,1-.5124-2.5864,4.8564,4.8564,0,0,1,.0388-1.3912,2.0594,2.0594,0,0,1,.2858-.739,4.77,4.77,0,0,1,.4726-.5328c1.18-1.233,2.36-2.4671,3.501-3.7379a177.2712,177.2712,0,0,0,12.8445-15.9494,195.442,195.442,0,0,0,11.0236-17.2683l.5961.3583c-2.5885,3.9828-5.3148,7.8573-8.1074,11.6911-1.4107,1.9077-2.8152,3.8144-4.3656,5.6353-1.5668,1.7883-3.1713,3.5306-4.8,5.2556q-4.8886,5.1673-10.04,10.0723c-1.7066,1.6433-3.4418,3.2591-5.18,4.8687-1.7362,1.61-3.4959,3.203-5.325,4.7239a108.1337,108.1337,0,0,1-24.3141,14.6848c-4.3227,1.9547-8.7352,3.7-13.1936,5.3127-2.2333.7962-4.4636,1.5913-6.7254,2.3109-1.1381.343-2.267.7155-3.4245.987-1.1483.3022-2.3007.589-3.4643.8207a166.0752,166.0752,0,0,1-28.2489,3.06c-4.7371.1653-9.4762.1857-14.2143.099a47.39,47.39,0,0,1-7.06-.9309c-2.33-.4328-4.6513-.9054-6.97-1.382-4.64-.9483-9.2751-1.92-13.9387-2.7335-2.3323-.4-4.6677-.7931-7.0153-1.08a52.0921,52.0921,0,0,0-7.0581-.542,11.555,11.555,0,0,0-6.4233,2.6008,30.2123,30.2123,0,0,0-4.9831,5.0106c-1.4922,1.8352-2.858,3.77-4.1879,5.7282l-1.9843,2.9457-1.0043,1.4657c-.3277.489-.6747.8972-1.0422,1.3759"/><path class="b" d="M230.3551,62.3605c-.6512.099-1.3014.2011-1.9537.3154A88.5836,88.5836,0,0,0,156.32,165.1391c.1134.6522.2368,1.2993.3644,1.9454a92.541,92.541,0,0,1,73.67-104.724"/><path class="c" d="M230.3551,62.3605c-.6512.099-1.3014.2011-1.9537.3154A88.5836,88.5836,0,0,0,156.32,165.1391c.1134.6522.2368,1.2993.3644,1.9454A92.541,92.541,0,0,1,230.3551,62.3605Z"/><path class="b" d="M232.3019,61.9961c-.6523.1133-1.2994.2378-1.9465.3644a88.5827,88.5827,0,1,1-73.67,104.724c.1.6512.201,1.3035.3154,1.9557a92.5436,92.5436,0,0,0,107.0441,75.3023c50.3533-8.7647,84.7917-65.3759,76.0259-115.73S282.6561,53.2313,232.3019,61.9961"/><path class="c" d="M232.3019,61.9961c-.6523.1133-1.2994.2378-1.9465.3644a88.5827,88.5827,0,1,1-73.67,104.724c.1.6512.201,1.3035.3154,1.9557a92.5436,92.5436,0,0,0,107.0441,75.3023c50.3533-8.7647,84.7917-65.3759,76.0259-115.73S282.6561,53.2313,232.3019,61.9961Z"/><path class="b" d="M240.4964,98.7664c-.4236.0644-.8472.1307-1.2718.2052a57.6647,57.6647,0,0,0-46.9207,66.6978c.0735.4246.1551.8461.2378,1.2667a60.238,60.238,0,0,1,47.9547-68.17"/><path class="c" d="M240.4964,98.7664c-.4236.0644-.8472.1307-1.2718.2052a57.6647,57.6647,0,0,0-46.9207,66.6978c.0735.4246.1551.8461.2378,1.2667A60.238,60.238,0,0,1,240.4964,98.7664Z"/><path class="b" d="M239.372,98.9457c-.4073.07-.8125.1491-1.2157.2276a55.3383,55.3383,0,1,1-46.0224,65.422c.0612.4072.1255.8135.1959,1.2217A57.8132,57.8132,0,1,0,239.372,98.9457"/><path class="c" d="M259.471,149.8882a14.2457,14.2457,0,1,1-16.4782-11.5911A14.2465,14.2465,0,0,1,259.471,149.8882Z"/><path class="b" d="M153.624,263.2305c4.1216-5.5036,4.4737-5.2964,7.2888-8.07,1.6821-1.6566,5.8384-3.5061,2.5732-5.617-4.1308-2.6711-9.862,13.6866-9.862,13.6866"/><path class="b" d="M153.89,262.5874a1.4679,1.4679,0,0,0-.0041-.31.31.31,0,0,1,.0541-.2837l.6992-.884c.4858-.5991.9686-1.1983,1.479-1.7821a32.6223,32.6223,0,0,1,3.2989-3.2642c.5828-.5114,1.0778-1.034,1.7076-1.5627.6124-.4971,1.2432-.9278,1.83-1.3963a4.1525,4.1525,0,0,0,1.39-1.576c.2664-.5961-.2194-1.1973-.7931-1.6178a1.7891,1.7891,0,0,0-.9064-.4144,1.9775,1.9775,0,0,0-.988.2113,5.6045,5.6045,0,0,0-1.6944,1.3994,22.4886,22.4886,0,0,0-2.5436,3.7735,63.7771,63.7771,0,0,0-3.5295,7.7073m-.4,1.0278.1347-.3847a65.29,65.29,0,0,1,3.57-8.4709,22.7127,22.7127,0,0,1,2.4783-3.9021,5.9668,5.9668,0,0,1,1.7872-1.55,2.4207,2.4207,0,0,1,1.2238-.2879,2.27,2.27,0,0,1,1.17.48,2.8585,2.8585,0,0,1,.88.886,1.5109,1.5109,0,0,1,.1572,1.3208,4.6262,4.6262,0,0,1-1.5311,1.8914c-.5971.5032-1.2187.9553-1.7821,1.44-.5338.47-1.084,1.0707-1.6392,1.5851a31.8876,31.8876,0,0,0-3.1377,3.2816c-.4828.5828-.9452,1.1891-1.4065,1.7933l-.7012.937a2.9993,2.9993,0,0,1-.637.6329c-.2061.147-.4011.25-.5664.348"/><path class="b" d="M160.53,270.7263c5.7557-7.6839,6.2467-7.396,10.1774-11.2675,2.3486-2.314,8.1523-4.8953,3.5938-7.8431-5.7679-3.73-13.7712,19.1106-13.7712,19.1106"/><path class="b" d="M160.8431,269.959c.0316-.1368.07-.2613.0847-.3674a.8867.8867,0,0,1,.1919-.4655l.9768-1.2452c.6716-.837,1.3432-1.676,2.0516-2.49a45.3965,45.3965,0,0,1,4.5727-4.5626c.8084-.7144,1.5117-1.46,2.3722-2.1853.8441-.692,1.7239-1.2983,2.5456-1.96a5.87,5.87,0,0,0,1.9679-2.2629c.39-.9013-.345-1.7924-1.1534-2.3752a2.5767,2.5767,0,0,0-1.32-.591,2.8379,2.8379,0,0,0-1.4269.31,7.93,7.93,0,0,0-2.3844,1.9832,31.5473,31.5473,0,0,0-3.5387,5.2954,89.1653,89.1653,0,0,0-4.94,10.9154m-.444,1.1371.1306-.3695a91.0281,91.0281,0,0,1,5.03-11.8044,31.7412,31.7412,0,0,1,3.4725-5.423,8.3092,8.3092,0,0,1,2.4772-2.1353,3.3125,3.3125,0,0,1,1.6638-.3859,3.0656,3.0656,0,0,1,1.581.6574,3.7213,3.7213,0,0,1,.6492.5318,2.6364,2.6364,0,0,1,.544.6757,1.94,1.94,0,0,1,.2062,1.7556,6.3511,6.3511,0,0,1-2.1108,2.5783c-.8309.6961-1.7025,1.3228-2.4977,2.0026-.7634.6675-1.5208,1.4912-2.3017,2.21a44.34,44.34,0,0,0-4.4135,4.5789c-.6787.8135-1.3289,1.6586-1.9791,2.5007l-.9789,1.2983a4.6316,4.6316,0,0,1-.7736.8145c-.2532.2032-.492.3624-.6992.5145"/><path class="b" d="M179.46,211.0646c-3.1234-9.81-13.02-23.4129,2.5232-36.0676s31.0589-13.1,37.325-18.8135,20.1507-18.6156,19.7975-31.46-5.5587-14.6277,1.2463-22.8025,25.7728-3.2958,37.8987-2.8416,16.7987-12.864,22.3024-10.5949A23.1689,23.1689,0,0,0,311.06,90.15s-35.2633-29.581-50.1982-28.8839-59.3324-1.3626-84.0354,32.9707-22.1227,64.7983-19.3035,78.1011S179.46,211.0646,179.46,211.0646"/><path class="c" d="M179.46,211.0646c-3.1234-9.81-13.02-23.4129,2.5232-36.0676s31.0589-13.1,37.325-18.8135,20.1507-18.6156,19.7975-31.46-5.5587-14.6277,1.2463-22.8025,25.7728-3.2958,37.8987-2.8416,16.7987-12.864,22.3024-10.5949A23.1689,23.1689,0,0,0,311.06,90.15s-35.2633-29.581-50.1982-28.8839-59.3324-1.3626-84.0354,32.9707-22.1227,64.7983-19.3035,78.1011S179.46,211.0646,179.46,211.0646Z"/><path class="b" d="M50.0835,46.556C68.402,37.232,156.76,7.2784,239.9127,13.5118S352.94,28.3518,369.74,32.33,497.4022,69.5535,505.721,73.28,363.2278,25.1591,306.6493,17.367c72.1484,13.5182,117.7645,21.8849,164.0269,30.5823C414.0241,35.1212,323.2928,13.1648,269.559,11.104c0,0-71.0031-5.42-119.4252,4.3145C75.6725,30.3871,50.0835,46.556,50.0835,46.556"/><path class="c" d="M50.0835,46.556C68.402,37.232,156.76,7.2784,239.9127,13.5118S352.94,28.3518,369.74,32.33,497.4022,69.5535,505.721,73.28,363.2278,25.1591,306.6493,17.367c72.1484,13.5182,117.7645,21.8849,164.0269,30.5823C414.0241,35.1212,323.2928,13.1648,269.559,11.104c0,0-71.0031-5.42-119.4252,4.3145C75.6725,30.3871,50.0835,46.556,50.0835,46.556Z"/><path class="b" d="M297.87,143.2043a53.222,53.222,0,1,0-43.3064,61.5616A53.2218,53.2218,0,0,0,297.87,143.2043Zm-49.99,23.1621a14.2458,14.2458,0,1,1,11.5912-16.4782A14.2465,14.2465,0,0,1,247.88,166.3664Z"/><path class="d" d="M174.9649,162.4961l.4454,3.88-10.293,3.5415-4.9346-.9068-.5049-4.4033,3.5391.6441-.4189-3.937-3.6465-.6319-.4424-3.8589,5.3486.9351Z"/><path class="d" d="M174.4894,152.5908a1.4791,1.4791,0,0,1-.6241.8233,1.5087,1.5087,0,0,1-1.0673.2329l-13.23-5.8911,1.07-8.063q3.6972,1.6633,7.1084,3.0273a4.412,4.412,0,0,0,.831.1973q1.2055.16,1.3067-.6079l.456-3.4341q1.8443.9067,4.458,2.1435,1.1837.3311,1.05,1.3331Z"/><path class="d" d="M179.9269,123.0483a4.1533,4.1533,0,0,1,1.2041,3.0591l-4.3291,10.76-12.5538-10.13,3.6983-9.1924a4.9108,4.9108,0,0,1,.4512-.7465,2.6194,2.6194,0,0,1,1.4326-.9659.6891.6891,0,0,1,.4111.0728Q172.1076,116.6556,179.9269,123.0483Zm-6.1592,2.9146a3.11,3.11,0,0,0,.14-2.0483,1.9868,1.9868,0,0,0-1.22-1.3785,2.5717,2.5717,0,0,0-2.1289.0308,3.0885,3.0885,0,0,0-1.5059,3.83,2.6578,2.6578,0,0,0,1.294,1.4951l.05.02a2.2223,2.2223,0,0,0,1.7441-.04A3.3682,3.3682,0,0,0,173.7677,125.9629Z"/><path class="d" d="M179.7892,99.63a1.6865,1.6865,0,0,1,.1416-.23,1.9324,1.9324,0,0,1,1.6757-.7593q.0367-.0132.1495.0693a32.5582,32.5582,0,0,1,3.2724,3.6895,2.5062,2.5062,0,0,1,.4043,1.3228,3.4692,3.4692,0,0,1-.2246,1.7822,2.5483,2.5483,0,0,1,1.36-.1641,2.5892,2.5892,0,0,1,1.2275.4185.7519.7519,0,0,1,.1543.1533l2.5283,3.2114a2.1678,2.1678,0,0,1-.0742,2.1592l-6.7881,9.271-9.6377-12.8975Zm2.5947,9.3672a3.1607,3.1607,0,0,0,.6553-1.941,1.9833,1.9833,0,0,0-.8643-1.6523,2.5555,2.5555,0,0,0-2.0615-.49,3.0727,3.0727,0,0,0-2.3965,3.3457,2.634,2.634,0,0,0,.8828,1.7534l.0693.0508a2.0964,2.0964,0,0,0,1.6749.3725A3.325,3.325,0,0,0,182.3839,108.9976Zm3.9346,5.6811a3.137,3.137,0,0,0,.65-1.9443,1.987,1.987,0,0,0-.8594-1.649,2.5567,2.5567,0,0,0-2.0615-.49,3.0727,3.0727,0,0,0-2.3965,3.3457,2.6335,2.6335,0,0,0,.8828,1.7534l.0693.0508a2.0837,2.0837,0,0,0,1.666.3662A3.3015,3.3015,0,0,0,186.3185,114.6787Z"/><path class="d" d="M194.0812,90.58l-4.7735,3.9516-1.47-2.9731,8.0635-6.6753a2.3793,2.3793,0,0,1,1.3486-.3618,1.706,1.706,0,0,1,1.0283.685q.1788.2154.3877.503.498,1.1243,1.3555,3.6269.4306,1.5843-2.0723,3.6563l-.0742.0615a2.635,2.635,0,0,0-.917,1.22,1.61,1.61,0,0,0,.08,1.0088q.1743.4292.3721.8374l4.4755-3.7046q.737,1.9182,2.29,5.7861l-9.9287,8.2188-2.4239-5.83a6.76,6.76,0,0,1-.4619-3.4438,3.9777,3.9777,0,0,1,1.3076-1.7945l2.4776-2.0512q1.1148-1.7746.5664-2.438a1.2006,1.2006,0,0,0-.9316-.3321C194.5606,90.5464,194.3273,90.563,194.0812,90.58Z"/><path class="d" d="M209.6105,94.5581a1.4832,1.4832,0,0,1-1.03-.0771,1.5107,1.5107,0,0,1-.7754-.77l-1.918-13.1162a2.1655,2.1655,0,0,1,.6289-1.5122,7.7407,7.7407,0,0,1,1.6026-.9145l6.874-3.2574a1.8424,1.8424,0,0,1,.6426-.1259,2.6562,2.6562,0,0,1,1.5322.3452.7179.7179,0,0,1,.2344.3178q.9169,1.9351,2.0918,13.0811a2.177,2.177,0,0,1-1.1035,1.8682Zm3.5654-9.31a3.1262,3.1262,0,0,0,1.498-1.4121,1.984,1.984,0,0,0,.044-1.8423,2.5647,2.5647,0,0,0-1.59-1.4194,2.8778,2.8778,0,0,0-2.167.1758,2.9108,2.9108,0,0,0-1.538,1.6157,2.6024,2.6024,0,0,0-.0586,1.9741l.0234.0489a2.2211,2.2211,0,0,0,1.3086,1.1538A3.35,3.35,0,0,0,213.1759,85.2485Z"/><path class="d" d="M231.5206,73.9731l-6.084,1.1807.1348-3.3144,10.2773-1.9937a2.3781,2.3781,0,0,1,1.3565.3281,1.7088,1.7088,0,0,1,.5742,1.0943q.0528.2746.1.6274-.1026,1.2254-.55,3.8325-.3793,1.5975-3.57,2.2163l-.0947.0186a2.6391,2.6391,0,0,0-1.39.6313,1.6124,1.6124,0,0,0-.4131.9239c-.0351.3066-.06.6108-.0742.9131l5.7031-1.1065q-.2739,2.0368-.7636,6.1758l-12.6524,2.4551.667-6.2779a6.765,6.765,0,0,1,1.2442-3.2441,3.9822,3.9822,0,0,1,2.0078-.9487l3.1582-.6128q1.8281-1.0233,1.665-1.8682a1.2,1.2,0,0,0-.6582-.7383Z"/><path class="d" d="M243.2491,84.9175a1.4806,1.4806,0,0,1-.8681-.56,1.5006,1.5006,0,0,1-.3145-1.0459L246.6407,70.87a2.1623,2.1623,0,0,1,1.2744-1.0288,7.7022,7.7022,0,0,1,1.8448-.0386l7.5947.418a1.8479,1.8479,0,0,1,.625.1963,2.6627,2.6627,0,0,1,1.1826,1.0347.7246.7246,0,0,1,.0537.3911q-.1171,2.138-4.4053,12.4936a2.1756,2.1756,0,0,1-1.86,1.1148Zm7.5762-6.479a3.1246,3.1246,0,0,0,1.99-.5264,1.9822,1.9822,0,0,0,.918-1.5981,2.5634,2.5634,0,0,0-.72-2.0059,2.8761,2.8761,0,0,0-1.9883-.88,2.9072,2.9072,0,0,0-2.1221.6861,2.6059,2.6059,0,0,0-.9941,1.707l-.0029.0537a2.22,2.22,0,0,0,.6,1.6382A3.35,3.35,0,0,0,250.8253,78.4385Z"/><path class="d" d="M201.4064,139.6963l-5.6094-4.59-1.5781,4.17-6.6622-5.4824,4.2461-11.28,6.7305,5.3618-1.3408,3.542,5.6767,4.4136Z"/><path class="d" d="M205.6192,129.498a1.1,1.1,0,0,1-.7265.3414,1.1967,1.1967,0,0,1-.835-.2427l-6.2226-8.2534a1.7314,1.7314,0,0,1-.13-1.2862,6.1587,6.1587,0,0,1,.7529-1.2168l3.4834-4.8071a1.5547,1.5547,0,0,1,.3858-.3169,2.0386,2.0386,0,0,1,1.1777-.3384.5943.5943,0,0,1,.2685.13q1.3681.9909,6.3565,8.1567a1.7217,1.7217,0,0,1-.0537,1.6836Zm-1.0429-7.7128a2.4661,2.4661,0,0,0,.4892-1.524,1.5325,1.5325,0,0,0-.6445-1.2832,2.0256,2.0256,0,0,0-1.6318-.3857,2.2428,2.2428,0,0,0-1.4209.9331,2.28,2.28,0,0,0-.4551,1.71,2.0215,2.0215,0,0,0,.7139,1.3657l.0419.0307a1.7045,1.7045,0,0,0,1.3223.2847A2.62,2.62,0,0,0,204.5763,121.7852Z"/><path class="d" d="M205.963,110.2178l2.5254-2.13,2.6084,5.7534,2.5215-2.1679-2.4649-5.876,2.2188-1.9082,3.53,6.9536q.4674,1.2846-.1445,1.8115l-.6279.54,3.1494,1.4424-1.623,1.3955-3.1973-1.4018-2.05,1.7348,1.2695,3.086-2.664,2.291Z"/><path class="d" d="M225.339,97.71l1.0312,5.58a2.0886,2.0886,0,0,1-.6943,1.6547l-1.8272.9644,1.0176,5.6694-2.9658,1.5264-.8691-5.7461-2.23,1.1235q-.7179.37-1.0157-.2085a1.2481,1.2481,0,0,1-.1093-.51l-.8057-5.6016,3.0586-1.5747.4873,2.711,2.79-1.3414-.53-2.8418Z"/><path class="d" d="M229.9269,109.1206a1.0969,1.0969,0,0,1-.7745-.2114,1.1949,1.1949,0,0,1-.4785-.7256l.6143-10.3179a1.7282,1.7282,0,0,1,.7344-1.0635,6.1689,6.1689,0,0,1,1.3623-.4384l5.77-1.4009a1.5417,1.5417,0,0,1,.498.0083,2.0407,2.0407,0,0,1,1.1163.5063.5992.5992,0,0,1,.12.273q.3984,1.6413-.4492,10.3315a1.7184,1.7184,0,0,1-1.1329,1.2466Zm4.206-6.5483a2.4611,2.4611,0,0,0,1.3613-.8428,1.5311,1.5311,0,0,0,.3409-1.3945,2.0238,2.0238,0,0,0-.9912-1.3516,2.2423,2.2423,0,0,0-1.6875-.2109,2.276,2.276,0,0,0-1.4551,1.0063,2.0239,2.0239,0,0,0-.3428,1.5029l.0127.0508a1.7047,1.7047,0,0,0,.8223,1.0742A2.6166,2.6166,0,0,0,234.1329,102.5723Z"/></svg>